<svg width="145" height="36" viewBox="0 0 145 36" fill="none" xmlns="http://www.w3.org/2000/svg">
<path d="M22.796 23.2777C22.796 24.5722 22.2818 25.8136 21.3665 26.7289C20.4512 27.6442 19.2098 28.1584 17.9153 28.1584C16.6209 28.1584 15.3795 27.6442 14.4642 26.7289C13.5489 25.8136 13.0347 24.5722 13.0347 23.2777C13.0347 23.1573 13.0444 23.0402 13.0526 22.9222C12.5521 22.634 11.9846 22.4827 11.4071 22.4836C10.8296 22.4844 10.2626 22.6374 9.76299 22.9271C9.77112 23.0434 9.78088 23.159 9.78088 23.2777C9.78327 24.487 9.33754 25.6542 8.52977 26.5541C7.72199 27.454 6.60946 28.0227 5.40696 28.1504C4.20447 28.2782 2.99729 27.9558 2.01852 27.2457C1.03974 26.5355 0.358776 25.488 0.1071 24.3052C-0.144576 23.1224 0.0508865 21.8883 0.655748 20.8412C1.26061 19.7941 2.23197 19.0082 3.38229 18.6353C4.53261 18.2624 5.78031 18.3288 6.88448 18.8219C7.98865 19.315 8.87099 20.1996 9.36114 21.3051C10.0046 21.0146 10.7024 20.8639 11.4085 20.8631C12.1145 20.8622 12.8127 21.0112 13.4568 21.3002C13.9115 20.2794 14.7026 19.4455 15.6981 18.9379C16.6936 18.4302 17.8332 18.2796 18.9264 18.511C20.0196 18.7425 21.0003 19.3421 21.7046 20.2097C22.4089 21.0773 22.7942 22.1603 22.796 23.2777ZM0.832971 17.5836H21.9826C22.1983 17.5836 22.4052 17.4979 22.5578 17.3453C22.7103 17.1928 22.796 16.9859 22.796 16.7701C22.796 16.5544 22.7103 16.3475 22.5578 16.195C22.4052 16.0424 22.1983 15.9567 21.9826 15.9567H0.832971C0.617232 15.9567 0.410328 16.0424 0.257778 16.195C0.105227 16.3475 0.0195247 16.5544 0.0195247 16.7701C0.0195247 16.9859 0.105227 17.1928 0.257778 17.3453C0.410328 17.4979 0.617232 17.5836 0.832971 17.5836ZM5.71365 15.1433H17.1019C17.2278 15.1432 17.352 15.1139 17.4646 15.0577C17.5773 15.0015 17.6754 14.92 17.7511 14.8194C17.8269 14.7189 17.8783 14.6021 17.9013 14.4784C17.9243 14.3546 17.9182 14.2271 17.8836 14.1061L16.2567 8.41198C16.2004 8.21505 16.0719 8.04661 15.8968 7.9403C15.7218 7.83399 15.513 7.79763 15.3123 7.8385L11.4078 8.62022L7.50323 7.8385C7.3029 7.79857 7.09488 7.83548 6.92051 7.94188C6.74614 8.04828 6.61819 8.21638 6.56207 8.4128L4.93518 14.1069C4.90078 14.2276 4.89479 14.3547 4.91768 14.4781C4.94057 14.6015 4.99171 14.718 5.0671 14.8184C5.1425 14.9187 5.2401 15.0003 5.35226 15.0567C5.46443 15.113 5.58812 15.1427 5.71365 15.1433Z" fill="#3EAAFF"/>
<path d="M31.1241 14C30.9681 14 30.8901 13.9428 30.8901 13.8284C30.8901 13.7348 30.9577 13.6725 31.0929 13.6413L31.4516 13.5789C31.67 13.5373 31.8103 13.4801 31.8727 13.4073C31.9455 13.3345 31.9819 13.1889 31.9819 12.9706V3.79938C31.9819 3.58102 31.9455 3.43544 31.8727 3.36265C31.8103 3.28987 31.67 3.23268 31.4516 3.19108L31.0929 3.12869C30.9577 3.0975 30.8901 3.03511 30.8901 2.94153C30.8901 2.82715 30.9681 2.76996 31.1241 2.76996H34.2903C34.8102 2.76996 35.2729 2.87914 35.6785 3.0975C36.084 3.31586 36.4011 3.61221 36.6299 3.98655C36.8691 4.36088 36.9886 4.78721 36.9886 5.26552C36.9886 5.73344 36.8483 6.17016 36.5675 6.57569C36.2972 6.97082 35.902 7.30357 35.3821 7.57392C35.3197 7.60511 35.2885 7.64671 35.2885 7.6987C35.2885 7.75069 35.3249 7.78708 35.3977 7.80788C36.1048 8.04704 36.6507 8.43177 37.0354 8.96208C37.4202 9.48199 37.6125 10.1007 37.6125 10.8182C37.6125 11.4316 37.4722 11.9828 37.1914 12.4715C36.9106 12.9498 36.5207 13.3241 36.0216 13.5945C35.5329 13.8648 34.9766 14 34.3527 14H31.1241ZM33.916 7.58952C34.4671 7.58952 34.9246 7.37635 35.2885 6.95003C35.6629 6.5133 35.85 5.9726 35.85 5.32791C35.85 4.68322 35.6733 4.16331 35.3197 3.76818C34.9662 3.36265 34.4983 3.15989 33.916 3.15989C33.3649 3.15989 33.0893 3.36785 33.0893 3.78378V6.73167C33.0893 7.03321 33.1517 7.25158 33.2765 7.38675C33.4117 7.52193 33.6248 7.58952 33.916 7.58952ZM34.1499 13.6101C34.8258 13.6101 35.3769 13.3553 35.8032 12.8458C36.2296 12.3259 36.4427 11.6344 36.4427 10.7714C36.4427 9.90831 36.2244 9.22723 35.7876 8.72812C35.3613 8.22901 34.7842 7.97945 34.0563 7.97945C33.4117 7.97945 33.0893 8.2342 33.0893 8.74372V12.5339C33.0893 13.2513 33.4429 13.6101 34.1499 13.6101ZM38.2945 14C38.1386 14 38.0606 13.9428 38.0606 13.8284C38.0606 13.7348 38.1282 13.6725 38.2633 13.6413L38.6221 13.5789C38.8404 13.5373 38.9808 13.4801 39.0432 13.4073C39.116 13.3345 39.1524 13.1889 39.1524 12.9706V3.79938C39.1524 3.58102 39.116 3.43544 39.0432 3.36265C38.9808 3.28987 38.8404 3.23268 38.6221 3.19108L38.2633 3.12869C38.1282 3.0975 38.0606 3.03511 38.0606 2.94153C38.0606 2.82715 38.1386 2.76996 38.2945 2.76996H41.1177C41.2736 2.76996 41.3516 2.82715 41.3516 2.94153C41.3516 3.03511 41.284 3.0975 41.1488 3.12869L40.7901 3.19108C40.5717 3.23268 40.4262 3.28987 40.3534 3.36265C40.291 3.43544 40.2598 3.58102 40.2598 3.79938V12.9706C40.2598 13.1889 40.291 13.3345 40.3534 13.4073C40.4262 13.4801 40.5717 13.5373 40.7901 13.5789L41.1488 13.6413C41.284 13.6725 41.3516 13.7348 41.3516 13.8284C41.3516 13.9428 41.2736 14 41.1177 14H38.2945ZM46.0312 14.1404C45.1889 14.1404 44.4766 13.9012 43.8943 13.4229C43.312 12.9446 42.8701 12.2739 42.5686 11.4109C42.267 10.5374 42.1162 9.50798 42.1162 8.32259C42.1162 7.17879 42.293 6.18056 42.6465 5.32791C43.0001 4.46486 43.4836 3.79938 44.0971 3.33146C44.721 2.85314 45.4333 2.61398 46.2339 2.61398C46.6395 2.61398 47.0086 2.65558 47.3413 2.73876C47.6741 2.81155 47.9652 2.91033 48.2148 3.03511C48.35 3.1079 48.4175 3.21708 48.4175 3.36265L48.4643 5.73344C48.4643 5.91021 48.4019 5.99859 48.2772 5.99859C48.1628 5.99859 48.09 5.93101 48.0588 5.79583L47.934 5.32791C47.7053 4.46486 47.4453 3.87216 47.1542 3.54982C46.863 3.22748 46.4627 3.06631 45.9532 3.06631C45.1941 3.06631 44.565 3.51863 44.0659 4.42327C43.5772 5.31751 43.3328 6.61729 43.3328 8.32259C43.3328 10.0799 43.5824 11.4212 44.0815 12.3467C44.591 13.2617 45.2409 13.7192 46.0312 13.7192C46.4575 13.7192 46.7798 13.6257 46.9982 13.4385C47.2166 13.2513 47.3257 12.903 47.3257 12.3935V8.97767C47.3257 8.75931 47.2893 8.60854 47.2166 8.52535C47.1542 8.44217 47.0138 8.39018 46.7954 8.36938L46.1871 8.30699C46.052 8.29659 45.9844 8.2342 45.9844 8.11982C45.9844 8.00544 46.0624 7.94825 46.2183 7.94825H49.0726C49.2286 7.94825 49.3066 8.01064 49.3066 8.13542C49.3066 8.22901 49.2494 8.2862 49.135 8.30699L48.9011 8.33819C48.6723 8.36938 48.5371 8.43177 48.4955 8.52535C48.4539 8.61894 48.4331 8.77491 48.4331 8.99327V13.2201C48.4331 13.3345 48.4019 13.4281 48.3396 13.5009C48.2772 13.5633 48.168 13.6361 48.012 13.7192C47.7625 13.844 47.4765 13.9428 47.1542 14.0156C46.8318 14.0988 46.4575 14.1404 46.0312 14.1404ZM52.4948 14C52.3388 14 52.2608 13.9428 52.2608 13.8284C52.2608 13.7348 52.3284 13.6725 52.4636 13.6413L52.8223 13.5789C53.0407 13.5373 53.1811 13.4801 53.2434 13.4073C53.3162 13.3345 53.3526 13.1889 53.3526 12.9706V3.79938C53.3526 3.58102 53.3162 3.43544 53.2434 3.36265C53.1811 3.28987 53.0407 3.23268 52.8223 3.19108L52.4636 3.12869C52.3284 3.0975 52.2608 3.03511 52.2608 2.94153C52.2608 2.82715 52.3388 2.76996 52.4948 2.76996H55.7546C56.3681 2.76996 56.9088 2.90513 57.3767 3.17549C57.8446 3.43544 58.2086 3.79938 58.4685 4.2673C58.7285 4.73521 58.8585 5.27592 58.8585 5.88941C58.8585 6.48211 58.7285 7.00722 58.4685 7.46474C58.2086 7.92226 57.8498 8.281 57.3923 8.54095C56.9348 8.79051 56.4045 8.91529 55.8014 8.91529H54.6784C54.5328 8.91529 54.46 8.98807 54.46 9.13365V12.9082C54.46 13.1266 54.5016 13.2773 54.5848 13.3605C54.668 13.4333 54.8552 13.4957 55.1463 13.5477L55.7234 13.6413C55.8378 13.6621 55.895 13.7192 55.895 13.8128C55.895 13.9376 55.817 14 55.661 14H52.4948ZM54.46 7.6675C54.46 8.2394 54.8084 8.52535 55.505 8.52535C56.1809 8.52535 56.7112 8.2862 57.096 7.80788C57.4911 7.32956 57.6887 6.67448 57.6887 5.84262C57.6887 4.98997 57.4911 4.32969 57.096 3.86177C56.7008 3.39385 56.1393 3.15989 55.4115 3.15989C54.7772 3.15989 54.46 3.36785 54.46 3.78378V7.6675ZM59.6043 14C59.4484 14 59.3704 13.9428 59.3704 13.8284C59.3704 13.7348 59.438 13.6725 59.5731 13.6413L59.9319 13.5789C60.1502 13.5373 60.2906 13.4801 60.353 13.4073C60.4258 13.3345 60.4622 13.1889 60.4622 12.9706V3.79938C60.4622 3.58102 60.4258 3.43544 60.353 3.36265C60.2906 3.28987 60.1502 3.23268 59.9319 3.19108L59.5731 3.12869C59.438 3.0975 59.3704 3.03511 59.3704 2.94153C59.3704 2.82715 59.4484 2.76996 59.6043 2.76996H62.4586C62.6146 2.76996 62.6926 2.83235 62.6926 2.95712C62.6926 3.05071 62.6354 3.1079 62.521 3.12869L62.0999 3.19108C61.8815 3.22228 61.736 3.27947 61.6632 3.36265C61.6008 3.44584 61.5696 3.59661 61.5696 3.81497V7.72989C61.5696 7.87547 61.6424 7.94825 61.7879 7.94825H64.8762C65.0218 7.94825 65.0946 7.87547 65.0946 7.72989V3.81497C65.0946 3.59661 65.0582 3.44584 64.9854 3.36265C64.923 3.27947 64.7826 3.22228 64.5643 3.19108L64.1431 3.12869C64.0288 3.1079 63.9716 3.05071 63.9716 2.95712C63.9716 2.83235 64.0496 2.76996 64.2055 2.76996H67.0598C67.2158 2.76996 67.2938 2.82715 67.2938 2.94153C67.2938 3.03511 67.2262 3.0975 67.091 3.12869L66.7323 3.19108C66.5139 3.23268 66.3683 3.28987 66.2956 3.36265C66.2332 3.43544 66.202 3.58102 66.202 3.79938V12.9706C66.202 13.1889 66.2332 13.3345 66.2956 13.4073C66.3683 13.4801 66.5139 13.5373 66.7323 13.5789L67.091 13.6413C67.2262 13.6725 67.2938 13.7348 67.2938 13.8284C67.2938 13.9428 67.2158 14 67.0598 14H64.2055C64.0496 14 63.9716 13.9376 63.9716 13.8128C63.9716 13.7192 64.0288 13.6621 64.1431 13.6413L64.5643 13.5789C64.7826 13.5477 64.923 13.4905 64.9854 13.4073C65.0582 13.3241 65.0946 13.1733 65.0946 12.955V8.63453C65.0946 8.48896 65.0218 8.41617 64.8762 8.41617H61.7879C61.6424 8.41617 61.5696 8.48896 61.5696 8.63453V12.955C61.5696 13.1733 61.6008 13.3241 61.6632 13.4073C61.736 13.4905 61.8815 13.5477 62.0999 13.5789L62.521 13.6413C62.6354 13.6621 62.6926 13.7192 62.6926 13.8128C62.6926 13.9376 62.6146 14 62.4586 14H59.6043ZM67.1421 14C66.9861 14 66.9081 13.948 66.9081 13.844C66.9081 13.74 66.9809 13.6725 67.1265 13.6413L67.3604 13.5945C67.5684 13.5529 67.7244 13.4541 67.8284 13.2981C67.9323 13.1318 68.0207 12.903 68.0935 12.6118L70.5111 2.86354C70.5319 2.75956 70.5631 2.69197 70.6047 2.66078C70.6567 2.62958 70.7035 2.61398 70.7451 2.61398C70.797 2.61398 70.8438 2.62958 70.8854 2.66078C70.9374 2.69197 70.9738 2.75956 70.9946 2.86354L73.459 12.7522C73.5318 13.0434 73.615 13.2461 73.7085 13.3605C73.8021 13.4749 73.9477 13.5529 74.1453 13.5945L74.3792 13.6413C74.5248 13.6725 74.5976 13.74 74.5976 13.844C74.5976 13.948 74.5196 14 74.3636 14H71.6965C71.5509 14 71.4781 13.9428 71.4781 13.8284C71.4781 13.714 71.5665 13.6517 71.7433 13.6413L72.0396 13.6101C72.2164 13.5893 72.3256 13.5321 72.3672 13.4385C72.4192 13.3449 72.4192 13.1837 72.3672 12.955L71.7745 10.5374C71.7121 10.2671 71.5405 10.1319 71.2598 10.1319H69.622C69.3517 10.1319 69.1801 10.2671 69.1073 10.5374L68.577 12.6274C68.4211 13.2201 68.577 13.5477 69.0449 13.6101L69.2789 13.6413C69.4557 13.6725 69.5441 13.7348 69.5441 13.8284C69.5441 13.9428 69.4713 14 69.3257 14H67.1421ZM69.5753 9.66396H71.291C71.4573 9.66396 71.5249 9.57557 71.4937 9.3988L70.4955 5.21873H70.4175L69.3725 9.3988C69.3413 9.57557 69.4089 9.66396 69.5753 9.66396ZM81.0278 14.1404C80.1232 14.1404 79.5461 13.5477 79.2965 12.3623L78.9378 10.631C78.8234 10.0695 78.6934 9.64316 78.5478 9.35201C78.4127 9.06086 78.2203 8.8633 77.9707 8.75931C77.7316 8.65533 77.3988 8.60334 76.9725 8.60334C76.8269 8.60334 76.7126 8.64493 76.6294 8.72812C76.5462 8.80091 76.5046 8.89449 76.5046 9.00887V12.9082C76.5046 13.1266 76.5462 13.2773 76.6294 13.3605C76.7126 13.4333 76.8997 13.4957 77.1909 13.5477L77.768 13.6413C77.8824 13.6621 77.9395 13.7192 77.9395 13.8128C77.9395 13.9376 77.8616 14 77.7056 14H74.5393C74.3834 14 74.3054 13.9428 74.3054 13.8284C74.3054 13.7348 74.373 13.6725 74.5081 13.6413L74.8669 13.5789C75.0852 13.5373 75.2256 13.4801 75.288 13.4073C75.3608 13.3345 75.3972 13.1889 75.3972 12.9706V3.79938C75.3972 3.58102 75.3608 3.43544 75.288 3.36265C75.2256 3.28987 75.0852 3.23268 74.8669 3.19108L74.5081 3.12869C74.373 3.0975 74.3054 3.03511 74.3054 2.94153C74.3054 2.82715 74.3834 2.76996 74.5393 2.76996H77.7056C78.3191 2.76996 78.865 2.88954 79.3433 3.12869C79.8216 3.36785 80.1959 3.70059 80.4663 4.12692C80.7367 4.54285 80.8718 5.02636 80.8718 5.57747C80.8718 6.23255 80.6743 6.82525 80.2791 7.35556C79.884 7.87547 79.3849 8.2446 78.7818 8.46296C78.709 8.48376 78.6674 8.52015 78.657 8.57215C78.657 8.61374 78.6934 8.65013 78.7662 8.68133C79.0989 8.8373 79.3589 9.05566 79.5461 9.33641C79.7436 9.61716 79.8944 9.9915 79.9984 10.4594L80.3415 12.0503C80.4559 12.591 80.5911 12.9758 80.7471 13.2045C80.903 13.4333 81.1006 13.5477 81.3397 13.5477C81.4229 13.5477 81.4957 13.5373 81.5581 13.5165C81.6309 13.4853 81.7193 13.4333 81.8233 13.3605C81.9064 13.3085 81.9844 13.2981 82.0572 13.3293C82.13 13.3501 82.1664 13.4021 82.1664 13.4853C82.1664 13.6621 82.052 13.818 81.8233 13.9532C81.5945 14.078 81.3294 14.1404 81.0278 14.1404ZM77.5496 8.21341C78.2567 8.21341 78.7922 7.97945 79.1561 7.51153C79.5201 7.03321 79.702 6.39892 79.702 5.60866C79.702 4.8392 79.4889 4.2413 79.0625 3.81497C78.6466 3.37825 78.0695 3.15989 77.3312 3.15989C76.7801 3.15989 76.5046 3.36785 76.5046 3.78378V7.35556C76.5046 7.92746 76.8529 8.21341 77.5496 8.21341ZM86.7629 13.844C86.7213 13.844 86.6745 13.8284 86.6225 13.7972C86.5705 13.766 86.5341 13.6985 86.5133 13.5945L84.1581 4.03334C84.1477 3.96055 84.1165 3.92935 84.0645 3.93975C84.0125 3.93975 83.9865 3.97615 83.9865 4.04893L83.6746 12.6586C83.6642 12.9498 83.711 13.1733 83.815 13.3293C83.9189 13.4749 84.1009 13.5685 84.3609 13.6101L84.5636 13.6413C84.6988 13.6517 84.7664 13.714 84.7664 13.8284C84.7664 13.9428 84.6884 14 84.5324 14H82.302C82.1461 14 82.0681 13.9428 82.0681 13.8284C82.0681 13.714 82.1357 13.6517 82.2708 13.6413L82.4736 13.6101C82.744 13.5685 82.9259 13.4749 83.0195 13.3293C83.1235 13.1733 83.1807 12.9498 83.1911 12.6586L83.503 3.79938C83.5134 3.58102 83.4822 3.43544 83.4094 3.36265C83.3366 3.28987 83.1807 3.23268 82.9415 3.19108L82.5828 3.12869C82.4476 3.0975 82.38 3.03511 82.38 2.94153C82.38 2.82715 82.458 2.76996 82.614 2.76996H84.4856C84.808 2.76996 85.0056 2.92593 85.0783 3.23787L86.9656 11.0209C86.9864 11.0937 87.0176 11.1301 87.0592 11.1301C87.1112 11.1301 87.1424 11.0937 87.1528 11.0209L89.118 3.15989C89.1804 2.89993 89.3468 2.76996 89.6172 2.76996H91.4576C91.6136 2.76996 91.6916 2.82715 91.6916 2.94153C91.6916 3.03511 91.624 3.0975 91.4888 3.12869L91.1301 3.19108C90.9117 3.23268 90.7662 3.28987 90.6934 3.36265C90.6206 3.43544 90.5894 3.58102 90.5998 3.79938L90.9117 12.9706C90.9221 13.1889 90.9585 13.3345 91.0209 13.4073C91.0833 13.4801 91.2237 13.5373 91.442 13.5789L91.8008 13.6413C91.936 13.6725 92.0035 13.7348 92.0035 13.8284C92.0035 13.9428 91.9256 14 91.7696 14H88.9465C88.7905 14 88.7125 13.9428 88.7125 13.8284C88.7125 13.7348 88.7801 13.6725 88.9153 13.6413L89.274 13.5789C89.4924 13.5373 89.638 13.4801 89.7107 13.4073C89.7835 13.3345 89.8147 13.1889 89.8043 12.9706L89.5392 4.04893C89.5392 3.97615 89.5132 3.93975 89.4612 3.93975C89.4196 3.92935 89.3884 3.95535 89.3676 4.01774L86.9968 13.5945C86.976 13.6985 86.9396 13.766 86.8876 13.7972C86.846 13.8284 86.8044 13.844 86.7629 13.844ZM92.0197 14C91.8638 14 91.7858 13.948 91.7858 13.844C91.7858 13.74 91.8586 13.6725 92.0041 13.6413L92.2381 13.5945C92.4461 13.5529 92.602 13.4541 92.706 13.2981C92.81 13.1318 92.8984 12.903 92.9712 12.6118L95.3888 2.86354C95.4096 2.75956 95.4407 2.69197 95.4823 2.66078C95.5343 2.62958 95.5811 2.61398 95.6227 2.61398C95.6747 2.61398 95.7215 2.62958 95.7631 2.66078C95.8151 2.69197 95.8515 2.75956 95.8723 2.86354L98.3366 12.7522C98.4094 13.0434 98.4926 13.2461 98.5862 13.3605C98.6798 13.4749 98.8254 13.5529 99.0229 13.5945L99.2569 13.6413C99.4025 13.6725 99.4752 13.74 99.4752 13.844C99.4752 13.948 99.3973 14 99.2413 14H96.5742C96.4286 14 96.3558 13.9428 96.3558 13.8284C96.3558 13.714 96.4442 13.6517 96.6209 13.6413L96.9173 13.6101C97.0941 13.5893 97.2032 13.5321 97.2448 13.4385C97.2968 13.3449 97.2968 13.1837 97.2448 12.955L96.6521 10.5374C96.5897 10.2671 96.4182 10.1319 96.1374 10.1319H94.4997C94.2294 10.1319 94.0578 10.2671 93.985 10.5374L93.4547 12.6274C93.2987 13.2201 93.4547 13.5477 93.9226 13.6101L94.1566 13.6413C94.3333 13.6725 94.4217 13.7348 94.4217 13.8284C94.4217 13.9428 94.3489 14 94.2034 14H92.0197ZM94.4529 9.66396H96.1686C96.335 9.66396 96.4026 9.57557 96.3714 9.3988L95.3732 5.21873H95.2952L94.2502 9.3988C94.219 9.57557 94.2865 9.66396 94.4529 9.66396ZM105.994 14.1404C105.225 14.1404 104.549 13.9012 103.967 13.4229C103.395 12.9446 102.948 12.2739 102.625 11.4109C102.313 10.5374 102.157 9.50798 102.157 8.32259C102.157 7.17879 102.329 6.18056 102.672 5.32791C103.025 4.46486 103.493 3.79938 104.076 3.33146C104.668 2.85314 105.323 2.61398 106.041 2.61398C106.467 2.61398 106.842 2.65558 107.164 2.73876C107.486 2.81155 107.772 2.91033 108.022 3.03511C108.147 3.1079 108.209 3.21708 108.209 3.36265L108.256 5.73344C108.256 5.91021 108.193 5.99859 108.069 5.99859C107.954 5.99859 107.881 5.93101 107.85 5.79583L107.694 5.21873C107.476 4.40767 107.221 3.84617 106.93 3.53422C106.649 3.22228 106.311 3.06631 105.916 3.06631C105.188 3.06631 104.58 3.51863 104.091 4.42327C103.613 5.31751 103.374 6.61729 103.374 8.32259C103.374 9.48719 103.493 10.4698 103.733 11.2705C103.982 12.0711 104.299 12.6742 104.684 13.0798C105.079 13.4853 105.495 13.6881 105.932 13.6881C106.4 13.6881 106.774 13.5425 107.055 13.2513C107.346 12.9602 107.59 12.3987 107.788 11.5668L107.975 10.8026C108.006 10.6466 108.089 10.579 108.225 10.5998C108.339 10.6206 108.396 10.709 108.396 10.8649L108.334 13.3917C108.334 13.5373 108.266 13.6465 108.131 13.7192C107.881 13.844 107.585 13.9428 107.242 14.0156C106.909 14.0988 106.493 14.1404 105.994 14.1404ZM109.402 14C109.246 14 109.168 13.9428 109.168 13.8284C109.168 13.7348 109.235 13.6725 109.371 13.6413L109.729 13.5789C109.948 13.5373 110.088 13.4801 110.15 13.4073C110.223 13.3345 110.26 13.1889 110.26 12.9706V3.79938C110.26 3.58102 110.223 3.43544 110.15 3.36265C110.088 3.28987 109.948 3.23268 109.729 3.19108L109.371 3.12869C109.235 3.0975 109.168 3.03511 109.168 2.94153C109.168 2.82715 109.246 2.76996 109.402 2.76996H112.256C112.412 2.76996 112.49 2.83235 112.49 2.95712C112.49 3.05071 112.433 3.1079 112.318 3.12869L111.897 3.19108C111.679 3.22228 111.533 3.27947 111.461 3.36265C111.398 3.44584 111.367 3.59661 111.367 3.81497V12.5495C111.367 12.9238 111.471 13.1941 111.679 13.3605C111.897 13.5269 112.168 13.6101 112.49 13.6101C112.729 13.6101 112.973 13.5633 113.223 13.4697C113.483 13.3657 113.717 13.1785 113.925 12.9082C114.133 12.6274 114.289 12.2219 114.393 11.6916L114.596 10.6466C114.627 10.5114 114.705 10.4438 114.83 10.4438C114.975 10.4438 115.038 10.5322 115.017 10.709L114.83 13.6413C114.809 13.8804 114.679 14 114.44 14H109.402ZM115.689 14C115.533 14 115.455 13.9428 115.455 13.8284C115.455 13.7348 115.522 13.6725 115.658 13.6413L116.016 13.5789C116.235 13.5373 116.375 13.4801 116.437 13.4073C116.51 13.3345 116.547 13.1889 116.547 12.9706V3.79938C116.547 3.58102 116.51 3.43544 116.437 3.36265C116.375 3.28987 116.235 3.23268 116.016 3.19108L115.658 3.12869C115.522 3.0975 115.455 3.03511 115.455 2.94153C115.455 2.82715 115.533 2.76996 115.689 2.76996H118.512C118.668 2.76996 118.746 2.82715 118.746 2.94153C118.746 3.03511 118.678 3.0975 118.543 3.12869L118.184 3.19108C117.966 3.23268 117.82 3.28987 117.748 3.36265C117.685 3.43544 117.654 3.58102 117.654 3.79938V12.9706C117.654 13.1889 117.685 13.3345 117.748 13.4073C117.82 13.4801 117.966 13.5373 118.184 13.5789L118.543 13.6413C118.678 13.6725 118.746 13.7348 118.746 13.8284C118.746 13.9428 118.668 14 118.512 14H115.689ZM119.417 14C119.261 14 119.183 13.9428 119.183 13.8284C119.183 13.7348 119.25 13.6725 119.386 13.6413L119.744 13.5789C119.963 13.5373 120.103 13.4801 120.166 13.4073C120.238 13.3345 120.275 13.1889 120.275 12.9706V3.79938C120.275 3.58102 120.238 3.43544 120.166 3.36265C120.103 3.28987 119.963 3.23268 119.744 3.19108L119.386 3.12869C119.25 3.0975 119.183 3.03511 119.183 2.94153C119.183 2.82715 119.261 2.76996 119.417 2.76996H124.658C124.897 2.76996 125.027 2.88954 125.047 3.12869L125.172 5.71784C125.193 5.89461 125.125 5.983 124.969 5.983C124.845 5.983 124.772 5.91541 124.751 5.78023L124.658 5.20313C124.543 4.49606 124.309 3.98135 123.956 3.659C123.602 3.32626 123.113 3.15989 122.49 3.15989C122.074 3.15989 121.782 3.22228 121.616 3.34706C121.46 3.46144 121.382 3.6694 121.382 3.97095V7.72989C121.382 7.87547 121.455 7.94825 121.6 7.94825H122.38C122.838 7.94825 123.119 7.7039 123.223 7.21518L123.379 6.43532C123.42 6.27935 123.509 6.21176 123.644 6.23255C123.758 6.25335 123.815 6.34173 123.815 6.49771V10.0071C123.815 10.1631 123.758 10.2515 123.644 10.2722C123.509 10.293 123.42 10.2255 123.379 10.0695L123.223 9.30522C123.15 8.94128 123.046 8.70212 122.911 8.58774C122.786 8.47336 122.604 8.41617 122.365 8.41617H121.6C121.455 8.41617 121.382 8.48896 121.382 8.63453V12.5495C121.382 12.9238 121.476 13.1941 121.663 13.3605C121.86 13.5269 122.214 13.6101 122.723 13.6101C123.243 13.6101 123.685 13.4801 124.049 13.2201C124.424 12.9498 124.684 12.4507 124.829 11.7228L125.016 10.8026C125.047 10.6674 125.125 10.5998 125.25 10.5998C125.396 10.5998 125.458 10.6882 125.437 10.8649L125.281 13.6413C125.261 13.8804 125.131 14 124.892 14H119.417ZM132.489 14.1404C132.323 14.1404 132.183 14.0156 132.068 13.766L127.841 4.59484C127.81 4.52205 127.769 4.49086 127.717 4.50126C127.675 4.51165 127.654 4.55845 127.654 4.64163V12.6586C127.654 12.9498 127.701 13.1733 127.795 13.3293C127.899 13.4749 128.08 13.5685 128.34 13.6101L128.543 13.6413C128.678 13.6517 128.746 13.714 128.746 13.8284C128.746 13.9428 128.668 14 128.512 14H126.282C126.126 14 126.048 13.9428 126.048 13.8284C126.048 13.714 126.115 13.6517 126.25 13.6413L126.453 13.6101C126.724 13.5685 126.911 13.4749 127.015 13.3293C127.119 13.1733 127.171 12.9498 127.171 12.6586V3.79938C127.171 3.58102 127.134 3.43544 127.061 3.36265C126.999 3.28987 126.848 3.23268 126.609 3.19108L126.25 3.12869C126.115 3.0975 126.048 3.03511 126.048 2.94153C126.048 2.82715 126.126 2.76996 126.282 2.76996H127.951C128.21 2.76996 128.392 2.88434 128.496 3.1131L132.177 11.2081C132.209 11.2705 132.245 11.2965 132.287 11.2861C132.339 11.2757 132.365 11.2393 132.365 11.1769V4.11132C132.365 3.77858 132.307 3.54982 132.193 3.42504C132.079 3.28987 131.933 3.20668 131.756 3.17549L131.476 3.12869C131.34 3.0975 131.273 3.03511 131.273 2.94153C131.273 2.82715 131.351 2.76996 131.507 2.76996H133.737C133.893 2.76996 133.971 2.82715 133.971 2.94153C133.971 3.05591 133.903 3.1183 133.768 3.12869L133.566 3.15989C133.295 3.20148 133.108 3.28987 133.004 3.42504C132.9 3.54982 132.848 3.77858 132.848 4.11132V13.6413C132.848 13.8284 132.812 13.9584 132.739 14.0312C132.676 14.104 132.593 14.1404 132.489 14.1404ZM135.906 14C135.75 14 135.672 13.9428 135.672 13.8284C135.672 13.714 135.739 13.6517 135.875 13.6413L136.576 13.5321C136.784 13.5009 136.925 13.4489 136.998 13.3761C137.07 13.2929 137.107 13.1421 137.107 12.9238V3.56542C137.107 3.41984 137.076 3.31586 137.013 3.25347C136.951 3.19108 136.821 3.15989 136.623 3.15989C136.238 3.15989 135.859 3.32626 135.485 3.659C135.11 3.99174 134.866 4.52725 134.752 5.26552L134.674 5.78023C134.653 5.91541 134.58 5.983 134.455 5.983C134.299 5.983 134.232 5.89461 134.252 5.71784L134.393 2.89474C134.414 2.65558 134.507 2.536 134.674 2.536C134.746 2.536 134.814 2.55679 134.876 2.59839C134.939 2.62958 135.043 2.66597 135.188 2.70757C135.344 2.74916 135.589 2.76996 135.921 2.76996H139.4C139.732 2.76996 139.971 2.74916 140.117 2.70757C140.273 2.66597 140.382 2.62958 140.445 2.59839C140.517 2.55679 140.585 2.536 140.647 2.536C140.814 2.536 140.907 2.65558 140.928 2.89474L141.068 5.71784C141.089 5.89461 141.022 5.983 140.866 5.983C140.741 5.983 140.668 5.91541 140.647 5.78023L140.569 5.26552C140.465 4.52725 140.226 3.99174 139.852 3.659C139.478 3.32626 139.093 3.15989 138.698 3.15989C138.5 3.15989 138.37 3.19108 138.308 3.25347C138.245 3.31586 138.214 3.41984 138.214 3.56542V12.9238C138.214 13.1421 138.251 13.2929 138.323 13.3761C138.407 13.4489 138.547 13.5009 138.744 13.5321L139.446 13.6413C139.582 13.6517 139.649 13.714 139.649 13.8284C139.649 13.9428 139.571 14 139.415 14H135.906ZM35.0546 32.1404C34.2851 32.1404 33.6092 31.9012 33.0269 31.4229C32.455 30.9446 32.0079 30.2739 31.6856 29.4109C31.3736 28.5374 31.2176 27.508 31.2176 26.3226C31.2176 25.1788 31.3892 24.1806 31.7324 23.3279C32.0859 22.4649 32.5538 21.7994 33.1361 21.3315C33.7288 20.8531 34.3839 20.614 35.1014 20.614C35.5277 20.614 35.902 20.6556 36.2244 20.7388C36.5467 20.8115 36.8327 20.9103 37.0822 21.0351C37.207 21.1079 37.2694 21.2171 37.2694 21.3627L37.3162 23.7334C37.3162 23.9102 37.2538 23.9986 37.129 23.9986C37.0146 23.9986 36.9418 23.931 36.9106 23.7958L36.7547 23.2187C36.5363 22.4077 36.2816 21.8462 35.9904 21.5342C35.7097 21.2223 35.3717 21.0663 34.9766 21.0663C34.2487 21.0663 33.6404 21.5186 33.1517 22.4233C32.6734 23.3175 32.4342 24.6173 32.4342 26.3226C32.4342 27.4872 32.5538 28.4698 32.793 29.2705C33.0425 30.0711 33.3597 30.6742 33.7444 31.0798C34.1395 31.4853 34.5555 31.6881 34.9922 31.6881C35.4601 31.6881 35.8344 31.5425 36.1152 31.2513C36.4063 30.9602 36.6507 30.3987 36.8483 29.5668L37.0354 28.8026C37.0666 28.6466 37.1498 28.579 37.285 28.5998C37.3994 28.6206 37.4566 28.709 37.4566 28.8649L37.3942 31.3917C37.3942 31.5373 37.3266 31.6465 37.1914 31.7192C36.9418 31.844 36.6455 31.9428 36.3024 32.0156C35.9696 32.0988 35.5537 32.1404 35.0546 32.1404ZM41.9603 32.1404C41.4612 32.1404 40.9932 31.9948 40.5565 31.7037C40.1198 31.4021 39.7351 30.9914 39.4023 30.4715C39.08 29.9516 38.8252 29.3433 38.638 28.6466C38.4613 27.9395 38.3729 27.1804 38.3729 26.3694C38.3729 25.5583 38.4613 24.8045 38.638 24.1078C38.8252 23.4111 39.08 22.8028 39.4023 22.2829C39.7351 21.7526 40.1198 21.3419 40.5565 21.0507C40.9932 20.7596 41.4612 20.614 41.9603 20.614C42.4594 20.614 42.9221 20.7596 43.3484 21.0507C43.7852 21.3419 44.1699 21.7526 44.5026 22.2829C44.8354 22.8028 45.0901 23.4111 45.2669 24.1078C45.4541 24.8045 45.5476 25.5583 45.5476 26.3694C45.5476 27.1804 45.4541 27.9395 45.2669 28.6466C45.0901 29.3433 44.8354 29.9516 44.5026 30.4715C44.1699 30.9914 43.7852 31.4021 43.3484 31.7037C42.9221 31.9948 42.4594 32.1404 41.9603 32.1404ZM41.9603 31.7192C42.6985 31.7192 43.2756 31.2773 43.6916 30.3935C44.1075 29.5096 44.3155 28.1683 44.3155 26.3694C44.3155 24.5705 44.1075 23.2343 43.6916 22.3609C43.2756 21.477 42.6985 21.0351 41.9603 21.0351C41.2324 21.0351 40.6553 21.477 40.229 22.3609C39.813 23.2343 39.6051 24.5705 39.6051 26.3694C39.6051 28.1683 39.813 29.5096 40.229 30.3935C40.6553 31.2773 41.2324 31.7192 41.9603 31.7192ZM52.5856 32.1404C52.4192 32.1404 52.2788 32.0156 52.1644 31.766L47.9376 22.5948C47.9064 22.5221 47.8648 22.4909 47.8128 22.5013C47.7712 22.5117 47.7504 22.5584 47.7504 22.6416V30.6586C47.7504 30.9498 47.7972 31.1733 47.8908 31.3293C47.9948 31.4749 48.1767 31.5685 48.4367 31.6101L48.6394 31.6413C48.7746 31.6517 48.8422 31.714 48.8422 31.8284C48.8422 31.9428 48.7642 32 48.6082 32H46.3778C46.2219 32 46.1439 31.9428 46.1439 31.8284C46.1439 31.714 46.2115 31.6517 46.3466 31.6413L46.5494 31.6101C46.8198 31.5685 47.0069 31.4749 47.1109 31.3293C47.2149 31.1733 47.2669 30.9498 47.2669 30.6586V21.7994C47.2669 21.581 47.2305 21.4354 47.1577 21.3627C47.0953 21.2899 46.9445 21.2327 46.7054 21.1911L46.3466 21.1287C46.2115 21.0975 46.1439 21.0351 46.1439 20.9415C46.1439 20.8271 46.2219 20.77 46.3778 20.77H48.0467C48.3067 20.77 48.4887 20.8843 48.5926 21.1131L52.2736 29.2081C52.3048 29.2705 52.3412 29.2965 52.3828 29.2861C52.4348 29.2757 52.4608 29.2393 52.4608 29.1769V22.1113C52.4608 21.7786 52.4036 21.5498 52.2892 21.425C52.1748 21.2899 52.0292 21.2067 51.8525 21.1755L51.5717 21.1287C51.4366 21.0975 51.369 21.0351 51.369 20.9415C51.369 20.8271 51.447 20.77 51.6029 20.77H53.8333C53.9893 20.77 54.0673 20.8271 54.0673 20.9415C54.0673 21.0559 53.9997 21.1183 53.8645 21.1287L53.6618 21.1599C53.3914 21.2015 53.2042 21.2899 53.1003 21.425C52.9963 21.5498 52.9443 21.7786 52.9443 22.1113V31.6413C52.9443 31.8284 52.9079 31.9584 52.8351 32.0312C52.7727 32.104 52.6895 32.1404 52.5856 32.1404ZM54.6918 32C54.5358 32 54.4578 31.9428 54.4578 31.8284C54.4578 31.7348 54.5254 31.6725 54.6606 31.6413L55.0193 31.5789C55.2377 31.5373 55.3781 31.4801 55.4405 31.4073C55.5133 31.3345 55.5496 31.1889 55.5496 30.9706V21.7994C55.5496 21.581 55.5133 21.4354 55.4405 21.3627C55.3781 21.2899 55.2377 21.2327 55.0193 21.1911L54.6606 21.1287C54.5254 21.0975 54.4578 21.0351 54.4578 20.9415C54.4578 20.8271 54.5358 20.77 54.6918 20.77H59.7141C59.9533 20.77 60.0833 20.8895 60.1041 21.1287L60.2288 23.7178C60.2496 23.8946 60.182 23.983 60.0261 23.983C59.9013 23.983 59.8285 23.9154 59.8077 23.7802L59.7297 23.2655C59.6465 22.7248 59.501 22.3037 59.293 22.0021C59.085 21.7006 58.8511 21.4874 58.5911 21.3627C58.3312 21.2275 58.0816 21.1599 57.8424 21.1599C57.3849 21.1599 57.073 21.2327 56.9066 21.3783C56.7402 21.5238 56.6571 21.7474 56.6571 22.0489V25.7299C56.6571 25.8755 56.7298 25.9483 56.8754 25.9483H57.4213C57.8788 25.9483 58.1596 25.7039 58.2636 25.2152L58.4351 24.4353C58.4663 24.3001 58.5443 24.2326 58.6691 24.2326C58.7939 24.2326 58.8563 24.3209 58.8563 24.4977V28.0071C58.8563 28.1839 58.7939 28.2722 58.6691 28.2722C58.5443 28.2722 58.4663 28.2047 58.4351 28.0695L58.2636 27.3052C58.1908 26.9413 58.0868 26.7021 57.9516 26.5877C57.8268 26.4734 57.6449 26.4162 57.4057 26.4162H56.8754C56.7298 26.4162 56.6571 26.489 56.6571 26.6345V30.8926C56.6571 31.111 56.6882 31.2669 56.7506 31.3605C56.8234 31.4437 56.969 31.5009 57.1874 31.5321L57.9204 31.6413C58.0348 31.6621 58.092 31.7192 58.092 31.8128C58.092 31.9376 58.014 32 57.858 32H54.6918ZM60.9027 32C60.7467 32 60.6687 31.9428 60.6687 31.8284C60.6687 31.7348 60.7363 31.6725 60.8715 31.6413L61.2302 31.5789C61.4486 31.5373 61.589 31.4801 61.6514 31.4073C61.7241 31.3345 61.7605 31.1889 61.7605 30.9706V21.7994C61.7605 21.581 61.7241 21.4354 61.6514 21.3627C61.589 21.2899 61.4486 21.2327 61.2302 21.1911L60.8715 21.1287C60.7363 21.0975 60.6687 21.0351 60.6687 20.9415C60.6687 20.8271 60.7467 20.77 60.9027 20.77H63.7258C63.8818 20.77 63.9597 20.8271 63.9597 20.9415C63.9597 21.0351 63.8922 21.0975 63.757 21.1287L63.3982 21.1911C63.1799 21.2327 63.0343 21.2899 62.9615 21.3627C62.8991 21.4354 62.8679 21.581 62.8679 21.7994V30.9706C62.8679 31.1889 62.8991 31.3345 62.9615 31.4073C63.0343 31.4801 63.1799 31.5373 63.3982 31.5789L63.757 31.6413C63.8922 31.6725 63.9597 31.7348 63.9597 31.8284C63.9597 31.9428 63.8818 32 63.7258 32H60.9027ZM64.6308 32C64.4748 32 64.3968 31.9428 64.3968 31.8284C64.3968 31.7348 64.4644 31.6725 64.5996 31.6413L64.9583 31.5789C65.3119 31.5165 65.4886 31.3137 65.4886 30.9706V21.7994C65.4886 21.581 65.4523 21.4354 65.3795 21.3627C65.3171 21.2899 65.1767 21.2327 64.9583 21.1911L64.5996 21.1287C64.4644 21.0975 64.3968 21.0351 64.3968 20.9415C64.3968 20.8271 64.4748 20.77 64.6308 20.77H67.7814C68.5925 20.77 69.2944 21.0091 69.8871 21.4874C70.4798 21.9554 70.9373 22.6156 71.2596 23.4683C71.582 24.3209 71.7432 25.3088 71.7432 26.4318C71.7432 27.5652 71.5716 28.5478 71.2284 29.3797C70.8957 30.2115 70.4226 30.8562 69.8091 31.3137C69.1956 31.7712 68.4677 32 67.6255 32H64.6308ZM67.6879 31.5945C68.6133 31.5945 69.3152 31.1525 69.7935 30.2687C70.2822 29.3849 70.5266 28.1059 70.5266 26.4318C70.5266 24.7681 70.2926 23.4787 69.8247 22.5636C69.3672 21.6382 68.6861 21.1755 67.7814 21.1755C66.9912 21.1755 66.5961 21.555 66.5961 22.3141V30.4559C66.5961 30.8718 66.6792 31.1681 66.8456 31.3449C67.0224 31.5113 67.3031 31.5945 67.6879 31.5945ZM72.5933 32C72.4374 32 72.3594 31.9428 72.3594 31.8284C72.3594 31.7348 72.427 31.6725 72.5621 31.6413L72.9209 31.5789C73.1392 31.5373 73.2796 31.4801 73.342 31.4073C73.4148 31.3345 73.4512 31.1889 73.4512 30.9706V21.7994C73.4512 21.581 73.4148 21.4354 73.342 21.3627C73.2796 21.2899 73.1392 21.2327 72.9209 21.1911L72.5621 21.1287C72.427 21.0975 72.3594 21.0351 72.3594 20.9415C72.3594 20.8271 72.4374 20.77 72.5933 20.77H77.834C78.0732 20.77 78.2032 20.8895 78.2239 21.1287L78.3487 23.7178C78.3695 23.8946 78.3019 23.983 78.146 23.983C78.0212 23.983 77.9484 23.9154 77.9276 23.7802L77.834 23.2031C77.7196 22.4961 77.4857 21.9813 77.1321 21.659C76.7786 21.3263 76.2899 21.1599 75.666 21.1599C75.2501 21.1599 74.9589 21.2223 74.7925 21.3471C74.6366 21.4614 74.5586 21.6694 74.5586 21.9709V25.7299C74.5586 25.8755 74.6314 25.9483 74.7769 25.9483H75.5568C76.0143 25.9483 76.2951 25.7039 76.3991 25.2152L76.555 24.4353C76.5966 24.2793 76.685 24.2118 76.8202 24.2326C76.9346 24.2533 76.9918 24.3417 76.9918 24.4977V28.0071C76.9918 28.1631 76.9346 28.2515 76.8202 28.2722C76.685 28.293 76.5966 28.2255 76.555 28.0695L76.3991 27.3052C76.3263 26.9413 76.2223 26.7021 76.0871 26.5877C75.9623 26.4734 75.7804 26.4162 75.5412 26.4162H74.7769C74.6314 26.4162 74.5586 26.489 74.5586 26.6345V30.5495C74.5586 30.9238 74.6522 31.1941 74.8393 31.3605C75.0369 31.5269 75.3904 31.6101 75.9 31.6101C76.4199 31.6101 76.8618 31.4801 77.2257 31.2201C77.6001 30.9498 77.86 30.4507 78.0056 29.7228L78.1928 28.8026C78.2239 28.6674 78.3019 28.5998 78.4267 28.5998C78.5723 28.5998 78.6347 28.6882 78.6139 28.8649L78.4579 31.6413C78.4371 31.8804 78.3071 32 78.068 32H72.5933ZM85.6658 32.1404C85.4994 32.1404 85.3591 32.0156 85.2447 31.766L81.0178 22.5948C80.9866 22.5221 80.945 22.4909 80.893 22.5013C80.8514 22.5117 80.8306 22.5584 80.8306 22.6416V30.6586C80.8306 30.9498 80.8774 31.1733 80.971 31.3293C81.075 31.4749 81.257 31.5685 81.5169 31.6101L81.7197 31.6413C81.8549 31.6517 81.9225 31.714 81.9225 31.8284C81.9225 31.9428 81.8445 32 81.6885 32H79.4581C79.3021 32 79.2241 31.9428 79.2241 31.8284C79.2241 31.714 79.2917 31.6517 79.4269 31.6413L79.6297 31.6101C79.9 31.5685 80.0872 31.4749 80.1912 31.3293C80.2951 31.1733 80.3471 30.9498 80.3471 30.6586V21.7994C80.3471 21.581 80.3107 21.4354 80.2379 21.3627C80.1756 21.2899 80.0248 21.2327 79.7856 21.1911L79.4269 21.1287C79.2917 21.0975 79.2241 21.0351 79.2241 20.9415C79.2241 20.8271 79.3021 20.77 79.4581 20.77H81.127C81.3869 20.77 81.5689 20.8843 81.6729 21.1131L85.3539 29.2081C85.3851 29.2705 85.4214 29.2965 85.463 29.2861C85.515 29.2757 85.541 29.2393 85.541 29.1769V22.1113C85.541 21.7786 85.4838 21.5498 85.3695 21.425C85.2551 21.2899 85.1095 21.2067 84.9327 21.1755L84.652 21.1287C84.5168 21.0975 84.4492 21.0351 84.4492 20.9415C84.4492 20.8271 84.5272 20.77 84.6832 20.77H86.9136C87.0696 20.77 87.1475 20.8271 87.1475 20.9415C87.1475 21.0559 87.08 21.1183 86.9448 21.1287L86.742 21.1599C86.4717 21.2015 86.2845 21.2899 86.1805 21.425C86.0765 21.5498 86.0245 21.7786 86.0245 22.1113V31.6413C86.0245 31.8284 85.9881 31.9584 85.9154 32.0312C85.853 32.104 85.7698 32.1404 85.6658 32.1404ZM89.0822 32C88.9262 32 88.8483 31.9428 88.8483 31.8284C88.8483 31.714 88.9158 31.6517 89.051 31.6413L89.7529 31.5321C89.9609 31.5009 90.1012 31.4489 90.174 31.3761C90.2468 31.2929 90.2832 31.1421 90.2832 30.9238V21.5654C90.2832 21.4198 90.252 21.3159 90.1896 21.2535C90.1272 21.1911 89.9973 21.1599 89.7997 21.1599C89.415 21.1599 89.0354 21.3263 88.6611 21.659C88.2868 21.9917 88.0424 22.5273 87.928 23.2655L87.85 23.7802C87.8292 23.9154 87.7564 23.983 87.6317 23.983C87.4757 23.983 87.4081 23.8946 87.4289 23.7178L87.5693 20.8947C87.5901 20.6556 87.6837 20.536 87.85 20.536C87.9228 20.536 87.9904 20.5568 88.0528 20.5984C88.1152 20.6296 88.2192 20.666 88.3647 20.7076C88.5207 20.7492 88.7651 20.77 89.0978 20.77H92.576C92.9087 20.77 93.1479 20.7492 93.2935 20.7076C93.4495 20.666 93.5586 20.6296 93.621 20.5984C93.6938 20.5568 93.7614 20.536 93.8238 20.536C93.9902 20.536 94.0837 20.6556 94.1045 20.8947L94.2449 23.7178C94.2657 23.8946 94.1981 23.983 94.0422 23.983C93.9174 23.983 93.8446 23.9154 93.8238 23.7802L93.7458 23.2655C93.6418 22.5273 93.4027 21.9917 93.0283 21.659C92.654 21.3263 92.2693 21.1599 91.8741 21.1599C91.6766 21.1599 91.5466 21.1911 91.4842 21.2535C91.4218 21.3159 91.3906 21.4198 91.3906 21.5654V30.9238C91.3906 31.1421 91.427 31.2929 91.4998 31.3761C91.583 31.4489 91.7234 31.5009 91.9209 31.5321L92.6228 31.6413C92.758 31.6517 92.8256 31.714 92.8256 31.8284C92.8256 31.9428 92.7476 32 92.5916 32H89.0822ZM94.8054 32C94.6495 32 94.5715 31.9428 94.5715 31.8284C94.5715 31.7348 94.6391 31.6725 94.7742 31.6413L95.133 31.5789C95.3513 31.5373 95.4917 31.4801 95.5541 31.4073C95.6269 31.3345 95.6633 31.1889 95.6633 30.9706V21.7994C95.6633 21.581 95.6269 21.4354 95.5541 21.3627C95.4917 21.2899 95.3513 21.2327 95.133 21.1911L94.7742 21.1287C94.6391 21.0975 94.5715 21.0351 94.5715 20.9415C94.5715 20.8271 94.6495 20.77 94.8054 20.77H97.6286C97.7845 20.77 97.8625 20.8271 97.8625 20.9415C97.8625 21.0351 97.7949 21.0975 97.6597 21.1287L97.301 21.1911C97.0826 21.2327 96.9371 21.2899 96.8643 21.3627C96.8019 21.4354 96.7707 21.581 96.7707 21.7994V30.9706C96.7707 31.1889 96.8019 31.3345 96.8643 31.4073C96.9371 31.4801 97.0826 31.5373 97.301 31.5789L97.6597 31.6413C97.7949 31.6725 97.8625 31.7348 97.8625 31.8284C97.8625 31.9428 97.7845 32 97.6286 32H94.8054ZM97.7128 32C97.5568 32 97.4788 31.948 97.4788 31.844C97.4788 31.74 97.5516 31.6725 97.6972 31.6413L97.9311 31.5945C98.1391 31.5529 98.2951 31.4541 98.399 31.2981C98.503 31.1318 98.5914 30.903 98.6642 30.6118L101.082 20.8635C101.103 20.7596 101.134 20.692 101.175 20.6608C101.227 20.6296 101.274 20.614 101.316 20.614C101.368 20.614 101.415 20.6296 101.456 20.6608C101.508 20.692 101.544 20.7596 101.565 20.8635L104.03 30.7522C104.102 31.0434 104.186 31.2461 104.279 31.3605C104.373 31.4749 104.518 31.5529 104.716 31.5945L104.95 31.6413C105.095 31.6725 105.168 31.74 105.168 31.844C105.168 31.948 105.09 32 104.934 32H102.267C102.122 32 102.049 31.9428 102.049 31.8284C102.049 31.714 102.137 31.6517 102.314 31.6413L102.61 31.6101C102.787 31.5893 102.896 31.5321 102.938 31.4385C102.99 31.3449 102.99 31.1837 102.938 30.955L102.345 28.5374C102.283 28.2671 102.111 28.1319 101.83 28.1319H100.193C99.9224 28.1319 99.7508 28.2671 99.678 28.5374L99.1477 30.6274C98.9917 31.2201 99.1477 31.5477 99.6156 31.6101L99.8496 31.6413C100.026 31.6725 100.115 31.7348 100.115 31.8284C100.115 31.9428 100.042 32 99.8964 32H97.7128ZM100.146 27.664H101.862C102.028 27.664 102.096 27.5756 102.064 27.3988L101.066 23.2187H100.988L99.9432 27.3988C99.912 27.5756 99.9796 27.664 100.146 27.664ZM105.11 32C104.954 32 104.876 31.9428 104.876 31.8284C104.876 31.7348 104.944 31.6725 105.079 31.6413L105.438 31.5789C105.656 31.5373 105.796 31.4801 105.859 31.4073C105.931 31.3345 105.968 31.1889 105.968 30.9706V21.7994C105.968 21.581 105.931 21.4354 105.859 21.3627C105.796 21.2899 105.656 21.2327 105.438 21.1911L105.079 21.1287C104.944 21.0975 104.876 21.0351 104.876 20.9415C104.876 20.8271 104.954 20.77 105.11 20.77H107.964C108.12 20.77 108.198 20.8323 108.198 20.9571C108.198 21.0507 108.141 21.1079 108.027 21.1287L107.606 21.1911C107.387 21.2223 107.242 21.2795 107.169 21.3627C107.106 21.4458 107.075 21.5966 107.075 21.815V30.5495C107.075 30.9238 107.179 31.1941 107.387 31.3605C107.606 31.5269 107.876 31.6101 108.198 31.6101C108.437 31.6101 108.682 31.5633 108.931 31.4697C109.191 31.3657 109.425 31.1785 109.633 30.9082C109.841 30.6274 109.997 30.2219 110.101 29.6916L110.304 28.6466C110.335 28.5114 110.413 28.4438 110.538 28.4438C110.683 28.4438 110.746 28.5322 110.725 28.709L110.538 31.6413C110.517 31.8804 110.387 32 110.148 32H105.11Z" fill="#3EAAFF"/>
</svg>
