<svg width="37" height="43" viewBox="0 0 37 43" fill="none" xmlns="http://www.w3.org/2000/svg">
<path d="M16.7007 17.096C16.7007 17.1045 16.7007 17.1045 16.7007 17.096C14.6235 16.2736 14.2589 16.4347 14.5217 13.3485C16.972 14.8238 16.8024 15.3664 16.7007 17.096ZM17.3281 14.0862C16.9211 13.5775 15.9546 12.7466 15.4544 12.2463C14.6743 11.4833 14.4708 11.2544 14.4708 9.95715V4.42072C14.4708 3.63222 13.233 3.74244 13.233 4.44615C13.233 4.44615 13.1482 14.0777 13.233 14.9001C13.3178 15.7225 12.9023 16.3584 14.2419 17.1893C15.7257 18.105 17.8453 18.7154 17.8453 18.7154C17.8453 18.7154 17.8707 16.5958 17.9046 15.8073C17.9385 15.0188 17.7351 14.5949 17.3281 14.0862ZM22.5254 13.357C22.7797 16.4432 22.4236 16.2821 20.3464 17.113C20.3464 17.113 20.3464 17.113 20.3464 17.1045C20.2447 15.3664 20.0666 14.8238 22.5254 13.357ZM19.134 15.8073C19.1594 16.5958 19.1934 18.7154 19.1934 18.7154C19.1934 18.7154 21.3214 18.1134 22.8052 17.1893C24.1448 16.3584 23.7293 15.7225 23.8141 14.9001C23.8989 14.0777 23.8141 4.44615 23.8141 4.44615C23.8141 3.74244 22.5763 3.62374 22.5763 4.42072V9.96563C22.5763 11.2628 22.3728 11.4918 21.5928 12.2548C21.0925 12.7466 20.1175 13.5859 19.719 14.0862C19.312 14.5949 19.1086 15.0188 19.134 15.8073Z" fill="#2B6A2D"/>
<path d="M18.5509 12.0175C16.1599 10.7626 17.8726 9.06695 18.5509 7.94779L18.6102 8.04106C20.3653 10.61 19.8905 11 18.5509 12.0175ZM20.1533 8.4565C19.4242 7.19321 20.1533 8.4565 19.1528 6.81168V0.690231C19.1528 -0.267835 17.9235 -0.191529 17.9235 0.690231L17.9404 6.79472C17.9404 6.79472 16.8891 8.52433 16.5923 9.21956C16.2956 9.91479 15.9056 10.7372 16.8976 11.8479C16.9739 11.9327 17.1011 12.1701 18.5509 13.5012L18.5848 13.4673C18.5848 13.4673 18.5763 13.4588 19.8566 12.2209C21.4505 10.6948 20.874 9.71979 20.1533 8.4565ZM16.728 22.1407C14.8712 21.4455 13.6334 21.2675 10.2928 20.6061C6.95234 19.9448 4.95142 19.3428 3.14551 17.4861C6.04514 18.5798 10.6998 18.9698 13.2349 19.4955C15.7699 20.0211 16.4652 20.6655 16.728 22.1407ZM17.8048 21.5557C17.7454 20.3518 17.313 19.292 14.8034 18.3763C12.6923 17.6048 9.71632 17.4352 7.55431 17.0961C5.3923 16.7569 1.79743 16.1804 0 14.5016C1.34808 18.885 4.7225 20.7248 8.1478 21.4455C12.0309 22.2594 15.5071 22.5986 17.6267 24.0399L17.8387 24.184C17.7115 23.1666 17.8641 22.7597 17.8048 21.5557ZM20.2635 22.1407C20.5348 20.6655 21.2216 20.0211 23.7651 19.4955C26.3002 18.9698 30.9464 18.5713 33.8545 17.4861C32.0486 19.3513 30.0477 19.9533 26.7071 20.6061C23.3582 21.2675 22.1203 21.4455 20.2635 22.1407ZM19.1613 24.1756L19.3733 24.0314C21.4929 22.5901 24.9691 22.251 28.8522 21.437C32.2775 20.7164 35.6519 18.885 37 14.4932C35.2026 16.1719 31.6077 16.7569 29.4457 17.0961C27.2752 17.4352 24.2993 17.6048 22.1966 18.3763C19.687 19.292 19.2546 20.3603 19.1952 21.5557C19.1359 22.7597 19.28 23.1666 19.1613 24.1756Z" fill="#2B6A2D"/>
<path d="M16.5095 29.8561H14.8647C14.8647 29.8561 14.8986 29.1948 14.8054 28.0417C14.6782 26.5326 12.8808 26.3969 9.9133 25.5915C7.87847 25.0404 5.22471 24.3197 4.03772 22.3357C4.75839 22.6494 6.19973 23.2429 8.56522 23.7177C10.812 24.1671 12.0923 24.4299 14.1525 24.8454C16.1195 25.2439 16.5011 26.4224 16.5011 27.728C16.5095 27.728 16.5095 29.8561 16.5095 29.8561ZM17.6796 27.1345C17.705 24.7775 16.323 24.1162 14.2712 23.5821C12.211 23.0564 9.34524 22.6579 6.91192 21.9627C4.4786 21.2759 3.12205 20.8266 1.46875 19.0715C1.81637 22.4884 4.25816 24.9047 7.25954 25.9391C10.2609 26.9735 10.0998 26.7615 11.7277 27.16C13.3556 27.5585 13.6523 28.1435 13.6523 29.1185V31.1279H17.688C17.7643 26.575 17.6541 29.4916 17.6796 27.1345ZM20.4181 27.728C20.4181 26.4308 20.7996 25.2523 22.7666 24.8538C24.8354 24.4299 26.1156 24.1756 28.3539 23.7262C30.711 23.2514 32.1608 22.6579 32.8814 22.3442C31.6945 24.3367 29.0407 25.0488 27.0059 25.5999C24.0469 26.4054 22.241 26.5411 22.1138 28.0502C22.0205 29.1948 22.0545 29.8646 22.0545 29.8646H20.4096C20.4181 29.8646 20.4181 27.728 20.4181 27.728ZM19.2481 31.1449H23.2838V29.127C23.2838 28.1435 23.5806 27.5669 25.2084 27.1685C26.8363 26.77 26.6667 26.9819 29.6766 25.9476C32.678 24.9132 35.1198 22.4968 35.4674 19.08C33.8141 20.8266 32.466 21.2759 30.0242 21.9712C27.5909 22.6579 24.7167 23.0564 22.6649 23.5906C20.6046 24.1162 19.2226 24.786 19.2566 27.143C19.2735 29.5 19.1633 26.5834 19.2481 31.1449ZM9.53177 42.1753C9.01458 42.294 8.455 42.3958 7.92086 42.3958C5.63167 42.3958 4.03772 41.2766 4.03772 38.9281C4.03772 36.5541 5.52145 35.223 7.92086 35.223C8.38717 35.223 9.0061 35.3078 9.52329 35.5113L9.42155 36.6813C8.8874 36.3845 8.39565 36.3167 7.88694 36.3167C6.42865 36.3167 5.51298 37.4104 5.51298 38.8263C5.51298 40.2338 6.41169 41.3021 7.92086 41.3021C8.48044 41.3021 9.14176 41.1834 9.47242 41.0138L9.53177 42.1753ZM16.1111 36.6898C15.56 36.4439 14.8562 36.3252 14.2797 36.3252C12.6264 36.3252 11.7107 37.4189 11.7107 38.8348C11.7107 40.2422 12.601 41.3105 14.1186 41.3105C14.5001 41.3105 14.8054 41.2681 15.0512 41.2088V39.4029H13.5506V38.3092H16.4078V42.0397C15.6532 42.2432 14.8732 42.3958 14.1186 42.3958C11.8209 42.3958 10.2355 41.2766 10.2355 38.9281C10.2355 36.5541 11.7192 35.223 14.1186 35.223C14.941 35.223 15.5854 35.3332 16.1958 35.5113L16.1111 36.6898ZM17.7813 42.2771H19.1972V35.3417H17.7813V42.2771ZM19.9942 42.2771H21.461L22.0799 40.6916H24.9541L25.5645 42.2771H27.133L24.3521 35.3417H22.7497L19.9942 42.2771ZM24.5556 39.5979H22.4869L23.5127 36.7406H23.5297L24.5556 39.5979ZM27.9215 42.2771H29.3459V39.3944H29.8038C30.4057 39.3944 30.5838 39.5979 30.7873 40.1066L31.6436 42.2686H33.2291L32.0929 39.5555C31.9488 39.2503 31.7284 38.8687 31.3384 38.8433V38.8263C32.2371 38.7076 32.7967 38.0294 32.7967 37.2154C32.7967 35.2908 30.9823 35.3417 29.4561 35.3417H27.9215V42.2771ZM29.3459 36.4354H29.8122C30.5244 36.4354 31.3129 36.5032 31.3129 37.3426C31.3129 38.2074 30.5075 38.3092 29.8122 38.3092H29.3459V36.4354Z" fill="#2B6A2D"/>
</svg>
