<svg width="44" height="50" viewBox="0 0 44 50" fill="none" xmlns="http://www.w3.org/2000/svg">
<path d="M19.9474 21.2548C19.9474 21.2639 19.9474 21.2639 19.9474 21.2548C17.6083 20.3684 17.1977 20.5421 17.4937 17.216C20.2528 18.8059 20.0619 19.3908 19.9474 21.2548ZM20.6539 18.011C20.1955 17.4627 19.1071 16.5673 18.5438 16.0281C17.6655 15.2058 17.4364 14.959 17.4364 13.561V7.59419C17.4364 6.7444 16.0424 6.86319 16.0424 7.62161C16.0424 7.62161 15.947 18.0018 16.0424 18.8881C16.1379 19.7745 15.6701 20.4598 17.1785 21.3553C18.8494 22.3421 21.2362 23 21.2362 23C21.2362 23 21.2648 20.7156 21.3031 19.8658C21.3412 19.0161 21.1121 18.5593 20.6539 18.011ZM26.5063 17.2251C26.7928 20.5512 26.3917 20.3776 24.0526 21.2731C24.0526 21.2731 24.0526 21.2731 24.0526 21.2639C23.9381 19.3908 23.7376 18.8059 26.5063 17.2251ZM22.6874 19.8658C22.7161 20.7156 22.7542 23 22.7542 23C22.7542 23 25.1506 22.3513 26.8215 21.3553C28.3299 20.4598 27.862 19.7745 27.9576 18.8881C28.053 18.0018 27.9576 7.62161 27.9576 7.62161C27.9576 6.86319 26.5636 6.73526 26.5636 7.59419V13.5701C26.5636 14.9681 26.3345 15.2149 25.4562 16.0373C24.8929 16.5673 23.7949 17.4718 23.3461 18.011C22.8879 18.5593 22.6588 19.0161 22.6874 19.8658Z" fill="white"/>
<path d="M22.055 14.9198C19.4702 13.5708 21.3217 11.7478 22.055 10.5446L22.1192 10.6449C24.0165 13.4067 23.5032 13.826 22.055 14.9198ZM23.7874 11.0915C22.9991 9.73334 23.7874 11.0915 22.7058 9.32317V2.74206C22.7058 1.71205 21.3767 1.79409 21.3767 2.74206L21.3951 9.30493C21.3951 9.30493 20.2585 11.1644 19.9376 11.9118C19.6169 12.6593 19.1953 13.5435 20.2676 14.7376C20.3502 14.8287 20.4876 15.0839 22.055 16.515L22.0916 16.4785C22.0916 16.4785 22.0825 16.4694 23.4665 15.1386C25.1897 13.4979 24.5665 12.4497 23.7874 11.0915ZM20.0844 25.8032C18.077 25.0559 16.7387 24.8644 13.1274 24.1534C9.516 23.4425 7.35291 22.7953 5.40055 20.799C8.53527 21.9749 13.5674 22.3942 16.308 22.9594C19.0485 23.5245 19.8002 24.2173 20.0844 25.8032ZM21.2484 25.1743C21.1843 23.88 20.7168 22.7406 18.0036 21.7562C15.7214 20.9267 12.5041 20.7443 10.1668 20.3797C7.82955 20.0151 3.94318 19.3953 2 17.5906C3.45736 22.303 7.10536 24.281 10.8085 25.0559C15.0065 25.9309 18.7645 26.2955 21.0559 27.845L21.2851 28C21.1475 26.9062 21.3125 26.4687 21.2484 25.1743ZM23.9065 25.8032C24.1998 24.2173 24.9423 23.5245 27.692 22.9594C30.4326 22.3942 35.4555 21.9658 38.5991 20.799C36.6473 22.8044 34.4836 23.4515 30.8726 24.1534C27.2521 24.8644 25.9138 25.0559 23.9065 25.8032ZM22.7149 27.9909L22.9441 27.8359C25.2355 26.2864 28.9935 25.9218 33.1918 25.0467C36.8945 24.272 40.5427 22.303 42 17.5814C40.0573 19.3863 36.1709 20.0151 33.8336 20.3797C31.4867 20.7443 28.2695 20.9267 25.9964 21.7562C23.2833 22.7406 22.8157 23.8891 22.7516 25.1743C22.6875 26.4687 22.8433 26.9062 22.7149 27.9909Z" fill="white"/>
<path d="M19.9263 34.5594H18.1847C18.1847 34.5594 18.2206 33.8506 18.1218 32.6147C17.9872 30.9971 16.0839 30.8517 12.9417 29.9883C10.7871 29.3977 7.97714 28.6253 6.72023 26.4987C7.48331 26.835 9.00958 27.4711 11.5143 27.98C13.8933 28.4617 15.249 28.7433 17.4305 29.1887C19.5134 29.6157 19.9173 30.8789 19.9173 32.2784C19.9263 32.2784 19.9263 34.5594 19.9263 34.5594ZM21.1653 31.6423C21.1921 29.116 19.7288 28.4071 17.5562 27.8346C15.3747 27.2712 12.3402 26.8441 9.76367 26.0988C7.18706 25.3627 5.75065 24.8812 4 23C4.3681 26.6623 6.95369 29.2522 10.1318 30.361C13.3098 31.4697 13.1392 31.2424 14.863 31.6696C16.5866 32.0967 16.9009 32.7238 16.9009 33.7688V35.9226H21.1742C21.255 31.0425 21.1383 34.1687 21.1653 31.6423ZM24.065 32.2784C24.065 30.888 24.469 29.6248 26.5518 29.1977C28.7424 28.7433 30.0979 28.4707 32.468 27.9891C34.9638 27.4802 36.4989 26.8441 37.262 26.5078C36.0056 28.6434 33.1954 29.4067 31.0406 29.9974C27.9074 30.8607 25.9952 31.0062 25.8605 32.6237C25.7618 33.8506 25.7977 34.5685 25.7977 34.5685H24.056C24.065 34.5685 24.065 32.2784 24.065 32.2784ZM22.8261 35.9408H27.0994V33.7779C27.0994 32.7238 27.4137 32.1057 29.1373 31.6787C30.8611 31.2516 30.6815 31.4788 33.8686 30.3701C37.0465 29.2613 39.6323 26.6714 40 23.0091C38.2494 24.8812 36.8221 25.3627 34.2363 26.108C31.6601 26.8441 28.6166 27.2712 26.4441 27.8437C24.2625 28.4071 22.7992 29.1251 22.8351 31.6514C22.853 34.1778 22.7363 31.0516 22.8261 35.9408ZM12.5377 47.7638C11.9901 47.8909 11.3976 48 10.832 48C8.40801 48 6.72023 46.8004 6.72023 44.2832C6.72023 41.7387 8.29137 40.3119 10.832 40.3119C11.3257 40.3119 11.9811 40.4028 12.5287 40.6208L12.421 41.8749C11.8554 41.5569 11.3347 41.4842 10.7961 41.4842C9.25194 41.4842 8.28238 42.6565 8.28238 44.1741C8.28238 45.6827 9.23396 46.8277 10.832 46.8277C11.4245 46.8277 12.1248 46.7005 12.4749 46.5188L12.5377 47.7638ZM19.5044 41.884C18.9208 41.6205 18.1757 41.4933 17.5652 41.4933C15.8146 41.4933 14.845 42.6656 14.845 44.1832C14.845 45.6918 15.7876 46.8368 17.3946 46.8368C17.7986 46.8368 18.1218 46.7914 18.3822 46.7278V44.7921H16.7931V43.6198H19.8186V47.6184C19.0195 47.8364 18.1937 48 17.3946 48C14.9617 48 13.2828 46.8004 13.2828 44.2832C13.2828 41.7387 14.854 40.3119 17.3946 40.3119C18.2654 40.3119 18.9478 40.43 19.5941 40.6208L19.5044 41.884ZM21.273 47.8728H22.7722V40.4391H21.273V47.8728ZM23.6161 47.8728H25.1693L25.8246 46.1734H28.868L29.5144 47.8728H31.1752L28.2306 40.4391H26.5339L23.6161 47.8728ZM28.4461 45.0011H26.2555L27.3418 41.9386H27.3598L28.4461 45.0011ZM32.0102 47.8728H33.5187V44.783H34.003C34.6406 44.783 34.8293 45.0011 35.0448 45.5464L35.9513 47.8637H37.6306L36.4268 44.9557C36.2745 44.6285 36.0412 44.2196 35.6281 44.1923V44.1741C36.5799 44.0469 37.172 43.3199 37.172 42.4475C37.172 40.3846 35.2514 40.4391 33.6353 40.4391H32.0102V47.8728ZM33.5187 41.6114H34.0119C34.7661 41.6114 35.6013 41.6841 35.6013 42.5838C35.6013 43.5108 34.7483 43.6198 34.0119 43.6198H33.5187V41.6114Z" fill="white"/>
</svg>
