<svg width="44" height="50" viewBox="0 0 44 50" fill="none" xmlns="http://www.w3.org/2000/svg">
<path d="M19.8556 20.3303C19.8556 20.3404 19.8556 20.3404 19.8556 20.3303C17.3854 19.3523 16.9518 19.5439 17.2644 15.8738C20.1782 17.6282 19.9766 18.2735 19.8556 20.3303ZM20.6017 16.751C20.1177 16.1461 18.9683 15.158 18.3734 14.5631C17.4458 13.6557 17.2039 13.3834 17.2039 11.8408V5.25696C17.2039 4.31929 15.7318 4.45036 15.7318 5.28721C15.7318 5.28721 15.631 16.7409 15.7318 17.7189C15.8326 18.6969 15.3386 19.4531 16.9316 20.4412C18.6961 21.5301 21.2167 22.256 21.2167 22.256C21.2167 22.256 21.2469 19.7354 21.2873 18.7977C21.3276 17.8601 21.0856 17.356 20.6017 16.751ZM26.7822 15.8839C27.0847 19.5539 26.6612 19.3624 24.191 20.3505C24.191 20.3505 24.191 20.3505 24.191 20.3404C24.07 18.2735 23.8583 17.6282 26.7822 15.8839ZM22.7492 18.7977C22.7795 19.7354 22.8198 22.256 22.8198 22.256C22.8198 22.256 25.3505 21.5402 27.115 20.4412C28.708 19.4531 28.2139 18.6969 28.3148 17.7189C28.4156 16.7409 28.3148 5.28721 28.3148 5.28721C28.3148 4.45036 26.8427 4.3092 26.8427 5.25696V11.8509C26.8427 13.3935 26.6007 13.6658 25.6732 14.5732C25.0783 15.158 23.9188 16.1561 23.4449 16.751C22.961 17.356 22.719 17.8601 22.7492 18.7977Z" fill="white"/>
<path d="M22.0605 14.291C19.2172 12.7988 21.2539 10.7823 22.0605 9.45143L22.1311 9.56234C24.2181 12.6173 23.6535 13.0811 22.0605 14.291ZM23.9661 10.0564C23.099 8.55409 23.9661 10.0564 22.7764 8.10038V0.820815C22.7764 -0.318506 21.3144 -0.227764 21.3144 0.820815L21.3346 8.08021C21.3346 8.08021 20.0843 10.137 19.7314 10.9638C19.3786 11.7906 18.9148 12.7686 20.0944 14.0894C20.1852 14.1902 20.3364 14.4725 22.0605 16.0555L22.1008 16.0151C22.1008 16.0151 22.0907 16.0051 23.6132 14.533C25.5087 12.7182 24.8231 11.5587 23.9661 10.0564ZM19.8928 26.3295C17.6847 25.5028 16.2126 25.291 12.2401 24.5046C8.2676 23.7182 5.8882 23.0023 3.7406 20.7942C7.1888 22.0949 12.7241 22.5587 15.7388 23.1838C18.7534 23.8089 19.5802 24.5752 19.8928 26.3295ZM21.1732 25.6338C21.1027 24.2021 20.5885 22.9418 17.604 21.8529C15.0935 20.9354 11.5545 20.7337 8.9835 20.3304C6.4125 19.9271 2.1375 19.2415 0 17.2452C1.6031 22.4578 5.6159 24.6457 9.6893 25.5028C14.3071 26.4707 18.4409 26.874 20.9615 28.588L21.2136 28.7594C21.0623 27.5495 21.2438 27.0656 21.1732 25.6338ZM24.0972 26.3295C24.4198 24.5752 25.2365 23.8089 28.2612 23.1838C31.2759 22.5587 36.801 22.0848 40.259 20.7942C38.112 23.0124 35.732 23.7282 31.7599 24.5046C27.7773 25.291 26.3052 25.5028 24.0972 26.3295ZM22.7864 28.7493L23.0385 28.5779C25.5591 26.8639 29.6929 26.4606 34.311 25.4927C38.384 24.6357 42.397 22.4578 44 17.2351C41.863 19.2315 37.588 19.9271 35.017 20.3304C32.4354 20.7337 28.8964 20.9354 26.396 21.8529C23.4116 22.9418 22.8973 24.2122 22.8268 25.6338C22.7562 27.0656 22.9276 27.5495 22.7864 28.7493Z" fill="white"/>
<path d="M19.6349 35.5046H17.6789C17.6789 35.5046 17.7192 34.7182 17.6083 33.347C17.4571 31.5523 15.3196 31.391 11.7907 30.4331C9.37094 29.7778 6.21514 28.9208 4.80354 26.5614C5.66054 26.9345 7.37464 27.6403 10.1876 28.2049C12.8594 28.7393 14.3819 29.0518 16.8319 29.5459C19.1711 30.0197 19.6248 31.4212 19.6248 32.9739C19.6349 32.9739 19.6349 35.5046 19.6349 35.5046ZM21.0263 32.2681C21.0565 29.4652 19.4131 28.6788 16.9731 28.0436C14.5231 27.4185 11.1152 26.9446 8.22153 26.1178C5.32783 25.3011 3.71464 24.7668 1.74854 22.6797C2.16194 26.7429 5.06574 29.6164 8.63494 30.8465C12.2041 32.0766 12.0125 31.8245 13.9484 32.2984C15.8842 32.7723 16.2371 33.468 16.2371 34.6274V37.017H21.0363C21.1271 31.6027 20.996 35.0711 21.0263 32.2681ZM24.2829 32.9739C24.2829 31.4313 24.7366 30.0298 27.0758 29.5559C29.5359 29.0518 31.0583 28.7493 33.7201 28.215C36.523 27.6504 38.247 26.9446 39.104 26.5715C37.693 28.9409 34.537 29.7878 32.117 30.4432C28.5982 31.401 26.4506 31.5624 26.2994 33.357C26.1885 34.7182 26.2288 35.5147 26.2288 35.5147H24.2728C24.2829 35.5147 24.2829 32.9739 24.2829 32.9739ZM22.8915 37.0372H27.6908V34.6375C27.6908 33.468 28.0437 32.7823 29.9795 32.3085C31.9154 31.8346 31.7137 32.0867 35.293 30.8566C38.862 29.6265 41.766 26.753 42.179 22.6898C40.213 24.7668 38.61 25.3011 35.706 26.1279C32.8127 26.9446 29.3947 27.4185 26.9548 28.0537C24.5047 28.6788 22.8613 29.4753 22.9016 32.2782C22.9218 35.0812 22.7907 31.6128 22.8915 37.0372ZM11.337 50.1545C10.722 50.2956 10.0565 50.4166 9.42134 50.4166C6.69904 50.4166 4.80354 49.0857 4.80354 46.2929C4.80354 43.4698 6.56804 41.8868 9.42134 41.8868C9.97584 41.8868 10.7119 41.9877 11.3269 42.2296L11.2059 43.621C10.5707 43.2681 9.98593 43.1875 9.38103 43.1875C7.64683 43.1875 6.55794 44.4881 6.55794 46.1719C6.55794 47.8456 7.62664 49.116 9.42134 49.116C10.0868 49.116 10.8732 48.9748 11.2664 48.7732L11.337 50.1545ZM19.161 43.6311C18.5056 43.3387 17.6688 43.1976 16.9832 43.1976C15.0171 43.1976 13.9282 44.4982 13.9282 46.182C13.9282 47.8557 14.9868 49.1261 16.7916 49.1261C17.2453 49.1261 17.6083 49.0757 17.9007 49.0051V46.8575H16.1161V45.5569H19.5139V49.9932C18.6165 50.2351 17.689 50.4166 16.7916 50.4166C14.0593 50.4166 12.1738 49.0857 12.1738 46.2929C12.1738 43.4698 13.9383 41.8868 16.7916 41.8868C17.7696 41.8868 18.5359 42.0179 19.2618 42.2296L19.161 43.6311ZM21.1473 50.2755H22.831V42.028H21.1473V50.2755ZM23.7788 50.2755H25.5231L26.2591 48.39H29.677L30.403 50.2755H32.2682L28.9612 42.028H27.0556L23.7788 50.2755ZM29.2032 47.0894H26.743L27.963 43.6916H27.9832L29.2032 47.0894ZM33.2059 50.2755H34.9V46.8474H35.444C36.16 46.8474 36.372 47.0894 36.614 47.6944L37.632 50.2654H39.518L38.166 47.039C37.995 46.676 37.733 46.2223 37.269 46.1921V46.1719C38.338 46.0307 39.003 45.2241 39.003 44.2562C39.003 41.9675 36.846 42.028 35.031 42.028H33.2059V50.2755ZM34.9 43.3286H35.454C36.301 43.3286 37.239 43.4093 37.239 44.4075C37.239 45.4359 36.281 45.5569 35.454 45.5569H34.9V43.3286Z" fill="white"/>
</svg>
