<svg width="176" height="50" viewBox="0 0 176 50" fill="none" xmlns="http://www.w3.org/2000/svg">
<g clip-path="url(#clip0_2124_1686)">
<path d="M85.8556 20.3303C85.8556 20.3404 85.8556 20.3404 85.8556 20.3303C83.3854 19.3523 82.9518 19.5439 83.2644 15.8738C86.1782 17.6282 85.9766 18.2735 85.8556 20.3303ZM86.6017 16.751C86.1177 16.1461 84.9683 15.158 84.3734 14.5631C83.4458 13.6557 83.2039 13.3834 83.2039 11.8408L83.2039 5.25696C83.2039 4.31929 81.7318 4.45036 81.7318 5.28721C81.7318 5.28721 81.631 16.7409 81.7318 17.7189C81.8326 18.6969 81.3386 19.4531 82.9316 20.4412C84.6961 21.5301 87.2167 22.256 87.2167 22.256C87.2167 22.256 87.2469 19.7354 87.2873 18.7977C87.3276 17.8601 87.0856 17.356 86.6017 16.751ZM92.7822 15.8839C93.0847 19.5539 92.6612 19.3624 90.191 20.3505C90.191 20.3505 90.191 20.3505 90.191 20.3404C90.07 18.2735 89.8583 17.6282 92.7822 15.8839ZM88.7492 18.7977C88.7795 19.7354 88.8198 22.256 88.8198 22.256C88.8198 22.256 91.3505 21.5402 93.115 20.4412C94.708 19.4531 94.2139 18.6969 94.3148 17.7189C94.4156 16.7409 94.3148 5.28721 94.3148 5.28721C94.3148 4.45036 92.8427 4.3092 92.8427 5.25696L92.8427 11.8509C92.8427 13.3935 92.6007 13.6658 91.6732 14.5732C91.0783 15.158 89.9188 16.1561 89.4449 16.751C88.961 17.356 88.719 17.8601 88.7492 18.7977Z" fill="white"/>
<path d="M88.0605 14.291C85.2172 12.7988 87.2539 10.7823 88.0605 9.45143L88.1311 9.56234C90.2181 12.6173 89.6535 13.0811 88.0605 14.291ZM89.9661 10.0564C89.099 8.55409 89.9661 10.0564 88.7764 8.10038V0.820815C88.7764 -0.318506 87.3144 -0.227764 87.3144 0.820815L87.3346 8.08021C87.3346 8.08021 86.0843 10.137 85.7314 10.9638C85.3786 11.7906 84.9148 12.7686 86.0944 14.0894C86.1852 14.1902 86.3364 14.4725 88.0605 16.0555L88.1008 16.0151C88.1008 16.0151 88.0907 16.0051 89.6132 14.533C91.5087 12.7182 90.8231 11.5587 89.9661 10.0564ZM85.8928 26.3295C83.6847 25.5028 82.2126 25.291 78.2401 24.5046C74.2676 23.7182 71.8882 23.0023 69.7406 20.7942C73.1888 22.0949 78.7241 22.5587 81.7388 23.1838C84.7534 23.8089 85.5802 24.5752 85.8928 26.3295ZM87.1732 25.6338C87.1027 24.2021 86.5885 22.9418 83.604 21.8529C81.0935 20.9354 77.5545 20.7337 74.9835 20.3304C72.4125 19.9271 68.1375 19.2415 66 17.2452C67.6031 22.4578 71.6159 24.6457 75.6893 25.5028C80.3071 26.4707 84.4409 26.874 86.9615 28.588L87.2136 28.7594C87.0623 27.5495 87.2438 27.0656 87.1732 25.6338ZM90.0972 26.3295C90.4198 24.5752 91.2365 23.8089 94.2612 23.1838C97.2759 22.5587 102.801 22.0848 106.259 20.7942C104.112 23.0124 101.732 23.7282 97.7599 24.5046C93.7773 25.291 92.3052 25.5028 90.0972 26.3295ZM88.7864 28.7493L89.0385 28.5779C91.5591 26.8639 95.6929 26.4606 100.311 25.4927C104.384 24.6357 108.397 22.4578 110 17.2351C107.863 19.2315 103.588 19.9271 101.017 20.3304C98.4354 20.7337 94.8964 20.9354 92.396 21.8529C89.4116 22.9418 88.8973 24.2122 88.8268 25.6338C88.7562 27.0656 88.9276 27.5495 88.7864 28.7493Z" fill="white"/>
<path d="M85.6349 35.5046H83.6789C83.6789 35.5046 83.7192 34.7182 83.6083 33.347C83.4571 31.5523 81.3196 31.391 77.7907 30.4331C75.3709 29.7778 72.2151 28.9208 70.8035 26.5614C71.6605 26.9345 73.3746 27.6403 76.1876 28.2049C78.8594 28.7393 80.3819 29.0518 82.8319 29.5459C85.1711 30.0197 85.6248 31.4212 85.6248 32.9739C85.6349 32.9739 85.6349 35.5046 85.6349 35.5046ZM87.0263 32.2681C87.0565 29.4652 85.4131 28.6788 82.9731 28.0436C80.5231 27.4185 77.1152 26.9446 74.2215 26.1178C71.3278 25.3011 69.7146 24.7668 67.7485 22.6797C68.1619 26.7429 71.0657 29.6164 74.6349 30.8465C78.2041 32.0766 78.0125 31.8245 79.9484 32.2984C81.8842 32.7723 82.2371 33.468 82.2371 34.6274V37.017L87.0363 37.017C87.1271 31.6027 86.996 35.0711 87.0263 32.2681ZM90.2829 32.9739C90.2829 31.4313 90.7366 30.0298 93.0758 29.5559C95.5359 29.0518 97.0583 28.7493 99.7201 28.215C102.523 27.6504 104.247 26.9446 105.104 26.5715C103.693 28.9409 100.537 29.7878 98.117 30.4432C94.5982 31.401 92.4506 31.5624 92.2994 33.357C92.1885 34.7182 92.2288 35.5147 92.2288 35.5147H90.2728C90.2829 35.5147 90.2829 32.9739 90.2829 32.9739ZM88.8915 37.0372L93.6908 37.0372V34.6375C93.6908 33.468 94.0437 32.7823 95.9795 32.3085C97.9154 31.8346 97.7137 32.0867 101.293 30.8566C104.862 29.6265 107.766 26.753 108.179 22.6898C106.213 24.7668 104.61 25.3011 101.706 26.1279C98.8127 26.9446 95.3947 27.4185 92.9548 28.0537C90.5047 28.6788 88.8613 29.4753 88.9016 32.2782C88.9218 35.0812 88.7907 31.6128 88.8915 37.0372ZM77.337 50.1545C76.722 50.2956 76.0565 50.4166 75.4213 50.4166C72.699 50.4166 70.8035 49.0857 70.8035 46.2929C70.8035 43.4698 72.568 41.8868 75.4213 41.8868C75.9758 41.8868 76.7119 41.9877 77.3269 42.2296L77.2059 43.621C76.5707 43.2681 75.9859 43.1875 75.381 43.1875C73.6468 43.1875 72.5579 44.4881 72.5579 46.1719C72.5579 47.8456 73.6266 49.116 75.4213 49.116C76.0868 49.116 76.8732 48.9748 77.2664 48.7732L77.337 50.1545ZM85.161 43.6311C84.5056 43.3387 83.6688 43.1976 82.9832 43.1976C81.0171 43.1976 79.9282 44.4982 79.9282 46.182C79.9282 47.8557 80.9868 49.1261 82.7916 49.1261C83.2453 49.1261 83.6083 49.0757 83.9007 49.0051V46.8575H82.1161V45.5569H85.5139L85.5139 49.9932C84.6165 50.2351 83.689 50.4166 82.7916 50.4166C80.0593 50.4166 78.1738 49.0857 78.1738 46.2929C78.1738 43.4698 79.9383 41.8868 82.7916 41.8868C83.7696 41.8868 84.5359 42.0179 85.2618 42.2296L85.161 43.6311ZM87.1473 50.2755L88.831 50.2755L88.831 42.028L87.1473 42.028L87.1473 50.2755ZM89.7788 50.2755H91.5231L92.2591 48.39L95.677 48.39L96.403 50.2755L98.2682 50.2755L94.9612 42.028L93.0556 42.028L89.7788 50.2755ZM95.2032 47.0894L92.743 47.0894L93.963 43.6916H93.9832L95.2032 47.0894ZM99.2059 50.2755H100.9L100.9 46.8474H101.444C102.16 46.8474 102.372 47.0894 102.614 47.6944L103.632 50.2654L105.518 50.2654L104.166 47.039C103.995 46.676 103.733 46.2223 103.269 46.1921V46.1719C104.338 46.0307 105.003 45.2241 105.003 44.2562C105.003 41.9675 102.846 42.028 101.031 42.028H99.2059L99.2059 50.2755ZM100.9 43.3286H101.454C102.301 43.3286 103.239 43.4093 103.239 44.4075C103.239 45.4359 102.281 45.5569 101.454 45.5569H100.9L100.9 43.3286Z" fill="white"/>
</g>
<defs>
<clipPath id="clip0_2124_1686">
<rect width="176" height="50" fill="white"/>
</clipPath>
</defs>
</svg>
