<svg width="184" height="50" viewBox="0 0 184 50" fill="none" xmlns="http://www.w3.org/2000/svg">
<g clip-path="url(#clip0_2124_1686)">
<path d="M31.3459 48.6919C18.476 48.6919 8 38.2159 8 25.3459C8 12.476 18.476 2 31.3459 2C44.2159 2 54.6919 12.476 54.6919 25.3459C54.6919 38.2159 44.2159 48.6919 31.3459 48.6919ZM31.2581 16.1437C31.291 16.1437 33.1578 18.1423 33.1578 19.7455C33.1578 21.4806 31.8072 21.8869 31.3459 21.8869C31.324 21.8869 31.291 21.8869 31.2691 21.8869L31.2471 21.8869C31.2142 21.8869 31.1922 21.8869 31.1702 21.8869C30.72 21.8869 29.3584 21.4696 29.3584 19.7455C29.3584 18.1423 31.2251 16.1437 31.2581 16.1437ZM13.6773 26.6417L15.8076 26.6417L15.8076 22.7105L19.3875 22.7105L19.3875 21.0633L15.8076 21.0633L15.8076 18.878L19.5083 18.878L19.5083 17.2309L13.6773 17.2309L13.6773 26.6417ZM33.1908 16.4292L35.4419 16.4292L32.8284 7.01839L29.9623 7.01839L27.261 16.4292L29.3364 16.4292L29.9294 14.3209L32.6527 14.3209L33.1908 16.4292ZM32.2574 12.7286L30.2918 12.7286L31.2032 8.63262L31.3569 8.63262L32.2574 12.7286ZM42.1185 21.9418C42.1185 24.709 43.4033 26.8064 46.1046 26.8064C48.817 26.8064 50.1127 24.709 50.1127 21.9418C50.1127 19.1745 48.817 17.0771 46.1046 17.0771C43.4033 17.0771 42.1185 19.1745 42.1185 21.9418ZM44.3806 21.9418C44.3806 20.1409 44.8198 18.6694 46.1046 18.6694C47.3894 18.6694 47.8506 20.1409 47.8506 21.9418C47.8506 23.7537 47.3894 25.2142 46.1046 25.2142C44.8308 25.2142 44.3806 23.7427 44.3806 21.9418ZM30.3467 46.0893C30.4675 45.1779 30.5992 43.7174 30.5992 42.0044C30.5992 41.5322 30.5992 41.8506 30.5992 41.7188C30.5992 39.314 30.5114 38.4904 28.8971 37.9633C26.4154 37.1397 25.3942 34.3725 25.9432 30.9134L17.6305 9.76368C13.3039 13.5741 10.5806 19.1416 10.5806 25.3459C10.5806 36.4699 19.3655 45.5732 30.3467 46.0893ZM31.335 32.6045C28.0296 31.8358 26.7997 28.816 26.7997 26.1476L19.5192 8.28122C19.047 8.61066 18.5858 8.96205 18.1356 9.32443C19.7389 13.1239 26.9205 30.1667 26.9315 30.1886C28.2053 33.2524 30.5114 32.2311 31.0714 34.7678C31.2032 35.3827 31.2142 35.6463 31.2142 35.6463L31.4667 35.6463C31.4667 35.6463 31.4667 35.3827 31.6095 34.7678C32.1695 32.2421 34.4756 33.2524 35.7494 30.1886C35.7604 30.1667 42.942 13.1129 44.5453 9.32443C44.0951 8.96205 43.6448 8.61066 43.1617 8.28122L35.8921 26.1476C35.8921 28.827 34.6623 31.8358 31.3569 32.6045L31.335 32.6045ZM31.335 27.2127C29.9294 26.8943 28.1834 25.5107 27.9528 23.7097C27.8759 23.0289 27.81 22.8422 27.9088 21.4806L21.5288 7.05133C21.0127 7.32586 20.5185 7.63333 20.0244 7.95179C21.9351 12.2344 27.7661 25.324 27.7661 25.3459C28.6885 27.2896 30.3027 27.3225 30.8628 28.4866C31.2032 29.1674 31.2251 29.7823 31.2361 29.8372L31.4448 29.8372C31.4448 29.7933 31.4887 29.1784 31.8181 28.4866C32.3782 27.3335 34.0034 27.2896 34.9148 25.3459C34.9148 25.335 40.7568 12.2344 42.6565 7.95179C42.1734 7.63333 41.6682 7.33684 41.1521 7.05133L34.783 21.4916C34.8819 22.8422 34.816 23.0399 34.7281 23.7207C34.4975 25.5107 32.7515 26.9053 31.3569 27.2237L31.335 27.2237L31.335 27.2127ZM31.4228 24.7639L31.5216 23.9733C31.9279 22.1394 33.2567 22.37 34.1681 20.5801C34.1681 20.5691 34.1791 20.5582 34.1791 20.5582C34.201 20.4923 38.7143 10.8069 40.6031 6.76582C37.8138 5.37122 34.6732 4.58057 31.3459 4.58057C28.0187 4.58057 24.878 5.37122 22.0778 6.76582C23.9556 10.8069 28.4689 20.4923 28.5018 20.5582L28.5128 20.5801C29.4242 22.37 30.753 22.1504 31.1593 23.9733L31.2581 24.7639L31.4228 24.7639ZM52.1113 25.3459C52.1113 19.1416 49.377 13.5741 45.0614 9.76368L36.7377 30.9024C37.2867 34.3615 36.2655 37.1287 33.7838 37.9523C32.1695 38.4904 32.0817 39.303 32.0817 41.7079C32.0817 41.8396 32.0817 41.5212 32.0817 41.9934C32.0817 43.7064 32.2135 45.1669 32.3342 46.0784C43.3264 45.5732 52.1113 36.4699 52.1113 25.3459ZM17.1473 31.4844C17.1473 31.4844 17.4548 32.1323 17.7073 32.6045C17.9599 33.0657 18.2893 33.6257 18.2893 33.6257L17.7403 33.9442C17.7403 33.9442 17.323 33.2524 16.9387 32.4507C16.8289 32.5057 16.181 32.8461 16.0712 32.901C16.137 33.0218 16.8069 34.3175 16.8069 34.3175L16.2469 34.636C16.2469 34.636 15.566 33.3073 15.5111 33.1975C15.3903 33.2524 13.9738 33.9881 13.9738 33.9881L13.6333 33.3183L17.1034 31.5173L17.1473 31.4844ZM19.3326 35.0313L19.8157 35.6133L16.7849 38.15L16.2908 37.568L19.2996 35.0533L19.3326 35.0313ZM22.1437 37.6888L22.7477 38.117L21.968 42.3008L21.2762 41.9055C21.2762 41.9055 21.4519 41.049 21.4739 40.9721C21.4409 40.9502 21.0346 40.7086 20.6503 40.434C20.255 40.1485 19.8706 39.8301 19.8377 39.8081C19.7608 39.852 19.0031 40.3023 19.0031 40.3023L18.4101 39.7971L22.1108 37.7107L22.1437 37.6888ZM20.3867 39.4677C20.4526 39.5226 20.7162 39.7313 20.9797 39.9289C21.2543 40.1156 21.5178 40.2913 21.5947 40.3352C21.6386 40.1595 21.9131 38.7869 21.968 38.5343C21.7484 38.6551 20.5515 39.3689 20.3867 39.4677ZM24.6474 39.2261C24.6474 39.2261 25.2843 39.5446 26.1958 39.852C26.8217 40.0717 27.3378 40.2364 27.8649 40.3462L27.6892 40.9502C27.6892 40.9502 27.1951 40.8623 26.3934 40.6207C26.3495 40.7525 25.3063 43.7284 25.3063 43.7284L24.5925 43.4758C24.5925 43.4758 25.6357 40.489 25.6797 40.3572C24.9329 40.0827 24.4168 39.7971 24.4168 39.7971L24.6474 39.2261ZM37.133 40.0277C37.3966 40.1595 37.5832 40.4011 37.6821 40.7525C37.726 40.8953 37.748 41.038 37.748 41.1698C37.748 41.7188 37.3636 42.1581 36.6608 42.3777C36.6608 42.3777 36.3094 42.4875 36.1996 42.5205C36.2435 42.6413 36.6608 43.981 36.6608 43.981L35.969 44.1567L34.794 40.3462L35.8482 40.0168C36.3753 39.852 36.8036 39.863 37.133 40.0277ZM35.6615 40.7415C35.6945 40.8623 35.991 41.7847 36.0239 41.9055C36.1667 41.8616 36.4851 41.7628 36.4851 41.7628C36.5949 41.7298 36.8365 41.631 36.9573 41.4114C37.0012 41.3345 37.0122 41.2576 37.0122 41.1698C37.0122 41.1039 37.0012 41.038 36.9793 40.9611C36.9354 40.8294 36.8475 40.7196 36.7267 40.6537C36.5181 40.5439 36.2216 40.5658 36.0459 40.6207C36.0459 40.6207 35.7604 40.7086 35.6615 40.7415ZM39.483 38.3696L42.9091 40.8843L42.3051 41.3125C42.3051 41.3125 41.6133 40.7854 41.5474 40.7415C41.5035 40.7635 41.1521 41.016 40.7678 41.2357C40.4054 41.4553 40.0211 41.642 39.9771 41.6639C39.9991 41.7518 40.1309 42.5973 40.1309 42.5973L39.472 42.9048L38.901 38.699L39.483 38.3696ZM39.8783 41.027C39.9771 40.9831 40.2517 40.8294 40.5152 40.6756C40.7458 40.5329 40.9435 40.4121 41.0313 40.3352C40.8886 40.2254 39.8234 39.4128 39.6038 39.2481C39.6477 39.5226 39.8563 40.8513 39.8783 41.027ZM43.4033 34.9105L46.3901 37.5789L45.8521 38.2049C45.8521 38.2049 43.0519 37.3813 42.6236 37.2715C42.942 37.568 44.6771 39.4018 44.6771 39.4018L44.15 39.874L41.3278 37.0079L41.9867 36.4149C41.9867 36.4149 44.688 37.2166 45.1163 37.3374C44.7979 37.0409 42.9311 35.4376 42.9311 35.4376L43.4033 34.9105ZM44.7649 32.912L48.224 34.9215L47.8726 35.5255L44.3916 33.5159L44.7649 32.912ZM46.2693 29.5956L46.8623 29.9031L46.8074 29.969C46.6098 30.1996 46.5329 30.3204 46.4341 30.584C46.3901 30.7047 46.3352 30.9353 46.4231 31.111C46.467 31.1989 46.5439 31.2648 46.6647 31.3087C46.9282 31.3966 47.1588 31.166 47.4224 30.9024C47.7847 30.529 48.2459 30.0678 48.9707 30.3204C49.7174 30.573 49.97 31.2318 49.6625 32.1323C49.5747 32.4068 49.399 32.6374 49.2452 32.8571L49.2123 32.901L48.5973 32.6155L48.6632 32.5386C48.7401 32.4507 48.9927 32.1543 49.0915 31.8578C49.1903 31.5942 49.1793 31.155 48.773 31.0232C48.4436 30.9134 48.191 31.166 47.9055 31.4624C47.5541 31.8358 47.1478 32.2421 46.489 32.0225C46.1925 31.9237 45.9838 31.737 45.8521 31.4954C45.6983 31.1989 45.6983 30.8146 45.8411 30.4083C45.9289 30.1337 46.0827 29.8592 46.2474 29.6396L46.2693 29.5956Z" fill="white"/>
<path d="M63.3337 5.68066L67.9788 5.68066L67.9788 7.02037L65.0138 7.02037L65.0138 9.52407L67.847 9.52407L67.847 10.8638L65.0138 10.8638L65.0138 14.8719L63.3228 14.8719L63.3228 5.68066L63.3337 5.68066Z" fill="white"/>
<path d="M71.668 7.98486C73.0517 7.98486 74.6439 8.70962 74.6439 11.4769C74.6439 14.321 73.0517 14.9799 71.668 14.9799C70.2844 14.9799 68.6812 14.321 68.6812 11.4769C68.6812 8.70962 70.2844 7.98486 71.668 7.98486ZM71.668 13.8159C72.7222 13.8159 72.9638 12.6079 72.9638 11.4769C72.9638 10.3458 72.7222 9.14887 71.668 9.14887C70.6138 9.14887 70.3613 10.3458 70.3613 11.4769C70.3613 12.6079 70.6138 13.8159 71.668 13.8159Z" fill="white"/>
<path d="M78.7393 7.98486C80.1229 7.98486 81.7152 8.70962 81.7152 11.4769C81.7152 14.321 80.1229 14.9799 78.7393 14.9799C77.3557 14.9799 75.7524 14.321 75.7524 11.4769C75.7524 8.70962 77.3557 7.98486 78.7393 7.98486ZM78.7393 13.8159C79.7935 13.8159 80.0351 12.6079 80.0351 11.4769C80.0351 10.3458 79.7935 9.14887 78.7393 9.14887C77.6851 9.14887 77.4326 10.3458 77.4326 11.4769C77.4326 12.6079 77.6851 13.8159 78.7393 13.8159Z" fill="white"/>
<path d="M88.5774 5L88.5774 13.719C88.5774 14.2022 88.5884 14.6305 88.6323 14.883L87.1059 14.883C87.0839 14.6854 87.051 14.2901 87.051 13.8289L87.0071 13.8289C86.7435 14.4109 86.2603 14.9929 85.2062 14.9929C83.5151 14.9929 82.8232 13.3896 82.8232 11.5008C82.8232 9.29363 83.7017 7.99786 85.1622 7.99786C86.1395 7.99786 86.6776 8.54691 86.9192 9.07401L86.9412 9.07401L86.9412 5L88.5774 5ZM85.6454 13.7739C86.6117 13.7739 86.9302 12.7307 86.9302 11.4569C86.9302 10.1392 86.5568 9.18382 85.6674 9.18382C84.7559 9.18382 84.4485 10.0623 84.4485 11.424C84.4485 12.9833 84.701 13.7739 85.6454 13.7739Z" fill="white"/>
<path d="M93.8273 8.48194C94.2885 8.2733 94.9364 7.97681 95.9796 7.97681C98.088 7.97681 98.5712 9.00904 98.5712 10.7001L98.5712 13.665C98.5712 14.1482 98.6261 14.5984 98.659 14.862L97.1876 14.862C97.1107 14.5984 97.0997 14.269 97.0997 13.9396L97.0777 13.9396C96.6714 14.4886 96.1553 14.9718 95.178 14.9718C94.1238 14.9718 93.1465 14.247 93.1465 12.9842C93.1465 11.1394 94.6509 10.6782 96.7154 10.6782L97.0448 10.6782L97.0448 10.4366C97.0448 9.76674 96.7154 9.14081 95.782 9.14081C94.9694 9.14081 94.2446 9.53613 93.9261 9.79968L93.8273 8.48194ZM97.0338 11.5567L96.8911 11.5567C95.4964 11.5567 94.6619 11.8422 94.6619 12.8305C94.6619 13.4454 95.0682 13.8737 95.7051 13.8737C96.6824 13.8737 97.0338 13.1489 97.0338 11.941L97.0338 11.5567Z" fill="white"/>
<path d="M100.077 9.20377C100.077 8.78649 100.066 8.39117 100.022 8.08369L101.548 8.08369C101.559 8.42411 101.603 8.78649 101.603 9.1269L101.625 9.1269C101.867 8.7206 102.328 7.98486 103.426 7.98486C104.963 7.98486 105.425 9.1269 105.425 10.4995L105.425 14.87L103.789 14.87L103.789 10.796C103.789 9.75283 103.525 9.32456 102.855 9.32456C101.999 9.32456 101.702 10.0493 101.702 10.9168L101.702 14.87L100.066 14.87L100.066 9.20377L100.077 9.20377Z" fill="white"/>
<path d="M112.472 5L112.472 13.719C112.472 14.2022 112.483 14.6305 112.527 14.883L111 14.883C110.978 14.6854 110.946 14.2901 110.946 13.8289L110.902 13.8289C110.638 14.4109 110.155 14.9929 109.101 14.9929C107.41 14.9929 106.718 13.3896 106.718 11.5008C106.718 9.29363 107.596 7.99786 109.057 7.99786C110.034 7.99786 110.572 8.54691 110.814 9.07401L110.836 9.07401L110.836 5L112.472 5ZM109.551 13.7739C110.517 13.7739 110.836 12.7307 110.836 11.4569C110.836 10.1392 110.462 9.18382 109.573 9.18382C108.661 9.18382 108.354 10.0623 108.354 11.424C108.354 12.9833 108.607 13.7739 109.551 13.7739Z" fill="white"/>
<path d="M121.522 12.6537L118.36 12.6537L117.701 14.8719L116.01 14.8719L119.095 5.68066L120.94 5.68066L123.905 14.8719L122.17 14.8719L121.522 12.6537ZM121.171 11.3689L120.007 7.07527L119.985 7.07527L118.722 11.3689L121.171 11.3689Z" fill="white"/>
<path d="M124.928 15.9242C125.312 16.1329 126.07 16.5062 126.927 16.5062C128.464 16.5062 128.717 15.4411 128.717 14.3759L128.717 13.728L128.695 13.728C128.431 14.2551 127.97 14.87 126.905 14.87C125.96 14.87 124.533 14.2331 124.533 11.4988C124.533 9.63204 125.203 7.98486 126.982 7.98486C127.97 7.98486 128.431 8.55588 128.771 9.14887L128.826 9.14887C128.826 8.79747 128.87 8.44607 128.881 8.09467L130.353 8.09467C130.331 8.44607 130.298 8.80845 130.298 9.15985L130.298 14.1673C130.298 16.2866 129.65 17.802 127.168 17.802C126.092 17.802 125.236 17.5275 124.84 17.3847L124.928 15.9242ZM127.289 13.6731C128.321 13.6731 128.728 12.9374 128.728 11.4C128.728 9.98343 128.189 9.21475 127.41 9.22573C126.553 9.23671 126.224 10.0274 126.224 11.411C126.224 13.0033 126.74 13.6731 127.289 13.6731Z" fill="white"/>
<path d="M131.843 9.20377C131.843 8.78649 131.832 8.39117 131.788 8.08369L133.26 8.08369C133.271 8.49 133.314 8.91826 133.314 9.32456L133.336 9.32456C133.534 8.79747 134.05 7.98486 135.06 7.98486C135.17 7.98486 135.247 8.00683 135.335 8.02879L135.335 9.55517C135.192 9.51124 135.049 9.48928 134.874 9.48928C134.204 9.48928 133.468 9.89558 133.468 11.1584L133.468 14.87L131.832 14.87L131.832 9.20377L131.843 9.20377Z" fill="white"/>
<path d="M136.558 5.2063L138.249 5.2063L138.249 6.80955L136.558 6.80955L136.558 5.2063ZM136.58 8.08336L138.216 8.08336L138.216 14.8697L136.58 14.8697L136.58 8.08336Z" fill="white"/>
<path d="M144.448 14.6973C144.064 14.84 143.504 14.9718 142.845 14.9718C140.605 14.9718 139.66 13.4015 139.66 11.4798C139.66 9.54711 140.659 7.97681 142.944 7.97681C143.46 7.97681 144.064 8.13054 144.371 8.25134L144.261 9.55809C143.976 9.41534 143.558 9.22866 143.119 9.22866C141.878 9.22866 141.34 10.0632 141.34 11.5018C141.34 12.7646 141.944 13.7419 143.196 13.7419C143.591 13.7419 144.129 13.5552 144.36 13.4125L144.448 14.6973Z" fill="white"/>
<path d="M150.807 13.7503C150.807 14.1675 150.818 14.5629 150.861 14.8703L149.335 14.8703C149.324 14.5299 149.28 14.1675 149.28 13.8271L149.236 13.8161L149.247 13.8271C148.929 14.3323 148.511 14.9692 147.446 14.9692C145.909 14.9692 145.448 13.8271 145.448 12.4545L145.448 8.08398L147.084 8.08398L147.084 12.158C147.084 13.2012 147.369 13.6295 148.061 13.6295C148.929 13.6295 149.181 12.8388 149.181 11.9713L149.181 8.08398L150.818 8.08398L150.818 13.7503L150.807 13.7503Z" fill="white"/>
<path d="M152.446 5L154.082 5L154.082 14.8721L152.446 14.8721L152.446 5Z" fill="white"/>
<path d="M156.309 6.69214L157.945 6.18701L157.945 8.08675L159.296 8.08675L159.296 9.2837L157.945 9.2837L157.945 12.7977C157.945 13.5224 158.209 13.7311 158.681 13.7311C158.967 13.7311 159.186 13.6542 159.296 13.5883L159.296 14.7523C159.044 14.8731 158.692 14.9719 158.198 14.9719C156.99 14.9719 156.298 14.4229 156.298 12.9953L156.298 9.2837L155.222 9.2837L155.222 8.08675L156.298 8.08675L156.298 6.69214L156.309 6.69214Z" fill="white"/>
<path d="M165.698 13.7503C165.698 14.1675 165.709 14.5629 165.753 14.8703L164.227 14.8703C164.216 14.5299 164.172 14.1675 164.172 13.8271L164.128 13.8161L164.139 13.8271C163.82 14.3323 163.403 14.9692 162.338 14.9692C160.801 14.9692 160.339 13.8271 160.339 12.4545L160.339 8.08398L161.976 8.08398L161.976 12.158C161.976 13.2012 162.261 13.6295 162.953 13.6295C163.82 13.6295 164.073 12.8388 164.073 11.9713L164.073 8.08398L165.709 8.08398L165.709 13.7503L165.698 13.7503Z" fill="white"/>
<path d="M167.227 9.20377C167.227 8.78649 167.216 8.39117 167.172 8.08369L168.643 8.08369C168.654 8.49 168.698 8.91826 168.698 9.32456L168.72 9.32456C168.918 8.79747 169.434 7.98486 170.444 7.98486C170.554 7.98486 170.631 8.00683 170.719 8.02879L170.719 9.55517C170.576 9.51124 170.433 9.48928 170.258 9.48928C169.588 9.48928 168.852 9.89558 168.852 11.1584L168.852 14.87L167.227 14.87L167.227 9.20377Z" fill="white"/>
<path d="M176.649 14.5431C176.309 14.6858 175.595 14.9823 174.618 14.9823C172.433 14.9823 171.488 13.412 171.488 11.5891C171.488 9.55762 172.553 7.99829 174.277 7.99829C175.738 7.99829 176.99 8.85482 176.99 11.6221L176.99 11.9405L173.07 11.9405C173.07 13.0935 173.531 13.7963 174.794 13.7963C175.793 13.7963 176.265 13.4889 176.573 13.2692L176.649 14.5431ZM175.42 10.8973C175.42 9.70037 175.024 9.09641 174.288 9.09641C173.432 9.09641 173.081 10.0078 173.081 10.8973L175.42 10.8973Z" fill="white"/>
<path d="M66.626 20.4304C68.5367 20.4304 70.2827 21.847 70.2827 25.1633C70.2827 28.4686 68.5367 29.8962 66.626 29.8962C64.7152 29.8962 62.9692 28.4796 62.9692 25.1633C62.9692 21.858 64.7152 20.4304 66.626 20.4304ZM66.626 28.6004C67.6911 28.6004 68.5477 27.689 68.5477 25.1633C68.5477 22.6376 67.6911 21.7262 66.626 21.7262C65.5608 21.7262 64.7043 22.6376 64.7043 25.1633C64.7043 27.689 65.5608 28.6004 66.626 28.6004Z" fill="white"/>
<path d="M71.6784 24.0849C71.6784 23.6676 71.6675 23.2723 71.6235 22.9648L73.095 22.9648C73.106 23.3711 73.1499 23.7994 73.1499 24.2057L73.1719 24.2057C73.3695 23.6786 73.8857 22.866 74.8959 22.866C75.0057 22.866 75.0826 22.8879 75.1704 22.9099L75.1704 24.4363C75.0277 24.3923 74.8849 24.3704 74.7092 24.3704C74.0394 24.3704 73.3037 24.7767 73.3037 26.0395L73.3037 29.7511L71.6675 29.7511L71.6675 24.0849L71.6784 24.0849Z" fill="white"/>
<path d="M76.3431 30.8053C76.7274 31.014 77.4851 31.3873 78.3416 31.3873C79.879 31.3873 80.1316 30.3222 80.1316 29.257L80.1316 28.6091L80.1096 28.6091C79.8461 29.1362 79.3849 29.7512 78.3197 29.7512C77.3753 29.7512 75.9478 29.1142 75.9478 26.3799C75.9478 24.5131 76.6176 22.866 78.3966 22.866C79.3849 22.866 79.8461 23.437 80.1865 24.03L80.2414 24.03C80.2414 23.6786 80.2853 23.3272 80.2963 22.9758L81.7678 22.9758C81.7458 23.3272 81.7129 23.6896 81.7129 24.041L81.7129 29.0484C81.7129 31.1677 81.065 32.6831 78.5832 32.6831C77.5071 32.6831 76.6505 32.4086 76.2552 32.2658L76.3431 30.8053ZM78.693 28.5542C79.7253 28.5542 80.1316 27.8185 80.1316 26.2701C80.1316 24.8536 79.5935 24.0849 78.8138 24.0959C77.9573 24.1068 77.6279 24.8975 77.6279 26.2811C77.6279 27.8844 78.144 28.5542 78.693 28.5542Z" fill="white"/>
<path d="M83.5251 23.3577C83.9863 23.149 84.6342 22.8525 85.6774 22.8525C87.7858 22.8525 88.2689 23.8848 88.2689 25.5759L88.2689 28.5408C88.2689 29.0239 88.3238 29.4742 88.3568 29.7377L86.8853 29.7377C86.8084 29.4742 86.7975 29.1447 86.7975 28.8153L86.7755 28.8153C86.3692 29.3644 85.8531 29.8475 84.8758 29.8475C83.8216 29.8475 82.8442 29.1228 82.8442 27.8599C82.8442 26.0151 84.3487 25.5539 86.4131 25.5539L86.7425 25.5539L86.7425 25.3013C86.7425 24.6315 86.4131 24.0056 85.4797 24.0056C84.6671 24.0056 83.9424 24.4009 83.6239 24.6644L83.5251 23.3577ZM86.7425 26.4324L86.5998 26.4324C85.2052 26.4324 84.3706 26.7179 84.3706 27.7062C84.3706 28.3212 84.7769 28.7494 85.4138 28.7494C86.3911 28.7494 86.7425 28.0247 86.7425 26.8167L86.7425 26.4324Z" fill="white"/>
<path d="M89.7854 24.0849C89.7854 23.6676 89.7744 23.2723 89.7305 22.9648L91.2568 22.9648C91.2678 23.3052 91.3118 23.6676 91.3118 24.008L91.3337 24.008C91.5753 23.6017 92.0365 22.866 93.1346 22.866C94.672 22.866 95.1332 24.008 95.1332 25.3807L95.1332 29.7511L93.497 29.7511L93.497 25.6771C93.497 24.6339 93.2335 24.2057 92.5636 24.2057C91.7071 24.2057 91.4106 24.9304 91.4106 25.7979L91.4106 29.7511L89.7744 29.7511L89.7744 24.0849L89.7854 24.0849Z" fill="white"/>
<path d="M96.7476 20.0901L98.4277 20.0901L98.4277 21.6933L96.7476 21.6933L96.7476 20.0901ZM96.7695 22.9671L98.4057 22.9671L98.4057 29.7535L96.7695 29.7535L96.7695 22.9671Z" fill="white"/>
<path d="M99.6682 28.3459L102.567 24.206L99.7561 24.206L99.7561 22.9651L104.192 22.9651L104.192 24.3597L101.348 28.5106L104.28 28.5106L104.28 29.7514L99.6572 29.7514L99.6572 28.3459L99.6682 28.3459Z" fill="white"/>
<path d="M105.718 23.3577C106.18 23.149 106.828 22.8525 107.871 22.8525C109.979 22.8525 110.462 23.8848 110.462 25.5759L110.462 28.5408C110.462 29.0239 110.517 29.4742 110.55 29.7377L109.079 29.7377C109.002 29.4742 108.991 29.1447 108.991 28.8153L108.969 28.8153C108.563 29.3644 108.046 29.8475 107.069 29.8475C106.015 29.8475 105.038 29.1228 105.038 27.8599C105.038 26.0151 106.542 25.5539 108.606 25.5539L108.936 25.5539L108.936 25.3013C108.936 24.6315 108.606 24.0056 107.673 24.0056C106.86 24.0056 106.136 24.4009 105.817 24.6644L105.718 23.3577ZM108.936 26.4324L108.793 26.4324C107.399 26.4324 106.564 26.7179 106.564 27.7062C106.564 28.3212 106.97 28.7494 107.607 28.7494C108.585 28.7494 108.936 28.0247 108.936 26.8167L108.936 26.4324Z" fill="white"/>
<path d="M112.582 21.5732L114.218 21.0681L114.218 22.9679L115.569 22.9679L115.569 24.1648L114.218 24.1648L114.218 27.6788C114.218 28.4035 114.482 28.6122 114.954 28.6122C115.239 28.6122 115.459 28.5353 115.569 28.4694L115.569 29.6334C115.316 29.7542 114.965 29.853 114.471 29.853C113.263 29.853 112.571 29.304 112.571 27.8764L112.571 24.1648L111.495 24.1648L111.495 22.9679L112.571 22.9679L112.571 21.5732L112.582 21.5732Z" fill="white"/>
<path d="M116.744 20.0901L118.424 20.0901L118.424 21.6933L116.744 21.6933L116.744 20.0901ZM116.766 22.9671L118.402 22.9671L118.402 29.7535L116.766 29.7535L116.766 22.9671Z" fill="white"/>
<path d="M122.841 22.866C124.225 22.866 125.817 23.5907 125.817 26.358C125.817 29.2021 124.225 29.861 122.841 29.861C121.458 29.861 119.854 29.2021 119.854 26.358C119.854 23.5907 121.458 22.866 122.841 22.866ZM122.841 28.697C123.896 28.697 124.137 27.489 124.137 26.358C124.137 25.2269 123.896 24.03 122.841 24.03C121.787 24.03 121.535 25.2269 121.535 26.358C121.535 27.489 121.787 28.697 122.841 28.697Z" fill="white"/>
<path d="M127.098 24.0849C127.098 23.6676 127.087 23.2723 127.043 22.9648L128.569 22.9648C128.58 23.3052 128.624 23.6676 128.624 24.008L128.646 24.008C128.888 23.6017 129.349 22.866 130.447 22.866C131.984 22.866 132.446 24.008 132.446 25.3807L132.446 29.7511L130.809 29.7511L130.809 25.6771C130.809 24.6339 130.546 24.2057 129.876 24.2057C129.02 24.2057 128.723 24.9304 128.723 25.7979L128.723 29.7511L127.087 29.7511L127.087 24.0849L127.098 24.0849Z" fill="white"/>
<path d="M140.155 22.866C141.539 22.866 143.131 23.5907 143.131 26.358C143.131 29.2021 141.539 29.861 140.155 29.861C138.772 29.861 137.168 29.2021 137.168 26.358C137.168 23.5907 138.772 22.866 140.155 22.866ZM140.155 28.697C141.21 28.697 141.451 27.489 141.451 26.358C141.451 25.2269 141.21 24.03 140.155 24.03C139.101 24.03 138.849 25.2269 138.849 26.358C138.86 27.489 139.101 28.697 140.155 28.697Z" fill="white"/>
<path d="M144.955 24.1732L143.824 24.1732L143.824 22.9763L144.955 22.9763L144.955 21.5926C144.955 20.6153 145.416 19.7258 146.898 19.7258C147.338 19.7258 147.755 19.8137 148.073 19.8796L148.008 21.0655C147.81 21.0106 147.601 20.9557 147.36 20.9557C146.887 20.9557 146.58 21.2852 146.58 21.8013L146.58 22.9763L147.821 22.9763L147.821 24.1732L146.58 24.1732L146.58 29.7516L144.944 29.7516L144.944 24.1732L144.955 24.1732Z" fill="white"/>
<path d="M152.837 21.5732L154.473 21.0681L154.473 22.9679L155.824 22.9679L155.824 24.1648L154.473 24.1648L154.473 27.6788C154.473 28.4035 154.736 28.6122 155.209 28.6122C155.494 28.6122 155.714 28.5353 155.824 28.4694L155.824 29.6334C155.571 29.7542 155.22 29.853 154.725 29.853C153.517 29.853 152.826 29.304 152.826 27.8764L152.826 24.1648L151.75 24.1648L151.75 22.9679L152.826 22.9679L152.826 21.5732L152.837 21.5732Z" fill="white"/>
<path d="M156.856 19.8784L158.493 19.8784L158.493 23.8426L158.537 23.8426C158.822 23.4253 159.206 22.8653 160.228 22.8653C161.765 22.8653 162.226 24.0073 162.226 25.38L162.226 29.7505L160.59 29.7505L160.59 25.6765C160.59 24.6333 160.326 24.205 159.657 24.205C158.8 24.205 158.504 24.9298 158.504 25.7973L158.504 29.7505L156.867 29.7505L156.867 19.8784L156.856 19.8784Z" fill="white"/>
<path d="M168.673 29.4242C168.332 29.5669 167.619 29.8634 166.641 29.8634C164.456 29.8634 163.512 28.2931 163.512 26.4702C163.512 24.4387 164.577 22.8794 166.301 22.8794C167.761 22.8794 169.013 23.7359 169.013 26.5032L169.013 26.8216L165.093 26.8216C165.093 27.9856 165.554 28.6774 166.817 28.6774C167.816 28.6774 168.289 28.37 168.596 28.1504L168.673 29.4242ZM167.432 25.7784C167.432 24.5815 167.037 23.9775 166.301 23.9775C165.444 23.9775 165.093 24.8889 165.093 25.7784L167.432 25.7784Z" fill="white"/>
<path d="M64.9465 35.4402L64.9465 41.392C64.9465 42.9184 65.4077 43.4235 66.396 43.4235C67.3623 43.4235 67.8345 42.9184 67.8345 41.392L67.8345 35.4402L69.5256 35.4402L69.5256 41.392C69.5256 43.8188 68.131 44.7632 66.407 44.7632C64.6719 44.7632 63.2773 43.8188 63.2773 41.392L63.2773 35.4402L64.9465 35.4402Z" fill="white"/>
<path d="M71.1423 38.966C71.1423 38.5487 71.1313 38.1534 71.0874 37.8459L72.6138 37.8459C72.6248 38.1863 72.6687 38.5487 72.6687 38.8891L72.6907 38.8891C72.9322 38.4828 73.3934 37.7471 74.4916 37.7471C76.0289 37.7471 76.4901 38.8891 76.4901 40.2618L76.4901 44.6323L74.8759 44.6323L74.8759 40.5582C74.8759 39.515 74.6124 39.0868 73.9425 39.0868C73.086 39.0868 72.7895 39.8115 72.7895 40.679L72.7895 44.6323L71.1423 44.6323L71.1423 38.966Z" fill="white"/>
<path d="M78.1021 34.9685L79.7931 34.9685L79.7931 36.5718L78.1021 36.5718L78.1021 34.9685ZM78.135 37.8566L79.7712 37.8566L79.7712 44.6429L78.135 44.6429L78.135 37.8566Z" fill="white"/>
<path d="M82.0027 36.449L83.6388 35.9438L83.6388 37.8436L84.9895 37.8436L84.9895 39.0405L83.6388 39.0405L83.6388 42.5545C83.6388 43.2793 83.9024 43.4879 84.3746 43.4879C84.6601 43.4879 84.8797 43.411 84.9895 43.3451L84.9895 44.5092C84.737 44.6299 84.3856 44.7288 83.8914 44.7288C82.6835 44.7288 81.9917 44.1797 81.9917 42.7522L81.9917 39.0405L80.9155 39.0405L80.9155 37.8436L81.9917 37.8436L81.9917 36.449L82.0027 36.449Z" fill="white"/>
<path d="M91.0039 44.2999C90.6635 44.4426 89.9497 44.7391 88.9724 44.7391C86.7872 44.7391 85.8428 43.1688 85.8428 41.346C85.8428 39.3145 86.9079 37.7551 88.632 37.7551C90.0925 37.7551 91.3443 38.6117 91.3443 41.3789L91.3443 41.6974L87.4241 41.6974C87.4241 42.8614 87.8853 43.5532 89.1481 43.5532C90.1474 43.5532 90.6196 43.2457 90.927 43.0261L91.0039 44.2999ZM89.774 40.6542C89.774 39.4572 89.3787 38.8532 88.643 38.8532C87.7864 38.8532 87.435 39.7647 87.435 40.6542L89.774 40.6542Z" fill="white"/>
<path d="M98.1882 34.7595L98.1882 43.4786C98.1882 43.9617 98.1992 44.39 98.2431 44.6426L96.7167 44.6426C96.6948 44.4449 96.6618 44.0496 96.6618 43.5884L96.6179 43.5884C96.3544 44.1704 95.8712 44.7524 94.817 44.7524C93.1259 44.7524 92.4341 43.1491 92.4341 41.2604C92.4341 39.0532 93.3126 37.7574 94.7731 37.7574C95.7504 37.7574 96.2885 38.3064 96.5301 38.8335L96.552 38.8335L96.552 34.7595L98.1882 34.7595ZM95.2562 43.5444C96.2226 43.5444 96.541 42.5012 96.541 41.2274C96.541 39.9097 96.1677 38.9543 95.2782 38.9543C94.3668 38.9543 94.0593 39.8328 94.0593 41.1945C94.0593 42.7538 94.3119 43.5444 95.2562 43.5444Z" fill="white"/>
<path d="M103.326 35.4402L105.324 35.4402L108.377 42.6548L108.399 42.6548L108.399 35.4402L109.925 35.4402L109.925 44.6314L107.927 44.6314L104.885 37.4717L104.852 37.4717L104.852 44.6314L103.326 44.6314L103.326 35.4402Z" fill="white"/>
<path d="M111.956 38.2415C112.417 38.0328 113.065 37.7363 114.108 37.7363C116.216 37.7363 116.7 38.7686 116.7 40.4597L116.7 43.4246C116.7 43.9077 116.754 44.358 116.787 44.6215L115.316 44.6215C115.239 44.358 115.228 44.0285 115.228 43.6991L115.206 43.6991C114.8 44.2482 114.284 44.7313 113.306 44.7313C112.252 44.7313 111.275 44.0066 111.275 42.7437C111.275 40.8989 112.779 40.4377 114.844 40.4377L115.173 40.4377L115.173 40.1961C115.173 39.5263 114.844 38.9003 113.91 38.9003C113.098 38.9003 112.373 39.2957 112.055 39.5592L111.956 38.2415ZM115.173 41.3162L115.03 41.3162C113.636 41.3162 112.801 41.6017 112.801 42.59C112.801 43.2049 113.208 43.6332 113.844 43.6332C114.822 43.6332 115.173 42.9085 115.173 41.7005L115.173 41.3162Z" fill="white"/>
<path d="M118.82 36.449L120.456 35.9438L120.456 37.8436L121.806 37.8436L121.806 39.0405L120.456 39.0405L120.456 42.5545C120.456 43.2793 120.719 43.4879 121.191 43.4879C121.477 43.4879 121.697 43.411 121.806 43.3451L121.806 44.5092C121.554 44.6299 121.202 44.7288 120.708 44.7288C119.5 44.7288 118.809 44.1797 118.809 42.7522L118.809 39.0405L117.732 39.0405L117.732 37.8436L118.809 37.8436L118.809 36.449L118.82 36.449Z" fill="white"/>
<path d="M122.981 34.9685L124.673 34.9685L124.673 36.5718L122.981 36.5718L122.981 34.9685ZM123.003 37.8566L124.64 37.8566L124.64 44.6429L123.003 44.6429L123.003 37.8566Z" fill="white"/>
<path d="M129.076 37.7471C130.46 37.7471 132.052 38.4718 132.052 41.2391C132.052 44.0832 130.46 44.7421 129.076 44.7421C127.693 44.7421 126.089 44.0832 126.089 41.2391C126.089 38.4718 127.693 37.7471 129.076 37.7471ZM129.076 43.5781C130.13 43.5781 130.372 42.3701 130.372 41.2391C130.372 40.108 130.13 38.9111 129.076 38.9111C128.022 38.9111 127.769 40.108 127.769 41.2391C127.769 42.3701 128.022 43.5781 129.076 43.5781Z" fill="white"/>
<path d="M133.336 38.966C133.336 38.5487 133.325 38.1534 133.281 37.8459L134.807 37.8459C134.818 38.1863 134.862 38.5487 134.862 38.8891L134.884 38.8891C135.126 38.4828 135.587 37.7471 136.685 37.7471C138.222 37.7471 138.683 38.8891 138.683 40.2618L138.683 44.6323L137.047 44.6323L137.047 40.5582C137.047 39.515 136.784 39.0868 136.114 39.0868C135.257 39.0868 134.961 39.8115 134.961 40.679L134.961 44.6323L133.325 44.6323L133.325 38.966L133.336 38.966Z" fill="white"/>
<path d="M139.991 43.051C140.255 43.1608 140.925 43.5012 141.694 43.5012C142.286 43.5012 142.748 43.3584 142.748 42.8313C142.748 42.5678 142.616 42.3152 142.023 41.9748L141.353 41.5795C140.672 41.1732 139.915 40.7339 139.915 39.6688C139.915 38.7354 140.826 37.7471 142.254 37.7471C143.121 37.7471 143.791 37.9667 143.956 38.0216L143.868 39.2844C143.461 39.1307 143.022 38.977 142.429 38.977C141.77 38.977 141.496 39.2295 141.496 39.6358C141.496 40.0092 141.781 40.2069 142.265 40.5033L143.066 41.0195C143.912 41.5575 144.329 41.9419 144.329 42.7325C144.329 43.9844 143.275 44.7311 141.803 44.7311C140.958 44.7311 140.266 44.5334 139.915 44.4017L139.991 43.051Z" fill="white"/>
</g>
<defs>
<clipPath id="clip0_2124_1686">
<rect width="184" height="50" fill="white"/>
</clipPath>
</defs>
</svg>
