<svg width="170" height="50" viewBox="0 0 170 50" fill="none" xmlns="http://www.w3.org/2000/svg">
<g clip-path="url(#clip0_2124_1686)">
<g clip-path="url(#clip1_2124_1686)">
<g clip-path="url(#clip2_2124_1686)">
<path d="M161.672 31.0104V24.0507C161.672 21.9377 160.646 20.5493 158.555 20.5493C156.827 20.5493 155.651 21.7015 154.884 22.8341V20.5063L151.275 22.2561V22.5978C152.257 22.4689 152.257 22.7892 152.257 24.285V31.0104C152.257 32.1411 151.894 32.3129 151.361 32.3129V32.6762H156.036V32.3129C155.204 32.3129 154.884 32.1431 154.884 31.0104V23.8808C155.395 23.1543 156.122 22.3439 157.317 22.3439C158.512 22.3439 159.045 23.0274 159.045 24.3299V31.0124C159.045 32.1431 158.682 32.3149 157.914 32.3149V32.6781H162.632V32.3149C162.035 32.3149 161.672 32.145 161.672 31.0124V31.0104Z" fill="white"/>
<path d="M145.298 20.6138C142.203 20.6138 139.832 23.1544 139.832 26.7202C139.832 30.286 142.244 32.8265 145.298 32.8265C148.352 32.8265 150.764 30.3289 150.764 26.7631C150.764 23.1973 148.352 20.6157 145.298 20.6157V20.6138ZM145.747 32.0142C143.548 32.0142 142.523 28.257 142.523 24.9685C142.523 22.5783 143.613 21.4457 144.872 21.4457C147.093 21.4457 148.075 25.074 148.075 28.4054C148.075 30.7956 147.007 32.0142 145.747 32.0142Z" fill="white"/>
<path d="M138.381 31.0103V20.2719H137.996C137.633 20.7425 137.143 21.0413 136.01 21.0413H131.612V17.2841H131.079C130.546 19.5045 129.308 21.2542 127.941 21.6818V22.0021H128.988V29.9012C128.988 30.03 128.988 30.1784 129.009 30.2858C128.603 30.9908 128.091 31.5024 127.472 31.5024C126.961 31.5024 126.597 31.2466 126.597 30.2858V24.074C126.597 21.5764 124.975 20.5512 122.584 20.5512C119.659 20.5512 117.845 22.0665 117.845 23.6249C117.845 24.3728 118.335 24.8844 119.126 24.8844C119.958 24.8844 120.343 24.3513 120.472 23.5175C120.641 22.3009 120.878 21.3616 122.307 21.3616C123.481 21.3616 124.121 22.131 124.121 23.4101C124.121 24.5837 123.651 25.1598 122.969 25.48C122.286 25.8432 121.432 26.0346 120.579 26.3334C118.892 26.888 117.591 27.7843 117.591 29.8348C117.591 30.198 117.642 30.5358 117.736 30.8443C117.431 31.2408 117.072 31.4985 116.652 31.4985C116.183 31.4985 115.841 31.2427 115.841 30.2819V15.6184L112.192 17.2197V17.5614C113.217 17.454 113.217 17.7528 113.217 19.0983V21.0843C112.662 20.764 111.936 20.5512 110.997 20.5512C108.114 20.5512 105.404 23.0273 105.404 27.1907C105.404 30.819 107.218 32.8264 109.61 32.8264C111.168 32.8264 112.449 31.8227 113.238 30.692C113.281 31.9516 113.986 32.8909 115.416 32.8909C116.603 32.8909 117.396 32.2914 117.964 31.395C118.484 32.3617 119.509 32.9338 120.753 32.9338C122.268 32.9338 123.315 31.9516 124.02 30.9478C124.127 32.0375 124.873 32.8909 126.262 32.8909C127.65 32.8909 128.503 32.1644 129.144 31.0982C129.507 32.3363 130.468 32.9124 131.727 32.9124C133.756 32.9124 134.459 31.2466 134.61 29.3036L134.247 29.2606C133.948 30.733 133.477 31.3736 132.774 31.3736C132.071 31.3736 131.622 30.8834 131.622 29.7508V22.0021H134.825C135.764 22.0021 135.764 22.2579 135.764 23.7518V31.0103C135.764 32.141 135.401 32.3129 134.846 32.3129V32.6761H139.373V32.3129C138.732 32.3129 138.39 32.143 138.39 31.0103H138.381ZM113.211 29.6219C112.614 30.4323 111.952 31.0943 110.842 31.0943C108.856 31.0943 108.003 28.5752 108.003 25.5445C108.003 22.6836 109.22 21.3811 110.692 21.3811C112.164 21.3811 113.211 22.6192 113.211 24.4763V29.6219ZM123.992 29.9636C123.373 30.7955 122.754 31.3091 121.923 31.3091C120.854 31.3091 120.235 30.5612 120.235 29.3446C120.235 28.3194 120.725 27.6574 121.538 27.1672C122.157 26.8255 122.733 26.6556 123.246 26.3353C123.631 26.0795 123.887 25.8022 123.994 25.5659V29.9636H123.992Z" fill="white"/>
<path d="M137.039 19.6101C138 19.6101 138.64 18.9481 138.64 18.0517C138.64 17.1554 138 16.4934 137.039 16.4934C136.078 16.4934 135.459 17.1769 135.459 18.0517C135.459 18.9266 136.121 19.6101 137.039 19.6101Z" fill="white"/>
<path d="M103.947 31.0104V24.0507C103.947 21.9377 102.922 20.5493 100.831 20.5493C99.1025 20.5493 97.9269 21.7015 97.1595 22.8341V20.5063L93.5507 22.2561V22.5978C94.533 22.4689 94.533 22.7892 94.533 24.285V30.6043C94.533 31.6724 94.0428 32.0981 93.252 32.0981C92.4611 32.0981 91.9494 31.6705 91.9494 30.6043V20.5063L88.3211 22.215V22.5568C89.3249 22.4064 89.3249 22.8556 89.3249 24.285V29.7724C88.8347 30.4344 88.0868 31.1393 87.0186 31.1393C85.9505 31.1393 85.3744 30.4773 85.3744 29.1318V20.5063L81.7246 22.215V22.5568C82.7283 22.4064 82.7283 22.8556 82.7283 24.285V29.4091C82.7283 31.5435 83.7321 32.932 85.845 32.932C87.4248 32.932 88.5984 31.8853 89.3679 30.8191C89.4753 31.9087 90.1158 32.6762 92.0998 32.6762H98.3116V32.3129C97.4798 32.3129 97.1595 32.1431 97.1595 31.0104V23.8808C97.6711 23.1543 98.3976 22.3439 99.5927 22.3439C100.788 22.3439 101.321 23.0274 101.321 24.3299V31.0124C101.321 32.1431 100.958 32.3149 100.19 32.3149V32.6781H104.908V32.3149C104.311 32.3149 103.947 32.145 103.947 31.0124V31.0104Z" fill="white"/>
<path d="M75.8135 20.6138C72.7183 20.6138 70.3477 23.1544 70.3477 26.7202C70.3477 30.286 72.7594 32.8265 75.8135 32.8265C78.8677 32.8265 81.2794 30.3289 81.2794 26.7631C81.2794 23.1973 78.8677 20.6157 75.8135 20.6157V20.6138ZM76.2607 32.0142C74.0619 32.0142 73.0367 28.257 73.0367 24.9685C73.0367 22.5783 74.1263 21.4457 75.3859 21.4457C77.6062 21.4457 78.5884 25.074 78.5884 28.4054C78.5884 30.7956 77.5203 32.0142 76.2607 32.0142Z" fill="white"/>
<path d="M67.0799 17.5401C69.5345 17.5401 70.3469 18.1592 70.4309 20.6998H70.88V16.6653H60.0557V17.0285C61.0379 17.0285 61.4226 17.1359 61.4226 18.6728V30.6492C61.4226 32.1646 61.0379 32.2935 60.0557 32.2935V32.6782H65.7129V32.2935C64.6037 32.2935 64.1546 32.1646 64.1546 30.6492V24.9276H66.5233C68.0172 24.9276 68.5308 25.5251 68.5933 27.0834H69.0209V21.8753H68.5933C68.5288 23.5196 68.0172 24.0312 66.5233 24.0312H64.1546V17.5421H67.0799V17.5401Z" fill="white"/>
<path d="M53.2054 25.8648L51.5612 24.7966C50.5359 24.1346 49.9169 23.6659 49.9169 22.8106C49.9169 21.9553 50.5574 21.4007 51.5612 21.4007C52.8851 21.4007 54.1877 22.4044 54.5294 24.326H54.9141V20.8031H54.5294C54.5079 21.1019 54.4005 21.2523 54.1232 21.2523C53.717 21.2523 52.9926 20.6117 51.4967 20.6117C49.6611 20.6117 47.9739 21.7014 47.9739 23.8143C47.9739 25.1598 48.7218 26.2045 50.1083 27.1028L51.731 28.1495C52.9047 28.9189 53.3538 29.3446 53.3538 30.3054C53.3538 31.2662 52.7133 31.9926 51.3249 31.9926C49.5537 31.9926 47.7591 30.8834 47.4818 27.8508H47.2045C46.5425 29.8992 45.3259 30.9674 43.6172 30.9674C41.2895 30.9674 39.8385 28.9599 39.8385 25.5875V25.5015H47.1185C47.0326 22.5138 45.3474 20.6137 42.6994 20.6137C40.0514 20.6137 37.2765 23.0039 37.2765 27.1028C37.2765 28.0382 37.4405 28.9228 37.7568 29.7059C37.2784 30.8034 36.6789 31.3716 35.888 31.3716C34.9917 31.3716 34.5211 30.8815 34.5211 29.7274V21.7639H37.339V20.8031H34.5211V17.2803H33.988C33.4548 19.4362 32.2168 21.016 30.8498 21.4436V21.7639H31.8965V29.8973C31.8965 30.0262 31.8965 30.1531 31.918 30.2605C31.4903 30.9869 30.9787 31.4986 30.3811 31.4986C29.8695 31.4986 29.5063 31.2428 29.5063 30.282V24.0701C29.5063 21.5725 27.8835 20.5473 25.4933 20.5473C22.568 20.5473 20.7539 22.0627 20.7539 23.621C20.7539 24.3689 21.244 24.8806 22.0349 24.8806C22.8668 24.8806 23.2515 24.3474 23.3804 23.5136C23.5503 22.297 23.7866 21.3577 25.216 21.3577C26.3896 21.3577 27.0301 22.1271 27.0301 23.4062C27.0301 24.5798 26.5595 25.1559 25.878 25.4762C25.1945 25.8394 24.3411 26.0307 23.4878 26.3295C21.8006 26.8841 20.5 27.7805 20.5 29.8309C20.5 31.7095 21.8455 32.9261 23.6596 32.9261C25.175 32.9261 26.2217 31.9438 26.9266 30.9401C27.0341 32.0297 27.78 32.8831 29.1685 32.8831C30.5569 32.8831 31.4103 32.1567 32.0723 31.0904C32.457 32.3285 33.5017 32.9046 34.8901 32.9046C36.6379 32.9046 37.5772 31.7934 38.0966 30.3952C38.9344 31.8579 40.399 32.8206 42.4045 32.8206C44.7537 32.8206 46.2906 31.6899 47.1439 29.2763V32.6702H47.5501C47.5716 32.4144 47.72 32.0727 48.0403 32.0727C48.5109 32.0727 49.2354 32.8206 51.2643 32.8206C53.8694 32.8206 55.6405 31.3267 55.6405 29.3837C55.6405 27.718 54.6798 26.8216 53.2074 25.8609L53.2054 25.8648ZM42.2971 21.4456C43.5566 21.4456 44.3046 22.5977 44.4315 24.7126H39.8834C40.1178 22.5138 41.186 21.4456 42.2951 21.4456H42.2971ZM26.9052 29.9637C26.2861 30.7956 25.6671 31.3092 24.8352 31.3092C23.767 31.3092 23.148 30.5612 23.148 29.3446C23.148 28.3194 23.6381 27.6574 24.4505 27.1673C25.0695 26.8255 25.6456 26.6556 26.1592 26.3354C26.5439 26.0796 26.7997 25.8023 26.9071 25.566V29.9637H26.9052Z" fill="white"/>
<path d="M14.7554 25.5661C15.8021 25.5661 16.2493 25.695 16.2493 27.2748V30.4344C16.2493 31.5651 15.7162 32.0572 14.4781 32.0787C10.9338 32.1001 9.24854 28.0871 9.24854 23.1329C9.24854 19.1629 11.1701 17.2843 13.5603 17.2843C15.9505 17.2843 17.8076 18.6727 18.2138 21.4476H18.663V16.6652H18.2353C18.2138 17.007 18.0225 17.2413 17.6807 17.2413C17.1476 17.2413 15.8451 16.4094 13.988 16.4094C9.99646 16.4075 6.40918 19.5027 6.40918 24.7986C6.40918 29.3467 9.27002 32.932 14.1579 32.9105C16.4856 32.9105 18.1494 32.2056 18.9832 31.4811V27.2748C18.9832 25.695 19.3464 25.5661 20.1998 25.5661V25.1814H14.7554V25.5661Z" fill="white"/>
</g>
</g>
</g>
<defs>
<clipPath id="clip0_2124_1686">
<rect width="170" height="50" fill="white"/>
</clipPath>
<clipPath id="clip1_2124_1686">
<rect width="175.048" height="35.3461" fill="white" transform="translate(-3 7)"/>
</clipPath>
<clipPath id="clip2_2124_1686">
<rect width="156.224" height="39.9932" fill="white" transform="translate(6.40967 4.6731)"/>
</clipPath>
</defs>
</svg>
