<svg width="118" height="50" viewBox="0 0 118 50" fill="none" xmlns="http://www.w3.org/2000/svg">
<g clip-path="url(#clip0_2124_1686)">
<g clip-path="url(#clip1_2124_1686)">
<path d="M43.1012 35.4646H42.2358V39.5809H43.1012V35.4646Z" fill="white"/>
<path d="M47.7343 35.4643V38.1597L45.8122 35.4643H44.9839V39.5803H45.8122V36.8855L47.7343 39.5803H48.5626V35.4639L47.7343 35.4643Z" fill="white"/>
<path d="M50.103 35.4646V36.1505H51.2403V39.5804H52.105V36.1505H53.2423V35.4646H50.103Z" fill="white"/>
<path d="M54.7822 35.4645V39.5803H57.2732V38.8936H55.6467V37.8311H57.1808V37.1449H55.6471V36.1498H57.255V35.4639L54.7822 35.4645Z" fill="white"/>
<mask id="mask0_2124_1686" style="mask-type:luminance" maskUnits="userSpaceOnUse" x="5" y="9" width="107" height="31">
<path d="M111.521 9.68433H5.52148V39.655H111.521V9.68433Z" fill="white"/>
</mask>
<g mask="url(#mask0_2124_1686)">
<path d="M61.9949 36.7188C62.0033 36.9867 61.9158 37.2488 61.7479 37.4578C61.5581 37.6739 61.312 37.8331 61.0371 37.9178L62.4282 39.5805H61.3526L60.1595 38.0781H59.8808V39.5805H59.0161V35.464H60.2454C60.4824 35.4618 60.7188 35.4878 60.9497 35.5413C61.1472 35.5852 61.335 35.6649 61.5038 35.7763C61.6535 35.8769 61.7773 36.0114 61.865 36.169C61.9546 36.3379 61.9994 36.5271 61.9949 36.7184M61.1295 36.7372C61.1356 36.6454 61.1156 36.5537 61.0718 36.4727C61.028 36.3918 60.9622 36.3249 60.882 36.2798C60.6839 36.1774 60.4626 36.1284 60.2398 36.1376H59.8808V37.4233H60.1403C60.3911 37.435 60.6402 37.375 60.8582 37.2502C60.9453 37.1969 61.0165 37.1212 61.0643 37.0309C61.1121 36.9407 61.1348 36.8392 61.13 36.7372" fill="white"/>
<path d="M66.5984 39.5806L64.675 36.8857V39.5806H63.8467V35.4641H64.675L66.5984 38.1596V35.4645H67.4267V39.5806H66.5984Z" fill="white"/>
<path d="M73.036 39.5806H72.14L71.8487 38.7155H70.1553L69.8656 39.5806H68.9697L70.5325 35.4641H71.4722L73.036 39.5806ZM71.002 36.1572L70.3836 38.0299H71.6204L71.002 36.1572Z" fill="white"/>
<path d="M77.0266 35.4646V36.1518H75.8893V39.5804H75.0235V36.1518H73.8862V35.4656L77.0266 35.4646Z" fill="white"/>
<path d="M79.4619 35.4646H78.5972V39.5811H79.4619V35.4646Z" fill="white"/>
<path d="M85.2928 37.523C85.2946 37.8039 85.2477 38.083 85.154 38.3479C85.0659 38.5977 84.9292 38.8276 84.7518 39.0243C84.5709 39.2223 84.35 39.3796 84.1037 39.4857C83.5382 39.7117 82.9074 39.7117 82.3419 39.4857C82.0961 39.3806 81.8752 39.2249 81.6936 39.0287C81.5121 38.8325 81.3738 38.6003 81.288 38.3471C81.1052 37.8131 81.1052 37.2335 81.288 36.6995C81.3729 36.4457 81.5106 36.2129 81.6922 36.0164C81.8737 35.8199 82.0949 35.6641 82.3411 35.5594C82.9066 35.3334 83.5374 35.3334 84.1029 35.5594C84.349 35.6653 84.5698 35.822 84.751 36.0194C84.9286 36.2171 85.0654 36.4481 85.1532 36.699C85.2463 36.9633 85.2932 37.2416 85.292 37.5217M83.2223 38.9741C83.405 38.9782 83.5863 38.9401 83.7518 38.8626C83.8988 38.7907 84.0275 38.6862 84.1282 38.5572C84.2325 38.4201 84.3089 38.2638 84.3529 38.0973C84.4523 37.7204 84.4523 37.3243 84.3529 36.9474C84.3089 36.7808 84.2326 36.6245 84.1282 36.4875C84.0273 36.3583 83.8987 36.2535 83.7518 36.1808C83.5851 36.108 83.4051 36.0704 83.2231 36.0704C83.0412 36.0704 82.8612 36.108 82.6944 36.1808C82.5473 36.2531 82.4186 36.358 82.3181 36.4875C82.2134 36.6246 82.1367 36.7808 82.0921 36.9474C81.9927 37.3243 81.9927 37.7204 82.0921 38.0973C82.1367 38.2638 82.2135 38.4201 82.3181 38.5572C82.4184 38.6865 82.5472 38.791 82.6944 38.8626C82.8594 38.9402 83.0401 38.9783 83.2223 38.9741Z" fill="white"/>
<path d="M89.6981 39.5806L87.7747 36.8857V39.5806H86.9468V35.4641H87.7747L89.6981 38.1596V35.4645H90.5264V39.5806H89.6981Z" fill="white"/>
<path d="M96.1322 39.5806H95.2362L94.9449 38.7155H93.2515L92.9618 39.5806H92.0659L93.6291 35.4641H94.5684L96.1322 39.5806ZM94.0991 36.1565L93.4807 38.0293H94.7175L94.0991 36.1565Z" fill="white"/>
<path d="M98.5372 35.4647V38.8946H100.07V39.5806H97.6719V35.4641L98.5372 35.4647Z" fill="white"/>
<path d="M42.2358 9.86792H45.3231L47.1975 16.0562L49.0582 9.86792H52.1454V19.2706H49.9329L50.0166 12.1942L47.9874 19.2706H46.4081L44.3641 12.1931L44.4494 19.2695H42.2358V9.86792Z" fill="white"/>
<path d="M53.7539 9.86792H58.9843V11.9824H56.0515V13.4343H58.8852V15.5488H56.0515V17.1559H58.9843V19.2706H53.7539V9.86792Z" fill="white"/>
<path d="M60.3667 9.86792H63.3415C64.9065 9.86792 65.597 10.0226 66.2313 10.5449C66.5991 10.8625 66.8931 11.2566 67.0927 11.6997C67.2923 12.1428 67.3927 12.6241 67.3868 13.1101C67.3868 14.6749 66.4709 15.8304 65.0476 16.0704L67.5982 19.2706H64.8496L62.6651 16.2253V19.2706H60.3667V9.86792ZM63.511 14.5902C64.497 14.5902 65.0897 14.0971 65.0897 13.2796C65.0897 12.4335 64.5538 11.9824 63.5388 11.9824H62.6651V14.5902H63.511Z" fill="white"/>
<path d="M77.8787 15.7609C77.6289 16.8217 77.0249 17.7657 76.1664 18.437C75.3079 19.1083 74.2462 19.4669 73.1564 19.4536C70.365 19.4536 68.1807 17.2975 68.1807 14.5615C68.1779 13.9191 68.3026 13.2825 68.5475 12.6887C68.7925 12.0948 69.1529 11.5554 69.6078 11.1018C70.0627 10.6482 70.6031 10.2893 71.1976 10.0461C71.7922 9.80277 72.4291 9.67988 73.0715 9.6845C73.8215 9.66642 74.5652 9.82405 75.2433 10.1448C75.9214 10.4655 76.5151 10.9404 76.9768 11.5316C77.4372 12.0825 77.7477 12.7428 77.8785 13.4487H75.3685C75.2102 12.9656 74.9023 12.5454 74.4894 12.2488C74.0765 11.9523 73.5799 11.7947 73.0715 11.799C71.6618 11.799 70.5764 12.9977 70.5764 14.5484C70.5764 16.127 71.676 17.3394 73.1 17.3394C74.1006 17.3394 74.8624 16.8035 75.3685 15.7607L77.8787 15.7609Z" fill="white"/>
<path d="M80.8407 17.9031L80.3469 19.2702H77.7671L81.5319 9.86816H83.4344L87.1701 19.2702H84.5778L84.1117 17.9031H80.8407ZM83.4764 16.0006L82.49 12.7865L81.5035 16.0002L83.4764 16.0006Z" fill="white"/>
<path d="M88.5682 11.9824H86.7075V9.86792H92.8256V11.9824H90.9649V19.2703H88.5682V11.9824Z" fill="white"/>
<path d="M103.088 14.5618C103.09 15.2094 102.963 15.8509 102.714 16.4489C102.466 17.0469 102.1 17.5893 101.64 18.0447C101.179 18.5 100.633 18.8592 100.032 19.1011C99.4312 19.343 98.7883 19.463 98.1407 19.4539C95.3498 19.4539 93.165 17.3401 93.165 14.6333C93.1642 11.7995 95.2793 9.68436 98.1407 9.68436C98.7872 9.67488 99.4291 9.79405 100.029 10.0349C100.629 10.2758 101.175 10.6336 101.636 11.0875C102.096 11.5414 102.461 12.0823 102.711 12.6787C102.96 13.2752 103.089 13.9153 103.088 14.5618ZM95.5609 14.5482C95.5609 16.1269 96.6748 17.3398 98.1407 17.3398C99.6067 17.3398 100.691 16.1417 100.691 14.5482C100.691 13.0116 99.5624 11.7995 98.1407 11.7995C96.6606 11.7995 95.5609 12.9832 95.5609 14.5482Z" fill="white"/>
<path d="M104.291 9.86792H107.265C108.83 9.86792 109.52 10.0226 110.155 10.5449C110.523 10.8623 110.817 11.2564 111.017 11.6995C111.217 12.1426 111.318 12.6241 111.312 13.1101C111.312 14.6749 110.395 15.8304 108.971 16.0704L111.522 19.2706H108.775L106.589 16.2253V19.2706H104.291V9.86792ZM107.435 14.5902C108.422 14.5902 109.014 14.0971 109.014 13.2796C109.014 12.4335 108.478 11.9824 107.463 11.9824H106.589V14.5902H107.435Z" fill="white"/>
<path d="M52.1597 26.3983C52.1613 27.046 52.0341 27.6875 51.7853 28.2854C51.5365 28.8834 51.1712 29.4258 50.7107 29.8812C50.2501 30.3365 49.7035 30.6956 49.1028 30.9376C48.502 31.1795 47.8591 31.2995 47.2116 31.2904C44.4206 31.2904 42.2358 29.1766 42.2358 26.4698C42.2358 23.6362 44.3499 21.5215 47.2116 21.5215C47.858 21.5121 48.4998 21.6312 49.0997 21.8721C49.6997 22.1129 50.2457 22.4707 50.7062 22.9245C51.1666 23.3783 51.5322 23.9191 51.7817 24.5154C52.0313 25.1118 52.1597 25.7519 52.1597 26.3983ZM44.6321 26.3848C44.6321 27.9634 45.746 29.1764 47.2116 29.1764C48.6771 29.1764 49.7621 27.9776 49.7621 26.3848C49.7621 24.8481 48.6344 23.636 47.2116 23.636C45.7312 23.636 44.6321 24.8197 44.6321 26.3848Z" fill="white"/>
<path d="M62.6629 27.5969C62.4133 28.6578 61.8094 29.602 60.9509 30.2734C60.0923 30.9449 59.0305 31.3034 57.9406 31.29C55.1496 31.29 52.9649 29.1335 52.9649 26.3979C52.962 25.7553 53.0867 25.1186 53.3317 24.5246C53.5767 23.9305 53.9372 23.3911 54.3922 22.9374C54.8472 22.4837 55.3878 22.1248 55.9826 21.8816C56.5773 21.6384 57.2144 21.5156 57.857 21.5204C58.6067 21.5023 59.3502 21.6599 60.0282 21.9805C60.7061 22.3011 61.2996 22.7759 61.7612 23.3669C62.2221 23.9176 62.5329 24.5779 62.6636 25.284H60.1548C59.9961 24.801 59.688 24.3809 59.275 24.0844C58.8619 23.7879 58.3654 23.6302 57.857 23.6343C56.4473 23.6343 55.3618 24.8331 55.3618 26.3843C55.3618 27.9623 56.4611 29.1753 57.885 29.1753C58.8862 29.1753 59.6474 28.6395 60.1548 27.596L62.6629 27.5969Z" fill="white"/>
<path d="M63.7368 21.7043H68.9672V23.8184H66.0344V25.2708H68.8685V27.3852H66.0344V28.9919H68.9672V31.107H63.7368V21.7043Z" fill="white"/>
<path d="M72.576 29.7395L72.0826 31.1066H69.5034L73.2666 21.7046H75.169L78.9054 31.1066H76.3118L75.847 29.7395H72.576ZM75.2127 27.8371L74.2257 24.6229L73.2388 27.8371H75.2127Z" fill="white"/>
<path d="M79.6533 21.7043H81.7251L85.3769 27.6248L85.2916 21.7043H87.5898V31.107H85.5031L81.8669 25.3832L81.9505 31.107H79.6533V21.7043Z" fill="white"/>
<path d="M20.209 39.5178C17.3041 39.5178 14.4643 38.6563 12.0489 37.0424C9.63357 35.4284 7.75104 33.1344 6.63941 30.4506C5.52778 27.7667 5.23698 24.8134 5.80378 21.9643C6.37059 19.1151 7.76954 16.4981 9.82373 14.444C11.8779 12.3899 14.4951 10.9911 17.3443 10.4245C20.1934 9.85783 23.1467 10.1488 25.8305 11.2606C28.5143 12.3724 30.8082 14.255 32.422 16.6705C34.0358 19.086 34.8971 21.9257 34.897 24.8307C34.897 27.4375 33.7354 28.8866 32.7604 29.6413C31.3074 30.7683 29.5115 30.9776 28.3771 30.6847C28.1241 30.6233 27.887 30.5086 27.6819 30.3482C27.4767 30.1878 27.3082 29.9854 27.1876 29.7546C26.6283 28.6725 27.1738 27.2446 27.8054 25.5909C28.0449 24.9637 28.4225 23.9729 28.4909 23.4689C28.4066 23.4642 28.3221 23.4719 28.24 23.4917C26.6032 23.8575 23.8361 27.4415 22.3946 29.8696C22.238 30.1341 21.9838 30.3266 21.6867 30.4056C21.3896 30.4846 21.0734 30.4438 20.8061 30.2919C20.5389 30.14 20.3419 29.8893 20.2577 29.5936C20.1734 29.298 20.2087 28.9811 20.3558 28.7112C22.068 25.5585 22.9413 22.4671 22.5853 21.8146C21.4707 21.9369 18.0739 25.9135 15.3648 30.2858C15.2131 30.5302 14.9769 30.7103 14.701 30.7917C14.4251 30.8732 14.129 30.8504 13.8688 30.7276C13.6087 30.6048 13.4028 30.3907 13.2904 30.126C13.1779 29.8612 13.1667 29.5644 13.2589 29.2919C13.5376 28.4665 13.9355 27.5086 14.3569 26.4942C15.0677 24.7824 16.9566 20.237 16.0589 19.7461C15.8195 19.79 14.5718 20.6911 12.5575 24.4793C12.4877 24.6195 12.3906 24.7443 12.2717 24.8463C12.1529 24.9483 12.0149 25.0255 11.8658 25.0732C11.7166 25.121 11.5595 25.1385 11.4035 25.1245C11.2475 25.1106 11.0959 25.0655 10.9576 24.992C10.8194 24.9185 10.6972 24.818 10.5984 24.6965C10.4996 24.575 10.4261 24.435 10.3823 24.2846C10.3385 24.1343 10.3253 23.9767 10.3434 23.8211C10.3615 23.6656 10.4106 23.5152 10.4878 23.379C13.2539 18.1725 14.8894 17.6845 15.4265 17.5229C15.7157 17.4307 16.0205 17.3978 16.3227 17.4264C16.6249 17.455 16.9182 17.5443 17.1849 17.6891C18.7084 18.5224 18.829 20.2353 18.3607 22.2515C20.1624 20.3219 22.0112 19.0413 23.4545 19.6198C23.7666 19.744 24.0479 19.9348 24.2788 20.1787C24.5097 20.4227 24.6846 20.714 24.7915 21.0325C24.9744 21.6148 25.0277 22.2301 24.9479 22.8352C25.8483 22.0314 26.8002 21.4107 27.7284 21.2031C28.1185 21.1067 28.5244 21.0929 28.9202 21.1624C29.3159 21.232 29.6928 21.3834 30.0267 21.607C31.4654 22.5808 30.7184 24.5355 29.9966 26.4265C29.7244 27.0868 29.4999 27.7657 29.3246 28.458C30.0455 28.4552 30.7463 28.2206 31.3237 27.789C32.139 27.1563 32.5526 26.1614 32.5526 24.8307C32.5523 21.9315 31.5314 19.125 29.6689 16.9032C27.8063 14.6814 25.2211 13.1862 22.3665 12.6798C19.5118 12.1734 16.57 12.6881 14.0569 14.1336C11.5438 15.5792 9.61984 17.8634 8.62235 20.5856C7.62485 23.3078 7.61753 26.2942 8.60166 29.0213C9.58579 31.7484 11.4985 34.0419 14.0045 35.4998C16.5105 36.9577 19.4497 37.4868 22.3068 36.9944C25.1639 36.502 27.7565 35.0195 29.6299 32.8069C29.8309 32.5697 30.1179 32.422 30.4278 32.3964C30.7377 32.3708 31.0451 32.4694 31.2823 32.6704C31.5195 32.8714 31.6672 33.1584 31.6928 33.4683C31.7184 33.7782 31.6198 34.0856 31.4188 34.3228C30.0406 35.9519 28.3236 37.2607 26.3875 38.158C24.4514 39.0552 22.3429 39.5193 20.209 39.5178Z" fill="white"/>
</g>
</g>
</g>
<defs>
<clipPath id="clip0_2124_1686">
<rect width="118" height="50" fill="white"/>
</clipPath>
<clipPath id="clip1_2124_1686">
<rect width="106" height="29.9707" fill="white" transform="translate(5.52148 9.68433)"/>
</clipPath>
</defs>
</svg>
