<svg width="120" height="36" viewBox="0 0 120 36" fill="none" xmlns="http://www.w3.org/2000/svg">
<path d="M12.9873 11.5525C13.1986 11.5525 13.4271 11.565 13.6318 11.5955C13.8371 11.626 14.0097 11.6738 14.1201 11.7361L14.1211 11.7361C14.4971 11.965 14.668 12.3587 14.668 12.8933L14.668 18.0974C14.5814 17.934 14.448 17.8122 14.2793 17.7263C14.0054 17.5871 13.644 17.5427 13.2559 17.5427L10.0195 17.5427L10.0195 11.5525L12.9873 11.5525Z" fill="#3EAAFF" stroke="#3EAAFF" stroke-width="0.178816"/>
<path d="M14.7577 12.8932C14.7577 12.3388 14.5789 11.9097 14.1676 11.6593C13.9173 11.5163 13.4166 11.4626 12.9874 11.4626L9.92969 11.4626L9.92969 17.6318L13.2557 17.6318C14.0246 17.6318 14.6326 17.8106 14.6862 18.4901L14.7577 18.4901L14.7577 12.8932Z" stroke="#3EAAFF" stroke-width="0.189009" stroke-miterlimit="3.8637"/>
<path d="M16.6133 11.5525L19.5996 11.5525L19.5996 17.5427L16.3457 17.5427C15.957 17.5427 15.5696 17.5875 15.2725 17.7253C15.0887 17.8107 14.9384 17.9329 14.8438 18.1003L14.8438 12.8933C14.8438 12.4254 14.9741 12.0649 15.2588 11.8289L15.3906 11.7361C15.4997 11.6746 15.698 11.6275 15.9307 11.5964C16.1606 11.5658 16.4111 11.5525 16.6133 11.5525Z" fill="#3EAAFF" stroke="#3EAAFF" stroke-width="0.178816"/>
<path d="M14.7539 12.8932C14.7539 12.3388 14.9327 11.9097 15.344 11.6593C15.5943 11.5163 16.2023 11.4626 16.6136 11.4626L19.6892 11.4626L19.6892 17.6318L16.3454 17.6318C15.5765 17.6318 14.8612 17.8106 14.8254 18.4901L14.7539 18.4901L14.7539 12.8932Z" stroke="#3EAAFF" stroke-width="0.189009" stroke-miterlimit="3.8637"/>
<path d="M8.93945 12.5045L8.87598 12.485L8.33984 12.3239L8.29688 12.3112L8.26074 12.3385C8.2014 12.383 8.1298 12.4098 8.06348 12.4098C7.89839 12.4097 7.75986 12.2712 7.75977 12.1061C7.75977 11.9409 7.89834 11.8024 8.06348 11.8024C8.19727 11.8024 8.31081 11.8959 8.35449 12.027L8.36914 12.0709L8.41309 12.0846L8.82422 12.2096L8.93945 12.2448L8.93945 12.0162L9.19043 12.0162L9.19043 18.5436L13.9385 18.5436L13.9697 18.6276L13.9697 18.6285L14.0127 18.7145C14.0578 18.7953 14.1207 18.8767 14.2197 18.942C14.3509 19.0285 14.5352 19.0797 14.8047 19.0797C15.0745 19.0797 15.2594 19.0286 15.3906 18.942C15.5227 18.8548 15.5901 18.7391 15.6377 18.6344L15.6396 18.6285L15.6719 18.5436L20.4199 18.5436L20.4199 12.0162L20.6523 12.0162L20.6523 18.7936L15.8086 18.7936L15.7822 18.8385C15.6054 19.1437 15.2997 19.3121 14.8047 19.3121C14.3097 19.3121 14.004 19.1438 13.8271 18.8385L13.8018 18.7936L8.9043 18.7936L8.9043 18.2789L8.77734 18.3365L8.38379 18.5153L8.33789 18.5367L8.33203 18.5885C8.31882 18.718 8.19989 18.8296 8.0459 18.8297C7.8807 18.8297 7.74219 18.6902 7.74219 18.525C7.74241 18.36 7.88083 18.2213 8.0459 18.2213C8.11039 18.2214 8.16459 18.2471 8.21094 18.278L8.25098 18.3053L8.2959 18.2858L8.86816 18.0348L8.92188 18.0114L8.92188 17.3307L8.80566 17.3678L8.41211 17.4928L8.36914 17.5065L8.35449 17.5494C8.31081 17.6805 8.19727 17.774 8.06348 17.774C7.89834 17.774 7.75977 17.6355 7.75977 17.4703C7.7598 17.3052 7.89836 17.1667 8.06348 17.1666C8.1298 17.1666 8.2014 17.1934 8.26074 17.2379L8.29688 17.2653L8.34082 17.2516L8.85938 17.0905L8.92188 17.0709L8.92188 16.3795L8.81641 16.399L8.42285 16.4703L8.37305 16.4791L8.35547 16.527C8.31663 16.6305 8.20988 16.7018 8.08105 16.7018C7.91605 16.7015 7.77734 16.5621 7.77734 16.3971C7.77757 16.2322 7.91619 16.0936 8.08105 16.0934C8.16039 16.0934 8.24671 16.1341 8.30469 16.192L8.33594 16.2242L8.38086 16.2174L8.8457 16.1461L8.92188 16.1344L8.92188 15.4283L8.8291 15.4323L8.41699 15.4498L8.36523 15.4518L8.34082 15.4996C8.30477 15.5711 8.21465 15.6285 8.09961 15.6285C7.93448 15.6285 7.79505 15.4899 7.79492 15.3248C7.79492 15.1596 7.93441 15.0201 8.09961 15.0201C8.21649 15.0202 8.2938 15.0629 8.34668 15.1422L8.375 15.1832L8.4248 15.1813L8.85449 15.1637L8.93945 15.1598L8.93945 14.4166L8.85449 14.4127L8.4248 14.3951L8.37988 14.3932L8.35156 14.4283C8.29436 14.4998 8.19353 14.5552 8.09961 14.5553C7.93441 14.5553 7.79492 14.4168 7.79492 14.2516C7.79499 14.0864 7.93445 13.9479 8.09961 13.9479C8.20478 13.948 8.30454 14.0149 8.36426 14.1041L8.38965 14.1422L8.43555 14.1442L8.84668 14.1617L8.93945 14.1666L8.93945 13.4625L8.86621 13.4489L8.38379 13.359L8.33789 13.3502L8.30469 13.3834C8.24671 13.4414 8.16043 13.483 8.08105 13.483C7.91605 13.4828 7.77734 13.3434 7.77734 13.1783C7.77761 13.0135 7.91621 12.8749 8.08105 12.8746C8.20987 12.8746 8.31663 12.9459 8.35547 13.0494L8.37305 13.0973L8.42383 13.1061L8.83496 13.1774L8.93945 13.1959L8.93945 12.5045Z" fill="#3EAAFF" stroke="#3EAAFF" stroke-width="0.178816"/>
<path d="M11.585 9.85168C12.082 9.85168 12.5232 9.88646 12.8379 9.94543C12.996 9.97508 13.1176 10.0104 13.1973 10.047C13.2373 10.0654 13.2621 10.082 13.2754 10.0948C13.2767 10.0961 13.2783 10.0967 13.2793 10.0978C13.2785 10.0985 13.2783 10.0999 13.2773 10.1007C13.2633 10.1133 13.2374 10.1303 13.1963 10.1486C13.1145 10.1848 12.9904 10.2203 12.8311 10.2511C12.5139 10.3124 12.0725 10.3517 11.585 10.3517C11.0969 10.3517 10.6559 10.316 10.3389 10.257C10.1796 10.2273 10.0558 10.1931 9.97461 10.1564C9.93382 10.1379 9.90827 10.1206 9.89453 10.1075C9.89324 10.1063 9.89159 10.1056 9.89063 10.1046C9.8914 10.1039 9.8926 10.1025 9.89355 10.1017C9.90768 10.0891 9.93378 10.0729 9.97461 10.0548C10.0564 10.0186 10.1799 9.98298 10.3389 9.95227C10.6561 9.89102 11.0974 9.85169 11.585 9.85168Z" fill="#3EAAFF" stroke="#3EAAFF" stroke-width="0.178816"/>
<path d="M11.5947 7.2406L12.335 8.27771L12.125 8.31482C12.0722 8.32011 12.0253 8.35078 12.0059 8.40271C11.9876 8.45168 12.0003 8.50282 12.0313 8.54138L12.0313 8.54236L12.4961 9.22205L12.5234 9.26111L12.6572 9.26111L12.6826 9.23865L13.3252 8.68396C13.3648 8.65542 13.3869 8.60929 13.3809 8.56091C13.3738 8.50567 13.3346 8.46472 13.2842 8.44568L13.2852 8.44568L13.1289 8.3783L13.9473 7.80017L13.4072 9.46619C13.236 9.40562 12.9994 9.35248 12.7207 9.31482C12.3855 9.26952 11.9834 9.24255 11.5508 9.24255C11.1182 9.24256 10.7161 9.26952 10.3809 9.31482C10.1016 9.35256 9.86464 9.40546 9.69336 9.46619L9.13672 7.74841L10.0605 8.3783L9.90625 8.44568L9.89063 8.45251L9.87793 8.46423C9.82541 8.51684 9.79216 8.61166 9.86035 8.68005L9.86328 8.68298L10.4717 9.23767L10.4971 9.26111L10.6328 9.26111L10.6592 9.22205L11.124 8.54236L11.123 8.54138C11.1509 8.5074 11.1711 8.45914 11.1484 8.40564C11.1269 8.35547 11.0794 8.32993 11.043 8.31775L11.0156 8.3988L11.043 8.31677L11.0303 8.31482L10.8193 8.27771L11.5605 7.2406L11.5947 7.2406Z" fill="#3EAAFF" stroke="#3EAAFF" stroke-width="0.178816"/>
<path d="M14.8076 22.7633C15.2952 22.7633 15.732 22.8027 16.0469 22.8639C16.2048 22.8946 16.3282 22.93 16.4111 22.9664C16.452 22.9844 16.4791 23.0009 16.4951 23.0143C16.4805 23.0264 16.4569 23.0433 16.4189 23.0602C16.3371 23.0964 16.213 23.132 16.0537 23.1627C15.7365 23.224 15.2952 23.2633 14.8076 23.2633C14.3196 23.2633 13.8786 23.2276 13.5615 23.1686C13.4022 23.1389 13.2785 23.1047 13.1973 23.068C13.1565 23.0495 13.1309 23.0322 13.1172 23.0192C13.1159 23.0179 13.1142 23.0173 13.1133 23.0162C13.1141 23.0155 13.1153 23.0142 13.1162 23.0133C13.1303 23.0007 13.1564 22.9845 13.1973 22.9664C13.2791 22.9302 13.4025 22.8946 13.5615 22.8639C13.8787 22.8026 14.3201 22.7633 14.8076 22.7633Z" fill="#3EAAFF" stroke="#3EAAFF" stroke-width="0.178816"/>
<path d="M14.8076 20.1522L15.5479 21.1884L15.3379 21.2264C15.285 21.2316 15.2383 21.2623 15.2188 21.3143C15.2004 21.3634 15.2131 21.4144 15.2441 21.453L15.2441 21.454L15.709 22.1337L15.7354 22.1727L15.8691 22.1727L15.8945 22.1503L16.5381 21.5966L16.5371 21.5956C16.5771 21.5671 16.5998 21.5211 16.5938 21.4725C16.5864 21.4149 16.5438 21.3722 16.4902 21.3544L16.3311 21.286L17.1875 20.6796L16.6377 22.3778C16.4665 22.3172 16.2299 22.2641 15.9512 22.2264C15.6159 22.1811 15.2139 22.1542 14.7813 22.1542C14.3486 22.1542 13.9465 22.1811 13.6113 22.2264C13.3321 22.2642 13.0951 22.3171 12.9238 22.3778L12.3672 20.66L13.2842 21.286L13.1191 21.3573L13.1143 21.3593C13.0619 21.3854 13.0409 21.435 13.0361 21.4725C13.032 21.5056 13.0375 21.5559 13.0732 21.5917L13.0762 21.5946L13.6836 22.1493L13.71 22.1727L13.8447 22.1727L13.8721 22.1337L14.3369 21.454L14.3359 21.453C14.3638 21.419 14.3832 21.3708 14.3604 21.3173C14.3388 21.267 14.2913 21.2415 14.2549 21.2294L14.2559 21.2284L14.2422 21.2264L14.0322 21.1893L14.7734 20.1522L14.8076 20.1522Z" fill="#3EAAFF" stroke="#3EAAFF" stroke-width="0.178816"/>
<path d="M17.9834 9.85168C18.4716 9.85168 18.9134 9.88639 19.2305 9.94543C19.3896 9.97508 19.5126 10.0103 19.5938 10.047C19.6345 10.0654 19.6601 10.0818 19.6738 10.0948C19.6751 10.096 19.6768 10.0968 19.6777 10.0978C19.677 10.0985 19.6767 10.0999 19.6758 10.1007C19.6618 10.1133 19.6358 10.1303 19.5947 10.1486C19.5129 10.1848 19.3888 10.2203 19.2295 10.2511C18.9123 10.3124 18.471 10.3517 17.9834 10.3517C17.4954 10.3517 17.0543 10.316 16.7373 10.257C16.578 10.2273 16.4543 10.1931 16.373 10.1564C16.3323 10.1379 16.3067 10.1206 16.293 10.1075C16.2917 10.1063 16.29 10.1056 16.2891 10.1046C16.2898 10.1039 16.291 10.1025 16.292 10.1017C16.3061 10.0891 16.3322 10.0729 16.373 10.0548C16.4549 10.0186 16.5783 9.98298 16.7373 9.95227C17.0545 9.89102 17.4959 9.85169 17.9834 9.85168Z" fill="#3EAAFF" stroke="#3EAAFF" stroke-width="0.178816"/>
<path d="M17.9932 7.2406L18.7334 8.27771L18.5234 8.31482C18.4707 8.32011 18.4238 8.35078 18.4043 8.40271C18.3861 8.45168 18.3988 8.50282 18.4297 8.54138L18.4297 8.54236L18.8945 9.22205L18.9219 9.26111L19.0557 9.26111L19.0811 9.23865L19.7236 8.68396C19.7633 8.65542 19.7853 8.60929 19.7793 8.56091C19.7723 8.50567 19.7331 8.46472 19.6826 8.44568L19.6836 8.44568L19.5273 8.3783L20.3457 7.80017L19.8057 9.46619C19.6344 9.40562 19.3979 9.35248 19.1191 9.31482C18.7839 9.26952 18.3819 9.24255 17.9492 9.24255C17.5166 9.24256 17.1145 9.26952 16.7793 9.31482C16.5001 9.35256 16.2631 9.40546 16.0918 9.46619L15.5352 7.74841L16.459 8.3783L16.3047 8.44568L16.2891 8.45251L16.2764 8.46423C16.2239 8.51684 16.1906 8.61166 16.2588 8.68005L16.2617 8.68298L16.8701 9.23767L16.8955 9.26111L17.0313 9.26111L17.0576 9.22205L17.5225 8.54236L17.5215 8.54138C17.5493 8.5074 17.5696 8.45914 17.5469 8.40564C17.5254 8.35547 17.4778 8.32993 17.4414 8.31775L17.4141 8.3988L17.4414 8.31677L17.4287 8.31482L17.2178 8.27771L17.959 7.2406L17.9932 7.2406Z" fill="#3EAAFF" stroke="#3EAAFF" stroke-width="0.178816"/>
<path d="M10.6396 12.5538L10.6396 13.1261C10.6396 13.1782 10.6451 13.2284 10.665 13.2697L10.5605 13.2697C10.5629 13.2576 10.5656 13.2464 10.5664 13.2365C10.5684 13.2104 10.5684 13.178 10.5684 13.1437L10.5684 12.6788C10.5684 12.6423 10.5664 12.6093 10.5625 12.5812C10.5613 12.5725 10.5589 12.5631 10.5566 12.5538L10.6396 12.5538ZM11.1133 12.6525L11.1123 12.6534L11.123 12.6613C11.1682 12.6954 11.2119 12.7741 11.2119 12.8761C11.2118 13.0183 11.1614 13.1095 11.0859 13.1691C11.1209 13.0942 11.1406 13.0016 11.1406 12.8937C11.1406 12.7903 11.1224 12.7044 11.0908 12.6349C11.0985 12.6409 11.1067 12.6459 11.1133 12.6525Z" fill="#3EAAFF" stroke="#3EAAFF" stroke-width="0.178816"/>
<path d="M11.6191 12.6339C11.5981 12.6983 11.5869 12.7741 11.5869 12.8585C11.5869 12.9901 11.6099 13.1109 11.6572 13.2032C11.5681 13.1394 11.5157 13.0355 11.5156 12.9122C11.5156 12.823 11.5458 12.7229 11.6074 12.6466C11.611 12.6422 11.6153 12.6382 11.6191 12.6339ZM12.1182 12.6017C12.1973 12.6682 12.2489 12.7695 12.249 12.8937C12.249 13.0082 12.2114 13.0958 12.1543 13.1573C12.1701 13.0926 12.1777 13.016 12.1777 12.9298C12.1777 12.8012 12.1564 12.6892 12.1182 12.6017Z" fill="#3EAAFF" stroke="#3EAAFF" stroke-width="0.178816"/>
<path d="M13.3457 12.5714C13.3449 12.5773 13.3432 12.5828 13.3428 12.588C13.3407 12.613 13.3408 12.6446 13.3408 12.6788L13.3408 12.6827L13.3584 13.13C13.3584 13.1629 13.3584 13.1938 13.3604 13.2189C13.3611 13.2286 13.363 13.2395 13.3652 13.2511L13.3154 13.2511C13.3182 13.2387 13.3204 13.227 13.3213 13.2169C13.3233 13.192 13.3232 13.1603 13.3232 13.1261L13.3232 12.6427L13.252 12.629L13.2764 12.5714L13.3457 12.5714ZM12.71 12.5714L12.9189 13.0548L12.9473 13.1222L12.9287 13.171L12.7256 12.6632L12.6455 12.6759C12.6465 12.6578 12.6489 12.6412 12.6484 12.6261C12.6479 12.6092 12.6455 12.5903 12.6406 12.5714L12.71 12.5714Z" fill="#3EAAFF" stroke="#3EAAFF" stroke-width="0.178816"/>
<path d="M13.9063 12.5538C13.904 12.5631 13.9016 12.5725 13.9004 12.5812C13.8965 12.6093 13.8955 12.6423 13.8955 12.6788L13.8955 13.1261C13.8955 13.1626 13.8965 13.1956 13.9004 13.2238C13.9016 13.2324 13.904 13.2418 13.9063 13.2511L13.8301 13.2511C13.8323 13.2418 13.8347 13.2325 13.8359 13.2238C13.8399 13.1956 13.8418 13.1626 13.8418 13.1261L13.8418 12.6788C13.8418 12.6423 13.8399 12.6093 13.8359 12.5812C13.8347 12.5725 13.8323 12.5631 13.8301 12.5538L13.9063 12.5538Z" fill="#3EAAFF" stroke="#3EAAFF" stroke-width="0.178816"/>
<path d="M11.1982 14.1801L11.6191 14.7181L11.6709 14.7836L11.6709 14.8617L11.2227 14.2855L11.1592 14.2045C11.1568 14.1955 11.1537 14.1877 11.1504 14.1801L11.1982 14.1801Z" fill="#3EAAFF" stroke="#3EAAFF" stroke-width="0.178816"/>
<path d="M12.1846 14.1801C12.1851 14.187 12.1857 14.193 12.1865 14.1976C12.1893 14.2128 12.1939 14.2283 12.1982 14.2416C12.21 14.2856 12.2427 14.374 12.2764 14.4623C12.3127 14.5576 12.3521 14.6583 12.3789 14.7299L12.4121 14.8177C12.4051 14.8367 12.3972 14.855 12.3906 14.8734C12.3046 14.6374 12.1997 14.364 12.1523 14.2377L12.1533 14.2377L12.1484 14.2289C12.14 14.2121 12.1309 14.1959 12.1221 14.1801L12.1846 14.1801Z" fill="#3EAAFF" stroke="#3EAAFF" stroke-width="0.178816"/>
<path d="M13.0352 14.2698C13.0352 14.3326 13.0607 14.3832 13.1025 14.4211C13.1398 14.455 13.1892 14.4779 13.2354 14.4963L13.2354 14.4954L13.2637 14.511L13.2686 14.5129C13.3281 14.5384 13.3727 14.5638 13.4023 14.595C13.429 14.623 13.4473 14.6593 13.4473 14.717C13.4473 14.7551 13.4327 14.7922 13.4072 14.8245C13.4087 14.8127 13.4111 14.8005 13.4111 14.7883C13.411 14.67 13.3255 14.5964 13.2314 14.554L13.2139 14.5364L13.2012 14.5295L13.126 14.4895C13.1031 14.4755 13.0825 14.4608 13.0654 14.4446C13.0339 14.4146 13.0176 14.3825 13.0176 14.3411C13.0176 14.3053 13.0245 14.2743 13.0371 14.2483C13.0364 14.2553 13.0352 14.2625 13.0352 14.2698Z" fill="#3EAAFF" stroke="#3EAAFF" stroke-width="0.178816"/>
<path d="M11.1016 15.8077C11.0993 15.817 11.0969 15.8264 11.0957 15.8351C11.0918 15.8632 11.0908 15.8962 11.0908 15.9327L11.0908 16.38C11.0908 16.4165 11.0918 16.4495 11.0957 16.4777C11.0969 16.4864 11.0993 16.4957 11.1016 16.505L11.0254 16.505C11.0276 16.4957 11.03 16.4864 11.0313 16.4777C11.0352 16.4495 11.0371 16.4166 11.0371 16.38L11.0371 15.9327C11.0371 15.8962 11.0352 15.8632 11.0313 15.8351C11.03 15.8264 11.0276 15.817 11.0254 15.8077L11.1016 15.8077Z" fill="#3EAAFF" stroke="#3EAAFF" stroke-width="0.178816"/>
<path d="M11.6094 15.8077C11.6071 15.817 11.6047 15.8264 11.6035 15.8351C11.5996 15.8632 11.5986 15.8962 11.5986 15.9327L11.5986 16.4874L11.6221 16.4874C11.6227 16.4917 11.6221 16.4961 11.623 16.5001C11.6248 16.5079 11.6296 16.5151 11.6328 16.5236L11.5371 16.5236C11.5394 16.5115 11.5422 16.5003 11.543 16.4904C11.545 16.4643 11.5449 16.432 11.5449 16.3976L11.5449 15.9503C11.5449 15.9137 11.543 15.8808 11.5391 15.8527C11.5371 15.8385 11.5344 15.8231 11.5293 15.8077L11.6094 15.8077Z" fill="#3EAAFF" stroke="#3EAAFF" stroke-width="0.178816"/>
<path d="M12.4063 15.8077C12.404 15.817 12.4016 15.8264 12.4004 15.8351C12.3965 15.8632 12.3955 15.8962 12.3955 15.9327L12.3955 16.3976C12.3955 16.4291 12.3943 16.4681 12.4014 16.5001C12.4031 16.5079 12.408 16.5152 12.4111 16.5236L12.334 16.5236C12.3363 16.5115 12.3391 16.5003 12.3398 16.4904C12.3418 16.4643 12.3418 16.432 12.3418 16.3976L12.3418 15.9503C12.3418 15.9137 12.3399 15.8808 12.3359 15.8527C12.3339 15.8385 12.3313 15.8231 12.3262 15.8077L12.4063 15.8077Z" fill="#3EAAFF" stroke="#3EAAFF" stroke-width="0.178816"/>
<path d="M12.9697 15.8077C12.9702 15.8147 12.9708 15.8207 12.9717 15.8253C12.9744 15.8405 12.979 15.856 12.9834 15.8693C12.9951 15.9133 13.0279 16.0016 13.0615 16.09C13.0978 16.1853 13.1372 16.286 13.1641 16.3575L13.1973 16.4454C13.1903 16.4644 13.1824 16.4827 13.1758 16.5011C13.0897 16.2651 12.9849 15.9917 12.9375 15.8654L12.9385 15.8654L12.9336 15.8566C12.9252 15.8398 12.916 15.8236 12.9072 15.8077L12.9697 15.8077Z" fill="#3EAAFF" stroke="#3EAAFF" stroke-width="0.178816"/>
<path d="M16.4355 12.5714C16.4347 12.5773 16.433 12.5828 16.4326 12.588C16.4306 12.613 16.4307 12.6446 16.4307 12.6788L16.4307 12.6827L16.4482 13.13C16.4482 13.1629 16.4483 13.1938 16.4502 13.2189C16.4509 13.2286 16.4529 13.2395 16.4551 13.2511L16.4053 13.2511C16.408 13.2387 16.4103 13.227 16.4111 13.2169C16.4132 13.192 16.4131 13.1603 16.4131 13.1261L16.4131 12.6427L16.3418 12.629L16.3662 12.5714L16.4355 12.5714ZM15.7998 12.5714L16.0088 13.0548L16.0371 13.1222L16.0186 13.171L15.8154 12.6632L15.7354 12.6759C15.7364 12.6578 15.7388 12.6412 15.7383 12.6261C15.7377 12.6092 15.7353 12.5903 15.7305 12.5714L15.7998 12.5714Z" fill="#3EAAFF" stroke="#3EAAFF" stroke-width="0.178816"/>
<path d="M16.9961 12.5538C16.9939 12.5631 16.9915 12.5725 16.9902 12.5812C16.9863 12.6093 16.9854 12.6423 16.9854 12.6788L16.9854 13.1261C16.9854 13.1626 16.9863 13.1956 16.9902 13.2238C16.9915 13.2324 16.9938 13.2418 16.9961 13.2511L16.9199 13.2511C16.9222 13.2418 16.9246 13.2325 16.9258 13.2238C16.9297 13.1956 16.9316 13.1626 16.9316 13.1261L16.9316 12.6788C16.9316 12.6423 16.9297 12.6093 16.9258 12.5812C16.9246 12.5725 16.9222 12.5631 16.9199 12.5538L16.9961 12.5538Z" fill="#3EAAFF" stroke="#3EAAFF" stroke-width="0.178816"/>
<path d="M17.499 12.5538L17.9199 13.0919L17.9541 13.1349L17.9541 13.213L17.5234 12.6593L17.46 12.5782C17.4576 12.5693 17.4545 12.5615 17.4512 12.5538L17.499 12.5538Z" fill="#3EAAFF" stroke="#3EAAFF" stroke-width="0.178816"/>
<path d="M18.6504 12.7072L18.6504 12.7081C18.6778 12.7904 18.7099 12.8739 18.7383 12.9503C18.7672 13.0282 18.793 13.0999 18.8096 13.1661L18.8105 13.1691C18.8193 13.1996 18.8294 13.2273 18.8418 13.2521L18.8164 13.2521C18.8159 13.2451 18.8153 13.2392 18.8145 13.2345C18.8115 13.2185 18.8063 13.2013 18.8018 13.1876L18.8008 13.1847L18.7656 13.0909L18.7695 13.0909L18.7305 12.9728L18.6406 12.7052L18.5996 12.5822L18.6025 12.5734L18.6504 12.7072Z" fill="#3EAAFF" stroke="#3EAAFF" stroke-width="0.178816"/>
<path d="M16.5176 14.1624L16.5176 14.7532C16.5176 14.7897 16.518 14.8238 16.5225 14.8528C16.5237 14.861 16.527 14.8693 16.5293 14.8782L16.4512 14.8782C16.4535 14.8693 16.4567 14.861 16.458 14.8528C16.4625 14.8238 16.4629 14.7897 16.4629 14.7532L16.4629 14.1624L16.5176 14.1624Z" fill="#3EAAFF" stroke="#3EAAFF" stroke-width="0.178816"/>
<path d="M17.25 14.1801C17.2478 14.1893 17.2454 14.1987 17.2441 14.2074C17.2402 14.2355 17.2393 14.2685 17.2393 14.3051L17.2393 14.7523C17.2393 14.7889 17.2402 14.8218 17.2441 14.85C17.2454 14.8587 17.2478 14.868 17.25 14.8773L17.1738 14.8773C17.1761 14.868 17.1785 14.8587 17.1797 14.85C17.1836 14.8218 17.1855 14.7889 17.1855 14.7523L17.1855 14.3051C17.1855 14.2685 17.1836 14.2355 17.1797 14.2074C17.1785 14.1987 17.1761 14.1894 17.1738 14.1801L17.25 14.1801Z" fill="#3EAAFF" stroke="#3EAAFF" stroke-width="0.178816"/>
<path d="M17.75 14.262C17.7289 14.3292 17.7197 14.4101 17.7197 14.5022C17.7197 14.6216 17.7395 14.732 17.7783 14.8206C17.6964 14.7561 17.6485 14.6561 17.6484 14.5383C17.6484 14.4491 17.6786 14.349 17.7402 14.2727C17.7432 14.269 17.7468 14.2656 17.75 14.262ZM18.2344 14.2209C18.3248 14.2866 18.3817 14.3899 18.3818 14.5198C18.3818 14.6304 18.3458 14.7154 18.292 14.7766C18.3037 14.7173 18.3105 14.649 18.3105 14.5735C18.3105 14.4312 18.2818 14.3105 18.2344 14.2209Z" fill="#3EAAFF" stroke="#3EAAFF" stroke-width="0.178816"/>
<path d="M16.833 15.8077C16.8302 15.8202 16.828 15.8318 16.8271 15.8419C16.8251 15.8669 16.8252 15.8985 16.8252 15.9327L16.8252 15.9366L16.8428 16.3839C16.8428 16.4168 16.8428 16.4477 16.8447 16.4728C16.8455 16.4825 16.8474 16.4934 16.8496 16.505L16.7998 16.505C16.8026 16.4926 16.8048 16.4809 16.8057 16.4708C16.8077 16.4459 16.8076 16.4142 16.8076 16.38L16.8076 15.8966L16.7305 15.882L16.7607 15.8077L16.833 15.8077ZM16.1943 15.8077L16.4033 16.2902L16.4355 16.3663L16.4131 16.4249L16.21 15.9171L16.1299 15.9298C16.1309 15.9117 16.1333 15.8951 16.1328 15.88C16.1321 15.8576 16.1275 15.8325 16.1182 15.8077L16.1943 15.8077Z" fill="#3EAAFF" stroke="#3EAAFF" stroke-width="0.178816"/>
<path d="M17.3828 15.8077C17.3819 15.8199 17.3818 15.8332 17.3818 15.8429L17.3818 16.4161C17.3818 16.4475 17.3816 16.4858 17.3887 16.5177C17.3916 16.5309 17.3986 16.5443 17.4063 16.5587L17.3027 16.5587C17.3055 16.5463 17.3068 16.5346 17.3076 16.5245C17.3097 16.4996 17.3105 16.4679 17.3105 16.4337L17.3105 16.0216L17.3281 16.0216L17.3281 15.9327C17.3281 15.8962 17.3272 15.8632 17.3232 15.8351C17.322 15.8264 17.3196 15.817 17.3174 15.8077L17.3828 15.8077Z" fill="#3EAAFF" stroke="#3EAAFF" stroke-width="0.178816"/>
<path d="M18.373 15.9771L18.373 15.978C18.4005 16.0603 18.4326 16.1438 18.4609 16.2202C18.4899 16.2981 18.5157 16.3698 18.5322 16.436L18.5332 16.439C18.5398 16.462 18.5486 16.4837 18.5576 16.5044L18.502 16.5044C18.499 16.4884 18.4938 16.4712 18.4893 16.4575L18.4883 16.4546L18.4463 16.3433L18.4746 16.3433L18.4355 16.2251L18.3457 15.9565L18.3154 15.8677L18.3252 15.8433L18.373 15.9771Z" fill="#3EAAFF" stroke="#3EAAFF" stroke-width="0.178816"/>
<path d="M13.2178 27.2693C13.365 27.2695 13.4854 27.3905 13.4854 27.5378C13.4851 27.685 13.3649 27.8052 13.2178 27.8054C13.0704 27.8054 12.9495 27.6851 12.9492 27.5378C12.9492 27.3904 13.0703 27.2693 13.2178 27.2693Z" fill="#3EAAFF" stroke="#3EAAFF" stroke-width="0.178816"/>
<path d="M16.8232 27.8593C16.9705 27.8595 17.0908 27.9805 17.0908 28.1278C17.0906 28.2749 16.9704 28.3951 16.8232 28.3954C16.6759 28.3954 16.5549 28.2751 16.5547 28.1278C16.5547 27.9803 16.6758 27.8593 16.8232 27.8593Z" fill="#3EAAFF" stroke="#3EAAFF" stroke-width="0.178816"/>
<path d="M14.7881 2.16528C14.9354 2.16554 15.0557 2.28651 15.0557 2.43384C15.0554 2.58095 14.9352 2.70116 14.7881 2.70142C14.6408 2.70142 14.5198 2.58111 14.5195 2.43384C14.5195 2.28636 14.6406 2.16528 14.7881 2.16528Z" fill="#3EAAFF" stroke="#3EAAFF" stroke-width="0.178816"/>
<path d="M23.2617 5.47192C23.4083 5.48816 23.5146 5.60828 23.5146 5.75806C23.5146 5.89416 23.3877 6.00786 23.2285 6.00806C23.0853 6.00806 22.9646 5.876 22.9775 5.73071L22.9775 5.72192C22.9777 5.58635 23.1033 5.47296 23.2617 5.47192Z" fill="#3EAAFF" stroke="#3EAAFF" stroke-width="0.178816"/>
<path d="M5.00391 20.6516C5.32158 20.6692 5.54824 20.8603 5.69922 21.0784L5.7002 21.0803C5.83339 21.2635 5.89553 21.457 5.87988 21.6458L5.87988 21.6536C5.87988 21.7657 5.86019 21.8588 5.79395 21.9592C5.72518 22.0634 5.60243 22.181 5.38281 22.3303L5.38086 22.3313L4.16797 23.1907L4.03613 22.9993C4.07108 22.9747 4.11779 22.9426 4.17188 22.9045C4.29618 22.8171 4.46148 22.6996 4.62793 22.5823C4.79442 22.465 4.96221 22.3478 5.08887 22.2581C5.15206 22.2133 5.2051 22.175 5.24316 22.1477C5.26218 22.1341 5.27805 22.1225 5.28906 22.1145C5.2944 22.1106 5.29922 22.1074 5.30273 22.1047C5.30303 22.1045 5.30358 22.1036 5.30469 22.1028C5.42238 22.0213 5.51362 21.9472 5.57422 21.8655C5.63775 21.7798 5.66499 21.6893 5.66504 21.5823C5.66504 21.4549 5.62282 21.3112 5.52344 21.1721C5.38217 20.9709 5.19459 20.885 5.00391 20.885C4.91986 20.885 4.8372 20.9145 4.74902 20.9622C4.66114 21.0097 4.55883 21.0795 4.43457 21.1682L3.31055 21.9397L3.17871 21.7483L4.25 21.012L4.25098 21.011C4.57545 20.7766 4.80422 20.6526 5.00391 20.6526L5.00391 20.6516Z" fill="#3EAAFF" stroke="#3EAAFF" stroke-width="0.178816"/>
<path d="M4.1377 18.0225L2.77539 19.6846L2.55664 19.9502L2.87695 19.8242L4.56055 19.1602L4.62598 19.3486L2.37988 20.2139L2.30078 19.9746L3.66406 18.3135L3.86523 18.0684L3.56641 18.1729L1.84375 18.7686L1.77734 18.5791L4.05762 17.7803L4.1377 18.0225Z" fill="#3EAAFF" stroke="#3EAAFF" stroke-width="0.178816"/>
<path d="M3.79475 16.2928L3.82889 16.5227L1.4409 16.8774L1.40676 16.6475L3.79475 16.2928Z" fill="#3EAAFF" stroke="#3EAAFF" stroke-width="0.178816"/>
<path d="M3.70313 14.1674L3.68945 14.4515L1.23828 15.1859L1.23828 14.9457L3.2998 14.3734L3.56152 14.3011L3.30859 14.2045L1.31152 13.4398L1.32129 13.2015L3.70313 14.1674Z" fill="#3EAAFF" stroke="#3EAAFF" stroke-width="0.178816"/>
<path d="M3.55762 7.79687C3.66475 7.79694 3.77477 7.82653 3.87109 7.87402L3.87109 7.875C4.01401 7.9544 4.10546 8.06245 4.15137 8.18262C4.16892 8.25301 4.18352 8.31152 4.18359 8.36816C4.18359 8.40278 4.17413 8.41807 4.15234 8.4834L4.06934 8.73047L4.28613 8.58594C4.33207 8.55531 4.36319 8.53963 4.39551 8.52344C4.43378 8.5116 4.47886 8.50779 4.53809 8.50977C4.60117 8.51189 4.67276 8.52011 4.76465 8.5293L4.76563 8.5293L5.4834 8.58887L5.36719 8.79199L4.69238 8.72656L4.69141 8.72656C4.48855 8.70893 4.34654 8.7091 4.23535 8.76758C4.12303 8.82669 4.05815 8.93808 3.98047 9.07617L3.97949 9.07617L3.97754 9.08008L3.9248 9.18652L3.88574 9.26367L3.96094 9.30566L4.83008 9.78027L4.71973 9.98145L2.60645 8.83398L2.86621 8.37695C2.9822 8.17174 3.07921 8.02692 3.18555 7.93262C3.28727 7.84248 3.40031 7.79687 3.55762 7.79687ZM3.50391 8.0293C3.30794 8.0293 3.16194 8.17836 3.01953 8.44238L2.89355 8.62109L2.83594 8.7041L2.9248 8.75098L3.6582 9.14453L3.7334 9.18555L3.77734 9.1123L3.83105 9.02246L3.83203 9.02051C3.91615 8.86909 4.02246 8.70148 4.02246 8.51172C4.02246 8.48233 4.02003 8.43646 4.00098 8.38672L4.00293 8.38672C3.98975 8.32095 3.95173 8.26264 3.91016 8.21582C3.86788 8.16826 3.81611 8.12665 3.76465 8.0957L3.76465 8.09473L3.75781 8.0918C3.67397 8.04997 3.57124 8.02936 3.50391 8.0293Z" fill="#3EAAFF" stroke="#3EAAFF" stroke-width="0.178816"/>
<path d="M6.70546 3.92666L8.16645 5.8485L7.98142 5.98916L6.52043 4.06732L6.70546 3.92666Z" fill="#3EAAFF" stroke="#3EAAFF" stroke-width="0.178816"/>
<path d="M9.51855 2.44507L8.95508 2.7439L8.87695 2.78491L8.91699 2.86401L9.89551 4.77124L9.69434 4.88159L8.7002 2.97827L8.65918 2.89917L8.5791 2.94116L8.0166 3.23804L7.93555 3.07593L9.44141 2.29858L9.51855 2.44507Z" fill="#3EAAFF" stroke="#3EAAFF" stroke-width="0.178816"/>
<path d="M11.9805 2.98743L11.9766 3.00793L11.9824 3.02747L12.2266 3.92493L12.0049 3.98547L11.7617 3.10559L11.7549 3.08411L11.7402 3.0675L10.6074 1.88586L10.8428 1.8175L11.6826 2.69055L11.8027 2.81555L11.835 2.64563L12.0566 1.46497L12.291 1.39661L11.9805 2.98743Z" fill="#3EAAFF" stroke="#3EAAFF" stroke-width="0.178816"/>
<path d="M22.2832 3.46436L22.1953 3.61475L21.3965 3.14209L21.3193 3.09619L21.2744 3.17432L20.917 3.78174L20.8711 3.85889L20.9482 3.90479L21.6934 4.34131L21.6055 4.49072L20.8604 4.0542L20.7832 4.00928L20.7383 4.08545L20.1924 5.00928L19.9883 4.88623L21.2031 2.82275L22.2832 3.46436Z" fill="#3EAAFF" stroke="#3EAAFF" stroke-width="0.178816"/>
<path d="M27.4941 9.974L26.8301 10.7416L26.7324 10.8549L26.8779 10.8881L27.8652 11.1088L27.9414 11.3373L26.668 11.0355L26.6143 11.0228L26.5791 11.0648L25.6797 12.14L25.6035 11.9095L26.3223 11.0551L26.417 10.9418L26.2734 10.9095L25.1953 10.6703L25.1201 10.4427L26.4824 10.7797L26.5371 10.7933L26.5723 10.7513L27.417 9.74548L27.4941 9.974Z" fill="#3EAAFF" stroke="#3EAAFF" stroke-width="0.178816"/>
<path d="M28.3682 14.3619L28.1895 14.3717L28.1074 13.4381L28.0996 13.3483L28.0098 13.3571L27.2949 13.4293L27.2061 13.4381L27.2148 13.526L27.2949 14.3854L27.1338 14.403L27.0527 13.528L27.0449 13.4401L26.957 13.4469L25.8818 13.5289L25.8623 13.3131L28.2588 13.1129L28.3682 14.3619Z" fill="#3EAAFF" stroke="#3EAAFF" stroke-width="0.178816"/>
<path d="M26.9121 15.6095C27.2514 15.6095 27.5895 15.7194 27.8408 15.9142C28.0909 16.108 28.2529 16.3834 28.2529 16.7179C28.2529 16.8688 28.2184 17.2948 27.8262 17.5909C27.6263 17.7239 27.3763 17.8087 27.0908 17.8087C26.8012 17.8087 26.4621 17.7272 26.1982 17.545C25.9378 17.3652 25.75 17.0871 25.75 16.6818C25.75 16.4649 25.8156 16.087 26.1758 15.8243C26.3756 15.6916 26.6269 15.6095 26.9121 15.6095ZM26.876 15.8595C26.6413 15.8595 26.4273 15.9373 26.2539 16.0529L26.25 16.0558C26.0068 16.2382 25.9287 16.5196 25.9287 16.7179C25.9288 17.0164 26.1002 17.2379 26.3281 17.381C26.5546 17.5231 26.8441 17.5938 27.1084 17.5939C27.3229 17.5939 27.5166 17.5509 27.6709 17.4581L27.7344 17.4152L27.7373 17.4132C27.9562 17.2341 28.0566 16.9747 28.0566 16.7531C28.0566 16.5983 28.0177 16.4345 27.9131 16.3068L27.9141 16.3068C27.7748 16.1177 27.5777 16.0067 27.3877 15.9425C27.1977 15.8784 27.0085 15.8595 26.876 15.8595Z" fill="#3EAAFF" stroke="#3EAAFF" stroke-width="0.178816"/>
<path d="M25.4102 7.01184C25.7252 7.0119 26.0058 7.14822 26.2295 7.39758L26.3213 7.51184C26.4329 7.67234 26.4824 7.86718 26.4824 8.06653C26.4824 8.5406 26.155 8.89153 25.8467 9.0802C25.5894 9.23459 25.3191 9.31846 25.0703 9.31848C24.8222 9.31848 24.4276 9.21844 24.1807 8.82336L24.1777 8.81946C24.0653 8.65865 24.0156 8.46285 24.0156 8.26282C24.0157 7.97316 24.1764 7.55403 24.6504 7.24817L24.6514 7.24915C24.9098 7.09408 25.1624 7.01184 25.4102 7.01184ZM25.4639 7.22571C25.2454 7.22571 25.0147 7.30578 24.7734 7.45422L24.7725 7.45422C24.4138 7.68077 24.2119 8.01085 24.2119 8.33508C24.212 8.47324 24.2508 8.63218 24.332 8.75598L24.332 8.75696C24.4939 9.02003 24.7407 9.12122 24.999 9.12122C25.234 9.12114 25.4832 9.042 25.7285 8.87219C26.0668 8.66385 26.2686 8.35416 26.2686 8.0304C26.2685 7.88297 26.2058 7.72406 26.1309 7.5929L26.1318 7.5929L26.1279 7.58801L26.0654 7.50403C25.9122 7.32056 25.71 7.22578 25.4639 7.22571Z" fill="#3EAAFF" stroke="#3EAAFF" stroke-width="0.178816"/>
<path d="M18.3438 1.68091C18.7241 1.68091 19.0853 1.87895 19.2656 2.2395C19.3485 2.40548 19.3984 2.60605 19.3984 2.82446C19.3984 3.33262 19.1092 3.85475 18.7129 4.06958L18.7119 4.06958C18.5675 4.14979 18.4044 4.18382 18.2188 4.18384C17.9212 4.18384 17.5091 4.03421 17.2959 3.64087C17.1984 3.46206 17.1641 3.26356 17.1641 3.02173C17.1641 2.89288 17.1956 2.76188 17.2314 2.61841C17.4188 2.00539 17.8536 1.68094 18.3438 1.68091ZM18.3799 1.85962C18.0556 1.85962 17.8112 2.04273 17.6523 2.27856C17.4945 2.51292 17.4142 2.80763 17.4141 3.05688C17.4141 3.22601 17.4506 3.41949 17.5303 3.56177L17.5303 3.56274C17.6929 3.88769 18.0171 3.98755 18.2188 3.98755C18.5654 3.9875 18.8087 3.77144 18.9609 3.52173C19.1124 3.27326 19.1845 2.97593 19.1846 2.77173C19.1846 2.45548 19.0785 2.22438 18.9199 2.07349C18.7631 1.92422 18.5611 1.85969 18.3799 1.85962Z" fill="#3EAAFF" stroke="#3EAAFF" stroke-width="0.178816"/>
<path d="M2.1377 10.5233L1.85938 11.4725L1.83398 11.5585L1.9209 11.5839L2.59961 11.7802L2.68652 11.8055L2.71094 11.7186L2.95508 10.8553L3.12109 10.8993L2.87891 11.7596L2.85449 11.8466L2.94141 11.87L3.72754 12.0848L3.81348 12.1083L3.83789 12.0223L4.09961 11.0878L4.2666 11.1317L3.9209 12.3885L1.5918 11.7391L1.96973 10.4794L2.1377 10.5233Z" fill="#3EAAFF" stroke="#3EAAFF" stroke-width="0.178816"/>
<path d="M5.38281 5.46973C5.35653 5.47491 5.32559 5.47985 5.29297 5.49023C5.21037 5.51657 5.11013 5.56192 5.01465 5.64258L4.9209 5.73633C4.82554 5.85076 4.75684 5.97876 4.75684 6.11621C4.75693 6.23053 4.80437 6.3255 4.89355 6.39551L4.89355 6.39648L4.89648 6.39844C4.89782 6.39947 4.89903 6.40133 4.90039 6.40234L4.90039 6.40137C5.02455 6.50828 5.18251 6.4939 5.31055 6.45898C5.37738 6.44074 5.44341 6.41516 5.50293 6.39062C5.56483 6.3651 5.61724 6.34222 5.66406 6.3252L5.66504 6.3252C5.81378 6.26941 6.01059 6.18762 6.20508 6.1875C6.35095 6.1875 6.4864 6.21882 6.60742 6.33984L6.61035 6.34375C6.76973 6.48723 6.83104 6.6412 6.83105 6.83105C6.83105 7.01786 6.75443 7.19474 6.60254 7.38086C6.45431 7.55379 6.27665 7.64894 6.13477 7.70117C6.06815 7.72566 6.00935 7.73933 5.9668 7.74805L5.9209 7.57324C6.15716 7.51187 6.34377 7.40816 6.45508 7.25977C6.55038 7.14414 6.61719 7.00164 6.61719 6.88477C6.61718 6.77417 6.57285 6.63877 6.45801 6.54687L6.45605 6.54492L6.3877 6.50293C6.31888 6.46819 6.24796 6.45607 6.16992 6.45605C6.0746 6.45605 5.97346 6.48138 5.87891 6.51367L5.60059 6.62305C5.43878 6.68596 5.29001 6.73806 5.14746 6.74609C5.01088 6.75374 4.87849 6.72072 4.74609 6.60449C4.61566 6.47321 4.54309 6.33446 4.54297 6.16992C4.54297 5.99474 4.60641 5.8015 4.75195 5.63965L4.75293 5.6377C4.92001 5.44561 5.08927 5.36113 5.21289 5.32324C5.26632 5.30689 5.31177 5.2994 5.3457 5.2959L5.38281 5.46973Z" fill="#3EAAFF" stroke="#3EAAFF" stroke-width="0.178816"/>
<path d="M27.4736 19.6062C27.4731 19.6074 27.4732 19.6089 27.4727 19.6101C27.4509 19.6607 27.4217 19.7284 27.3926 19.7966C27.3635 19.8649 27.3345 19.9347 27.3125 19.988C27.3016 20.0144 27.2918 20.0372 27.2852 20.0544C27.2818 20.063 27.2796 20.0714 27.2773 20.0779C27.2764 20.0806 27.2744 20.0834 27.2734 20.0867C27.1762 20.3071 27.0936 20.4657 26.9912 20.5701C26.8933 20.6699 26.7736 20.7244 26.5898 20.7244C26.3854 20.7243 26.1176 20.5951 26.0098 20.364L26.0078 20.3621L25.9756 20.2576C25.968 20.2176 25.9639 20.1741 25.9639 20.1335C25.9639 20.132 25.9644 20.1306 25.9668 20.1248C25.9677 20.1224 25.9683 20.1205 25.9697 20.1169C25.9708 20.1142 25.9721 20.1104 25.9736 20.1062C25.9768 20.0973 25.9814 20.0814 25.9814 20.0623L25.9814 19.8464L25.8291 19.9988C25.8063 20.0216 25.7838 20.0335 25.752 20.0496C25.6624 20.0782 25.5547 20.0798 25.374 20.0798L24.6543 20.0798L24.751 19.866L25.4277 19.866C25.6298 19.866 25.7723 19.8543 25.8779 19.7869C25.9844 19.7189 26.0379 19.6034 26.0977 19.4587L26.1514 19.3513L26.1924 19.2683L26.1084 19.2302L25.2051 18.8191L25.293 18.6238L27.4736 19.6062ZM26.29 19.408L26.2578 19.5076C26.2233 19.5852 26.1854 19.6655 26.1572 19.7429C26.1287 19.8215 26.1074 19.9048 26.1074 19.991C26.1074 20.0261 26.1069 20.093 26.1299 20.1619L26.1299 20.1648C26.2184 20.4078 26.4584 20.4908 26.6074 20.491C26.7228 20.491 26.8195 20.4635 26.9053 20.3777C26.9837 20.2992 27.0477 20.1773 27.1191 20.0076L27.1182 20.0066L27.208 19.8132L27.2451 19.7312L27.1631 19.6951L26.4121 19.3552L26.3223 19.3142L26.29 19.408Z" fill="#3EAAFF" stroke="#3EAAFF" stroke-width="0.178816"/>
<path d="M25.9785 22.473L25.624 22.9213C25.404 23.1941 25.2291 23.3497 25.0713 23.4379C24.9161 23.5245 24.7708 23.5492 24.6025 23.5492C24.3721 23.5491 24.1391 23.4731 23.9258 23.3295L23.8359 23.264C23.4818 22.977 23.3516 22.6276 23.3516 22.3334C23.3516 21.9912 23.5292 21.7086 23.7969 21.3695L23.7979 21.3685L24.0986 20.976L25.9785 22.473ZM24.0332 21.3461L23.8545 21.5609L23.8525 21.5638C23.6726 21.7978 23.5303 22.0328 23.5303 22.2972C23.5303 22.6601 23.7705 22.9338 23.9736 23.1L23.9766 23.1019C24.2024 23.2713 24.418 23.3529 24.6387 23.3529C25.0416 23.3529 25.2629 23.123 25.5479 22.7845L25.5508 22.7806L25.6582 22.6371L25.71 22.5677L25.6416 22.5131L24.1582 21.3334L24.0898 21.2787L24.0332 21.3461Z" fill="#3EAAFF" stroke="#3EAAFF" stroke-width="0.178816"/>
<path d="M14.8057 0.0898436C22.9104 0.0898435 29.5225 6.68359 29.5225 14.7881C29.5225 19.4093 27.4074 23.6746 23.71 26.501L23.7041 26.5059L23.6992 26.5107C21.9439 28.3724 19.7103 29.4896 17.0654 29.8447L16.9658 29.8584L16.9902 29.9551C17.0759 30.2977 17.195 30.6391 17.3438 31.0234L17.1133 31.2539C17.0333 31.2138 16.9466 31.1856 16.8447 31.1855C16.4914 31.1855 16.2013 31.4758 16.2012 31.8291C16.2012 32.1825 16.4914 32.4727 16.8447 32.4727C17.102 32.4726 17.2896 32.3381 17.4199 32.2109C17.4359 32.304 17.4521 32.4358 17.4521 32.5986C17.452 33.1034 17.1772 33.6539 16.6953 34.1445C16.2201 34.6284 15.5504 35.0456 14.7705 35.293C13.9905 35.0369 13.3201 34.6158 12.8447 34.1318C12.3625 33.6408 12.0881 33.0941 12.0879 32.5986C12.0879 32.5214 12.0922 32.4479 12.0986 32.3818L12.1201 32.2207C12.2638 32.3592 12.466 32.4727 12.6963 32.4727C13.0495 32.4725 13.3398 32.1824 13.3398 31.8291C13.3398 31.4759 13.0494 31.1857 12.6963 31.1855C12.5996 31.1855 12.5172 31.2127 12.4492 31.2412L12.2344 31.0273C12.4399 30.6651 12.6602 30.2523 12.8154 29.8213L12.8506 29.7256L12.751 29.7031C12.1979 29.5782 11.6288 29.4362 11.0967 29.2588L11.0674 29.249L11.0381 29.2598C10.6529 29.3998 10.2342 29.4863 9.81738 29.4863C8.24935 29.4863 6.92525 28.424 6.54199 26.9785L6.5332 26.9463L6.50586 26.9277L6.13379 26.6641C2.34095 23.8898 0.089844 19.5057 0.0898439 14.7881C0.0898464 6.68362 6.68322 0.0900104 14.8057 0.0898436ZM13.0947 29.833C12.9718 30.1841 12.8127 30.5008 12.6523 30.8037L12.5859 30.9307L12.7285 30.9355C13.2184 30.9519 13.6073 31.3426 13.6074 31.8291C13.6074 32.093 13.5136 32.3154 13.3555 32.4717C13.1972 32.6279 12.9699 32.7236 12.6963 32.7236C12.6364 32.7236 12.5556 32.708 12.4854 32.6904L12.3545 32.6572L12.375 32.791C12.4419 33.2203 12.7297 33.6707 13.1465 34.0625C13.5649 34.4558 14.1213 34.7981 14.7412 35.0078L14.7695 35.0176L14.7988 35.0078C15.4272 34.7983 15.9884 34.4607 16.4072 34.0693C16.8246 33.6793 17.1087 33.2275 17.166 32.7881L17.1826 32.6582L17.0557 32.6904C16.9839 32.7084 16.9218 32.7236 16.8447 32.7236C16.3366 32.7236 15.9326 32.3488 15.9326 31.8291C15.9327 31.2927 16.3355 30.9355 16.8447 30.9355L17.0244 30.9355L16.9824 30.8164C16.8758 30.5144 16.7875 30.2308 16.7168 29.9482L16.6982 29.875L16.623 29.8809C16.14 29.9166 15.6602 29.9521 15.1455 29.9521C14.5249 29.9521 13.8689 29.8985 13.1953 29.7744L13.1201 29.7607L13.0947 29.833ZM9.87109 23.9971C9.1967 23.9971 8.59934 24.3343 8.20898 24.8359L8.14258 24.9209L8.2373 24.9707C9.02715 25.3836 9.76529 25.689 10.1201 25.8486L10.124 25.8506C10.2642 25.9069 10.3535 26.0499 10.3535 26.2148C10.3533 26.4335 10.1787 26.6074 9.95996 26.6074C9.90166 26.6074 9.86605 26.6037 9.83691 26.5957C9.808 26.5877 9.78002 26.5739 9.73828 26.5488L9.73535 26.5479C9.33175 26.3196 8.69405 25.8245 8.04883 25.3047L7.95605 25.2295L7.91016 25.3398C7.81629 25.5652 7.76074 25.8275 7.76074 26.1074C7.76085 27.1174 8.399 27.7141 8.93164 28.0264C10.6441 29.0356 13.1449 29.7187 15.1455 29.7187C18.2764 29.7187 20.8024 28.8005 22.877 26.9424L22.793 26.79C17.469 28.2807 13.0467 25.5837 11.3115 24.5283L10.7754 24.207L10.7754 24.2061L10.7666 24.2021C10.4881 24.0722 10.1893 23.9971 9.87109 23.9971ZM7.05566 24.5996C6.81777 25.0571 6.66992 25.5542 6.66992 26.1074C6.67007 27.8375 8.08722 29.2539 9.81738 29.2539C10.0363 29.2539 10.2366 29.2356 10.4326 29.2178L10.457 29.0459C10.0038 28.8726 9.57148 28.6792 9.1748 28.4668L8.79004 28.248L8.79004 28.2471L8.63477 28.1504C7.88337 27.65 7.49219 26.9469 7.49219 26.125C7.49219 25.7644 7.57776 25.4368 7.7168 25.124L7.74316 25.0645L7.69531 25.0215C7.51633 24.8604 7.35519 24.7172 7.19434 24.5742L7.1084 24.498L7.05566 24.5996ZM14.8418 0.322265C6.87087 0.322266 0.375979 6.81715 0.375977 14.7881C0.375977 19.4123 2.58854 23.7489 6.33105 26.4658L6.50781 26.5937L6.47168 26.3789C6.45517 26.2799 6.45508 26.1967 6.45508 26.0889C6.45515 25.462 6.62952 24.8697 6.92578 24.3643L6.96191 24.3018L6.90918 24.2529C6.78576 24.1398 6.67636 24.0337 6.58594 23.9385C6.69208 24.0195 6.80544 24.1031 6.92578 24.1797L6.99707 24.2246L7.0459 24.1572C7.41235 23.6512 7.90161 23.2491 8.47754 22.9873L8.61133 22.9268L8.49512 22.8359C6.03116 20.9037 4.55966 17.9077 4.55957 14.7705C4.55957 9.11575 9.15138 4.52441 14.8242 4.52441C20.4791 4.52461 25.0879 9.11597 25.0879 14.7705C25.0878 19.3611 22.0392 23.2615 17.8555 24.5557L17.8545 24.5557C17.5412 24.6567 17.3034 24.9581 17.1367 25.3232C16.9684 25.6921 16.8636 26.1459 16.8271 26.583L16.8203 26.6602L16.8965 26.6768C18.8227 27.1088 21.0758 27.1815 23.5088 26.3164L23.5215 26.3115L23.5322 26.3037C27.1667 23.5509 29.2536 19.3582 29.3076 14.7891L29.3076 14.7881C29.3076 6.79922 22.8126 0.322298 14.8418 0.322265ZM16.9883 24.8037C16.2775 24.9459 15.5496 25.0342 14.8057 25.0342C14.6366 25.0342 14.4439 25.0881 14.2754 25.1758C14.1074 25.2633 13.9521 25.3913 13.8691 25.5469L13.8242 25.6309L13.9111 25.6699C14.6656 26.0112 15.5106 26.3351 16.4639 26.5869L16.5693 26.6152L16.5762 26.5059C16.6112 25.9285 16.7861 25.3559 17.0781 24.9434L17.208 24.7598L16.9883 24.8037ZM12.4131 24.7324L12.3486 24.8975C12.6728 25.0775 13.1394 25.3111 13.5156 25.4902L13.5859 25.5234L13.6289 25.459C13.6962 25.3581 13.7964 25.2425 13.9102 25.1611L14.0977 25.0264L13.8691 24.999C13.4261 24.9459 12.8573 24.839 12.4131 24.7324ZM9.81738 22.96C8.74919 22.96 7.81037 23.4948 7.22266 24.3213L7.16699 24.3994L7.25 24.4492C7.34028 24.5034 7.43469 24.5578 7.52832 24.6113C7.62233 24.665 7.71529 24.7184 7.80371 24.7715L7.87402 24.8135L7.92188 24.7471C8.35275 24.1612 9.04204 23.7822 9.83496 23.7822C10.1991 23.7822 10.5423 23.8522 10.8496 24.0059L10.8691 24.0146L10.8887 24.0146C11.3701 24.2101 11.8521 24.3702 12.334 24.4951L12.5586 24.5537L12.4307 24.3594C11.8597 23.4937 10.8663 22.9601 9.81738 22.96ZM14.7881 4.75684C9.26694 4.75684 4.77441 9.24936 4.77441 14.7705C4.77451 17.928 6.28986 20.9408 8.83398 22.8174L8.86719 22.8418L8.90723 22.832C9.20822 22.7612 9.5054 22.71 9.81738 22.71C11.0887 22.7101 12.2738 23.4419 12.8486 24.5742L12.8682 24.6123L12.9111 24.6211C13.5433 24.7475 14.1749 24.8017 14.8057 24.8018C20.3269 24.8018 24.8198 20.3087 24.8018 14.7695C24.8014 9.24869 20.309 4.75684 14.7881 4.75684Z" fill="#3EAAFF" stroke="#3EAAFF" stroke-width="0.178816"/>
<path d="M41.2686 16.6296L41.2695 16.6296C45.1019 16.6121 48.0457 19.4879 48.0459 23.2273C48.0459 27.1279 45.0298 29.9685 41.2686 29.9685C37.4355 29.9683 34.4923 27.1099 34.4922 23.3708C34.4922 19.4703 37.5074 16.6298 41.2686 16.6296ZM41.2686 17.0945C39.6356 17.0946 38.4382 17.8672 37.6523 19.031C36.8686 20.1918 36.4941 21.7402 36.4941 23.2996C36.4942 25.1098 36.9356 26.6551 37.7549 27.7498C38.5761 28.8469 39.7739 29.486 41.2686 29.4861C42.9018 29.4861 44.0998 28.7132 44.8857 27.5515C45.6694 26.3931 46.0429 24.8499 46.043 23.2996C46.043 21.4894 45.6022 19.9397 44.7832 18.8406C43.962 17.7388 42.7637 17.0945 41.2686 17.0945Z" fill="#3EAAFF" stroke="#3EAAFF" stroke-width="0.178816"/>
<path d="M83.2021 16.6296L83.2031 16.6296C87.0532 16.6121 89.9793 19.4878 89.9795 23.2273C89.9795 27.1279 86.9634 29.9685 83.2021 29.9685C79.3691 29.9683 76.4259 27.1099 76.4258 23.3708C76.4258 19.4703 79.441 16.6298 83.2021 16.6296ZM83.2021 17.0945C81.5692 17.0946 80.3718 17.8672 79.5859 19.031C78.8022 20.1918 78.4277 21.7402 78.4277 23.2996C78.4278 25.1098 78.8692 26.6551 79.6885 27.7498C80.5097 28.8469 81.7075 29.486 83.2021 29.4861C84.8354 29.4861 86.0334 28.7132 86.8193 27.5515C87.603 26.3931 87.9765 24.8499 87.9766 23.2996C87.9766 21.4894 87.5358 19.9397 86.7168 18.8406C85.8956 17.7388 84.6972 17.0945 83.2021 17.0945Z" fill="#3EAAFF" stroke="#3EAAFF" stroke-width="0.178816"/>
<path d="M97.2783 16.8439C98.323 16.8439 99.0877 16.9258 99.708 17.1105L99.9658 17.1954C101.342 17.7364 102.124 19.0432 102.124 20.2765C102.124 21.8332 100.967 23.1463 98.9932 23.6046L98.9238 23.6212L98.9238 23.8214L98.9756 23.8448C99.1578 23.9277 99.3049 24.0262 99.583 24.337C99.864 24.6512 100.273 25.1759 100.98 26.1066L102.769 28.4669C103.032 28.8417 103.391 29.0674 103.804 29.1613L103.804 29.1622L105.039 29.4327L105.039 29.754L101.999 29.754C101.83 29.754 101.71 29.7284 101.595 29.6573C101.476 29.5841 101.354 29.4573 101.195 29.2365L98.4775 25.4103C98.0961 24.8692 97.8249 24.4864 97.5273 24.2423C97.2216 23.9915 96.8915 23.8888 96.4023 23.8888L95.2939 23.8888L95.2939 28.4132C95.294 28.6025 95.3319 28.7615 95.4395 28.8829C95.5454 29.0025 95.7058 29.0701 95.918 29.1075L95.918 29.1085L97.332 29.4142L97.332 29.7365L91.6641 29.7365L91.6641 29.4122L92.9365 29.1075L92.9385 29.1075C93.1392 29.0528 93.2947 28.9838 93.3975 28.8702C93.5029 28.7535 93.541 28.603 93.541 28.4132L93.541 18.1671C93.541 17.9766 93.5033 17.8258 93.3984 17.7072C93.2967 17.5921 93.1424 17.5189 92.9424 17.4552L92.9365 17.4542L91.6641 17.1486L91.6641 16.8439L97.2783 16.8439ZM95.2754 23.4415L97.0098 23.4415C98.2636 23.4415 99.0494 23.0454 99.5176 22.4415C99.9821 21.8422 100.122 21.0542 100.122 20.295C100.122 19.2125 99.6529 18.1846 98.6045 17.6339L98.3867 17.5304L98.3857 17.5294L98.1504 17.4445C97.603 17.2718 97.0497 17.2726 96.3486 17.2726L95.2754 17.2726L95.2754 23.4415Z" fill="#3EAAFF" stroke="#3EAAFF" stroke-width="0.178816"/>
<path d="M74.4395 16.8439L74.4395 19.9366L74.041 19.9366L73.4521 18.0333C73.3789 17.7777 73.2837 17.5844 73.1377 17.4562C72.9887 17.3255 72.7992 17.2726 72.5625 17.2726L68.3604 17.2726L68.3604 23.0841L71.6143 23.0841C71.841 23.0841 72.0372 23.0367 72.1963 22.9161C72.3549 22.7958 72.4662 22.611 72.541 22.3585L72.541 22.3575L72.8438 21.3136L73.2236 21.3136L73.2236 25.4982L72.8467 25.4982L72.542 24.2609C72.485 24.0146 72.3772 23.8292 72.2158 23.7062C72.0547 23.5835 71.8503 23.5314 71.6143 23.5314L68.3604 23.5314L68.3604 28.4132C68.3604 28.6025 68.3983 28.7615 68.5059 28.8829C68.6118 29.0025 68.7722 29.0701 68.9844 29.1075L68.9844 29.1085L70.3984 29.4142L70.3984 29.7365L64.7305 29.7365L64.7305 29.4122L66.0029 29.1075L66.0049 29.1075C66.2052 29.0529 66.3638 28.9844 66.4707 28.8722C66.5813 28.7561 66.6249 28.6056 66.625 28.4132L66.625 18.1671C66.625 17.977 66.5873 17.8253 66.4785 17.7081C66.3732 17.5947 66.2131 17.5264 66.0039 17.4718L66.0029 17.4718L64.7305 17.1661L64.7305 16.8439L74.4395 16.8439Z" fill="#3EAAFF" stroke="#3EAAFF" stroke-width="0.178816"/>
<path d="M112.312 16.8439C113.968 16.8439 115.169 17.0577 116.118 17.4972L116.119 17.4972C118.548 18.606 119.661 21.0005 119.661 23.3702C119.661 25.6727 118.794 27.8168 116.615 28.9591L116.614 28.9601C115.614 29.5039 114.219 29.754 112.365 29.754L106.25 29.754L106.25 29.4122L107.522 29.1075L107.524 29.1075C107.725 29.0529 107.883 28.9844 107.99 28.8722C108.101 28.7561 108.145 28.6056 108.146 28.4132L108.146 18.1671C108.146 17.977 108.107 17.8253 107.998 17.7081C107.893 17.5947 107.733 17.5264 107.523 17.4718L107.522 17.4718L106.25 17.1661L106.25 16.8439L112.312 16.8439ZM109.897 28.6271C109.897 28.8658 109.922 29.0509 110.038 29.1671C110.154 29.283 110.339 29.3068 110.577 29.3068L112.168 29.3068C113.693 29.3068 114.844 29.092 115.673 28.4845C117.047 27.4768 117.676 25.6722 117.676 23.4064C117.676 21.1788 117.047 18.9547 115.199 17.8751C114.408 17.4154 113.404 17.2726 111.882 17.2726L109.897 17.2726L109.897 28.6271Z" fill="#3EAAFF" stroke="#3EAAFF" stroke-width="0.178816"/>
<path d="M54.4102 16.828L54.4102 17.1473L53.251 17.3827C53.1398 17.4012 53.0512 17.4292 52.9883 17.4716C52.9195 17.5178 52.8809 17.5823 52.8809 17.661C52.8809 17.7304 52.911 17.8004 52.9463 17.8641C52.9824 17.9294 53.0319 18.0009 53.085 18.076L53.085 18.077L56.0361 22.2968L56.0625 22.3348L56.2266 22.3348L56.2529 22.2977L59.2744 18.077C59.3267 18.0073 59.3748 17.944 59.4082 17.8876C59.4407 17.8326 59.4697 17.7691 59.4658 17.703C59.4614 17.6279 59.4178 17.5726 59.3574 17.5331C59.3001 17.4956 59.2195 17.4657 59.1191 17.4384L59.1162 17.4384L58.0225 17.1688L58.0225 16.8456L62.457 16.8456L62.457 17.1688L61.3623 17.4384C60.9221 17.5484 60.5996 17.6985 60.2979 18.038L60.2949 18.0419L56.5215 22.7977L56.4785 22.8524L56.5205 22.9071L60.7051 28.4686C60.9375 28.7993 61.2415 28.9836 61.583 29.1102L61.7324 29.162L61.7373 29.163L62.7607 29.4305L62.7607 29.7557L57.2002 29.7557L57.2002 29.4354L58.3613 29.1991C58.4701 29.1808 58.5576 29.1575 58.6211 29.1219C58.6887 29.084 58.7376 29.0279 58.7461 28.9501C58.7535 28.8811 58.7274 28.8118 58.6953 28.7509C58.6621 28.6878 58.614 28.6175 58.5605 28.5419L55.3594 24.036L55.333 23.9979L55.1689 23.9979L55.1426 24.035L51.9072 28.5038C51.8544 28.5743 51.8062 28.6392 51.7725 28.6962C51.74 28.7511 51.711 28.8147 51.7148 28.8807C51.7193 28.9558 51.7639 29.0102 51.8242 29.0497C51.8816 29.0872 51.9621 29.117 52.0625 29.1444L52.0635 29.1454L53.1768 29.4315L53.1768 29.7557L48.7422 29.7557L48.7422 29.4315L49.8359 29.163C50.2765 29.0528 50.6003 28.9025 50.9023 28.5438L50.9033 28.5419L54.9092 23.535L54.9521 23.4813L54.9111 23.4257L50.9053 18.1151C50.64 17.7374 50.2982 17.5503 49.876 17.4218L49.873 17.4208L48.8486 17.1512L48.8486 16.828L54.4102 16.828Z" fill="#3EAAFF" stroke="#3EAAFF" stroke-width="0.178816"/>
<path d="M36.2617 4.97156L36.2617 8.79773C36.2617 9.28784 36.2394 9.81235 36.6631 10.2186L36.6631 10.2196C36.9524 10.5089 37.3894 10.6571 37.8711 10.6571C38.3571 10.657 38.7384 10.489 38.9893 10.2382C39.2195 10.0079 39.3251 9.7654 39.3721 9.44128C39.418 9.12454 39.4082 8.72115 39.4082 8.17175L39.4082 4.98914L39.9629 4.98914L39.9629 7.99304C39.9629 8.56901 39.9718 9.06123 39.9082 9.48425C39.8451 9.9038 39.7116 10.2452 39.4346 10.5223C39.0958 10.8611 38.5654 11.1044 37.835 11.1044C37.1916 11.1044 36.6087 10.8956 36.2178 10.5048C35.6767 9.96367 35.707 9.2913 35.707 8.5116L35.707 4.97156L36.2617 4.97156Z" fill="#3EAAFF" stroke="#3EAAFF" stroke-width="0.178816"/>
<path d="M43.1514 4.97156L46.1113 10.0409L46.2793 10.328L46.2783 9.99597L46.2607 4.97156L46.7607 4.97156L46.7607 10.9794L46.1328 10.9794L43.1719 5.94519L43.0049 5.66003L43.0059 5.99109L43.0234 10.9794L42.5234 10.9794L42.5234 4.97156L43.1514 4.97156Z" fill="#3EAAFF" stroke="#3EAAFF" stroke-width="0.178816"/>
<path d="M50.1025 4.97156L50.1025 10.9969L49.5313 10.9969L49.5313 4.97156L50.1025 4.97156Z" fill="#3EAAFF" stroke="#3EAAFF" stroke-width="0.178816"/>
<path d="M52.5391 4.97156L54.3242 10.3817L54.4082 10.6346L54.4941 10.3827L56.333 4.97156L56.8574 4.97156L54.7568 10.9794L54.0254 10.9794L51.9414 4.97156L52.5391 4.97156Z" fill="#3EAAFF" stroke="#3EAAFF" stroke-width="0.178816"/>
<path d="M61.96 4.97156L61.96 5.40027L59.3311 5.40027L59.3311 7.63562L61.7988 7.63562L61.7988 8.06433L59.3311 8.06433L59.3311 10.5321L62.0313 10.5321L62.0313 10.9794L58.7773 10.9794L58.7773 4.97156L61.96 4.97156Z" fill="#3EAAFF" stroke="#3EAAFF" stroke-width="0.178816"/>
<path d="M65.4502 4.95239C66.282 4.95239 66.8663 4.95655 67.3184 5.40845C67.6046 5.69474 67.7754 6.08314 67.7754 6.57935C67.7754 6.98949 67.6564 7.32418 67.4063 7.59106L67.4053 7.59106C67.2047 7.80838 66.8494 8.01245 66.4619 8.04614L66.4619 8.22388C66.6506 8.2396 66.8109 8.33458 66.9248 8.44849C66.9964 8.52007 67.0637 8.619 67.1357 8.7522C67.2077 8.88521 67.2825 9.0474 67.3721 9.24438L68.1543 10.9778L67.583 10.9778L66.8916 9.42212L66.8906 9.42114L66.7324 9.08911C66.5797 8.79188 66.4387 8.59426 66.2588 8.46997C66.0162 8.30261 65.7159 8.27759 65.2715 8.27759L64.7529 8.27759L64.7529 10.9778L64.1992 10.9778L64.1992 4.95239L65.4502 4.95239ZM64.7529 7.88501L65.0928 7.88501C65.4015 7.88501 65.737 7.89386 66.0449 7.8479C66.3542 7.80174 66.6476 7.69765 66.8721 7.46411L66.873 7.46509C67.0873 7.25077 67.2207 6.92334 67.2207 6.59692C67.2207 6.21724 67.0691 5.90821 66.9082 5.74731C66.5195 5.35866 66.0121 5.38109 65.5225 5.3811L64.7529 5.3811L64.7529 7.88501Z" fill="#3EAAFF" stroke="#3EAAFF" stroke-width="0.178816"/>
<path d="M76.1934 4.97156L76.1934 10.9969L75.6211 10.9969L75.6211 4.97156L76.1934 4.97156Z" fill="#3EAAFF" stroke="#3EAAFF" stroke-width="0.178816"/>
<path d="M82.2725 4.97156L82.2725 5.40027L80.4492 5.40027L80.4492 10.9794L79.877 10.9794L79.877 5.40027L78.0352 5.40027L78.0352 4.97156L82.2725 4.97156Z" fill="#3EAAFF" stroke="#3EAAFF" stroke-width="0.178816"/>
<path d="M85.2949 8.59656L85.2842 8.57703L83.3867 4.97156L84.0254 4.97156L85.5371 7.82019L85.6182 7.97156L85.6963 7.81921L87.1553 4.97156L87.7568 4.97156L85.8594 8.57703L85.8486 8.59656L85.8486 10.9794L85.2949 10.9794L85.2949 8.59656Z" fill="#3EAAFF" stroke="#3EAAFF" stroke-width="0.178816"/>
<path d="M94.9326 4.86438C96.499 4.86438 97.6151 6.13481 97.6152 7.95715C97.6064 8.89595 97.3171 9.68336 96.833 10.2345C96.3496 10.7848 95.6675 11.1046 94.8613 11.1046C93.3125 11.1045 92.1797 9.8329 92.1797 8.01086C92.1797 7.07224 92.4643 6.28543 92.9482 5.7345C93.4314 5.18449 94.1173 4.86449 94.9326 4.86438ZM94.8613 5.31067C94.2258 5.31072 93.6996 5.57891 93.334 6.04993C92.97 6.5189 92.7695 7.18377 92.7695 7.97571C92.7697 9.54295 93.6682 10.6573 94.8975 10.6573C95.5702 10.6573 96.1022 10.366 96.4629 9.87415C96.8213 9.38521 97.0068 8.70344 97.0068 7.922C97.0068 7.14587 96.7882 6.49379 96.4082 6.0343C96.027 5.5736 95.4872 5.31067 94.8613 5.31067Z" fill="#3EAAFF" stroke="#3EAAFF" stroke-width="0.178816"/>
<path d="M102.928 4.97156L102.928 5.40027L100.37 5.40027L100.37 7.63562L102.767 7.63562L102.767 8.04675L100.37 8.04675L100.37 10.9794L99.8164 10.9794L99.8164 4.97156L102.928 4.97156Z" fill="#3EAAFF" stroke="#3EAAFF" stroke-width="0.178816"/>
<path d="M71.6719 4.84521C72.5941 4.84521 73.1156 5.25394 73.2842 5.40869L73.0303 5.7251C72.8234 5.58032 72.3479 5.29151 71.7256 5.2915C71.3173 5.2915 70.9869 5.39896 70.7568 5.5874C70.5255 5.77705 70.4023 6.04423 70.4023 6.34717C70.4024 6.64378 70.5232 6.86325 70.7178 7.03857C70.9443 7.24615 71.2604 7.39354 71.5977 7.53564L71.5977 7.53662C71.8092 7.63779 72.0474 7.73628 72.2871 7.86279C72.5247 7.98819 72.7525 8.13508 72.9307 8.32178L72.9316 8.32373C73.186 8.5781 73.371 8.91353 73.3711 9.36865C73.3711 9.86606 73.1996 10.2977 72.8799 10.605C72.5599 10.9124 72.0823 11.103 71.457 11.103C70.549 11.1029 69.9238 10.6676 69.7188 10.5103L69.9629 10.1519C70.0764 10.2244 70.2585 10.3317 70.4785 10.4272C70.7565 10.548 71.1002 10.6567 71.4395 10.6567C71.9209 10.6567 72.2682 10.5213 72.4951 10.2944C72.7215 10.0679 72.8164 9.76091 72.8164 9.43994C72.8163 9.12638 72.6781 8.87265 72.4678 8.68018L72.4688 8.68018C72.3165 8.5279 72.1239 8.406 71.9219 8.29932C71.721 8.19323 71.5006 8.09698 71.2988 8.00049C70.8844 7.80227 70.4901 7.61266 70.2178 7.32373L70.2188 7.32373C70.0699 7.15833 69.8838 6.85713 69.8838 6.38232C69.8839 5.49527 70.6008 4.84523 71.6719 4.84521Z" fill="#3EAAFF" stroke="#3EAAFF" stroke-width="0.178816"/>
</svg>
