<svg width="170" height="50" viewBox="0 0 170 50" fill="none" xmlns="http://www.w3.org/2000/svg">
<path d="M18.3457 16.3221C18.6442 16.3221 18.9665 16.3415 19.2559 16.3846C19.5459 16.4278 19.7901 16.4939 19.9463 16.5818L19.9473 16.5818C20.4786 16.9053 20.7207 17.4621 20.7207 18.2176L20.7207 25.5711C20.5984 25.34 20.4104 25.1681 20.1719 25.0467C19.7847 24.8497 19.2734 24.7869 18.7246 24.7869L14.1514 24.7869L14.1514 16.3221L18.3457 16.3221Z" fill="white" stroke="white" stroke-width="0.252658"/>
<path d="M20.8472 18.2174C20.8472 17.4341 20.5945 16.8277 20.0134 16.474C19.6597 16.2719 18.9522 16.1961 18.3458 16.1961L14.0254 16.1961L14.0254 24.9128L18.7248 24.9128C19.8113 24.9128 20.6703 25.1655 20.7461 26.1256L20.8472 26.1256L20.8472 18.2174Z" stroke="white" stroke-width="0.267059" stroke-miterlimit="3.8637"/>
<path d="M23.4717 16.3221L27.6904 16.3221L27.6904 24.7869L23.0928 24.7869C22.5436 24.7869 21.997 24.85 21.5771 25.0447C21.3165 25.1657 21.1035 25.3392 20.9697 25.577L20.9697 18.2176C20.9697 17.4636 21.211 16.9075 21.7402 16.5838C21.8938 16.4961 22.175 16.4287 22.5059 16.3846C22.8311 16.3412 23.1858 16.3221 23.4717 16.3221Z" fill="white" stroke="white" stroke-width="0.252658"/>
<path d="M20.8438 18.2174C20.8438 17.4341 21.0964 16.8277 21.6775 16.474C22.0312 16.2719 22.8903 16.1961 23.4714 16.1961L27.8171 16.1961L27.8171 24.9128L23.0924 24.9128C22.006 24.9128 20.9953 25.1655 20.9448 26.1256L20.8438 26.1256L20.8438 18.2174Z" stroke="white" stroke-width="0.267059" stroke-miterlimit="3.8637"/>
<path d="M12.6318 17.6683L12.542 17.6409L11.7832 17.4134L11.7227 17.3948L11.6719 17.4339C11.588 17.4968 11.4873 17.5345 11.3936 17.5345C11.1602 17.5345 10.9639 17.3382 10.9639 17.1048C10.964 16.8715 11.1602 16.6751 11.3936 16.6751C11.5826 16.6751 11.743 16.8083 11.8047 16.9935L11.8252 17.055L11.8877 17.0745L12.4688 17.2513L12.6318 17.3011L12.6318 16.9788L12.9854 16.9788L12.9854 26.2005L19.6943 26.2005L19.7393 26.3206L19.7422 26.3284C19.8094 26.4764 19.9043 26.6407 20.0908 26.764C20.2763 26.8864 20.5376 26.9583 20.9189 26.9583C21.3001 26.9583 21.5607 26.8863 21.7461 26.764C21.9329 26.6407 22.0274 26.4764 22.0947 26.3284L22.0957 26.3284L22.0986 26.3206L22.1436 26.2005L28.8525 26.2005L28.8525 16.9788L29.1807 16.9788L29.1807 26.554L22.3369 26.554L22.2998 26.6175C22.0499 27.0489 21.6185 27.2874 20.9189 27.2874C20.2192 27.2874 19.787 27.0491 19.5371 26.6175L19.501 26.554L12.5811 26.554L12.5811 25.8275L12.4023 25.9085L11.8467 26.1614L11.7803 26.1917L11.7734 26.264C11.7551 26.4472 11.5861 26.6048 11.3682 26.6048C11.1348 26.6047 10.9385 26.4085 10.9385 26.1751C10.9386 25.9419 11.1349 25.7455 11.3682 25.7454C11.4594 25.7454 11.536 25.7818 11.6016 25.8255L11.6592 25.8636L11.7227 25.8362L12.5303 25.4827L12.6064 25.4495L12.6064 24.4866L12.4414 24.5394L11.8857 24.7161L11.8242 24.7357L11.8047 24.7962C11.743 24.9814 11.5826 25.1146 11.3936 25.1146C11.1602 25.1145 10.964 24.9182 10.9639 24.6849C10.9639 24.4515 11.1602 24.2552 11.3936 24.2552C11.4873 24.2552 11.588 24.2929 11.6719 24.3558L11.7236 24.3948L11.7852 24.3763L12.5176 24.1487L12.6064 24.1204L12.6064 23.1439L12.457 23.1712L11.9014 23.2718L11.8311 23.2845L11.8057 23.3519C11.7508 23.4981 11.6009 23.5979 11.4189 23.598C11.1857 23.598 10.9895 23.4025 10.9893 23.1693C10.9893 22.9358 11.1855 22.7396 11.4189 22.7396C11.531 22.7396 11.6515 22.7974 11.7334 22.8792L11.7793 22.9241L11.8428 22.9144L12.499 22.8138L12.6064 22.7972L12.6064 21.7991L12.4746 21.805L11.8936 21.8294L11.8193 21.8333L11.7861 21.8997C11.7354 22.0011 11.6073 22.0823 11.4443 22.0823C11.2109 22.0823 11.0146 21.8861 11.0146 21.6527C11.0147 21.4193 11.211 21.223 11.4443 21.223C11.6096 21.223 11.7192 21.2827 11.7939 21.3948L11.833 21.4534L11.9043 21.4505L12.5107 21.4251L12.6318 21.4202L12.6318 20.3694L12.5107 20.3646L11.9043 20.3392L11.8398 20.3362L11.7998 20.386C11.719 20.4871 11.5771 20.5666 11.4443 20.5667C11.211 20.5667 11.0147 20.3704 11.0146 20.137C11.0146 19.9036 11.2109 19.7073 11.4443 19.7073C11.5933 19.7074 11.735 19.8025 11.8193 19.929L11.8545 19.9827L11.9189 19.9847L12.5 20.0101L12.6318 20.0159L12.6318 19.0208L12.5283 19.0023L11.8457 18.8753L11.7813 18.8636L11.7334 18.9105C11.6515 18.9923 11.531 19.0501 11.4189 19.0501C11.1857 19.0501 10.9895 18.8546 10.9893 18.6214C10.9893 18.388 11.1855 18.1917 11.4189 18.1917C11.6009 18.1917 11.7507 18.2916 11.8057 18.4378L11.8311 18.5052L11.9023 18.5179L12.4834 18.6194L12.6318 18.6448L12.6318 17.6683Z" fill="white" stroke="white" stroke-width="0.252658"/>
<path d="M16.374 13.9188C17.0764 13.9188 17.6999 13.9693 18.1445 14.0526C18.3679 14.0945 18.5398 14.1435 18.6523 14.1952C18.7089 14.2212 18.7439 14.2453 18.7627 14.2636C18.7643 14.2652 18.7653 14.2671 18.7666 14.2684C18.7657 14.2693 18.7657 14.2714 18.7646 14.2723C18.7448 14.2901 18.7084 14.313 18.6504 14.3387C18.5348 14.39 18.3598 14.4398 18.1348 14.4833C17.6866 14.5698 17.0629 14.6268 16.374 14.6268C15.6845 14.6268 15.0612 14.5764 14.6133 14.493C14.3882 14.4511 14.2134 14.4024 14.0986 14.3505C14.0413 14.3245 14.0058 14.3005 13.9863 14.2821C13.9839 14.2798 13.9821 14.2771 13.9805 14.2753C13.9813 14.2745 13.9825 14.2741 13.9834 14.2733C14.0032 14.2555 14.0403 14.2327 14.0986 14.2069C14.2143 14.1557 14.3894 14.1058 14.6143 14.0624C15.0624 13.9759 15.6854 13.9188 16.374 13.9188Z" fill="white" stroke="white" stroke-width="0.252658"/>
<path d="M16.3857 10.2294L17.4316 11.6953L17.1357 11.748C17.0609 11.7553 16.9944 11.7985 16.9668 11.872C16.9409 11.9413 16.9592 12.0137 17.0029 12.0683L17.0029 12.0693L17.6602 13.0302L17.6973 13.0849L17.8867 13.0849L17.9229 13.0546L18.832 12.2714L18.8301 12.2695C18.8864 12.2292 18.9186 12.1651 18.9102 12.0966C18.9004 12.0184 18.8448 11.9595 18.7734 11.9326L18.7744 11.9326L18.5537 11.8378L19.7109 11.0204L18.9473 13.3749C18.7053 13.2893 18.3705 13.2153 17.9766 13.1621C17.503 13.0981 16.9354 13.0595 16.3242 13.0595C15.7129 13.0595 15.1446 13.098 14.6709 13.1621C14.2768 13.2153 13.9421 13.2893 13.7002 13.3749L12.9131 10.9472L14.2178 11.8388L14 11.9326L13.9775 11.9423L13.9609 11.9599C13.8959 12.025 13.8516 12.1351 13.9063 12.2265L13.9355 12.2646L13.9395 12.2685L14.7988 13.0517L14.835 13.0849L15.0264 13.0849L15.0645 13.0302L15.7207 12.0693C15.7602 12.0211 15.7874 11.9518 15.7549 11.8759C15.7245 11.805 15.6579 11.7691 15.6064 11.7519L15.5977 11.749L15.5879 11.748L15.291 11.6953L16.3379 10.2294L16.3857 10.2294Z" fill="white" stroke="white" stroke-width="0.252658"/>
<path d="M20.9209 32.1624C21.6098 32.1624 22.2269 32.2194 22.6719 32.306C22.895 32.3494 23.0693 32.3991 23.1865 32.4505C23.2452 32.4763 23.2842 32.4997 23.3066 32.5189C23.286 32.5361 23.2514 32.5584 23.1973 32.5823C23.0817 32.6336 22.9067 32.6834 22.6816 32.7269C22.2334 32.8134 21.6098 32.8704 20.9209 32.8704C20.2313 32.8704 19.6081 32.82 19.1602 32.7366C18.9351 32.6947 18.7602 32.646 18.6455 32.5941C18.5881 32.5681 18.5527 32.5441 18.5332 32.5257C18.5308 32.5234 18.529 32.5207 18.5273 32.5189C18.5281 32.5181 18.5294 32.5177 18.5303 32.5169C18.5501 32.4991 18.5872 32.4763 18.6455 32.4505C18.7611 32.3993 18.9363 32.3494 19.1611 32.306C19.6093 32.2195 20.2323 32.1624 20.9209 32.1624Z" fill="white" stroke="white" stroke-width="0.252658"/>
<path d="M20.9307 28.473L21.9766 29.9388L21.6807 29.9916C21.6059 29.9989 21.5393 30.0421 21.5117 30.1156C21.4858 30.1849 21.5041 30.2573 21.5479 30.3119L21.5479 30.3129L22.2051 31.2738L22.2422 31.3285L22.4316 31.3285L22.4678 31.2982L23.377 30.515L23.376 30.514C23.4322 30.4738 23.4635 30.4086 23.4551 30.3402C23.4453 30.2619 23.3898 30.2031 23.3184 30.1761L23.3193 30.1761L23.083 30.0746L24.2959 29.2172L23.5176 31.6185C23.2756 31.5329 22.9408 31.4589 22.5469 31.4056C22.0733 31.3417 21.5057 31.3031 20.8945 31.3031C20.2832 31.3031 19.7149 31.3416 19.2412 31.4056C18.8471 31.4589 18.5125 31.5328 18.2705 31.6185L17.4834 29.1908L18.7783 30.0756L18.5459 30.1761L18.5449 30.1761L18.5391 30.1791C18.4648 30.2162 18.4353 30.2872 18.4287 30.3402C18.4244 30.3752 18.4272 30.4238 18.4502 30.4672L18.4805 30.5082L18.4844 30.5121L19.3438 31.2953L19.3799 31.3285L19.5713 31.3285L19.6094 31.2738L20.2656 30.3129C20.3051 30.2647 20.3323 30.1954 20.2998 30.1195C20.2694 30.0486 20.2028 30.0127 20.1514 29.9955L20.1426 29.9926L20.1328 29.9916L19.8359 29.9388L20.8828 28.473L20.9307 28.473Z" fill="white" stroke="white" stroke-width="0.252658"/>
<path d="M25.415 13.9188C26.1048 13.9188 26.7287 13.9692 27.1768 14.0526C27.4018 14.0945 27.5757 14.1443 27.6904 14.1962C27.748 14.2222 27.7843 14.2461 27.8037 14.2645C27.8054 14.2661 27.8063 14.2681 27.8076 14.2694C27.8069 14.2701 27.8065 14.2716 27.8057 14.2723C27.7858 14.2901 27.7494 14.313 27.6914 14.3387C27.5758 14.39 27.4008 14.4398 27.1758 14.4833C26.7276 14.5698 26.104 14.6268 25.415 14.6268C24.7255 14.6268 24.1022 14.5764 23.6543 14.493C23.4292 14.4511 23.2544 14.4024 23.1396 14.3505C23.0823 14.3245 23.0468 14.3005 23.0273 14.2821C23.0249 14.2798 23.0231 14.2771 23.0215 14.2753C23.0223 14.2745 23.0235 14.2741 23.0244 14.2733C23.0442 14.2555 23.0814 14.2327 23.1396 14.2069C23.2553 14.1557 23.4304 14.1058 23.6553 14.0624C24.1034 13.9759 24.7264 13.9188 25.415 13.9188Z" fill="white" stroke="white" stroke-width="0.252658"/>
<path d="M25.4287 10.2294L26.4746 11.6953L26.1787 11.748C26.1039 11.7553 26.0373 11.7985 26.0098 11.872C25.9838 11.9413 26.0021 12.0137 26.0459 12.0683L26.0459 12.0693L26.7031 13.0302L26.7402 13.0849L26.9297 13.0849L26.9658 13.0546L27.875 12.2714L27.873 12.2695C27.9293 12.2292 27.9616 12.1651 27.9531 12.0966C27.9433 12.0184 27.8878 11.9595 27.8164 11.9326L27.8174 11.9326L27.5967 11.8378L28.7539 11.0204L27.9902 13.3749C27.7483 13.2893 27.4135 13.2153 27.0195 13.1621C26.546 13.0981 25.9783 13.0595 25.3672 13.0595C24.7559 13.0595 24.1875 13.098 23.7139 13.1621C23.3197 13.2153 22.9851 13.2893 22.7432 13.3749L21.9561 10.9472L23.2607 11.8388L23.043 11.9326L23.0205 11.9423L23.0039 11.9599C22.9389 12.025 22.8946 12.1351 22.9492 12.2265L22.9785 12.2646L22.9824 12.2685L23.8418 13.0517L23.8779 13.0849L24.0693 13.0849L24.1074 13.0302L24.7637 12.0693C24.8031 12.0211 24.8304 11.9518 24.7979 11.8759C24.7674 11.805 24.7009 11.7691 24.6494 11.7519L24.6406 11.749L24.6309 11.748L24.334 11.6953L25.3809 10.2294L25.4287 10.2294Z" fill="white" stroke="white" stroke-width="0.252658"/>
<path d="M15.0352 17.737L15.0352 18.5456C15.0352 18.619 15.0442 18.6895 15.0723 18.7477L14.9248 18.7477C14.928 18.7312 14.9306 18.7156 14.9316 18.7018C14.9345 18.6651 14.9346 18.6195 14.9346 18.571L14.9346 17.9138C14.9346 17.8622 14.9323 17.8158 14.9268 17.7761C14.925 17.7635 14.9213 17.7504 14.918 17.737L15.0352 17.737ZM15.7041 17.8776L15.71 17.8835L15.7178 17.8893C15.7815 17.9374 15.8437 18.0481 15.8438 18.1921C15.8438 18.3929 15.7724 18.522 15.666 18.6061C15.7153 18.5005 15.7432 18.3697 15.7432 18.2175C15.7432 18.0719 15.7163 17.9513 15.6719 17.8532C15.6826 17.8616 15.6948 17.8683 15.7041 17.8776Z" fill="white" stroke="white" stroke-width="0.252658"/>
<path d="M16.4189 17.8484C16.3887 17.9399 16.3721 18.0474 16.3721 18.1677C16.3721 18.3545 16.4041 18.5262 16.4717 18.657C16.3451 18.5671 16.2706 18.4185 16.2705 18.2439C16.2705 18.1178 16.3132 17.9756 16.4004 17.8679C16.406 17.861 16.4129 17.8551 16.4189 17.8484ZM17.1221 17.8044C17.2342 17.8985 17.3066 18.0428 17.3066 18.2185C17.3066 18.3796 17.2531 18.5019 17.1729 18.5886C17.1949 18.4975 17.2061 18.3896 17.2061 18.2683C17.206 18.0864 17.1762 17.9281 17.1221 17.8044Z" fill="white" stroke="white" stroke-width="0.252658"/>
<path d="M18.8535 17.7624C18.8523 17.771 18.8502 17.7793 18.8496 17.7868C18.8467 17.8219 18.8467 17.8657 18.8467 17.9138L18.8467 17.9196L18.8721 18.5505C18.8721 18.5973 18.8723 18.6409 18.875 18.6765C18.8761 18.6902 18.8787 18.7058 18.8818 18.7224L18.8115 18.7224C18.8155 18.7046 18.8182 18.6879 18.8193 18.6735C18.8222 18.6383 18.8213 18.5939 18.8213 18.5456L18.8213 17.864L18.7217 17.8444L18.7559 17.7624L18.8535 17.7624ZM17.9561 17.7624L18.251 18.444L18.292 18.5397L18.2646 18.6081L17.9785 17.8923L17.8662 17.9099C17.8676 17.8843 17.8708 17.8609 17.8701 17.8395C17.8693 17.8155 17.8653 17.7891 17.8584 17.7624L17.9561 17.7624Z" fill="white" stroke="white" stroke-width="0.252658"/>
<path d="M19.6494 17.737C19.6461 17.7505 19.6424 17.7635 19.6406 17.7761C19.635 17.8158 19.6328 17.8622 19.6328 17.9138L19.6328 18.5456C19.6328 18.5974 19.635 18.6444 19.6406 18.6843C19.6424 18.6966 19.6462 18.7091 19.6494 18.7224L19.541 18.7224C19.5442 18.7092 19.5481 18.6966 19.5498 18.6843C19.5554 18.6444 19.5576 18.5974 19.5576 18.5456L19.5576 17.9138C19.5576 17.8622 19.5554 17.8158 19.5498 17.7761C19.548 17.7635 19.5443 17.7504 19.541 17.737L19.6494 17.737Z" fill="white" stroke="white" stroke-width="0.252658"/>
<path d="M15.8301 20.0347L16.4248 20.7954L16.499 20.8901L16.499 20.9985L15.8662 20.1851L15.7773 20.0708C15.774 20.0578 15.7704 20.0458 15.7656 20.0347L15.8301 20.0347Z" fill="white" stroke="white" stroke-width="0.252658"/>
<path d="M17.2168 20.0347C17.2175 20.0447 17.2175 20.0534 17.2188 20.0601C17.2229 20.0827 17.2309 20.1061 17.2373 20.1255L17.2373 20.1245C17.2543 20.1874 17.2997 20.3109 17.3467 20.4341C17.398 20.5687 17.4533 20.711 17.4912 20.812L17.5361 20.9331C17.5263 20.9598 17.5171 20.9863 17.5078 21.0122C17.3865 20.6795 17.2386 20.2948 17.1719 20.1167L17.1729 20.1167L17.167 20.105L17.1289 20.0347L17.2168 20.0347Z" fill="white" stroke="white" stroke-width="0.252658"/>
<path d="M18.4209 20.1617C18.4209 20.2503 18.4567 20.3219 18.5156 20.3756C18.5681 20.4232 18.6372 20.455 18.7021 20.481L18.7432 20.5025L18.75 20.5054C18.8339 20.5414 18.8966 20.5777 18.9385 20.6216C18.976 20.6612 19.0019 20.7122 19.002 20.7935C19.002 20.8471 18.9831 20.9004 18.9473 20.9459C18.9493 20.9292 18.9512 20.9123 18.9512 20.8951C18.9512 20.7287 18.8321 20.6252 18.7002 20.565L18.6875 20.5533L18.6729 20.5386L18.6543 20.5289C18.5787 20.4911 18.512 20.4544 18.4639 20.4088C18.4194 20.3665 18.3955 20.3217 18.3955 20.2632C18.3955 20.2136 18.4057 20.1706 18.4229 20.1343C18.4221 20.1434 18.4209 20.1524 18.4209 20.1617Z" fill="white" stroke="white" stroke-width="0.252658"/>
<path d="M15.6807 22.3346C15.6774 22.3481 15.6736 22.3611 15.6719 22.3737C15.6663 22.4134 15.6641 22.4598 15.6641 22.5114L15.6641 23.1432C15.6641 23.195 15.6663 23.242 15.6719 23.2819C15.6736 23.2942 15.6775 23.3067 15.6807 23.3199L15.5723 23.3199C15.5755 23.3067 15.5793 23.2942 15.5811 23.2819C15.5867 23.242 15.5889 23.195 15.5889 23.1432L15.5889 22.5114C15.5889 22.4598 15.5866 22.4134 15.5811 22.3737C15.5793 22.3611 15.5755 22.348 15.5723 22.3346L15.6807 22.3346Z" fill="white" stroke="white" stroke-width="0.252658"/>
<path d="M16.4111 22.3346C16.4078 22.3481 16.4041 22.3611 16.4023 22.3737C16.3968 22.4134 16.3945 22.4598 16.3945 22.5114L16.3945 23.2946L16.4287 23.2946C16.4297 23.3007 16.4284 23.3073 16.4297 23.3131C16.432 23.3235 16.4353 23.3342 16.4395 23.3453L16.3096 23.3453C16.3127 23.3288 16.3153 23.3132 16.3164 23.2994C16.3192 23.2627 16.3193 23.2171 16.3193 23.1686L16.3193 22.5367C16.3193 22.4852 16.3171 22.4388 16.3115 22.399C16.3087 22.3788 16.3043 22.3565 16.2969 22.3346L16.4111 22.3346Z" fill="white" stroke="white" stroke-width="0.252658"/>
<path d="M17.5264 22.3346C17.5231 22.3481 17.5193 22.3611 17.5176 22.3737C17.512 22.4134 17.5098 22.4598 17.5098 22.5114L17.5098 23.1686C17.5098 23.2131 17.5095 23.2679 17.5195 23.3131C17.5218 23.3234 17.5252 23.3342 17.5293 23.3453L17.4248 23.3453C17.428 23.3288 17.4306 23.3132 17.4316 23.2994C17.4345 23.2627 17.4346 23.2171 17.4346 23.1686L17.4346 22.5367C17.4346 22.4852 17.4323 22.4388 17.4268 22.399C17.4239 22.3788 17.4195 22.3565 17.4121 22.3346L17.5264 22.3346Z" fill="white" stroke="white" stroke-width="0.252658"/>
<path d="M18.3301 22.3346C18.3308 22.3446 18.3308 22.3533 18.332 22.36C18.3361 22.3826 18.3441 22.4061 18.3506 22.4254L18.3506 22.4244C18.3676 22.4873 18.413 22.6108 18.46 22.734C18.5112 22.8686 18.5666 23.0109 18.6045 23.1119L18.6494 23.233C18.6395 23.2597 18.6304 23.2862 18.6211 23.3121C18.4997 22.9794 18.3519 22.5947 18.2852 22.4166L18.2861 22.4166L18.2803 22.4049L18.2422 22.3346L18.3301 22.3346Z" fill="white" stroke="white" stroke-width="0.252658"/>
<path d="M23.2246 17.7624C23.2234 17.771 23.2213 17.7793 23.2207 17.7868C23.2178 17.8219 23.2178 17.8657 23.2178 17.9138L23.2178 17.9196L23.2432 18.5505C23.2432 18.5973 23.2434 18.6409 23.2461 18.6765C23.2472 18.6902 23.2498 18.7058 23.2529 18.7224L23.1826 18.7224C23.1866 18.7046 23.1892 18.6879 23.1904 18.6735C23.1933 18.6383 23.1924 18.5939 23.1924 18.5456L23.1924 17.864L23.0928 17.8444L23.127 17.7624L23.2246 17.7624ZM22.3271 17.7624L22.6221 18.444L22.6631 18.5397L22.6357 18.6081L22.3496 17.8923L22.2373 17.9099C22.2387 17.8843 22.2419 17.8609 22.2412 17.8395C22.2404 17.8155 22.2364 17.7891 22.2295 17.7624L22.3271 17.7624Z" fill="white" stroke="white" stroke-width="0.252658"/>
<path d="M24.0205 17.737C24.0172 17.7505 24.0135 17.7635 24.0117 17.7761C24.0061 17.8158 24.0039 17.8622 24.0039 17.9138L24.0039 18.5456C24.0039 18.5974 24.0061 18.6444 24.0117 18.6843C24.0135 18.6966 24.0173 18.7091 24.0205 18.7224L23.9121 18.7224C23.9153 18.7092 23.9192 18.6966 23.9209 18.6843C23.9265 18.6444 23.9287 18.5974 23.9287 18.5456L23.9287 17.9138C23.9287 17.8622 23.9265 17.8158 23.9209 17.7761C23.9191 17.7635 23.9154 17.7504 23.9121 17.737L24.0205 17.737Z" fill="white" stroke="white" stroke-width="0.252658"/>
<path d="M24.7246 17.737L25.3193 18.4977L25.3682 18.5602L25.3682 18.6677L24.7607 17.8874L24.6719 17.7731C24.6685 17.7601 24.6649 17.7482 24.6602 17.737L24.7246 17.737Z" fill="white" stroke="white" stroke-width="0.252658"/>
<path d="M26.3594 17.9578C26.398 18.0732 26.4436 18.1895 26.4834 18.2966C26.5243 18.4067 26.5596 18.5087 26.583 18.6023L26.584 18.6062C26.5963 18.6492 26.6115 18.6885 26.6289 18.7234L26.5928 18.7234C26.5921 18.7134 26.592 18.7046 26.5908 18.698C26.5867 18.6754 26.5797 18.6519 26.5732 18.6326L26.5713 18.6287L26.5215 18.4959L26.5273 18.4959L26.4717 18.3298L26.3457 17.9509L26.2871 17.7771L26.291 17.7673L26.3594 17.9578Z" fill="white" stroke="white" stroke-width="0.252658"/>
<path d="M23.3486 20.0109L23.3486 20.8449C23.3486 20.8963 23.3502 20.9437 23.3564 20.9845C23.3583 20.9964 23.3619 21.0088 23.3652 21.0216L23.2559 21.0216C23.2592 21.0088 23.2628 20.9964 23.2646 20.9845C23.2709 20.9437 23.2725 20.8963 23.2725 20.8449L23.2725 20.0109L23.3486 20.0109Z" fill="white" stroke="white" stroke-width="0.252658"/>
<path d="M24.3721 20.0347C24.3688 20.0481 24.3651 20.0612 24.3633 20.0737C24.3577 20.1135 24.3555 20.1599 24.3555 20.2114L24.3555 20.8433C24.3555 20.8951 24.3577 20.9421 24.3633 20.9819C24.365 20.9943 24.3689 21.0068 24.3721 21.02L24.2637 21.02C24.2669 21.0068 24.2707 20.9943 24.2725 20.9819C24.2781 20.9421 24.2803 20.8951 24.2803 20.8433L24.2803 20.2114C24.2803 20.1599 24.278 20.1134 24.2725 20.0737C24.2707 20.0612 24.267 20.0481 24.2637 20.0347L24.3721 20.0347Z" fill="white" stroke="white" stroke-width="0.252658"/>
<path d="M25.082 20.149C25.0516 20.2444 25.0381 20.3596 25.0381 20.4908C25.0381 20.6595 25.0662 20.815 25.1211 20.94C25.0054 20.8491 24.9366 20.7079 24.9365 20.5416C24.9365 20.4155 24.9793 20.2732 25.0664 20.1656C25.0712 20.1597 25.077 20.1547 25.082 20.149ZM25.7646 20.0933C25.8925 20.1861 25.9727 20.3326 25.9727 20.5162C25.9726 20.6719 25.9223 20.7912 25.8467 20.8775C25.8632 20.7939 25.8721 20.6978 25.8721 20.5914C25.872 20.3904 25.8317 20.2198 25.7646 20.0933Z" fill="white" stroke="white" stroke-width="0.252658"/>
<path d="M23.7852 22.3346C23.7811 22.3527 23.7785 22.3698 23.7773 22.3844C23.7745 22.4195 23.7744 22.4633 23.7744 22.5114L23.7744 22.5172L23.7998 23.1481C23.7998 23.1949 23.8 23.2385 23.8027 23.274C23.8038 23.2878 23.8064 23.3034 23.8096 23.3199L23.7393 23.3199C23.7432 23.3022 23.7459 23.2855 23.7471 23.2711C23.75 23.2359 23.749 23.1915 23.749 23.1432L23.749 22.4615L23.6406 22.4401L23.6836 22.3346L23.7852 22.3346ZM22.8838 22.3346L23.1787 23.0172L23.2246 23.1246L23.1924 23.2057L22.9063 22.4899L22.7939 22.5074C22.7954 22.4819 22.7985 22.4585 22.7979 22.4371C22.7968 22.4052 22.789 22.37 22.7754 22.3346L22.8838 22.3346Z" fill="white" stroke="white" stroke-width="0.252658"/>
<path d="M24.5625 22.3346C24.5611 22.3522 24.5605 22.3714 24.5605 22.3854L24.5605 23.194C24.5605 23.2385 24.5603 23.2933 24.5703 23.3385C24.5744 23.3568 24.5822 23.3761 24.5928 23.3961L24.4492 23.3961C24.4532 23.3784 24.4558 23.3617 24.457 23.3473C24.4599 23.3121 24.46 23.2676 24.46 23.2194L24.46 22.6383L24.4844 22.6383L24.4844 22.5114C24.4844 22.4598 24.4831 22.4134 24.4775 22.3737C24.4758 22.3611 24.472 22.348 24.4688 22.3346L24.5625 22.3346Z" fill="white" stroke="white" stroke-width="0.252658"/>
<path d="M25.957 22.578C25.9956 22.6934 26.0412 22.8097 26.0811 22.9169C26.122 23.027 26.1572 23.1289 26.1807 23.2225L26.1816 23.2264C26.1909 23.2587 26.2042 23.2892 26.2168 23.3182L26.1377 23.3182C26.1336 23.2957 26.1266 23.2721 26.1201 23.2528L26.1182 23.2489L26.0596 23.0907L26.0996 23.0907L26.0439 22.9247L25.918 22.5458L25.876 22.4208L25.8887 22.3876L25.957 22.578Z" fill="white" stroke="white" stroke-width="0.252658"/>
<path d="M18.6709 38.529C18.8789 38.529 19.0505 38.6999 19.0508 38.9079C19.0508 39.1161 18.8791 39.2878 18.6709 39.2878C18.4629 39.2875 18.292 39.1159 18.292 38.9079C18.2922 38.7001 18.4631 38.5292 18.6709 38.529Z" fill="white" stroke="white" stroke-width="0.252658"/>
<path d="M23.7744 39.3627C23.9824 39.3627 24.1541 39.5336 24.1543 39.7416C24.1543 39.9497 23.9826 40.1215 23.7744 40.1215C23.5665 40.1212 23.3955 39.9496 23.3955 39.7416C23.3957 39.5338 23.5666 39.3629 23.7744 39.3627Z" fill="white" stroke="white" stroke-width="0.252658"/>
<path d="M20.8975 3.05853C21.1055 3.05853 21.2771 3.22948 21.2773 3.43744C21.2773 3.64559 21.1056 3.81732 20.8975 3.81732C20.6895 3.81709 20.5186 3.64545 20.5186 3.43744C20.5188 3.22963 20.6896 3.05877 20.8975 3.05853Z" fill="white" stroke="white" stroke-width="0.252658"/>
<path d="M32.8643 7.73065C33.0737 7.75134 33.2254 7.92198 33.2256 8.13495C33.2256 8.32715 33.0472 8.48923 32.8223 8.48944C32.6453 8.48944 32.4917 8.34548 32.4688 8.17206L32.4678 8.09589L32.4678 8.08515C32.4678 7.89512 32.643 7.73446 32.8643 7.73065Z" fill="white" stroke="white" stroke-width="0.252658"/>
<path d="M7.07031 29.1802C7.52125 29.2036 7.84266 29.4738 8.05664 29.7827L8.05859 29.7856C8.22335 30.0122 8.31193 30.2501 8.31641 30.4849L8.3125 30.5845L8.3125 30.5952C8.3125 30.7537 8.28503 30.886 8.19141 31.0278C8.0942 31.175 7.91989 31.3411 7.60938 31.5522L7.60742 31.5532L5.89258 32.7671L5.70801 32.4966C5.7573 32.4619 5.82243 32.4163 5.89844 32.3628C6.07409 32.2392 6.30869 32.0745 6.54395 31.9087C6.77925 31.7429 7.01536 31.5756 7.19434 31.4487C7.28374 31.3854 7.35931 31.332 7.41309 31.2935C7.4396 31.2745 7.46107 31.2589 7.47656 31.2476L7.5 31.23C7.66623 31.1149 7.79426 31.0104 7.87988 30.895C7.96974 30.7739 8.00874 30.646 8.00879 30.4946C8.00879 30.3147 7.94901 30.1121 7.80859 29.9155C7.60893 29.631 7.34378 29.5093 7.07422 29.5093C6.9554 29.5093 6.83853 29.5513 6.71387 29.6187C6.65154 29.6524 6.5846 29.6947 6.51074 29.7437L6.27051 29.9097L4.68164 31.0005L4.49512 30.728L6.00879 29.689L6.01172 29.687C6.46784 29.3576 6.78918 29.1818 7.07031 29.1802Z" fill="white" stroke="white" stroke-width="0.252658"/>
<path d="M5.84766 25.4666L3.92188 27.8132L3.6123 28.1892L4.06543 28.0115L6.44434 27.074L6.53711 27.3396L3.36426 28.5613L3.25098 28.2224L5.17773 25.8767L5.46191 25.53L5.03906 25.6775L2.60547 26.5193L2.51172 26.2527L5.7334 25.1238L5.84766 25.4666Z" fill="white" stroke="white" stroke-width="0.252658"/>
<path d="M5.36507 23.0201L5.41342 23.3456L2.03912 23.8467L1.99078 23.5212L5.36507 23.0201Z" fill="white" stroke="white" stroke-width="0.252658"/>
<path d="M5.22656 20.0174L5.20898 20.4207L1.74316 21.4578L1.74316 21.117L4.65723 20.3094L5.02734 20.2068L4.66895 20.0692L1.84766 18.9901L1.8623 18.6541L5.22656 20.0174Z" fill="white" stroke="white" stroke-width="0.252658"/>
<path d="M5.0293 11.0156C5.18223 11.0156 5.33943 11.0597 5.47656 11.1279C5.6768 11.24 5.80458 11.3926 5.86914 11.5615C5.894 11.6612 5.91402 11.744 5.91406 11.8242C5.91406 11.8731 5.90086 11.8942 5.87012 11.9863L5.75391 12.3359L6.05957 12.1318C6.12409 12.0888 6.16752 12.0657 6.21289 12.043C6.26718 12.026 6.33087 12.0206 6.41504 12.0234C6.50428 12.0264 6.60531 12.0378 6.73535 12.0508L6.7373 12.0518L7.75195 12.1357L7.58789 12.4229L6.63379 12.3301L6.63184 12.3301C6.34526 12.3052 6.14439 12.306 5.9873 12.3887C5.86836 12.4514 5.78673 12.5552 5.70703 12.6855L5.62695 12.8232L5.62402 12.8291L5.54785 12.9805L5.49414 13.0898L5.60059 13.1484L6.82813 13.8193L6.67188 14.1035L3.68652 12.4814L4.05273 11.8359C4.21662 11.546 4.35366 11.3412 4.50391 11.208C4.64759 11.0807 4.80716 11.0157 5.0293 11.0156ZM4.9541 11.3447C4.67641 11.3447 4.46935 11.5566 4.26758 11.9316L4.09277 12.1816L4.01074 12.2979L4.13574 12.3652L5.17188 12.9209L5.27832 12.9785L5.33984 12.875L5.41504 12.748L5.41602 12.749L5.41797 12.7451C5.53683 12.5312 5.68652 12.2945 5.68652 12.0264C5.68653 11.9834 5.6861 11.9146 5.65625 11.8418C5.63617 11.7522 5.58538 11.6716 5.52832 11.6074C5.46852 11.5402 5.39503 11.4822 5.32227 11.4385L5.32227 11.4375L5.31348 11.4336L5.2207 11.3945C5.12529 11.3611 5.02556 11.3448 4.9541 11.3447Z" fill="white" stroke="white" stroke-width="0.252658"/>
<path d="M9.47564 5.5476L11.5401 8.2632L11.2781 8.46237L9.21364 5.74677L9.47564 5.5476Z" fill="white" stroke="white" stroke-width="0.252658"/>
<path d="M13.4492 3.45539L12.6514 3.87726L12.541 3.93585L12.5977 4.04621L13.9814 6.74152L13.6963 6.89777L12.292 4.20831L12.2334 4.09601L12.1211 4.15558L11.3252 4.57453L11.2119 4.34699L13.3389 3.24835L13.4492 3.45539Z" fill="white" stroke="white" stroke-width="0.252658"/>
<path d="M16.9307 4.22064L16.9258 4.24896L16.9336 4.27826L17.2783 5.54486L16.9658 5.6308L16.6211 4.38764L16.6123 4.35736L16.5908 4.33393L14.9902 2.66498L15.3242 2.56732L16.5088 3.8017L16.6787 3.97846L16.7246 3.73725L17.0381 2.06928L17.3711 1.9726L16.9307 4.22064Z" fill="white" stroke="white" stroke-width="0.252658"/>
<path d="M31.4863 4.89502L31.3623 5.10791L30.2334 4.43994L30.125 4.37549L30.0605 4.48487L29.5547 5.34326L29.4912 5.45264L29.5996 5.51709L30.6533 6.13428L30.5283 6.34619L29.4756 5.72803L29.3662 5.66455L29.3027 5.77295L28.5332 7.07764L28.2441 6.90381L29.9609 3.98877L31.4863 4.89502Z" fill="white" stroke="white" stroke-width="0.252658"/>
<path d="M38.8428 14.0944L37.9053 15.1774L37.7666 15.3375L37.9727 15.3834L39.3682 15.6959L39.4756 16.0201L37.6758 15.5924L37.5996 15.5748L37.5498 15.6344L36.2793 17.153L36.1719 16.8287L37.1875 15.6198L37.3213 15.4606L37.1182 15.4147L35.5957 15.0758L35.4893 14.7555L37.4141 15.2321L37.4902 15.2506L37.541 15.1901L38.7344 13.7701L38.8428 14.0944Z" fill="white" stroke="white" stroke-width="0.252658"/>
<path d="M40.0859 20.2941L39.833 20.3058L39.7178 18.9884L39.7061 18.8605L39.5791 18.8732L38.5684 18.9747L38.4434 18.9874L38.4551 19.1124L38.5693 20.3263L38.3408 20.3507L38.2266 19.1134L38.2158 18.9904L38.0918 18.9991L36.5732 19.1163L36.5449 18.8107L39.9316 18.5284L40.0859 20.2941Z" fill="white" stroke="white" stroke-width="0.252658"/>
<path d="M38.0283 22.0544C38.5079 22.0544 38.9857 22.2109 39.3408 22.4861C39.694 22.7599 39.9227 23.1484 39.9229 23.6209C39.9229 23.8338 39.8756 24.4366 39.3223 24.8552C39.0396 25.0436 38.6852 25.1628 38.2813 25.1628C37.8721 25.1628 37.3933 25.0471 37.0205 24.7898C36.6526 24.5358 36.3858 24.1435 36.3857 23.571C36.3857 23.2644 36.4797 22.7295 36.9902 22.3582C37.2723 22.1713 37.6261 22.0545 38.0283 22.0544ZM37.9775 22.4089C37.7288 22.409 37.4968 22.471 37.293 22.571L37.0996 22.6824L37.0938 22.6863C36.7503 22.9439 36.6388 23.3407 36.6387 23.6209C36.6387 24.0428 36.881 24.3571 37.2031 24.5593C37.5232 24.7602 37.9332 24.8591 38.3066 24.8591C38.6526 24.8591 38.9591 24.7788 39.1895 24.6062L39.1904 24.6072L39.1943 24.6033C39.5036 24.3502 39.6455 23.9847 39.6455 23.6716C39.6455 23.453 39.5911 23.2214 39.4434 23.0408L39.4443 23.0408C39.2475 22.7736 38.9687 22.6168 38.7002 22.5261C38.4317 22.4355 38.1648 22.4089 37.9775 22.4089Z" fill="white" stroke="white" stroke-width="0.252658"/>
<path d="M35.9014 9.90637C36.3465 9.90637 36.7435 10.0999 37.0596 10.4523L37.1895 10.6134C37.3473 10.8402 37.418 11.1158 37.418 11.3976C37.4179 12.0676 36.9544 12.5637 36.5186 12.8302C36.1551 13.0482 35.7733 13.1661 35.4219 13.1661C35.0714 13.1661 34.513 13.026 34.1641 12.4679L34.165 12.4669L34.1611 12.462L34.1055 12.3741C33.9854 12.1651 33.9307 11.9223 33.9307 11.6749C33.9308 11.2655 34.1598 10.6745 34.8301 10.2423C35.195 10.0234 35.5514 9.90646 35.9014 9.90637ZM35.9775 10.2101C35.669 10.2101 35.3428 10.3217 35.002 10.5314L35.001 10.5324C34.4942 10.8524 34.209 11.3184 34.209 11.7765C34.209 11.972 34.2638 12.197 34.3789 12.3722L34.3789 12.3732C34.6076 12.7448 34.9555 12.8877 35.3203 12.8878C35.6524 12.8878 36.0058 12.7772 36.3525 12.5372L36.3516 12.5363C36.8298 12.2419 37.1143 11.8044 37.1143 11.3468C37.1142 11.1385 37.0268 10.914 36.9209 10.7286L36.916 10.7208C36.6913 10.3839 36.3749 10.2101 35.9775 10.2101Z" fill="white" stroke="white" stroke-width="0.252658"/>
<path d="M25.9229 2.37396C26.4603 2.37399 26.9699 2.65459 27.2246 3.164C27.3419 3.39871 27.4131 3.6822 27.4131 3.99115C27.4131 4.70931 27.0035 5.44652 26.4434 5.74994L26.4424 5.75092C26.2385 5.86413 26.0083 5.91105 25.7461 5.91107C25.3256 5.91107 24.7435 5.69947 24.4424 5.1435C24.3046 4.89086 24.2549 4.61116 24.2549 4.26947C24.2549 4.08761 24.3 3.9026 24.3506 3.70014C24.6153 2.83376 25.2302 2.37396 25.9229 2.37396ZM25.9736 2.62689C25.5155 2.62689 25.1707 2.88644 24.9463 3.21967C24.7231 3.55102 24.6094 3.9679 24.6094 4.32025C24.6094 4.55903 24.661 4.83129 24.7734 5.03217L24.7734 5.03314C25.0031 5.49251 25.4611 5.63373 25.7461 5.63373C26.2357 5.63366 26.5799 5.3292 26.7949 4.9765C27.009 4.62532 27.1103 4.2045 27.1104 3.91596C27.1104 3.46926 26.9602 3.14381 26.7363 2.9306C26.5147 2.71965 26.2298 2.62697 25.9736 2.62689Z" fill="white" stroke="white" stroke-width="0.252658"/>
<path d="M3.02734 14.8685L2.63574 16.2103L2.59961 16.3314L2.72168 16.3665L3.68164 16.6448L3.80371 16.68L3.83789 16.5579L4.18262 15.3372L4.41895 15.3997L4.0752 16.6155L4.04004 16.7376L4.16309 16.7718L5.27539 17.0745L5.39648 17.1077L5.42969 16.9866L5.7998 15.6663L6.03711 15.7278L5.54785 17.5042L2.25684 16.5872L2.79199 14.806L3.02734 14.8685Z" fill="white" stroke="white" stroke-width="0.252658"/>
<path d="M7.60645 7.72376C7.56921 7.73108 7.52676 7.74224 7.48047 7.75696C7.36371 7.79411 7.22198 7.85874 7.08691 7.97278L6.9541 8.10559C6.81937 8.26727 6.72266 8.44751 6.72266 8.64173C6.72276 8.80765 6.79203 8.94644 6.9248 9.04602L6.9248 9.04505C7.10015 9.19598 7.32307 9.17539 7.50391 9.1261C7.59867 9.10026 7.693 9.0642 7.77734 9.02942C7.86466 8.99341 7.93783 8.96067 8.00391 8.93665L8.00488 8.93665C8.21511 8.85781 8.49361 8.74244 8.76855 8.74231C8.94885 8.74231 9.11769 8.77652 9.27148 8.89954L9.33691 8.95813L9.3418 8.96301C9.56668 9.16558 9.65322 9.38351 9.65332 9.65149C9.65332 9.91544 9.5447 10.1659 9.33008 10.4288C9.12054 10.6733 8.86948 10.8082 8.66895 10.882C8.57509 10.9165 8.49269 10.937 8.43262 10.9493L8.36719 10.7052C8.69875 10.6192 8.96033 10.4701 9.11816 10.2628L9.11914 10.2638C9.25598 10.0996 9.35059 9.89445 9.35059 9.72766C9.35056 9.59092 9.30223 9.42763 9.18164 9.30188L9.12598 9.25012L9.12305 9.24817L9.02637 9.18762C8.92923 9.13865 8.8289 9.12125 8.71875 9.12122C8.58418 9.12122 8.4421 9.15866 8.30859 9.20423L7.91406 9.35755C7.68546 9.44643 7.47582 9.521 7.27441 9.53235C7.08231 9.54317 6.89617 9.49638 6.70996 9.33411C6.52383 9.14766 6.41895 8.95078 6.41895 8.71692C6.419 8.46941 6.50917 8.19654 6.71484 7.9679L6.62109 7.88294L6.71582 7.9679L6.7168 7.96594C6.95288 7.69452 7.19154 7.57416 7.36621 7.52063C7.44257 7.49726 7.50754 7.48644 7.55566 7.48157L7.60645 7.72376Z" fill="white" stroke="white" stroke-width="0.252658"/>
<path d="M38.8193 27.7025C38.8185 27.7043 38.8182 27.7064 38.8174 27.7083C38.7866 27.7798 38.7452 27.8755 38.7041 27.972C38.663 28.0684 38.6219 28.1662 38.5908 28.2415C38.5753 28.2791 38.5622 28.3118 38.5527 28.3362C38.5481 28.3483 38.5432 28.3594 38.54 28.3685C38.5389 28.3717 38.5373 28.3753 38.5361 28.3792C38.3984 28.6916 38.2817 28.916 38.1367 29.0638C37.9983 29.2049 37.829 29.2816 37.5693 29.2816C37.2805 29.2815 36.9014 29.1001 36.749 28.7737L36.748 28.7708L36.7217 28.7034C36.6987 28.6288 36.6855 28.5338 36.6855 28.4476C36.6856 28.4454 36.6851 28.4432 36.6885 28.4349C36.6898 28.4317 36.6914 28.4299 36.6934 28.4251C36.695 28.4211 36.697 28.4149 36.6992 28.4085C36.7036 28.396 36.7109 28.3739 36.7109 28.347L36.7109 28.0423L36.4951 28.2571C36.4627 28.2896 36.4302 28.3065 36.3848 28.3294C36.2584 28.3697 36.1063 28.3724 35.8516 28.3724L34.835 28.3724L34.9727 28.0687L35.9268 28.0687C36.2124 28.0687 36.4142 28.0526 36.5635 27.9573C36.6779 27.8842 36.7488 27.7724 36.8135 27.6331L36.8779 27.4857L36.9502 27.3421L37.0088 27.2249L36.8887 27.1702L35.6133 26.5911L35.7373 26.3157L38.8193 27.7025ZM37.1465 27.4222L37.0957 27.5726C37.0481 27.6793 36.9967 27.7895 36.958 27.8958C36.9177 28.0067 36.8878 28.1238 36.8877 28.2454C36.8877 28.2949 36.8865 28.3901 36.9189 28.4876L36.9199 28.4915C37.045 28.8351 37.3841 28.9534 37.5947 28.9534C37.7576 28.9534 37.8944 28.9144 38.0156 28.7933C38.126 28.6829 38.2159 28.511 38.3164 28.2728L38.4424 27.9944L38.4951 27.8792L38.3799 27.8275L37.3184 27.347L37.1904 27.2894L37.1465 27.4222Z" fill="white" stroke="white" stroke-width="0.252658"/>
<path d="M36.7119 31.7526L36.21 32.3864C35.8992 32.7716 35.6526 32.9913 35.4297 33.1158C35.2104 33.2383 35.0053 33.274 34.7676 33.274C34.396 33.2739 34.0188 33.135 33.6846 32.8727L33.6855 32.8727C33.1842 32.4668 32.999 31.9714 32.999 31.5553C32.9992 31.0721 33.2508 30.673 33.6289 30.194L33.6299 30.193L34.0566 29.6373L36.7119 31.7526ZM33.9639 30.1608L33.7109 30.4645L33.708 30.4684C33.4536 30.7991 33.252 31.1317 33.252 31.5055C33.2521 32.0181 33.5929 32.4045 33.8799 32.6393L33.8838 32.6422C34.2028 32.8815 34.5066 32.9957 34.8184 32.9957C35.3165 32.9957 35.6178 32.7473 35.9551 32.3649L36.1025 32.193L36.1074 32.1871L36.2588 31.985L36.332 31.8873L36.2363 31.8102L34.1396 30.1432L34.043 30.066L33.9639 30.1608Z" fill="white" stroke="white" stroke-width="0.252658"/>
<path d="M20.9199 0.125978C32.3715 0.125978 41.7137 9.44343 41.7139 20.8945C41.7139 27.4238 38.7259 33.4508 33.502 37.4443L33.4932 37.4512L33.4863 37.458C31.006 40.0886 27.8497 41.6682 24.1123 42.1699L23.9717 42.1885L24.0059 42.3252C24.127 42.8096 24.2945 43.2924 24.5049 43.8359L24.1816 44.1592C24.0684 44.1022 23.9451 44.0636 23.8008 44.0635C23.3016 44.0635 22.8909 44.4736 22.8906 44.9727C22.8906 45.4719 23.3015 45.8828 23.8008 45.8828C24.1651 45.8827 24.4301 45.6908 24.6143 45.5107C24.637 45.6423 24.6592 45.8287 24.6592 46.0596C24.6592 46.773 24.271 47.5516 23.5898 48.2451C22.9183 48.9288 21.9711 49.5167 20.8691 49.8662C19.7673 49.5043 18.82 48.9093 18.1484 48.2256C17.4671 47.5317 17.0801 46.7597 17.0801 46.0596C17.0801 45.9505 17.0856 45.8473 17.0947 45.7539L17.125 45.5264C17.3279 45.722 17.6132 45.8827 17.9385 45.8828C18.4378 45.8828 18.8486 45.4719 18.8486 44.9727C18.8484 44.4736 18.4376 44.0635 17.9385 44.0635C17.8013 44.0635 17.6831 44.0981 17.5869 44.1387L17.2871 43.8389C17.5774 43.3272 17.8892 42.7445 18.1084 42.1357L18.1563 42.001L18.0166 41.9697C17.235 41.7932 16.4316 41.5915 15.6797 41.3408L15.6377 41.3272L15.5967 41.3428C15.0522 41.5408 14.4603 41.6631 13.8711 41.6631C11.6555 41.6631 9.78464 40.1616 9.24316 38.1191L9.23145 38.0732L9.19238 38.0469C3.51643 34.154 0.125977 27.7753 0.125977 20.8945C0.126121 9.44337 9.44328 0.126056 20.9199 0.125978ZM18.502 42.1523C18.3283 42.6484 18.1045 43.0964 17.8779 43.5244L17.7832 43.7031L17.9854 43.71C18.6774 43.7332 19.2273 44.2855 19.2275 44.9727C19.2275 45.3456 19.0936 45.6601 18.8701 45.8809C18.6464 46.1017 18.3253 46.2363 17.9385 46.2363C17.8538 46.2363 17.7398 46.2143 17.6406 46.1895L17.4561 46.1436L17.4854 46.332C17.5799 46.9387 17.9862 47.5754 18.5752 48.1289C19.1665 48.6847 19.9531 49.1676 20.8291 49.4639L20.8691 49.4775L20.9092 49.4639C21.7972 49.1679 22.5907 48.6917 23.1826 48.1387C23.7724 47.5876 24.1729 46.9491 24.2539 46.3281L24.2783 46.1445L24.0986 46.1895C23.9973 46.2148 23.9096 46.2363 23.8008 46.2363C23.0828 46.2363 22.5117 45.7069 22.5117 44.9727C22.5119 44.2149 23.0813 43.71 23.8008 43.71L24.0547 43.71L23.9951 43.541C23.8445 43.1143 23.7199 42.7137 23.6201 42.3145L23.5938 42.2119L23.4883 42.2197C22.8057 42.2703 22.1276 42.3203 21.4004 42.3203C20.5233 42.3203 19.5956 42.2447 18.6436 42.0693L18.5371 42.0498L18.502 42.1523ZM13.9463 33.9063C12.9933 33.9064 12.1501 34.3838 11.5986 35.0928L11.5059 35.2119L11.6396 35.2822C12.7555 35.8655 13.7975 36.2978 14.2988 36.5234L14.3037 36.5254C14.5022 36.6048 14.6289 36.8067 14.6289 37.04C14.6287 37.349 14.3822 37.5956 14.0732 37.5957C13.9904 37.5957 13.9397 37.5896 13.8984 37.5781C13.8575 37.5668 13.8179 37.5482 13.7588 37.5127L13.7559 37.5107C13.1856 37.1884 12.2848 36.4884 11.373 35.7539L11.2422 35.6484L11.1768 35.8037C11.0441 36.1221 10.9659 36.4923 10.9658 36.8877C10.9658 38.3149 11.8665 39.1584 12.6191 39.5996C15.0388 41.0259 18.5734 41.9922 21.4004 41.9922C25.824 41.9921 29.392 40.6937 32.3232 38.0684L32.2051 37.8525C24.683 39.9587 18.4353 36.1496 15.9834 34.6582L15.9824 34.6572L15.2246 34.2022L15.2129 34.1963L15.0635 34.1309C14.7128 33.9876 14.3398 33.9063 13.9463 33.9063ZM9.96875 34.7578C9.63267 35.4041 9.42389 36.1062 9.42383 36.8877C9.42383 39.3325 11.4263 41.335 13.8711 41.335C14.1807 41.335 14.464 41.3094 14.7412 41.2842L14.7754 41.04C13.9217 40.7136 13.1203 40.3377 12.4209 39.9131L12.4189 39.9121C11.2147 39.1993 10.5859 38.1515 10.5859 36.9131C10.586 36.4036 10.7079 35.941 10.9043 35.499L10.9414 35.415L10.873 35.3535C10.6201 35.1259 10.3923 34.9237 10.165 34.7217L10.0439 34.6143L9.96875 34.7578ZM20.9707 0.45508C9.70828 0.45508 0.530419 9.63214 0.530274 20.8945C0.530274 27.4283 3.65748 33.5557 8.94531 37.3945L9.19531 37.5752L9.14453 37.2715C9.12122 37.1316 9.12109 37.0146 9.12109 36.8623C9.12118 35.9765 9.36755 35.1399 9.78613 34.4258L9.83691 34.3369L9.76172 34.2686C9.58749 34.1088 9.43336 33.9587 9.30566 33.8242C9.45561 33.9386 9.61613 34.0569 9.78613 34.165L9.88574 34.2285L9.95606 34.1328C10.4738 33.4178 11.1638 32.8504 11.9775 32.4805L12.167 32.3945L12.0029 32.2656C8.52157 29.5354 6.44238 25.3018 6.44238 20.8691C6.4426 12.8795 12.93 6.39259 20.9453 6.39258C28.9355 6.39258 35.448 12.8796 35.4482 20.8691C35.4482 27.3557 31.1401 32.8667 25.2285 34.6953L25.2266 34.6963C24.7842 34.8392 24.4483 35.2645 24.2129 35.7803C23.9751 36.3015 23.8269 36.942 23.7754 37.5596L23.7666 37.6689L23.874 37.6934C26.5956 38.3038 29.7783 38.4058 33.2158 37.1836L33.2344 37.1777L33.25 37.166C38.3852 33.2765 41.3338 27.3524 41.4102 20.8965L41.4102 20.8945C41.41 9.60681 32.233 0.455135 20.9707 0.45508ZM24.0029 35.0459C22.9986 35.2468 21.9711 35.3721 20.9199 35.3721C20.6809 35.3721 20.4082 35.4481 20.1699 35.5723C19.9327 35.6959 19.713 35.8759 19.5957 36.0957L19.5322 36.2148L19.6553 36.2705C20.7214 36.7528 21.9155 37.2106 23.2627 37.5664L23.4121 37.6055L23.4209 37.4512C23.4704 36.6353 23.7181 35.826 24.1309 35.2432L24.3145 34.9834L24.0029 35.0459ZM17.5391 34.9463L17.4482 35.1797C17.9062 35.4341 18.5653 35.7635 19.0967 36.0166L19.1963 36.0635L19.2568 35.9727C19.352 35.83 19.4933 35.6658 19.6543 35.5508L19.9199 35.3613L19.5957 35.3223C18.9699 35.2471 18.1666 35.0969 17.5391 34.9463ZM13.8711 32.4414C12.3618 32.4414 11.0355 33.1965 10.2051 34.3643L10.126 34.4756L10.2432 34.5459C10.3708 34.6225 10.5053 34.6987 10.6377 34.7744C10.7703 34.8502 10.9016 34.9251 11.0264 35L11.125 35.0596L11.1934 34.9668C11.8021 34.1389 12.776 33.6035 13.8965 33.6035C14.4109 33.6036 14.8959 33.7019 15.3301 33.9189L15.3574 33.9316L15.3867 33.9316C16.0664 34.2075 16.7464 34.434 17.4268 34.6104L17.7451 34.6924L17.5645 34.418C16.7577 33.1948 15.3532 32.4415 13.8711 32.4414ZM20.8945 6.7207C13.0937 6.72085 6.74631 13.0683 6.74609 20.8691C6.74609 25.3306 8.88756 29.5877 12.4824 32.2393L12.5293 32.2744L12.5859 32.2607C13.0112 32.1607 13.4303 32.0879 13.8711 32.0879C15.6675 32.088 17.3419 33.1218 18.1543 34.7217L18.1826 34.7764L18.2422 34.7881C19.1356 34.9668 20.0284 35.0439 20.9199 35.0439C28.7211 35.0439 35.0694 28.6958 35.0439 20.8691L35.0391 20.5049C34.8449 12.8716 28.5737 6.7207 20.8945 6.7207Z" fill="white" stroke="white" stroke-width="0.252658"/>
<path d="M58.3174 23.4959L58.3184 23.4959C63.7332 23.4711 67.8924 27.5356 67.8926 32.8191C67.8926 38.3304 63.6318 42.3444 58.3174 42.3445C52.9012 42.3445 48.7412 38.3046 48.7412 33.0212C48.7414 27.51 53.003 23.4959 58.3174 23.4959ZM58.3174 24.1531C56.0096 24.1531 54.3175 25.2456 53.207 26.8904C52.0997 28.5305 51.5713 30.7174 51.5713 32.9207C51.5713 35.4786 52.1948 37.6619 53.3525 39.2087C54.513 40.7591 56.2053 41.6628 58.3174 41.6628C60.6251 41.6628 62.3173 40.57 63.4277 38.9285C64.535 37.2916 65.0634 35.1113 65.0635 32.9207C65.0635 30.3626 64.4398 28.173 63.2822 26.6199C62.1219 25.0632 60.4298 24.1531 58.3174 24.1531Z" fill="white" stroke="white" stroke-width="0.252658"/>
<path d="M117.562 23.4959L117.563 23.4959C123.002 23.4711 127.137 27.5353 127.137 32.8191C127.137 38.3304 122.876 42.3444 117.562 42.3445C112.145 42.3445 107.985 38.3046 107.985 33.0212C107.985 27.51 112.247 23.4959 117.562 23.4959ZM117.562 24.1531C115.254 24.1531 113.562 25.2456 112.451 26.8904C111.344 28.5305 110.815 30.7174 110.815 32.9207C110.815 35.4786 111.439 37.6619 112.597 39.2087C113.757 40.7591 115.449 41.6628 117.562 41.6628C119.869 41.6628 121.561 40.57 122.672 38.9285C123.779 37.2916 124.308 35.1113 124.308 32.9207C124.308 30.3626 123.684 28.173 122.526 26.6199C121.366 25.0632 119.674 24.1531 117.562 24.1531Z" fill="white" stroke="white" stroke-width="0.252658"/>
<path d="M137.448 23.7986C138.924 23.7986 140.005 23.9146 140.882 24.1755L141.245 24.2966C143.19 25.0609 144.296 26.9074 144.296 28.6501C144.296 30.8497 142.66 32.7048 139.871 33.3523L139.772 33.3757L139.772 33.658L139.847 33.6921C140.104 33.8092 140.312 33.9479 140.705 34.3875C141.102 34.8314 141.68 35.5724 142.679 36.8875L145.205 40.2224C145.577 40.7521 146.084 41.0712 146.668 41.2039L146.669 41.2039L148.414 41.5857L148.414 42.0408L144.118 42.0408C143.88 42.0407 143.71 42.0054 143.547 41.905C143.421 41.8275 143.293 41.7071 143.143 41.5203L142.983 41.3103L139.144 35.9041C138.604 35.139 138.22 34.5977 137.8 34.2527C137.368 33.8985 136.901 33.7537 136.21 33.7537L134.644 33.7537L134.644 40.1462C134.644 40.4138 134.698 40.6397 134.85 40.8113C134.999 40.98 135.227 41.0749 135.526 41.1277L135.526 41.1287L137.524 41.5603L137.524 42.0154L129.515 42.0154L129.515 41.5593L131.313 41.1277L131.316 41.1267C131.6 41.0494 131.82 40.9532 131.965 40.7927C132.114 40.6277 132.168 40.4147 132.168 40.1462L132.168 25.6687C132.168 25.3995 132.114 25.187 131.966 25.0193C131.858 24.8974 131.709 24.8087 131.521 24.7341L131.322 24.6638L131.313 24.6619L129.515 24.2292L129.515 23.7986L137.448 23.7986ZM134.619 33.1218L137.069 33.1218C138.841 33.1218 139.95 32.5619 140.611 31.7087C141.268 30.8618 141.466 29.7484 141.466 28.6755C141.466 27.0439 140.712 25.5006 139.015 24.7693L139.013 24.7683L138.847 24.7048C138.018 24.4043 137.196 24.405 136.135 24.405L134.619 24.405L134.619 33.1218Z" fill="white" stroke="white" stroke-width="0.252658"/>
<path d="M105.182 23.7986L105.182 28.1697L104.618 28.1697L103.786 25.4792C103.683 25.1182 103.548 24.8449 103.342 24.6638C103.131 24.479 102.863 24.405 102.528 24.405L96.5908 24.405L96.5908 32.6169L101.189 32.6169C101.51 32.6169 101.787 32.5501 102.012 32.3796C102.236 32.2096 102.392 31.9482 102.498 31.5916L102.498 31.5906L102.927 30.115L103.464 30.115L103.464 36.0271L102.931 36.0271L102.499 34.2791C102.418 33.9313 102.268 33.6686 102.04 33.4949C101.812 33.3215 101.523 33.2488 101.189 33.2488L96.5908 33.2488L96.5908 40.1462C96.5909 40.4138 96.6448 40.6397 96.7969 40.8113C96.9467 40.98 97.1739 41.0749 97.4736 41.1277L97.4736 41.1287L99.4717 41.5603L99.4717 42.0154L91.4619 42.0154L91.4619 41.5593L93.2607 41.1277L93.2637 41.1267C93.5468 41.0495 93.7718 40.9543 93.9229 40.7957C94.0791 40.6316 94.1406 40.4181 94.1406 40.1462L94.1406 25.6687C94.1406 25.4 94.0863 25.1858 93.9326 25.0203C93.7838 24.8602 93.5582 24.7643 93.2627 24.6873L93.2607 24.6863L91.4619 24.2546L91.4619 23.7986L105.182 23.7986Z" fill="white" stroke="white" stroke-width="0.252658"/>
<path d="M158.693 23.7986C161.033 23.7986 162.731 24.1014 164.072 24.7224L164.073 24.7224C167.505 26.289 169.077 29.6729 169.077 33.0212C169.077 36.2745 167.853 39.3048 164.774 40.9187L164.772 40.9197C163.36 41.6879 161.389 42.0407 158.77 42.0408L150.128 42.0408L150.128 41.5593L151.927 41.1277L151.93 41.1267C152.213 41.0495 152.438 40.9543 152.589 40.7957C152.745 40.6316 152.807 40.4181 152.807 40.1462L152.807 25.6687C152.807 25.4 152.752 25.1858 152.599 25.0203C152.45 24.8602 152.224 24.7643 151.929 24.6873L151.927 24.6863L150.128 24.2546L150.128 23.7986L158.693 23.7986ZM155.282 40.449C155.282 40.786 155.316 41.0464 155.48 41.2107C155.645 41.3749 155.905 41.4089 156.242 41.4089L158.491 41.4089C160.646 41.4089 162.272 41.1061 163.442 40.2478C165.384 38.824 166.273 36.2732 166.273 33.071C166.273 30.022 165.44 26.978 163.014 25.4041L162.774 25.2566L162.561 25.1394C161.476 24.5822 160.103 24.405 158.087 24.405L155.282 24.405L155.282 40.449Z" fill="white" stroke="white" stroke-width="0.252658"/>
<path d="M76.8838 23.776L76.8838 24.2282L75.2461 24.5612C75.0889 24.5874 74.963 24.6263 74.874 24.6862C74.7769 24.7516 74.7236 24.8434 74.7236 24.9547C74.7237 25.0526 74.7657 25.1509 74.8154 25.2408C74.841 25.2871 74.8709 25.336 74.9043 25.3864L75.0117 25.5416L79.1807 31.5045L79.2178 31.5582L79.4502 31.5582L79.4873 31.5055L83.7578 25.5426L83.7568 25.5416C83.8308 25.443 83.8991 25.3539 83.9463 25.274C83.9922 25.1964 84.0328 25.1067 84.0273 25.0133C84.0211 24.9072 83.9584 24.8299 83.873 24.774C83.7919 24.721 83.6781 24.679 83.5361 24.6403L83.5332 24.6393L81.9873 24.2584L81.9873 23.8014L88.2529 23.8014L88.2529 24.2584L86.707 24.6393C86.0852 24.7947 85.6295 25.0065 85.2031 25.486L85.2021 25.486L85.1982 25.4918L79.8672 32.2125L79.8066 32.2887L79.8652 32.3668L85.7744 40.2203L85.7744 40.2213C86.1502 40.7582 86.66 41.0225 87.2295 41.2037L87.2354 41.2057L88.6826 41.5846L88.6826 42.0436L80.8252 42.0436L80.8252 41.5905L82.4619 41.2574L82.4629 41.2584C82.6186 41.2325 82.7435 41.1979 82.834 41.1471C82.9296 41.0934 82.9979 41.014 83.0098 40.9039C83.0202 40.8067 82.9828 40.7097 82.9375 40.6237C82.8906 40.5346 82.8225 40.4356 82.7471 40.3287L82.7471 40.3278L78.2246 33.9615L78.1865 33.9078L77.9561 33.9078L77.918 33.9606L73.3447 40.277C73.2706 40.3758 73.2035 40.4665 73.1563 40.5465C73.1105 40.624 73.0698 40.7131 73.0752 40.8063C73.0814 40.9124 73.1442 40.9907 73.2295 41.0465C73.3105 41.0994 73.4238 41.1417 73.5654 41.1803L73.5674 41.1803L75.1406 41.5856L75.1406 42.0436L68.874 42.0436L68.874 41.5856L70.4209 41.2057C71.0434 41.0501 71.4999 40.8375 71.9268 40.3307L71.9287 40.3287L77.5889 33.2545L77.6504 33.1774L77.5908 33.0992L71.9316 25.5953L71.9307 25.5953C71.5559 25.062 71.074 24.7974 70.4775 24.6158L70.4727 24.6139L69.0264 24.234L69.0264 23.776L76.8838 23.776Z" fill="white" stroke="white" stroke-width="0.252658"/>
<path d="M51.2402 7.0235L51.2402 12.4307C51.2402 13.1234 51.2085 13.8654 51.8076 14.4395L51.8076 14.4405C52.2164 14.8493 52.834 15.0587 53.5146 15.0587C54.2011 15.0586 54.7393 14.8201 55.0938 14.4659C55.4191 14.1405 55.5683 13.7979 55.6348 13.3399C55.6996 12.8924 55.6875 12.3222 55.6875 11.546L55.6875 7.04889L56.4707 7.04889L56.4707 11.294C56.4707 12.1077 56.4824 12.8028 56.3926 13.4005C56.3035 13.9934 56.1153 14.4766 55.7236 14.8682C55.245 15.3467 54.4956 15.6904 53.4639 15.6905C52.5547 15.6905 51.7302 15.3953 51.1777 14.8428C50.4133 14.0783 50.457 13.1281 50.457 12.0264L50.457 7.0235L51.2402 7.0235Z" fill="white" stroke="white" stroke-width="0.252658"/>
<path d="M60.9707 7.0235L65.1533 14.1876L65.3906 14.5928L65.3896 14.1231L65.3643 7.0235L66.0713 7.0235L66.0713 15.5128L65.1826 15.5128L61.001 8.40045L60.7637 7.99713L60.7656 8.46491L60.791 15.5128L60.083 15.5128L60.083 7.0235L60.9707 7.0235Z" fill="white" stroke="white" stroke-width="0.252658"/>
<path d="M70.7959 7.0235L70.7959 15.5381L69.9873 15.5381L69.9873 7.0235L70.7959 7.0235Z" fill="white" stroke="white" stroke-width="0.252658"/>
<path d="M74.2412 7.0235L76.7646 14.668L76.8828 15.0264L77.0039 14.67L79.6025 7.0235L80.3447 7.0235L77.375 15.5128L76.3428 15.5128L73.3975 7.0235L74.2412 7.0235Z" fill="white" stroke="white" stroke-width="0.252658"/>
<path d="M87.5459 7.0235L87.5459 7.62995L83.8311 7.62995L83.8311 10.7881L87.3184 10.7881L87.3184 11.3946L83.8311 11.3946L83.8311 14.8819L87.6465 14.8819L87.6465 15.5128L83.0479 15.5128L83.0479 7.0235L87.5459 7.0235Z" fill="white" stroke="white" stroke-width="0.252658"/>
<path d="M92.4727 6.9964C93.648 6.9964 94.4736 7.00329 95.1123 7.64191C95.5168 8.04642 95.7578 8.5951 95.7578 9.29621C95.7578 9.87577 95.5899 10.3488 95.2363 10.7259L95.2354 10.7259C94.9519 11.0329 94.4498 11.3208 93.9023 11.3685L93.9023 11.6204C94.169 11.6426 94.3956 11.7759 94.5566 11.9368C94.6577 12.0379 94.7518 12.1775 94.8535 12.3655C94.9552 12.5535 95.0609 12.7833 95.1875 13.0618L96.2939 15.511L95.4863 15.511L94.5088 13.3128L94.5078 13.3118L94.2842 12.8431C94.0683 12.4228 93.8696 12.1438 93.6152 11.9681C93.2725 11.7314 92.8487 11.6966 92.2207 11.6966L91.4873 11.6966L91.4873 15.511L90.7041 15.511L90.7041 6.9964L92.4727 6.9964ZM91.4873 11.14L91.9678 11.14C92.4039 11.14 92.8775 11.1531 93.3125 11.0882C93.7502 11.0229 94.1669 10.8765 94.4844 10.5452L94.4834 10.5443C94.7849 10.2415 94.9745 9.78172 94.9746 9.3216C94.9746 8.78516 94.7605 8.34784 94.5332 8.12042C93.9839 7.57113 93.2662 7.60284 92.5742 7.60285L91.4873 7.60285L91.4873 11.14Z" fill="white" stroke="white" stroke-width="0.252658"/>
<path d="M107.655 7.0235L107.655 15.5381L106.847 15.5381L106.847 7.0235L107.655 7.0235Z" fill="white" stroke="white" stroke-width="0.252658"/>
<path d="M116.247 7.0235L116.247 7.62995L113.67 7.62995L113.67 15.5128L112.861 15.5128L112.861 7.62995L110.259 7.62995L110.259 7.0235L116.247 7.0235Z" fill="white" stroke="white" stroke-width="0.252658"/>
<path d="M120.519 12.1465L120.504 12.1192L117.821 7.0235L118.725 7.0235L120.862 11.0499L120.976 11.2637L121.086 11.0479L123.148 7.0235L123.999 7.0235L121.316 12.1192L121.302 12.1465L121.302 15.5128L120.519 15.5128L120.519 12.1465Z" fill="white" stroke="white" stroke-width="0.252658"/>
<path d="M134.135 6.87213C136.279 6.8723 137.825 8.55781 137.92 11.004L137.925 11.2432C137.912 12.5696 137.502 13.6813 136.818 14.46C136.135 15.2376 135.172 15.6905 134.033 15.6905C131.845 15.6904 130.243 13.8938 130.243 11.3194C130.243 9.99304 130.646 8.88111 131.33 8.1026C132.013 7.32534 132.983 6.87213 134.135 6.87213ZM134.033 7.50397C133.135 7.50402 132.391 7.88232 131.874 8.54791C131.36 9.21051 131.077 10.1498 131.077 11.2686C131.077 13.4833 132.347 15.0587 134.084 15.0587C135.035 15.0586 135.786 14.6472 136.296 13.9522C136.803 13.2613 137.065 12.297 137.065 11.1924C137.065 10.0958 136.756 9.17461 136.219 8.52545C135.68 7.87451 134.918 7.50397 134.033 7.50397Z" fill="white" stroke="white" stroke-width="0.252658"/>
<path d="M145.431 7.0235L145.431 7.62995L141.817 7.62995L141.817 10.7881L145.203 10.7881L145.203 11.3692L141.817 11.3692L141.817 15.5128L141.034 15.5128L141.034 7.0235L145.431 7.0235Z" fill="white" stroke="white" stroke-width="0.252658"/>
<path d="M101.265 6.84503C102.568 6.84503 103.305 7.42321 103.543 7.64191L103.185 8.08917C102.892 7.88469 102.22 7.47693 101.341 7.47687C100.764 7.47687 100.297 7.62761 99.9717 7.89386C99.6446 8.16183 99.4707 8.53991 99.4707 8.96808C99.4708 9.38694 99.6413 9.69699 99.916 9.94464L99.916 9.94562C100.237 10.24 100.687 10.4482 101.165 10.6497C101.463 10.792 101.798 10.9317 102.135 11.1097C102.47 11.2868 102.791 11.4945 103.043 11.7581L103.045 11.7601C103.404 12.1195 103.665 12.5944 103.665 13.2376C103.665 13.9406 103.423 14.5505 102.971 14.9847C102.519 15.4188 101.845 15.6887 100.962 15.6888C99.6798 15.6888 98.7964 15.0737 98.5059 14.8509L98.8486 14.346C99.009 14.4484 99.2673 14.5986 99.5781 14.7337C99.9709 14.9044 100.457 15.0569 100.937 15.0569C101.617 15.0569 102.107 14.8667 102.428 14.5462C102.748 14.2262 102.882 13.7926 102.882 13.3392C102.882 12.9495 102.731 12.6242 102.493 12.3665L102.386 12.2601C102.171 12.0468 101.901 11.8767 101.617 11.7269C101.333 11.5771 101.023 11.4413 100.738 11.305C100.225 11.0596 99.734 10.8228 99.3613 10.4935L99.209 10.347C98.999 10.1129 98.7383 9.68699 98.7383 9.01789C98.7385 7.76454 99.7513 6.8451 101.265 6.84503Z" fill="white" stroke="white" stroke-width="0.252658"/>
</svg>
