<svg width="176" height="50" viewBox="0 0 176 50" fill="none" xmlns="http://www.w3.org/2000/svg">
<path d="M77.631 29.8198C77.631 27.1163 77.631 24.4226 77.631 21.7191C77.631 21.5422 77.6211 21.3652 77.6506 21.1981C77.7391 20.5493 78.0734 20.0872 78.7124 19.8709C80.7474 19.1631 82.8315 18.6912 84.9845 18.5143C86.4985 18.3865 88.0124 18.3963 89.5165 18.6224C90.6176 18.7895 91.6793 19.0845 92.6624 19.6055C94.5893 20.6181 95.6609 22.2402 96.0246 24.3637C96.1229 24.9142 96.1524 25.4647 96.1524 26.0153C96.1524 30.0459 96.1524 34.0668 96.1524 38.0975C96.1524 38.1761 96.1524 38.2547 96.1524 38.3334C96.1328 38.9036 95.8771 39.1789 95.3069 39.1887C94.1076 39.1985 92.9082 39.1985 91.7088 39.1887C91.1681 39.1887 90.9027 38.9134 90.8634 38.3727C90.8536 38.2351 90.8634 38.0876 90.8634 37.95C90.8634 34.2831 90.8634 30.626 90.8634 26.959C90.8634 26.4871 90.8339 26.0054 90.6864 25.5532C90.2834 24.3538 89.3887 23.7247 88.209 23.4592C87.2358 23.2429 86.2625 23.3118 85.2794 23.4101C84.8272 23.4494 84.375 23.5477 83.9326 23.6558C83.1658 23.8328 82.9397 24.1277 82.9397 24.9142C82.9397 29.2693 82.9397 33.6342 82.9397 37.9893C82.9397 38.1171 82.9397 38.2449 82.9397 38.3727C82.92 38.9036 82.6447 39.1887 82.104 39.1985C81.4749 39.2083 80.8358 39.1985 80.2067 39.1985C79.6561 39.1985 79.0958 39.2083 78.5452 39.1985C77.8964 39.1887 77.631 38.9134 77.631 38.2646C77.631 35.4431 77.631 32.6315 77.631 29.8198Z" fill="white"/>
<path d="M47.337 39.1879C46.7373 39.1879 46.1376 39.1977 45.5379 39.1879C44.9284 39.1781 44.722 38.9028 44.8891 38.2933C45.0071 37.8509 45.1054 37.4085 45.1152 36.9465C45.1349 35.7766 44.6531 34.8721 43.7192 34.2036C43.031 33.7121 42.2642 33.3778 41.4679 33.1222C40.1506 32.6995 38.8136 32.3063 37.4962 31.8835C36.4247 31.5395 35.4022 31.1069 34.4683 30.4679C32.8954 29.3865 32.1089 27.8922 32.0204 25.9948C31.8533 22.5638 33.7605 20.0373 36.8965 18.9166C38.3417 18.4054 39.8458 18.2284 41.3696 18.2677C43.7978 18.3365 46.1278 18.8183 48.3299 19.8603C48.6445 20.0078 48.9492 20.1651 49.254 20.3421C49.8832 20.696 50.0405 21.1384 49.775 21.8069C49.6767 22.0526 49.5588 22.2984 49.4506 22.5442C49.1459 23.1832 48.8509 23.832 48.5363 24.471C48.1824 25.1985 47.6122 25.3951 46.9044 25.0117C45.7247 24.3727 44.5057 23.8222 43.1883 23.5076C41.9005 23.2028 40.6028 23.075 39.2953 23.37C38.8922 23.4585 38.5088 23.6059 38.1647 23.8419C37.162 24.5399 37.1227 25.7589 38.0763 26.5159C38.499 26.8501 38.9905 27.0664 39.5017 27.2532C40.7306 27.7054 42.0086 28.0102 43.2571 28.3936C44.4172 28.7475 45.5674 29.1506 46.639 29.7306C47.3763 30.1336 48.0645 30.6055 48.6543 31.2052C49.9028 32.4734 50.4435 34.0365 50.4927 35.7864C50.5222 36.5729 50.4534 37.3594 50.2371 38.1262C50.2076 38.2441 50.1683 38.3719 50.129 38.4899C49.9323 39.0208 49.6964 39.1879 49.136 39.1977C48.5364 39.1977 47.9367 39.1879 47.337 39.1879Z" fill="white"/>
<path d="M124.482 28.3947C124.482 25.2685 124.472 22.1423 124.482 19.016C124.482 17.6299 124.698 16.2831 125.249 14.9952C126.212 12.7636 127.962 11.4856 130.292 10.9645C131.934 10.6008 133.585 10.6008 135.227 10.9449C135.257 10.9547 135.286 10.9547 135.316 10.9645C136.122 11.1513 136.299 11.4167 136.141 12.2425C136.004 12.9602 135.876 13.668 135.738 14.3759C135.601 15.1132 135.345 15.3 134.588 15.1918C133.998 15.1132 133.399 15.005 132.799 15.0149C132.465 15.0247 132.13 15.064 131.816 15.1427C130.616 15.4278 129.918 16.3027 129.781 17.6299C129.751 17.915 129.741 18.2001 129.732 18.4852C129.722 18.8194 129.722 18.8293 130.056 18.8293C130.96 18.8293 131.855 18.8293 132.76 18.8293C133.428 18.8293 134.087 18.8293 134.755 18.8293C135.473 18.8293 135.719 19.0849 135.728 19.8025C135.738 20.6578 135.738 21.5033 135.728 22.3586C135.728 23.0762 135.473 23.3122 134.745 23.3122C133.241 23.3122 131.747 23.3122 130.243 23.3122C130.135 23.3122 130.027 23.3122 129.909 23.3122C129.791 23.3122 129.741 23.3711 129.741 23.4891C129.741 23.6169 129.741 23.7447 129.741 23.8725C129.741 28.5914 129.732 33.3102 129.751 38.0389C129.751 38.8253 129.555 39.2186 128.611 39.1891C127.569 39.1596 126.527 39.1596 125.485 39.1891C124.757 39.2088 124.472 38.786 124.482 38.1863C124.492 34.9323 124.482 31.6586 124.482 28.3947Z" fill="white"/>
<path d="M144.026 29.006C144.026 31.9848 144.026 34.9734 144.026 37.9521C144.026 38.0504 144.026 38.1389 144.026 38.2372C144.017 38.945 143.771 39.1908 143.043 39.1908C142.129 39.1908 141.215 39.1908 140.291 39.1908C140.035 39.1908 139.789 39.2007 139.534 39.1908C139.052 39.1712 138.777 38.9156 138.728 38.4338C138.708 38.2962 138.718 38.1487 138.718 38.0111C138.718 32.0143 138.718 26.0174 138.718 20.0107C138.718 19.0473 138.934 18.8408 139.878 18.8408C140.94 18.8408 141.991 18.8408 143.053 18.8408C143.761 18.8408 144.017 19.0964 144.026 19.8141C144.026 22.8813 144.026 25.9387 144.026 29.006Z" fill="white"/>
<path d="M144.192 13.5414C144.202 14.8883 143.533 15.8714 142.363 16.2056C141.714 16.3924 141.056 16.3826 140.407 16.1958C139.099 15.8124 138.5 14.7211 138.539 13.3546C138.549 13.1384 138.578 12.9123 138.627 12.696C138.873 11.6834 139.502 11.0345 140.515 10.7986C141.183 10.6413 141.862 10.6708 142.52 10.9067C143.553 11.2803 144.054 12.057 144.182 13.1187C144.202 13.2563 144.192 13.4038 144.192 13.5414Z" fill="white"/>
<path d="M37.3592 36.7718C37.3395 37.0766 37.3297 37.3518 37.2609 37.6369C36.9758 38.7085 36.2778 39.3377 35.2062 39.5441C34.6459 39.6523 34.0757 39.6228 33.5251 39.4458C32.6502 39.1607 32.0603 38.5905 31.8244 37.6959C31.6474 37.0274 31.6573 36.3491 31.8736 35.6904C32.1587 34.8351 32.7583 34.2944 33.6333 34.0683C34.2428 33.911 34.8523 33.9307 35.4618 34.088C36.5236 34.3632 37.2412 35.2185 37.3395 36.3196C37.3494 36.4769 37.3592 36.6342 37.3592 36.7718Z" fill="white"/>
<path d="M72.6855 21.4258C72.6462 20.6688 72.3119 20.1379 71.5648 19.902C71.5156 19.8921 71.4763 19.8725 71.4272 19.8528C69.461 19.1253 67.4456 18.6535 65.3516 18.4962C63.8672 18.388 62.3827 18.3782 60.9277 18.7223C57.3394 19.5677 54.8817 21.6912 53.7413 25.2205C52.8566 27.9633 52.9549 30.7356 53.8691 33.449C54.5475 35.4742 55.8058 37.0766 57.6737 38.1678C59.1483 39.0329 60.7606 39.4458 62.4417 39.5442C64.3784 39.6621 66.2856 39.5147 68.183 39.0821C69.3725 38.8068 70.5227 38.4333 71.6434 37.9614C72.2726 37.6959 72.6167 37.2339 72.6757 36.5556C72.6855 36.3983 72.6855 36.241 72.6855 36.0837C72.6855 33.7046 72.6855 31.3157 72.6855 28.9366C72.6855 26.5673 72.6855 24.1981 72.6855 21.8387C72.6855 21.7109 72.6953 21.5634 72.6855 21.4258ZM66.6395 34.2453C65.1452 34.7172 63.6116 34.9138 62.0681 34.5107C60.5345 34.1077 59.4924 33.1246 58.9812 31.6401C58.3815 29.9197 58.3717 28.1599 58.9714 26.4395C59.6399 24.5323 61.0654 23.5394 63.061 23.3625C64.1228 23.274 65.1747 23.3723 66.2069 23.6476C66.3249 23.6771 66.4527 23.7164 66.5707 23.7557C67.1802 23.9818 67.3867 24.2669 67.3965 24.9256C67.4063 26.3019 67.3965 27.6684 67.3965 29.0447C67.3965 30.4014 67.3867 31.7581 67.3965 33.1147C67.3965 33.6849 67.1605 34.0782 66.6395 34.2453Z" fill="white"/>
<path d="M120.109 25.6506C119.204 22.5047 117.278 20.2632 114.191 19.113C112.224 18.3855 110.189 18.2479 108.125 18.6215C105.018 19.1818 102.669 20.8334 101.273 23.6746C99.7195 26.8401 99.6409 30.1236 100.86 33.4072C101.912 36.2483 103.957 38.1162 106.827 39.06C108.548 39.6203 110.327 39.7383 112.116 39.4728C115.311 39.0108 117.73 37.3887 119.263 34.5377C120.187 32.8173 120.541 30.9593 120.551 28.6097C120.541 27.8724 120.423 26.7516 120.109 25.6506ZM114.692 31.7752C113.896 33.9479 111.998 34.872 109.914 34.6754C109.373 34.6262 108.852 34.5279 108.351 34.3214C107.142 33.8201 106.326 32.9353 105.893 31.7163C105.254 29.8975 105.254 28.0592 105.913 26.2503C106.601 24.3529 108.194 23.301 110.219 23.3305C110.691 23.3403 111.163 23.3796 111.625 23.4976C113.129 23.8908 114.161 24.8248 114.692 26.2601C115.361 28.0985 115.361 29.9565 114.692 31.7752Z" fill="white"/>
</svg>
