<svg width="113" height="50" viewBox="0 0 113 50" fill="none" xmlns="http://www.w3.org/2000/svg">
<path d="M45.9303 30.1306C45.9303 27.4271 45.9303 24.7334 45.9303 22.0299C45.9303 21.853 45.9204 21.676 45.9499 21.5089C46.0384 20.8601 46.3727 20.398 47.0117 20.1817C49.0467 19.4739 51.1308 19.002 53.2838 18.8251C54.7978 18.6973 56.3117 18.7071 57.8158 18.9332C58.9169 19.1003 59.9786 19.3953 60.9617 19.9163C62.8886 20.9289 63.9602 22.551 64.3239 24.6745C64.4222 25.225 64.4517 25.7755 64.4517 26.3261C64.4517 30.3567 64.4517 34.3776 64.4517 38.4083C64.4517 38.4869 64.4517 38.5655 64.4517 38.6442C64.4321 39.2144 64.1764 39.4897 63.6062 39.4995C62.4069 39.5093 61.2075 39.5093 60.0081 39.4995C59.4674 39.4995 59.202 39.2242 59.1627 38.6835C59.1529 38.5459 59.1627 38.3984 59.1627 38.2608C59.1627 34.5939 59.1627 30.9368 59.1627 27.2698C59.1627 26.7979 59.1332 26.3162 58.9857 25.864C58.5827 24.6646 57.688 24.0355 56.5083 23.77C55.5351 23.5537 54.5618 23.6226 53.5787 23.7209C53.1265 23.7602 52.6743 23.8585 52.2319 23.9666C51.4651 24.1436 51.239 24.4385 51.239 25.225C51.239 29.5801 51.239 33.945 51.239 38.3001C51.239 38.4279 51.239 38.5557 51.239 38.6835C51.2193 39.2144 50.944 39.4995 50.4033 39.5093C49.7742 39.5191 49.1351 39.5093 48.506 39.5093C47.9554 39.5093 47.3951 39.5191 46.8445 39.5093C46.1957 39.4995 45.9303 39.2242 45.9303 38.5754C45.9303 35.7539 45.9303 32.9423 45.9303 30.1306Z" fill="white"/>
<path d="M15.6363 39.4987C15.0366 39.4987 14.4369 39.5085 13.8372 39.4987C13.2277 39.4889 13.0213 39.2136 13.1884 38.6041C13.3064 38.1617 13.4047 37.7193 13.4145 37.2573C13.4342 36.0874 12.9524 35.1829 12.0185 34.5144C11.3303 34.0229 10.5635 33.6886 9.76722 33.433C8.44992 33.0103 7.11292 32.6171 5.79552 32.1943C4.72402 31.8503 3.70152 31.4177 2.76762 30.7787C1.19472 29.6973 0.408222 28.203 0.319722 26.3056C0.152622 22.8746 2.05982 20.3481 5.19582 19.2274C6.64102 18.7162 8.14512 18.5392 9.66892 18.5785C12.0971 18.6473 14.4271 19.1291 16.6292 20.1711C16.9438 20.3186 17.2485 20.4759 17.5533 20.6529C18.1825 21.0068 18.3398 21.4492 18.0743 22.1177C17.976 22.3634 17.8581 22.6092 17.7499 22.855C17.4452 23.494 17.1502 24.1428 16.8356 24.7818C16.4817 25.5093 15.9115 25.7059 15.2037 25.3225C14.024 24.6835 12.805 24.133 11.4876 23.8184C10.1998 23.5136 8.90212 23.3858 7.59462 23.6808C7.19152 23.7693 6.80812 23.9167 6.46402 24.1527C5.46132 24.8507 5.42202 26.0697 6.37562 26.8267C6.79832 27.1609 7.28982 27.3772 7.80102 27.564C9.02992 28.0162 10.3079 28.321 11.5564 28.7044C12.7165 29.0583 13.8667 29.4614 14.9383 30.0414C15.6756 30.4444 16.3638 30.9163 16.9536 31.516C18.2021 32.7842 18.7428 34.3473 18.792 36.0972C18.8215 36.8837 18.7527 37.6702 18.5364 38.437C18.5069 38.5549 18.4676 38.6827 18.4283 38.8007C18.2316 39.3316 17.9957 39.4987 17.4353 39.5085C16.8357 39.5085 16.236 39.4987 15.6363 39.4987Z" fill="white"/>
<path d="M92.7813 28.7055C92.7813 25.5793 92.7713 22.4531 92.7813 19.3268C92.7813 17.9407 92.9973 16.5939 93.5483 15.306C94.5113 13.0744 96.2613 11.7964 98.5913 11.2753C100.233 10.9116 101.884 10.9116 103.526 11.2557C103.556 11.2655 103.585 11.2655 103.615 11.2753C104.421 11.4621 104.598 11.7275 104.44 12.5533C104.303 13.271 104.175 13.9788 104.037 14.6867C103.9 15.424 103.644 15.6108 102.887 15.5026C102.297 15.424 101.698 15.3158 101.098 15.3257C100.764 15.3355 100.429 15.3748 100.115 15.4535C98.9153 15.7386 98.2173 16.6135 98.0803 17.9407C98.0503 18.2258 98.0403 18.5109 98.0313 18.796C98.0213 19.1302 98.0213 19.1401 98.3553 19.1401C99.2593 19.1401 100.154 19.1401 101.059 19.1401C101.727 19.1401 102.386 19.1401 103.054 19.1401C103.772 19.1401 104.018 19.3957 104.027 20.1133C104.037 20.9686 104.037 21.8141 104.027 22.6694C104.027 23.387 103.772 23.623 103.044 23.623C101.54 23.623 100.046 23.623 98.5423 23.623C98.4343 23.623 98.3263 23.623 98.2083 23.623C98.0903 23.623 98.0403 23.6819 98.0403 23.7999C98.0403 23.9277 98.0403 24.0555 98.0403 24.1833C98.0403 28.9022 98.0313 33.621 98.0503 38.3497C98.0503 39.1361 97.8543 39.5294 96.9103 39.4999C95.8683 39.4704 94.8263 39.4704 93.7843 39.4999C93.0563 39.5196 92.7713 39.0968 92.7813 38.4971C92.7913 35.2431 92.7813 31.9694 92.7813 28.7055Z" fill="white"/>
<path d="M112.325 29.3168C112.325 32.2956 112.325 35.2842 112.325 38.2629C112.325 38.3612 112.325 38.4497 112.325 38.548C112.316 39.2558 112.07 39.5016 111.342 39.5016C110.428 39.5016 109.514 39.5016 108.59 39.5016C108.334 39.5016 108.088 39.5115 107.833 39.5016C107.351 39.482 107.076 39.2264 107.027 38.7446C107.007 38.607 107.017 38.4595 107.017 38.3219C107.017 32.3251 107.017 26.3282 107.017 20.3215C107.017 19.3581 107.233 19.1516 108.177 19.1516C109.239 19.1516 110.29 19.1516 111.352 19.1516C112.06 19.1516 112.316 19.4072 112.325 20.1249C112.325 23.1921 112.325 26.2495 112.325 29.3168Z" fill="white"/>
<path d="M112.491 13.8522C112.501 15.1991 111.832 16.1822 110.662 16.5164C110.013 16.7032 109.355 16.6934 108.706 16.5066C107.398 16.1232 106.799 15.0319 106.838 13.6654C106.848 13.4492 106.877 13.2231 106.926 13.0068C107.172 11.9942 107.801 11.3453 108.814 11.1094C109.482 10.9521 110.161 10.9816 110.819 11.2175C111.852 11.5911 112.353 12.3678 112.481 13.4295C112.501 13.5671 112.491 13.7146 112.491 13.8522Z" fill="white"/>
<path d="M5.65852 37.0826C5.63882 37.3874 5.62902 37.6626 5.56022 37.9477C5.27512 39.0193 4.57712 39.6485 3.50552 39.8549C2.94522 39.9631 2.37502 39.9336 1.82442 39.7566C0.949522 39.4715 0.359621 38.9013 0.123721 38.0067C-0.0532789 37.3382 -0.0433789 36.6599 0.172921 36.0012C0.458021 35.1459 1.05762 34.6052 1.93262 34.3791C2.54212 34.2218 3.15162 34.2415 3.76112 34.3988C4.82292 34.674 5.54052 35.5293 5.63882 36.6304C5.64872 36.7877 5.65852 36.945 5.65852 37.0826Z" fill="white"/>
<path d="M40.9848 21.7366C40.9455 20.9796 40.6112 20.4487 39.8641 20.2128C39.8149 20.2029 39.7756 20.1833 39.7265 20.1636C37.7603 19.4361 35.7449 18.9643 33.6509 18.807C32.1665 18.6988 30.682 18.689 29.227 19.0331C25.6387 19.8785 23.181 22.002 22.0406 25.5313C21.1559 28.2741 21.2542 31.0464 22.1684 33.7598C22.8468 35.785 24.1051 37.3874 25.973 38.4786C27.4476 39.3437 29.0599 39.7566 30.741 39.855C32.6777 39.9729 34.5849 39.8255 36.4823 39.3929C37.6718 39.1176 38.822 38.7441 39.9427 38.2722C40.5719 38.0067 40.916 37.5447 40.975 36.8664C40.9848 36.7091 40.9848 36.5518 40.9848 36.3945C40.9848 34.0154 40.9848 31.6265 40.9848 29.2474C40.9848 26.8781 40.9848 24.5089 40.9848 22.1495C40.9848 22.0217 40.9946 21.8742 40.9848 21.7366ZM34.9388 34.5561C33.4445 35.028 31.9109 35.2246 30.3674 34.8215C28.8338 34.4185 27.7917 33.4354 27.2805 31.9509C26.6808 30.2305 26.671 28.4707 27.2707 26.7503C27.9392 24.8431 29.3647 23.8502 31.3603 23.6733C32.4221 23.5848 33.474 23.6831 34.5062 23.9584C34.6242 23.9879 34.752 24.0272 34.87 24.0665C35.4795 24.2926 35.686 24.5777 35.6958 25.2364C35.7056 26.6127 35.6958 27.9792 35.6958 29.3555C35.6958 30.7122 35.686 32.0689 35.6958 33.4255C35.6958 33.9957 35.4598 34.389 34.9388 34.5561Z" fill="white"/>
<path d="M88.4083 25.9614C87.5033 22.8155 85.5773 20.574 82.4903 19.4238C80.5233 18.6963 78.4883 18.5587 76.4243 18.9323C73.3173 19.4926 70.9683 21.1442 69.5723 23.9854C68.0188 27.1509 67.9402 30.4344 69.1593 33.718C70.2113 36.5591 72.2563 38.427 75.1263 39.3708C76.8473 39.9311 78.6263 40.0491 80.4153 39.7836C83.6103 39.3216 86.0293 37.6995 87.5623 34.8485C88.4863 33.1281 88.8403 31.2701 88.8503 28.9205C88.8403 28.1832 88.7223 27.0624 88.4083 25.9614ZM82.9913 32.086C82.1953 34.2587 80.2973 35.1828 78.2133 34.9862C77.6723 34.937 77.1513 34.8387 76.6503 34.6322C75.4413 34.1309 74.6253 33.2461 74.1923 32.0271C73.5533 30.2083 73.5533 28.37 74.2123 26.5611C74.9003 24.6637 76.4933 23.6118 78.5183 23.6413C78.9903 23.6511 79.4623 23.6904 79.9243 23.8084C81.4283 24.2016 82.4603 25.1356 82.9913 26.5709C83.6603 28.4093 83.6603 30.2673 82.9913 32.086Z" fill="white"/>
</svg>
