<svg width="184" height="50" viewBox="0 0 184 50" fill="none" xmlns="http://www.w3.org/2000/svg">
<g clip-path="url(#clip0_2124_1686)">
<path d="M41.3867 17.4028L50.4425 17.4028L50.4425 19.2592L47.1184 19.2592L47.1184 28.576L44.7167 28.576L44.7167 19.2592L41.3867 19.2592L41.3867 17.4028ZM54.1147 28.576L54.1147 23.6682L58.3671 23.6682L58.3671 28.576L60.7688 28.576L60.7688 17.4028L58.3381 17.4028L58.3381 21.8117L54.1147 21.8117L54.1147 17.4028L51.713 17.4028L51.713 28.576L54.1147 28.576ZM62.718 28.576L70.3815 28.576L70.3815 26.7196L65.1198 26.7196L65.1198 23.732L69.8884 23.732L69.8884 21.8756L65.1198 21.8756L65.1198 19.2592L70.2133 19.2592L70.2133 17.4028L62.718 17.4028L62.718 28.576ZM79.9652 25.8088L79.9362 25.8088L78.2191 17.4028L75.7419 17.4028L78.4685 28.576L81.1893 28.576L83.359 20.0656L83.388 20.0656L85.401 28.576L88.058 28.576L90.9065 17.4028L88.615 17.4028L86.8166 25.8088L86.7876 25.8088L84.8383 17.4028L82.1349 17.4028L79.9652 25.8088ZM91.7186 22.9952C91.7186 26.2903 93.3894 28.8139 97.0906 28.8139C100.786 28.8139 102.463 26.2961 102.463 22.9952C102.463 19.7001 100.792 17.1765 97.0906 17.1765C93.3894 17.1707 91.7186 19.6943 91.7186 22.9952ZM94.2712 22.9952C94.2712 21.075 94.7237 18.9053 97.0906 18.9053C99.4576 18.9053 99.91 21.075 99.91 22.9952C99.91 24.9096 99.4576 27.0793 97.0906 27.0793C94.7237 27.0793 94.2712 24.9096 94.2712 22.9952ZM106.442 24.0742L108.983 24.0742C109.772 24.1033 109.923 24.956 109.987 25.5768C110.091 26.5862 110.202 27.5898 110.405 28.576L113.05 28.576C112.603 27.9553 112.51 26.6442 112.4 25.9307C112.197 24.3817 112.197 23.2505 110.358 23.0532L110.358 23.0242C111.739 22.7342 112.679 21.7711 112.679 20.315C112.679 18.0409 110.712 17.4202 108.792 17.4028L104.041 17.4028L104.041 28.576L106.442 28.576L106.442 24.0742ZM106.442 19.2592L108.45 19.2592C109.505 19.2766 110.12 19.6943 110.12 20.6805C110.12 21.6725 109.5 22.1946 108.45 22.212L106.442 22.212L106.442 19.2592ZM121.752 28.576L121.752 26.7196L116.908 26.7196L116.908 17.4028L114.512 17.4028L114.512 28.576L121.752 28.576ZM123.051 28.576L126.857 28.576C130.338 28.605 132.507 26.8763 132.507 22.9894C132.507 19.1025 130.338 17.368 126.857 17.4028L123.051 17.4028L123.051 28.576ZM125.453 19.2592L126.695 19.2592C129.543 19.2302 129.961 21.2084 129.961 22.9894C129.961 24.7646 129.543 26.7486 126.695 26.7196L125.453 26.7196L125.453 19.2592ZM142.811 28.576C144.528 28.6979 147.312 27.8973 147.312 25.6812C147.312 24.0452 146.262 23.0706 144.853 22.7748L144.853 22.7458C145.966 22.3745 146.819 21.5217 146.819 20.3034C146.819 18.1221 144.777 17.2867 142.782 17.4086L138.587 17.4086L138.587 28.5818L142.811 28.5818L142.811 28.576ZM140.977 26.7196L140.977 23.7494L142.851 23.7494C143.982 23.7494 144.754 23.9524 144.754 25.2345C144.754 26.5224 143.982 26.7196 142.851 26.7196L140.977 26.7196ZM140.977 21.893L140.977 19.2592L142.851 19.2592C143.855 19.2592 144.412 19.6769 144.412 20.5761C144.412 21.4753 143.855 21.893 142.851 21.893L140.977 21.893ZM150.346 28.576L151.182 26.2091L155.608 26.2091L156.415 28.576L158.828 28.576L154.947 17.4028L152.098 17.4028L148.055 28.576L150.346 28.576ZM151.803 24.3527L153.438 19.5841L153.473 19.5841L155.005 24.3527L151.803 24.3527ZM170.146 28.576L170.146 17.4028L167.901 17.4028L167.901 26.1627L167.872 26.1975L163.614 17.4086L160.058 17.4086L160.058 28.5818L162.303 28.5818L162.303 19.323L162.332 19.2882L166.741 28.576L170.146 28.576ZM174.515 17.4028L172.119 17.4028L172.119 28.576L174.515 28.576L174.515 22.8792L174.544 22.8792L178.43 28.576L181.418 28.576L176.963 22.4035L181.064 17.4028L178.262 17.4028L174.549 22.2352L174.52 22.2352L174.52 17.4028L174.515 17.4028Z" fill="white"/>
<path d="M34.9345 17.8537C34.511 18.0336 34.3138 18.5209 34.4936 18.9444C35.3406 20.9458 35.7699 23.0807 35.7699 25.2736C35.7699 26.6195 35.6017 27.9247 35.2884 29.1778C35.0447 29.9668 34.6097 30.6978 34.0121 31.3591C34.0237 31.0748 34.0353 30.7906 34.0353 30.5005C34.0411 27.2982 33.1593 23.9219 31.5176 20.7428C32.7184 19.7101 33.4842 18.4338 33.7511 17.0067C33.8323 16.5542 33.5364 16.1191 33.0839 16.0321C32.6314 15.9451 32.1963 16.2468 32.1151 16.6993C31.9411 17.6449 31.448 18.5093 30.6822 19.246C30.4443 18.8515 30.1949 18.4629 29.9338 18.0742C28.4719 15.9277 26.7315 14.0713 24.8287 12.592C27.3406 12.7544 29.6612 13.3693 31.535 14.4136C31.8308 14.5818 32.2195 14.576 32.4922 14.3439C32.8461 14.0481 32.8925 13.5202 32.5966 13.1663C29.9106 9.41285 25.2638 7.3418 19.5089 7.3418C9.62353 7.3418 1.57715 15.3882 1.57715 25.2736C1.57715 26.9791 1.8208 28.6267 2.2675 30.1872C2.29651 30.2917 2.31971 30.3961 2.34872 30.5005C2.35452 30.5237 2.36612 30.5411 2.37192 30.5585C4.63442 37.8681 11.4567 43.1995 19.5031 43.1995C23.2275 43.1995 26.6851 42.0567 29.5567 40.1074C29.5857 40.09 29.6147 40.0784 29.638 40.061C29.812 39.945 29.9744 39.8232 30.1369 39.6955C33.432 37.259 35.8743 33.7202 36.8954 29.6245C36.9534 29.4389 37.0056 29.2416 37.0462 29.0502C37.0578 29.0038 37.0578 28.9574 37.0636 28.911C37.3072 27.7333 37.4349 26.515 37.4349 25.2678C37.4349 22.8486 36.9592 20.4991 36.0252 18.2888C35.8511 17.8711 35.358 17.6739 34.9345 17.8537ZM28.5589 19.0198C28.8316 19.4259 29.0926 19.832 29.3421 20.2497C28.0078 21.0212 26.3254 21.4795 24.5038 21.613C24.3472 18.7355 24.0107 15.9625 23.4654 13.6594C25.3624 15.0691 27.1028 16.8907 28.5589 19.0198ZM26.0818 10.1902C26.9172 10.5267 27.7467 10.956 28.5357 11.4955C27.2768 11.1822 25.9367 10.9908 24.5444 10.9212C25.113 10.5499 25.6409 10.2946 26.0818 10.1902ZM23.8773 9.49987C23.4132 9.74933 22.9317 10.0626 22.4444 10.4339C22.2239 9.94077 21.9919 9.50568 21.7424 9.13439C22.4096 9.20981 23.1289 9.32584 23.8773 9.49987ZM15.9469 21.6768C17.142 22.2163 18.4473 22.6398 19.8164 22.9356C20.8548 23.1561 21.8874 23.2779 22.9085 23.3127C22.9259 23.9393 22.9375 24.5832 22.9375 25.2446C22.9375 29.172 22.6242 32.4323 22.1717 34.9791C20.6808 34.9153 19.1434 34.718 17.6003 34.3932C15.535 33.9465 13.5858 33.2967 11.8164 32.4613C12.3965 29.8508 13.4756 26.6833 15.1928 23.1735C15.4306 22.663 15.6859 22.1641 15.9469 21.6768ZM13.0347 17.8247C12.3443 17.175 11.8222 16.5078 11.4683 15.8291C13.0289 14.8893 14.7577 14.1235 16.6025 13.5666C17.6989 13.2359 18.807 12.9922 19.915 12.824C18.3138 14.6108 16.7243 16.8849 15.2624 19.4549C14.427 18.9734 13.6786 18.428 13.0347 17.8247ZM22.8388 21.6362C21.9571 21.6013 21.0521 21.4911 20.1645 21.2997C18.9578 21.0444 17.8091 20.6731 16.7533 20.209C18.308 17.4882 20.0136 15.1213 21.6902 13.3577C22.2123 15.423 22.6532 18.196 22.8388 21.6362ZM19.4857 9.01257C19.77 9.01837 20.118 9.35484 20.4835 10.0162C20.2979 9.93497 20.1122 9.85955 19.9266 9.78994C19.1724 9.49987 18.4241 9.27943 17.6873 9.11699C18.279 9.04737 18.8766 9.01257 19.4857 9.01257ZM11.01 13.1141C11.1957 12.2497 11.7178 11.4781 12.5184 10.8342C14.4618 10.254 16.7301 10.3933 19.1086 11.2635C18.1108 11.4375 17.1072 11.6696 16.1152 11.9654C14.2762 12.5165 12.5416 13.2707 10.952 14.1931C10.923 13.8276 10.9404 13.468 11.01 13.1141ZM9.44949 12.5107C9.42628 12.5978 9.40308 12.679 9.38567 12.7718C9.21744 13.5608 9.23484 14.3613 9.43209 15.1619C7.63949 16.3976 6.07894 17.8653 4.83167 19.5071C4.45458 20.006 4.11811 20.5165 3.81064 21.0328C4.73305 17.6159 6.74609 14.6456 9.44949 12.5107ZM9.71635 38.2452C6.93173 36.1394 4.85487 33.1633 3.86866 29.7231C3.72942 29.1778 3.6366 28.6267 3.6018 28.0698C4.15872 28.8588 4.83747 29.6361 5.64385 30.3845C6.86212 31.5099 8.31244 32.5194 9.92519 33.3838C9.60032 35.2286 9.5075 36.8993 9.71635 38.2452ZM6.7809 29.1546C5.36539 27.8435 4.39077 26.4628 3.89186 25.0821C4.28635 23.539 5.04632 21.99 6.16596 20.5107C7.2276 19.101 8.55029 17.8363 10.0702 16.7457C10.5053 17.5346 11.1203 18.3062 11.8976 19.0372C12.6402 19.7333 13.4988 20.3599 14.4618 20.911C14.1949 21.4099 13.9397 21.9204 13.6902 22.4367C12.2109 25.4708 11.0042 28.7195 10.2907 31.6724C8.97378 30.9356 7.78452 30.0886 6.7809 29.1546ZM19.5205 41.523C19.4799 41.523 19.4393 41.5288 19.4045 41.5346C16.9215 41.5172 14.572 40.9486 12.4662 39.9334C12.4197 39.8928 12.3617 39.858 12.3037 39.829C11.3755 39.3765 11.0042 37.3112 11.4857 34.1553C13.2667 34.9559 15.2044 35.5882 17.2406 36.0233C18.7838 36.354 20.3211 36.5571 21.8294 36.6325C21.0927 39.8406 20.1471 41.523 19.5205 41.523ZM29.1274 38.3729C27.0506 39.9044 24.5966 40.9544 21.9338 41.3547C22.601 40.2003 23.1405 38.5759 23.5466 36.6673C25.9019 36.6383 28.1354 36.296 30.1137 35.6288C30.6126 35.4606 31.0825 35.275 31.535 35.0719C30.9897 36.4178 30.1833 37.5375 29.1274 38.3729ZM32.1673 32.8616C31.4189 33.3199 30.5604 33.7202 29.5857 34.0451C27.8628 34.6252 25.9251 34.9385 23.8657 34.9907C24.3588 32.0263 24.5966 28.5861 24.5966 25.2388C24.5966 24.589 24.5908 23.9335 24.5676 23.2837C26.6445 23.1445 28.5647 22.605 30.1369 21.7C31.593 24.5832 32.3762 27.6231 32.3704 30.4889C32.3704 31.3243 32.3007 32.1191 32.1673 32.8616Z" fill="white"/>
</g>
<defs>
<clipPath id="clip0_2124_1686">
<rect width="181" height="36.5481" fill="white" transform="translate(1 7)"/>
</clipPath>
</defs>
</svg>
