<svg width="553" height="380" viewBox="0 0 553 380" fill="none" xmlns="http://www.w3.org/2000/svg">
<g clip-path="url(#clip0_45_4)">
<rect width="553" height="380" fill="white"/>
<path d="M-82.9375 -9H-128V58M-82.9375 -9V58M-82.9375 -9H-37.875M-82.9375 58H-128M-82.9375 58V125M-82.9375 58H-37.875M-128 58V125M-82.9375 125H-128M-82.9375 125V192M-82.9375 125H-37.875M-128 125V192M-82.9375 192H-128M-82.9375 192V259M-82.9375 192H-37.875M-128 192V259M-82.9375 259H-128M-82.9375 259V326M-82.9375 259H-37.875M-128 259V326M-82.9375 326H-128M-82.9375 326V393M-82.9375 326H-37.875M-128 326V393H-82.9375M-82.9375 393H-37.875M-37.875 -9V58M-37.875 -9H7.18751M-37.875 58V125M-37.875 58H7.18751M-37.875 125V192M-37.875 125H7.18751M-37.875 192V259M-37.875 192H7.18751M-37.875 259V326M-37.875 259H7.18751M-37.875 326V393M-37.875 326H7.18751M-37.875 393H7.18751M7.18751 -9V58M7.18751 -9H52.25M7.18751 58V125M7.18751 58H52.25M7.18751 125V192M7.18751 125H52.25M7.18751 192V259M7.18751 192H52.25M7.18751 259V326M7.18751 259H52.25M7.18751 326V393M7.18751 326H52.25M7.18751 393H52.25M52.25 -9V58M52.25 -9H97.3125M52.25 58V125M52.25 58H97.3125M52.25 125V192M52.25 125H97.3125M52.25 192V259M52.25 192H97.3125M52.25 259V326M52.25 259H97.3125M52.25 326V393M52.25 326H97.3125M52.25 393H97.3125M97.3125 -9V58M97.3125 -9H142.375M97.3125 58V125M97.3125 58H142.375M97.3125 125V192M97.3125 125H142.375M97.3125 192V259M97.3125 192H142.375M97.3125 259V326M97.3125 259H142.375M97.3125 326V393M97.3125 326H142.375M97.3125 393H142.375M142.375 -9V58M142.375 -9H187.437M142.375 58V125M142.375 58H187.437M142.375 125V192M142.375 125H187.437M142.375 192V259M142.375 192H187.437M142.375 259V326M142.375 259H187.437M142.375 326V393M142.375 326H187.437M142.375 393H187.437M187.437 -9V58M187.437 -9H232.5M187.437 58V125M187.437 58H232.5M187.437 125V192M187.437 125H232.5M187.437 192V259M187.437 192H232.5M187.437 259V326M187.437 259H232.5M187.437 326V393M187.437 326H232.5M187.437 393H232.5M232.5 -9V58M232.5 -9H277.563M232.5 58V125M232.5 58H277.563M232.5 125V192M232.5 125H277.563M232.5 192V259M232.5 192H277.563M232.5 259V326M232.5 259H277.563M232.5 326V393M232.5 326H277.563M232.5 393H277.563M277.563 -9V58M277.563 -9H322.625M277.563 58V125M277.563 58H322.625M277.563 125V192M277.563 125H322.625M277.563 192V259M277.563 192H322.625M277.563 259V326M277.563 259H322.625M277.563 326V393M277.563 326H322.625M277.563 393H322.625M322.625 -9V58M322.625 -9H367.687M322.625 58V125M322.625 58H367.687M322.625 125V192M322.625 125H367.687M322.625 192V259M322.625 192H367.687M322.625 259V326M322.625 259H367.687M322.625 326V393M322.625 326H367.687M322.625 393H367.687M367.687 -9V58M367.687 -9H412.75M367.687 58V125M367.687 58H412.75M367.687 125V192M367.687 125H412.75M367.687 192V259M367.687 192H412.75M367.687 259V326M367.687 259H412.75M367.687 326V393M367.687 326H412.75M367.687 393H412.75M412.75 -9V58M412.75 -9H457.812M412.75 58V125M412.75 58H457.812M412.75 125V192M412.75 125H457.812M412.75 192V259M412.75 192H457.812M412.75 259V326M412.75 259H457.812M412.75 326V393M412.75 326H457.812M412.75 393H457.812M457.812 -9V58M457.812 -9H502.875M457.812 58V125M457.812 58H502.875M457.812 125V192M457.812 125H502.875M457.812 192V259M457.812 192H502.875M457.812 259V326M457.812 259H502.875M457.812 326V393M457.812 326H502.875M457.812 393H502.875M502.875 -9V58M502.875 -9H547.938M502.875 58V125M502.875 58H547.938M502.875 125V192M502.875 125H547.938M502.875 192V259M502.875 192H547.938M502.875 259V326M502.875 259H547.938M502.875 326V393M502.875 326H547.938M502.875 393H547.938M547.938 -9V58M547.938 -9H593V58M547.938 58V125M547.938 58H593M547.938 125V192M547.938 125H593M547.938 192V259M547.938 192H593M547.938 259V326M547.938 259H593M547.938 326V393M547.938 326H593M547.938 393H593V326M593 58V125M593 125V192M593 192V259M593 259V326" stroke="url(#paint0_radial_45_4)" stroke-opacity="0.32" stroke-width="1.08255"/>
<path d="M205.235 221.2C205.152 224.765 205.321 228.331 205.741 231.872C205.909 234.246 205.995 236.622 206.163 238.992C206.363 241.856 206.523 241.462 206.763 243.442C206.778 243.661 206.878 243.865 207.041 244.011C207.204 244.158 207.417 244.236 207.636 244.228C207.855 244.219 208.063 244.127 208.214 243.968C208.366 243.81 208.45 243.599 208.449 243.38C208.644 242.04 208.728 240.686 208.701 239.332C208.65 234.376 208.299 229.428 207.649 224.514C207.443 223.317 207.147 222.138 206.763 220.986C206.749 220.884 206.714 220.786 206.662 220.698C206.61 220.61 206.54 220.532 206.458 220.471C206.376 220.409 206.282 220.365 206.182 220.339C206.083 220.314 205.979 220.309 205.877 220.324C205.776 220.336 205.679 220.369 205.59 220.42C205.502 220.471 205.426 220.54 205.366 220.622C205.305 220.704 205.263 220.798 205.24 220.898C205.218 220.997 205.216 221.1 205.235 221.2Z" fill="#191919"/>
<path d="M214.045 226.152C215.111 222.899 216.407 219.725 217.923 216.656C217.966 216.554 218.029 216.461 218.108 216.383C218.188 216.305 218.281 216.243 218.385 216.201C218.488 216.159 218.598 216.138 218.709 216.139C218.82 216.14 218.93 216.163 219.033 216.206C219.135 216.249 219.228 216.312 219.306 216.392C219.384 216.471 219.446 216.565 219.488 216.668C219.529 216.771 219.55 216.881 219.55 216.992C219.549 217.104 219.526 217.214 219.483 217.316C217.787 222.362 218.191 221.458 217.333 224.192C216.845 225.748 216.321 227.278 215.859 228.808C215.793 229.01 215.677 229.192 215.522 229.338C215.367 229.484 215.179 229.588 214.973 229.642C214.767 229.695 214.551 229.696 214.345 229.645C214.139 229.593 213.949 229.49 213.793 229.346C211.073 226.871 208.171 224.604 205.111 222.564C201.959 225.214 200.061 227.798 197.567 230.256C197.428 230.396 197.259 230.503 197.073 230.568C196.887 230.632 196.688 230.653 196.492 230.628C196.297 230.603 196.109 230.534 195.945 230.425C195.781 230.316 195.644 230.171 195.545 230C194.855 228.788 190.291 221.442 188.169 218.65C188.036 218.488 187.973 218.28 187.994 218.071C188.015 217.863 188.118 217.672 188.28 217.539C188.442 217.406 188.65 217.344 188.858 217.364C189.067 217.385 189.258 217.488 189.391 217.65C192.267 220.527 194.773 223.752 196.851 227.25C199.118 224.617 201.584 222.162 204.227 219.906C204.441 219.737 204.702 219.64 204.974 219.628C205.246 219.617 205.515 219.691 205.743 219.84C208.644 221.761 211.418 223.87 214.045 226.152Z" fill="#191919"/>
<path d="M227.363 146.084C228.661 146.206 231.763 146.928 232.125 145.664C232.621 143.884 227.325 143.312 225.341 143.392C224.233 143.438 222.431 143.992 222.517 144.846C222.639 146.086 225.929 145.95 227.363 146.084Z" fill="#191919"/>
<path d="M215.6 127.556C220.57 126.356 223.976 129.312 224.788 128.032C225.306 127.216 223.364 124.738 218.254 124.646C213.526 124.56 211.162 127.166 211.808 128.062C212.334 128.786 213.27 128.09 215.6 127.556Z" fill="#191919"/>
<path d="M219.227 120.252C220.192 120.466 221.137 120.762 222.051 121.138C223.961 121.938 226.361 124.012 227.193 123.004C228.471 121.646 223.993 118.588 220.661 117.97C219.373 117.75 217.205 117.932 217.205 118.902C217.199 119.574 217.983 119.854 219.227 120.252Z" fill="#191919"/>
<path d="M161.07 316.52C161.188 314.532 161.158 315.81 161.364 312.254C161.436 310.598 161.408 307.254 161.964 302.392C162.653 297.753 163.58 293.153 164.744 288.61C164.808 288.402 164.79 288.177 164.694 287.981C164.598 287.785 164.431 287.634 164.227 287.557C164.022 287.481 163.797 287.485 163.596 287.569C163.395 287.653 163.233 287.811 163.144 288.01C160.977 292.412 159.703 297.199 159.394 302.096C158.594 306.908 158.637 311.823 159.52 316.62C159.555 316.808 159.658 316.977 159.809 317.095C159.96 317.213 160.149 317.271 160.34 317.259C160.531 317.247 160.711 317.165 160.846 317.028C160.98 316.892 161.06 316.711 161.07 316.52Z" fill="#191919"/>
<path d="M248.685 161.634C249.416 160.899 250.04 160.066 250.541 159.158C250.663 158.958 254.821 151.814 255.387 150.682C255.761 149.932 256.019 149.168 256.357 148.4C256.423 148.306 256.469 148.199 256.492 148.087C256.515 147.975 256.516 147.859 256.493 147.746C256.47 147.634 256.424 147.527 256.359 147.433C256.294 147.338 256.21 147.258 256.113 147.197C256.016 147.136 255.907 147.095 255.794 147.077C255.681 147.059 255.565 147.065 255.454 147.093C255.343 147.121 255.238 147.171 255.147 147.241C255.056 147.311 254.98 147.398 254.923 147.498C254.37 148.056 253.85 148.647 253.365 149.266C251.123 152.579 249.204 156.099 247.633 159.778C247.514 160.155 247.415 160.538 247.337 160.926C247.289 161.016 247.26 161.116 247.251 161.218C247.242 161.319 247.254 161.422 247.285 161.52C247.317 161.617 247.367 161.707 247.435 161.784C247.502 161.862 247.583 161.925 247.675 161.97C247.763 162.017 247.86 162.046 247.959 162.055C248.058 162.064 248.158 162.052 248.253 162.021C248.348 161.989 248.435 161.939 248.509 161.872C248.583 161.806 248.643 161.725 248.685 161.634Z" fill="#191919"/>
<path d="M188.337 302C192.337 300.554 190.777 298.4 187.327 299.584C186.167 300.046 184.651 301.332 185.219 302.154C185.777 303.134 187.839 302.2 188.337 302Z" fill="#191919"/>
<path d="M189.728 295.9C190.668 295.7 192.382 295.394 192.382 294.388C192.382 293.87 191.36 292.884 189.096 293.364C186.948 293.818 186.434 295.226 186.61 295.632C187.084 296.734 189.516 295.948 189.728 295.9Z" fill="#191919"/>
<path d="M243.887 274.637C246.839 270.992 251.649 269.273 256.267 269.523C260.74 269.766 264.94 271.849 267.06 275.698L267.258 276.076C269.106 279.885 268.857 284.904 266.74 289.027C264.697 293.007 260.94 296.106 255.716 296.464L255.205 296.49C247.965 296.709 243.417 293.306 241.522 288.871C239.615 284.408 240.361 278.827 243.88 274.644L243.881 274.645L243.887 274.637Z" fill="#3EAAFF" stroke="#3EAAFF"/>
<path d="M250.138 290V276.909H255.303C256.291 276.909 257.135 277.086 257.834 277.44C258.537 277.789 259.072 278.286 259.438 278.929C259.809 279.568 259.994 280.32 259.994 281.185C259.994 282.055 259.807 282.803 259.432 283.429C259.057 284.051 258.513 284.528 257.802 284.861C257.094 285.193 256.238 285.359 255.232 285.359H251.774V283.135H254.785C255.313 283.135 255.752 283.062 256.102 282.918C256.451 282.773 256.711 282.555 256.881 282.266C257.056 281.976 257.143 281.616 257.143 281.185C257.143 280.751 257.056 280.384 256.881 280.086C256.711 279.788 256.449 279.562 256.095 279.408C255.746 279.251 255.305 279.172 254.772 279.172H252.906V290H250.138ZM257.207 284.043L260.461 290H257.406L254.222 284.043H257.207Z" fill="white"/>
<path d="M345.814 123.946C347.054 123.886 348.468 123.828 348.554 124.776C348.648 125.804 347.504 125.666 345.056 126.618C344.891 126.665 344.717 126.677 344.546 126.654C344.375 126.63 344.211 126.571 344.064 126.481C343.918 126.39 343.791 126.27 343.694 126.128C343.596 125.986 343.529 125.825 343.496 125.656C342.943 122.607 343.015 119.477 343.708 116.456C344.642 112.704 346.468 112.71 346.108 116.952C345.795 119.269 345.696 121.611 345.814 123.946Z" fill="#191919"/>
<path d="M352.949 108.836C353.699 108.566 355.899 108.256 355.899 107.186C355.899 106.476 354.599 105.47 351.939 106.42C349.579 107.27 349.031 109.096 349.621 109.676C350.337 110.292 352.199 109.126 352.949 108.836Z" fill="#191919"/>
<path d="M338.241 110.022C338.663 110.122 339.041 110.244 339.463 110.32C339.663 110.356 341.041 110.32 341.275 109.72C341.505 109.256 341.101 108.09 339.379 107.602C337.751 107.188 336.767 108.118 336.767 108.602C336.725 109.026 337.625 109.866 338.241 110.022Z" fill="#191919"/>
<path d="M378.4 120.954C378.921 119.835 379.153 118.604 379.075 117.372C378.997 116.141 378.611 114.949 377.952 113.905C377.294 112.861 376.385 111.999 375.307 111.398C374.229 110.797 373.018 110.476 371.784 110.464C371.934 102.998 371.63 95.542 367.184 89.48C360.656 80.424 344.838 83.786 338.568 91.944C335.777 96.2194 334.188 101.167 333.968 106.268C332.863 117.437 334.618 128.704 339.068 139.008C340.531 142.333 343.237 144.953 346.607 146.31C349.976 147.666 353.743 147.651 357.102 146.268C357.825 148.298 358.743 150.253 359.844 152.106C360.298 152.888 361.362 154.388 362.204 153.97C363.576 153.292 361.604 149.848 360.94 148.608C360.438 147.479 359.804 146.414 359.052 145.434C361.79 144.034 364.078 141.89 365.652 139.248C365.709 139.154 365.747 139.05 365.764 138.941C365.781 138.832 365.777 138.721 365.751 138.614C365.725 138.507 365.678 138.406 365.613 138.317C365.548 138.228 365.466 138.153 365.372 138.096C365.278 138.039 365.174 138.001 365.065 137.984C364.956 137.967 364.845 137.971 364.738 137.997C364.631 138.023 364.53 138.07 364.441 138.135C364.352 138.2 364.277 138.282 364.22 138.376C363.868 138.938 363.476 139.472 363.046 139.976C363.058 139.773 362.995 139.572 362.87 139.412C362.212 138.195 361.478 137.021 360.67 135.898C356.704 130.56 351.222 128.86 344.488 129.398C343.397 129.332 342.314 129.612 341.392 130.198C340.47 130.785 339.758 131.648 339.356 132.664C335.204 119.828 335.672 105.53 338.166 98.304C338.736 96.5946 339.575 94.987 340.652 93.542C345.868 86.712 359.6 83.468 365.096 91.004C369.332 96.904 369.452 104.404 369.31 111.65C369.305 111.82 369.336 111.988 369.4 112.145C369.465 112.302 369.563 112.443 369.686 112.56C369.809 112.676 369.956 112.765 370.116 112.821C370.277 112.876 370.447 112.897 370.616 112.882C371.577 112.755 372.554 112.864 373.465 113.197C374.375 113.531 375.19 114.08 375.842 114.798C376.327 115.407 376.676 116.112 376.865 116.867C377.055 117.622 377.08 118.408 376.941 119.174C376.801 119.939 376.499 120.666 376.056 121.305C375.612 121.945 375.036 122.482 374.368 122.88C373.27 123.578 372.078 124.117 370.828 124.48C370.082 124.716 370.07 128.308 370.07 128.508C370.242 130.948 370.68 133.363 371.376 135.708C372.206 139.111 373.786 142.286 376 145C376.122 145.186 376.311 145.318 376.527 145.368C376.744 145.418 376.972 145.382 377.162 145.268C377.353 145.153 377.492 144.969 377.55 144.755C377.608 144.54 377.581 144.311 377.474 144.116C377.054 143.206 376.758 142.276 376.378 141.356C372.96 133.6 373.412 132.406 372.034 125.756C373.384 125.475 374.655 124.899 375.755 124.069C376.856 123.239 377.759 122.175 378.4 120.954ZM342.03 132.984C342.764 132.312 343.731 131.953 344.726 131.984C347.685 131.694 350.671 132.093 353.45 133.152C355.501 134.164 357.323 135.586 358.802 137.33C359.73 138.33 360.656 139.33 361.542 140.386C361.63 140.519 361.755 140.623 361.902 140.684C362.05 140.746 362.212 140.762 362.368 140.73C359.781 143.282 356.342 144.787 352.712 144.954C352.078 143.014 351.53 143.044 349.826 138.688C349.733 138.354 349.619 138.026 349.486 137.706C351.924 138.306 354.044 139.906 354.798 138.956C355.436 138.156 353.868 136.81 353.198 136.38C351.852 135.567 350.338 135.073 348.772 134.936C344.972 134.606 343.682 137.076 344.348 137.79C344.804 138.278 345.748 137.734 347.12 137.552C347.432 140.145 348.367 142.624 349.844 144.778C347.971 144.472 346.21 143.688 344.73 142.5C343.251 141.312 342.103 139.762 341.4 138C341.292 137.75 341.188 137.5 341.084 137.25C340.987 135.766 341.317 134.286 342.036 132.984H342.03Z" fill="#191919"/>
<path d="M195.404 172.316C195.404 173.183 195.671 174.014 196.145 174.627C196.619 175.24 197.262 175.584 197.932 175.584C198.603 175.584 199.246 175.24 199.72 174.627C200.194 174.014 200.46 173.183 200.46 172.316C200.46 171.449 200.194 170.618 199.72 170.005C199.246 169.392 198.603 169.048 197.932 169.048C197.262 169.048 196.619 169.392 196.145 170.005C195.671 170.618 195.404 171.449 195.404 172.316Z" fill="#191919"/>
<path d="M214.795 172.95C214.795 173.379 214.855 173.804 214.971 174.201C215.088 174.597 215.259 174.957 215.474 175.261C215.689 175.564 215.945 175.805 216.226 175.969C216.507 176.133 216.809 176.218 217.113 176.218C217.417 176.218 217.719 176.133 218 175.969C218.281 175.805 218.537 175.564 218.752 175.261C218.967 174.957 219.138 174.597 219.254 174.201C219.371 173.804 219.431 173.379 219.431 172.95C219.431 172.521 219.371 172.096 219.254 171.699C219.138 171.303 218.967 170.943 218.752 170.639C218.537 170.336 218.281 170.095 218 169.931C217.719 169.767 217.417 169.682 217.113 169.682C216.809 169.682 216.507 169.767 216.226 169.931C215.945 170.095 215.689 170.336 215.474 170.639C215.259 170.943 215.088 171.303 214.971 171.699C214.855 172.096 214.795 172.521 214.795 172.95Z" fill="#191919"/>
<path d="M350.076 116.478C350.076 117.345 350.32 118.176 350.755 118.789C351.19 119.402 351.779 119.746 352.394 119.746C353.009 119.746 353.599 119.402 354.033 118.789C354.468 118.176 354.712 117.345 354.712 116.478C354.712 115.611 354.468 114.78 354.033 114.167C353.599 113.554 353.009 113.21 352.394 113.21C351.779 113.21 351.19 113.554 350.755 114.167C350.32 114.78 350.076 115.611 350.076 116.478Z" fill="#191919"/>
<path d="M337.432 117.32C337.432 118.187 337.676 119.018 338.111 119.631C338.545 120.244 339.135 120.588 339.75 120.588C340.364 120.588 340.954 120.244 341.389 119.631C341.823 119.018 342.068 118.187 342.068 117.32C342.068 116.453 341.823 115.622 341.389 115.009C340.954 114.396 340.364 114.052 339.75 114.052C339.135 114.052 338.545 114.396 338.111 115.009C337.676 115.622 337.432 116.453 337.432 117.32Z" fill="#191919"/>
<path d="M441.452 161.544C446.456 164.007 451.274 166.833 455.866 170C469.666 180.144 474.43 196.012 473.228 212.968C472.059 225.627 468.301 237.911 462.188 249.058C462.083 249.253 462.058 249.48 462.118 249.693C462.178 249.906 462.317 250.087 462.508 250.2C462.698 250.312 462.925 250.346 463.14 250.295C463.355 250.244 463.542 250.112 463.662 249.926C479.8 224.2 482.448 185.426 457.298 168C452.485 164.935 447.407 162.307 442.126 160.148C442.034 160.104 441.934 160.078 441.832 160.072C441.73 160.067 441.628 160.081 441.532 160.115C441.436 160.148 441.347 160.201 441.271 160.269C441.195 160.337 441.133 160.419 441.089 160.511C441.044 160.603 441.019 160.703 441.013 160.804C441.007 160.906 441.022 161.008 441.055 161.105C441.089 161.201 441.141 161.29 441.209 161.366C441.277 161.442 441.36 161.504 441.452 161.548V161.544Z" fill="#191919"/>
<path d="M466.951 254.626C468.329 253.866 471.767 251.582 470.785 250.344C469.861 249.182 467.079 251.446 465.813 252.3C464.969 252.882 463.851 254.124 464.213 254.758C464.547 255.35 466.029 255.112 466.951 254.626Z" fill="#191919"/>
<path d="M335.123 236.4C324.651 255.102 320.371 273.728 309.923 294.4C306.895 300.4 303.851 310.248 298.587 313.136C298.395 313.246 298.253 313.427 298.192 313.64C298.13 313.853 298.154 314.081 298.258 314.277C298.362 314.473 298.538 314.62 298.748 314.689C298.959 314.757 299.188 314.741 299.387 314.644C305.939 311.444 309.613 300.666 312.199 295.56C321.399 277.4 328.565 254.716 336.515 237.1C336.608 236.915 336.624 236.702 336.559 236.505C336.494 236.309 336.354 236.147 336.169 236.054C335.985 235.961 335.771 235.945 335.575 236.01C335.378 236.075 335.216 236.215 335.123 236.4Z" fill="#191919"/>
<path d="M309.121 218.738C308.393 219.955 307.772 221.233 307.265 222.558C302.433 234.432 302.521 235.378 302.125 237.798C301.725 238.848 303.417 239.376 303.725 238.29C304.063 237.51 304.485 236.772 304.821 235.99C305.493 234.346 309.491 224.132 310.005 222.27C310.268 221.268 310.469 220.251 310.605 219.224C310.637 219.127 310.65 219.024 310.642 218.922C310.634 218.819 310.606 218.72 310.56 218.628C310.513 218.537 310.45 218.455 310.372 218.388C310.294 218.322 310.204 218.271 310.106 218.239C310.009 218.207 309.906 218.195 309.804 218.202C309.702 218.21 309.602 218.238 309.51 218.284C309.419 218.331 309.338 218.395 309.271 218.473C309.204 218.55 309.153 218.641 309.121 218.738Z" fill="#191919"/>
<path d="M373.599 185.884C373.503 185.509 373.363 185.146 373.181 184.804C372.863 184.291 372.436 183.854 371.929 183.526C371.642 183.346 371.316 183.236 370.977 183.205C370.639 183.175 370.299 183.225 369.984 183.351C369.669 183.476 369.388 183.675 369.164 183.93C368.94 184.185 368.779 184.489 368.695 184.818C368.442 185.586 368.432 186.414 368.669 187.188C369.977 192.134 374.917 190.864 373.599 185.884Z" fill="#191919"/>
<path d="M379.011 207.724C378.915 207.349 378.775 206.986 378.593 206.644C378.276 206.131 377.848 205.694 377.341 205.366C377.054 205.186 376.728 205.077 376.39 205.046C376.052 205.016 375.712 205.066 375.397 205.192C375.081 205.318 374.801 205.516 374.577 205.771C374.353 206.025 374.192 206.329 374.107 206.658C373.854 207.426 373.845 208.254 374.081 209.028C375.399 213.974 380.329 212.704 379.011 207.724Z" fill="#191919"/>
<path d="M385.816 229.64C385.719 229.265 385.579 228.901 385.4 228.558C385.08 228.045 384.652 227.609 384.146 227.28C383.858 227.1 383.532 226.991 383.195 226.96C382.857 226.93 382.517 226.98 382.202 227.106C381.887 227.232 381.606 227.43 381.382 227.685C381.159 227.94 380.998 228.243 380.914 228.572C380.658 229.34 380.649 230.168 380.886 230.942C382.2 235.89 387.134 234.62 385.816 229.64Z" fill="#191919"/>
<path d="M392.498 252.4C392.401 252.025 392.26 251.662 392.08 251.32C391.762 250.807 391.334 250.37 390.828 250.042C390.54 249.862 390.214 249.753 389.876 249.722C389.538 249.692 389.198 249.742 388.883 249.868C388.568 249.994 388.287 250.192 388.063 250.447C387.839 250.701 387.678 251.005 387.594 251.334C387.34 252.102 387.331 252.93 387.568 253.704C388.878 258.646 393.816 257.378 392.498 252.4Z" fill="#191919"/>
<path d="M150.465 119.154C148.885 116.634 146.331 115.34 144.733 113.726C143.679 112.66 142.629 111.216 143.469 109.968C143.967 109.168 144.711 109.394 145.669 109.834C146.683 110.312 147.621 110.938 148.451 111.692C148.523 111.778 148.611 111.848 148.71 111.9C148.809 111.952 148.918 111.983 149.029 111.993C149.141 112.003 149.253 111.991 149.36 111.957C149.467 111.923 149.566 111.869 149.652 111.797C149.737 111.725 149.808 111.637 149.86 111.538C149.911 111.438 149.943 111.33 149.953 111.218C149.963 111.107 149.95 110.994 149.917 110.888C149.883 110.781 149.829 110.682 149.757 110.596C149.264 109.679 148.581 108.877 147.753 108.246C146.925 107.614 145.971 107.167 144.957 106.934C144.282 106.858 143.6 106.955 142.974 107.216C142.348 107.476 141.798 107.891 141.376 108.423C140.955 108.954 140.675 109.584 140.564 110.253C140.453 110.922 140.513 111.609 140.741 112.248C142.013 116.36 148.039 119.048 149.297 120.176C149.438 120.308 149.623 120.382 149.816 120.386C150.009 120.389 150.197 120.32 150.342 120.193C150.488 120.065 150.581 119.889 150.603 119.697C150.626 119.505 150.576 119.311 150.465 119.154Z" fill="#191919"/>
<path d="M115.259 197.37C115.427 197.384 115.765 197.342 116.017 197.334C118.617 197.246 120.563 195.434 124.067 194.296C124.253 194.195 124.47 194.168 124.674 194.223C124.878 194.277 125.053 194.408 125.163 194.588C125.255 194.769 125.276 194.979 125.221 195.175C125.167 195.371 125.04 195.539 124.867 195.646C123.51 197.01 121.909 198.109 120.147 198.884C117.985 199.894 114.245 200.718 113.025 198.752C111.739 196.678 114.283 193.862 116.691 193.216C116.793 193.169 116.902 193.142 117.014 193.138C117.125 193.133 117.236 193.15 117.341 193.189C117.446 193.227 117.542 193.286 117.625 193.361C117.707 193.437 117.773 193.528 117.82 193.629C117.867 193.73 117.894 193.84 117.899 193.951C117.903 194.063 117.886 194.174 117.848 194.279C117.809 194.384 117.751 194.48 117.675 194.562C117.6 194.645 117.509 194.711 117.407 194.758C116.57 195.505 115.846 196.371 115.259 197.328V197.37ZM115.259 197.328C115.175 197.248 115.133 197.19 115.091 197.252C115.091 197.32 115.133 197.352 115.217 197.364C115.119 197.624 115.377 197.624 115.259 197.364H115.217L115.259 197.328Z" fill="#191919"/>
<path d="M142.609 160.742C141.497 160.826 143.111 160.684 135.825 161.186C134.928 161.146 134.052 160.909 133.257 160.492C132.462 160.075 131.768 159.489 131.225 158.774C131.141 158.664 131.057 158.574 131.099 158.46C131.195 158.192 132.007 157.874 132.363 157.762C134.981 156.93 137.963 158.6 141.845 160.348C142.04 160.46 142.272 160.49 142.489 160.431C142.597 160.402 142.697 160.352 142.786 160.284C142.874 160.216 142.948 160.131 143.003 160.034C143.058 159.937 143.094 159.831 143.109 159.72C143.123 159.61 143.115 159.498 143.086 159.39C143.057 159.283 143.007 159.182 142.939 159.094C142.871 159.005 142.786 158.931 142.689 158.876C141.635 158.152 140.539 157.292 139.317 156.592C132.635 152.792 126.439 156.432 129.117 160.382C129.944 161.434 131.001 162.282 132.206 162.863C133.411 163.443 134.733 163.741 136.071 163.732C138.402 163.546 140.698 163.053 142.899 162.264C143.091 162.216 143.257 162.096 143.364 161.929C143.47 161.762 143.509 161.561 143.472 161.366C143.435 161.172 143.325 160.999 143.165 160.883C143.004 160.767 142.805 160.716 142.609 160.742Z" fill="#191919"/>
<path d="M233.474 103.848C232.81 103.89 232.163 104.073 231.575 104.383C230.986 104.693 230.47 105.124 230.06 105.648C229.962 105.726 228.898 106.682 228.626 106.988C228.585 107.08 228.527 107.163 228.453 107.232C228.38 107.301 228.294 107.354 228.2 107.39C228.105 107.425 228.005 107.441 227.905 107.437C227.804 107.433 227.705 107.409 227.614 107.366C227.432 107.275 227.291 107.117 227.221 106.926C227.151 106.735 227.156 106.523 227.236 106.336C227.33 105.522 227.619 104.743 228.078 104.064C228.689 103.238 229.473 102.557 230.376 102.068C231.279 101.579 232.279 101.295 233.304 101.236C233.718 101.208 234.132 101.282 234.512 101.45C234.891 101.619 235.223 101.876 235.48 102.202C235.738 102.527 235.912 102.91 235.988 103.318C236.064 103.726 236.04 104.146 235.918 104.542C235.68 105.386 235.159 106.122 234.442 106.628C234.378 106.719 234.297 106.797 234.203 106.856C234.109 106.915 234.004 106.956 233.894 106.974C233.784 106.993 233.672 106.989 233.563 106.964C233.455 106.939 233.353 106.893 233.262 106.828C233.171 106.763 233.094 106.681 233.036 106.585C232.978 106.49 232.94 106.384 232.924 106.273C232.908 106.162 232.915 106.05 232.944 105.942C232.974 105.834 233.025 105.733 233.094 105.646C233.287 105.189 233.4 104.703 233.43 104.208C233.474 104.04 233.558 103.766 233.474 103.792C233.43 103.792 233.474 103.826 233.474 103.848C233.516 103.848 233.516 103.87 233.516 103.87C233.474 103.88 233.474 103.848 233.474 103.848Z" fill="#191919"/>
<path d="M214.6 186.544C212.222 184.556 209.52 186.52 207.226 188.082C205.778 189.056 205.458 189.282 204.444 188.996C202.62 188.542 199.92 186.95 197.912 187.078C196.352 187.176 195 187.946 194.666 190.408C194.606 190.771 194.592 191.14 194.624 191.506C194.788 192.624 195.159 193.701 195.72 194.682C195.972 195.059 196.27 195.404 196.606 195.71C196.677 195.782 196.762 195.839 196.856 195.878C196.95 195.917 197.051 195.937 197.153 195.937C197.254 195.937 197.355 195.917 197.449 195.878C197.543 195.839 197.628 195.782 197.7 195.71C197.842 195.563 197.921 195.366 197.921 195.162C197.921 194.957 197.842 194.761 197.7 194.614C197.106 193.704 196.771 192.65 196.732 191.564C196.732 190.702 197.054 189.564 197.996 189.564C198.459 189.584 198.917 189.674 199.354 189.83C199.284 191.857 199.595 193.878 200.272 195.79C200.322 195.958 200.416 196.109 200.543 196.23C200.669 196.351 200.825 196.437 200.996 196.48C200.615 196.513 200.233 196.441 199.892 196.27C199.695 196.172 199.468 196.155 199.258 196.221C199.049 196.288 198.873 196.434 198.769 196.627C198.665 196.821 198.641 197.047 198.701 197.259C198.761 197.47 198.901 197.65 199.092 197.76C199.797 198.168 200.599 198.38 201.414 198.375C202.229 198.37 203.027 198.147 203.728 197.73C205.86 196.806 206.094 196.462 207.858 196.884C209.099 197.324 210.428 197.461 211.734 197.284C216.094 196.316 218.33 189.652 214.6 186.544ZM203.466 195.4C202.846 195.82 202.173 196.156 201.466 196.4C201.621 196.309 201.749 196.177 201.834 196.018C201.918 195.859 201.957 195.68 201.946 195.5C201.914 193.845 201.694 192.199 201.292 190.594C202.465 191.162 203.725 191.532 205.02 191.688C205.017 192.628 205.222 193.556 205.62 194.408C204.866 194.654 204.143 194.987 203.466 195.4ZM207.28 194.262C207.388 193.228 207.337 192.184 207.128 191.166C208.035 190.649 208.915 190.087 209.766 189.482C209.759 191.297 210.028 193.102 210.566 194.836C209.668 194.82 208.494 194.358 207.28 194.266V194.262ZM212.192 194.31C212.177 192.344 211.997 190.383 211.652 188.448C211.855 188.341 212.085 188.294 212.315 188.313C212.544 188.332 212.764 188.415 212.948 188.554C214.618 189.928 213.872 193.094 212.2 194.314L212.192 194.31Z" fill="#191919"/>
<path d="M191.034 106.452C190.788 102.28 188.568 99.01 189.012 95.4C189.024 95.0686 189.105 94.7434 189.25 94.4452C189.395 94.1469 189.601 93.8822 189.854 93.668C190.15 93.482 190.454 93.75 190.782 94.24C191.752 95.973 192.367 97.8812 192.594 99.854C192.609 100.071 192.707 100.275 192.868 100.421C193.029 100.568 193.241 100.647 193.459 100.641C193.677 100.635 193.884 100.545 194.037 100.39C194.19 100.234 194.277 100.026 194.28 99.808C194.928 93.42 191.81 90.648 189.518 91.054C188.655 91.3333 187.895 91.8659 187.339 92.5825C186.783 93.2991 186.455 94.1665 186.398 95.072C186.215 96.8095 186.402 98.5658 186.946 100.226C187.42 101.944 188.055 103.615 188.842 105.214C189.101 105.721 189.327 106.244 189.518 106.78C189.567 106.975 189.69 107.143 189.861 107.249C190.032 107.355 190.238 107.391 190.434 107.348C190.631 107.306 190.803 107.189 190.915 107.021C191.027 106.854 191.07 106.65 191.034 106.452Z" fill="#191919"/>
<path d="M198.63 163.302C201.589 163.274 204.528 165.102 205.702 168.816L205.924 169.517L206.494 169.055C207.04 168.612 207.703 168.339 208.402 168.27C209.101 168.202 209.805 168.34 210.426 168.668L210.857 168.896L211.096 168.47C212.795 165.429 215.853 164.52 218.621 165.241C221.399 165.965 223.864 168.332 224.303 171.861L224.304 171.87L224.306 171.878C224.512 173.183 224.437 174.519 224.085 175.793C223.736 177.055 223.123 178.228 222.288 179.236C221.249 180.149 219.981 180.762 218.619 181.008C217.25 181.255 215.84 181.122 214.541 180.624C212.755 179.783 211.33 178.327 210.529 176.522C209.726 174.711 209.605 172.671 210.188 170.777L210.318 170.351L209.91 170.173C209.495 169.99 209.124 169.893 208.775 169.883C208.42 169.872 208.116 169.952 207.841 170.079C207.577 170.201 207.338 170.368 207.119 170.524C206.891 170.687 206.673 170.846 206.412 170.999L206.147 171.154L206.166 171.461C206.262 173.008 205.925 174.551 205.194 175.918C204.463 177.285 203.367 178.422 202.027 179.202C200.688 179.982 199.158 180.373 197.608 180.334C196.068 180.294 194.569 179.83 193.276 178.992C192.18 178.051 191.36 176.829 190.906 175.458C190.449 174.075 190.379 172.594 190.706 171.175L190.865 170.483L190.161 170.565C188.868 170.716 187.561 170.704 186.271 170.529C186.104 170.499 185.978 170.453 185.9 170.4C185.851 170.366 185.825 170.335 185.812 170.299L185.804 170.261C185.801 170.244 185.8 170.231 185.827 170.197C185.865 170.148 185.95 170.076 186.114 169.995C186.443 169.833 186.946 169.706 187.543 169.616C188.724 169.437 190.101 169.426 190.734 169.455L191.104 169.473L191.229 169.123C192.611 165.217 195.669 163.329 198.63 163.302ZM219.772 166.442C218.171 165.546 216.251 165.684 214.653 166.709C212.539 168.065 211.444 170.653 211.463 173.116C211.481 175.588 212.627 178.069 215.153 179.116L215.16 179.119L215.167 179.121C216.147 179.494 217.209 179.602 218.244 179.433C218.952 179.318 219.628 179.073 220.245 178.72V179.184L221.133 178.092C221.819 177.247 222.324 176.271 222.617 175.224C222.874 174.307 222.963 173.353 222.882 172.407L222.837 172.002C222.556 169.206 221.372 167.337 219.772 166.442ZM203.521 167.557C201.944 164.784 199.768 163.595 197.631 164.024C195.539 164.445 193.731 166.376 192.754 169.284C191.943 171.561 191.877 173.952 192.711 175.773C193.131 176.691 193.781 177.463 194.673 177.986C195.564 178.509 196.668 178.765 197.971 178.699L197.97 178.698C201.039 178.556 203.083 176.879 204.019 174.663C204.945 172.47 204.778 169.774 203.522 167.557L203.521 167.557Z" fill="#3EAAFF" stroke="#3EAAFF"/>
<path d="M210.766 171.07C210.122 170.747 209.439 170.509 208.734 170.362C208.734 174.84 209.334 175.012 209.62 182.116C208.524 182.266 207.45 182.544 206.42 182.946C206.306 182.964 206.198 183.004 206.1 183.065C206.003 183.125 205.919 183.205 205.853 183.299C205.788 183.394 205.742 183.5 205.719 183.613C205.695 183.725 205.695 183.841 205.718 183.953C205.741 184.066 205.787 184.172 205.852 184.267C205.917 184.361 206.001 184.441 206.098 184.502C206.195 184.563 206.304 184.604 206.417 184.622C206.531 184.64 206.647 184.634 206.758 184.606C208.235 184.686 209.716 184.625 211.182 184.424C211.483 184.366 211.754 184.203 211.947 183.965C212.14 183.726 212.242 183.427 212.236 183.12C212.237 179.059 211.744 175.012 210.766 171.07Z" fill="#191919"/>
<path d="M226.417 174.52C230.641 166.78 228.403 152.89 219.859 145.704C219.698 145.57 219.504 145.48 219.297 145.443C219.091 145.406 218.878 145.423 218.679 145.492C216.847 146.122 214.037 147.866 212.737 147.748C212.381 147.718 212.487 147.364 212.569 146.986C212.923 146.282 213.829 144.486 214.001 144.186C214.115 144.018 214.185 143.824 214.207 143.623C214.229 143.421 214.202 143.217 214.127 143.028C213.338 140.71 212.155 138.545 210.631 136.628C204.049 128.644 195.673 135.29 189.221 137.816C187.315 138.596 184.285 138.23 181.973 139.036C179.697 139.802 178.401 141.614 176.535 142.672C175.197 143.432 172.435 142.896 170.425 143.512C167.123 144.512 166.111 148.344 170.087 151.696C167.301 154.696 168.949 158.296 173.087 158.758C172.483 159.399 172.068 160.194 171.89 161.057C171.711 161.919 171.775 162.814 172.075 163.642C172.566 164.49 173.295 165.175 174.171 165.612C175.047 166.05 176.033 166.22 177.005 166.102C177.733 166.047 178.453 165.919 179.155 165.72C179.116 168.772 179.51 171.813 180.325 174.754C179.65 175.989 179.412 177.417 179.652 178.804C179.892 180.192 180.594 181.457 181.645 182.394C181.603 182.926 181.603 183.461 181.645 183.994C181.898 186.196 182.393 188.363 183.121 190.456C183.938 193.604 185.686 196.432 188.135 198.57C188.256 198.697 188.411 198.785 188.581 198.824C189.847 201.643 192.081 203.914 194.879 205.224C195.013 208.368 195.123 209.296 195.427 212.024C195.452 212.241 195.56 212.44 195.729 212.58C195.897 212.719 196.113 212.788 196.331 212.772C196.549 212.755 196.752 212.655 196.898 212.492C197.044 212.329 197.121 212.116 197.113 211.898C197.035 210.734 197.147 207.644 197.239 204.398C197.243 204.156 197.173 203.918 197.037 203.717C196.902 203.516 196.708 203.361 196.481 203.274C189.655 200.742 188.363 190.414 188.515 183.118C188.515 182.784 188.39 182.462 188.163 182.217C187.937 181.972 187.626 181.821 187.293 181.794C186.366 181.874 185.435 181.694 184.606 181.272C183.776 180.851 183.081 180.206 182.599 179.41C182.285 178.853 182.124 178.223 182.133 177.584C182.142 176.944 182.321 176.319 182.651 175.771C182.981 175.223 183.45 174.773 184.011 174.466C184.572 174.159 185.204 174.007 185.843 174.024C185.998 174.035 186.154 174.015 186.301 173.964C186.448 173.913 186.583 173.832 186.697 173.727C186.812 173.622 186.903 173.495 186.967 173.353C187.03 173.211 187.064 173.057 187.065 172.902L186.977 171.102C186.697 171.08 186.429 171.048 186.177 171.006C185.111 170.824 184.921 169.876 186.009 169.464C186.294 169.362 186.585 169.28 186.881 169.22L186.767 166.904C186.767 166.697 186.685 166.499 186.539 166.352C186.393 166.206 186.194 166.124 185.987 166.124C185.781 166.124 185.582 166.206 185.436 166.352C185.29 166.499 185.207 166.697 185.207 166.904L184.871 171.756C183.788 171.854 182.755 172.259 181.893 172.922C181.657 170.722 181.293 167.508 180.987 165.144C182.065 164.726 182.987 163.898 184.069 163.344C185.837 162.36 189.375 163.624 192.119 163.498C200.741 163.098 201.939 153.052 208.719 153.418C209.513 156.093 210.826 158.586 212.584 160.754C214.341 162.922 216.508 164.722 218.961 166.052C220.333 166.89 221.472 168.058 222.276 169.45C223.079 170.842 223.521 172.413 223.561 174.02C223.567 174.195 223.628 174.364 223.736 174.502C223.844 174.64 223.993 174.74 224.161 174.788L224.761 174.988C224.633 175.788 224.597 175.048 225.429 176.326C225.909 177.031 226.199 177.847 226.269 178.697C226.34 179.546 226.19 180.4 225.834 181.174C225.478 181.949 224.928 182.618 224.236 183.117C223.545 183.616 222.737 183.928 221.889 184.022C221.562 184.041 221.254 184.184 221.027 184.421C220.8 184.658 220.672 184.972 220.667 185.3C220.708 189.426 219.503 193.469 217.211 196.9C211.187 205.582 201.421 201.872 201.111 203.956C200.895 205.408 204.765 205.356 206.257 205.2C206.503 207.78 206.789 209.6 207.223 212.416C207.244 212.64 207.353 212.846 207.525 212.989C207.698 213.133 207.921 213.202 208.144 213.181C208.368 213.16 208.574 213.052 208.718 212.879C208.861 212.706 208.93 212.484 208.909 212.26L208.697 205.196C217.683 203.576 222.697 195.764 223.237 186.444C224.47 186.154 225.601 185.535 226.51 184.652C227.418 183.77 228.071 182.658 228.397 181.434C228.723 180.21 228.712 178.921 228.363 177.703C228.014 176.486 227.342 175.386 226.417 174.52ZM185.891 184.258C185.879 186.835 186.079 189.41 186.491 191.954C185.432 189.332 184.628 186.614 184.091 183.838C184.678 184.031 185.28 184.172 185.891 184.258ZM191.999 144.628C190.035 145.398 187.525 145.516 185.171 146.526C183.667 147.168 181.935 148.69 180.571 149.258C179.549 149.688 177.253 150.332 177.031 149.228C176.919 148.668 176.931 148.738 180.107 146.704C185.231 142.962 184.877 143.932 191.023 142.304C194.163 141.474 194.557 140.818 195.069 141.592C195.799 142.694 193.141 144.214 191.999 144.628ZM203.503 139.488C202.605 140.101 201.555 140.455 200.469 140.512C200.045 140.554 199.627 140.556 199.415 140.174C199.203 139.792 199.463 139.442 199.753 139.13C200.167 138.719 200.662 138.397 201.205 138.185C201.749 137.973 202.33 137.876 202.913 137.898C203.405 137.898 203.841 137.964 204.009 138.402C204.177 138.84 203.883 139.172 203.507 139.488H203.503Z" fill="#191919"/>
<path d="M468.467 319.71C468.467 319.71 461.403 319.69 449.205 319.682C450.427 301.59 447.243 276.034 437.239 260.828C437.06 260.562 436.79 260.37 436.479 260.289C436.169 260.208 435.839 260.243 435.553 260.388C431.097 262.426 426.454 264.027 421.689 265.168C408.957 268.756 394.183 270.92 381.231 267.944C381.045 267.9 380.852 267.898 380.666 267.937C380.479 267.976 380.303 268.056 380.151 268.17C379.998 268.285 379.872 268.431 379.783 268.599C379.693 268.768 379.641 268.954 379.631 269.144C379.431 275.766 378.747 313.262 378.665 319.868C351.499 320.024 320.573 320.234 289.393 320.452C293.703 317.296 294.805 311.092 296.229 306.052C299.229 294.938 300.445 286.184 302.629 276.172C304.331 268.26 307.343 260.01 306.717 251.71C306.613 249.91 305.993 248.179 304.932 246.721C303.871 245.264 302.413 244.142 300.733 243.49C296.561 241.596 290.829 241.49 286.657 240.938C269.189 238.664 240.291 238.588 222.641 239.564C215.771 239.946 211.221 243.876 208.143 249.29C203.855 256.864 202.835 265.64 199.293 281.216C198.459 285.332 196.929 293.274 195.965 297.154C195.053 302.395 193.857 307.583 192.381 312.694C189.707 312.884 187.251 312.98 184.625 313.044C186.715 311.339 188.648 309.45 190.401 307.4C190.587 307.285 190.721 307.101 190.775 306.889C190.828 306.676 190.797 306.451 190.688 306.261C190.578 306.071 190.399 305.931 190.189 305.871C189.978 305.811 189.752 305.835 189.559 305.938C185.387 307.662 185.023 311.126 179.991 312.168C178.509 312.488 178.311 312.286 174.579 312.768C174.298 307.42 174.403 302.059 174.893 296.726C183.987 297.086 186.351 285.914 194.109 288.694C194.313 288.791 194.547 288.803 194.76 288.729C194.973 288.654 195.148 288.497 195.247 288.294C195.331 288.087 195.335 287.856 195.257 287.646C195.18 287.436 195.026 287.264 194.827 287.162C187.051 282.128 183.611 292.428 175.047 295.006C175.247 292.956 175.517 290.938 175.735 288.96C175.753 288.736 175.697 288.512 175.575 288.323C175.453 288.134 175.272 287.99 175.061 287.914L171.673 286.774C172.101 284.192 172.091 283.542 171.941 272.916C171.941 271.486 171.941 268.316 170.889 268.242C169.837 268.168 169.519 271.516 169.489 271.744C169.252 276.528 169.308 281.323 169.655 286.1L153.515 280.674C153.3 280.601 153.064 280.615 152.859 280.713C152.654 280.811 152.496 280.986 152.419 281.2C152.351 281.415 152.37 281.648 152.472 281.849C152.575 282.051 152.753 282.203 152.967 282.274L173.659 289.494C172.062 299.694 171.878 310.066 173.113 320.316C166.313 320.954 151.435 319.27 147.531 318.506C137.801 316.564 129.171 312.836 125.575 303.53C115.801 278.476 150.497 215.96 193.523 215.376C198.123 215.314 201.973 218.912 205.195 222.176C205.319 222.301 205.468 222.4 205.631 222.467C205.794 222.535 205.97 222.568 206.146 222.567C206.323 222.565 206.497 222.529 206.66 222.459C206.822 222.389 206.968 222.287 207.091 222.16C209.289 219.933 211.022 217.292 212.191 214.39C218.591 214.488 228.523 217.342 242.155 213.84C245.986 212.915 249.634 211.351 252.945 209.214C263.771 201.882 262.929 182.292 253.703 170.922C249.557 166.028 244.355 162.139 238.489 159.546C240.598 152.893 243.321 146.45 246.623 140.3C254.373 141.9 271.037 150.3 276.883 154C303.945 171.1 315.795 208.696 296.395 233.52C296.267 233.676 296.206 233.877 296.226 234.079C296.246 234.28 296.345 234.465 296.502 234.593C296.658 234.721 296.859 234.782 297.06 234.762C297.262 234.742 297.447 234.642 297.575 234.486C318.297 207.964 305.799 169.438 278.231 151.886C270.121 147.071 261.636 142.917 252.859 139.466C250.7 138.644 248.472 138.019 246.201 137.6C245.95 137.557 245.691 137.59 245.459 137.694C245.226 137.799 245.03 137.97 244.895 138.186C244.411 139.002 243.921 139.808 243.469 140.634C242.552 140.096 241.607 139.606 240.639 139.166C236.317 137.344 231.673 136.41 226.983 136.42C222.655 136.494 218.533 137.54 215.941 140.968C215.801 141.116 215.724 141.312 215.724 141.516C215.724 141.72 215.801 141.916 215.941 142.064C216.013 142.136 216.098 142.193 216.193 142.232C216.287 142.271 216.388 142.292 216.49 142.292C216.592 142.292 216.693 142.271 216.787 142.232C216.881 142.193 216.967 142.136 217.039 142.064C219.968 140.066 223.437 139.007 226.983 139.028C231.363 139.152 235.698 139.947 239.837 141.386C240.805 141.676 241.743 141.942 242.637 142.236C240.626 146.408 238.871 150.699 237.381 155.084C235.84 154.101 234.193 153.296 232.471 152.684C231.495 152.342 229.413 152.006 229.141 152.884C228.741 154.168 232.381 155.436 233.609 155.988C234.564 156.501 235.548 156.959 236.555 157.362C236.264 158.162 235.97 158.962 235.673 159.762C235.551 160.068 235.553 160.409 235.679 160.714C235.805 161.018 236.045 161.261 236.347 161.392C249.237 167.192 257.399 176.192 258.221 190.018C258.561 196.418 256.775 203.478 251.477 207.054C244.349 211.896 233.643 213.224 225.053 212.922C220.453 212.76 215.951 211.686 211.231 211.77C210.944 211.777 210.666 211.875 210.439 212.051C210.211 212.226 210.046 212.47 209.967 212.746C209.161 215.202 207.839 217.457 206.089 219.36C202.489 215.864 198.527 212.698 193.531 212.76C148.799 213.378 112.731 277.576 123.233 304.45C127.555 315.572 138.545 319.896 150.633 321.508C141.679 321.61 96.7608 322.308 96.7608 322.308C95.7748 322.308 95.7248 322.636 96.8028 322.63H468.509C468.973 322.63 469.353 321.018 469.353 320.55C469.343 320.322 469.245 320.108 469.08 319.951C468.914 319.794 468.695 319.708 468.467 319.71ZM285.521 320.384C284.603 320.624 253.023 320.628 175.641 321.272C175.222 319.317 174.944 317.335 174.811 315.34C182.521 314.712 183.647 315.396 193.227 314.858C193.437 314.842 193.638 314.769 193.809 314.646C193.98 314.522 194.114 314.354 194.195 314.16C196.375 308.63 196.995 303.342 198.369 297.744C199.315 293.892 199.187 294.398 201.781 281.774C205.431 265.73 206.335 257.728 210.421 250.586C213.077 245.946 216.869 242.5 222.769 242.174C240.043 241.226 269.075 241.284 286.321 243.52C293.905 244.502 303.533 244.176 304.149 251.932C304.791 259.89 301.841 267.662 300.187 275.658C298.307 284.538 296.529 296.512 294.203 305.52C292.675 311.502 291.579 318.854 285.521 320.384ZM406.401 287.726C405.945 292.864 406.401 306.022 406.401 311.914C406.401 314.662 406.171 316.978 406.147 318.02C406.149 318.249 406.06 318.47 405.899 318.633C405.739 318.797 405.52 318.89 405.291 318.892C405.062 318.894 404.841 318.805 404.678 318.645C404.514 318.484 404.421 318.265 404.419 318.036C404.343 316.932 403.997 313.33 403.913 311.976C403.695 308.452 403.363 294.912 403.829 288.322C401.842 287.183 399.967 285.86 398.229 284.37C398.071 284.245 397.964 284.067 397.927 283.868C397.89 283.67 397.926 283.466 398.029 283.292C398.15 283.123 398.332 283.007 398.536 282.97C398.741 282.933 398.952 282.976 399.125 283.092C400.989 284.122 405.095 286.188 405.741 286.492C405.961 286.609 406.141 286.789 406.259 287.009C406.376 287.228 406.426 287.478 406.401 287.726Z" fill="#191919"/>
<path d="M377.721 143.563C399.611 142.886 422.526 148.557 442.907 156.693V156.694C443.01 156.738 443.103 156.802 443.181 156.883C443.258 156.964 443.318 157.06 443.357 157.165C443.397 157.27 443.414 157.382 443.409 157.494C443.404 157.606 443.376 157.716 443.328 157.817C436.349 171.46 433.383 187 432.367 202.168C432.339 202.38 432.235 202.574 432.075 202.715C431.921 202.843 431.843 202.866 431.745 202.874C431.587 202.887 431.385 202.858 430.937 202.804L430.255 202.721L430.386 203.396C432.451 214.023 435.449 224.291 438.627 234.906L439.998 239.478C440.018 239.546 440.011 239.62 439.978 239.684C439.944 239.747 439.886 239.795 439.817 239.817C439.749 239.838 439.674 239.833 439.61 239.8C439.546 239.767 439.498 239.71 439.476 239.642L439.473 239.633L438.665 237.323C434.937 226.526 431.785 215.539 429.222 204.408L428.681 202.022C428.658 201.913 428.662 201.799 428.692 201.692C428.723 201.583 428.778 201.483 428.855 201.401C428.933 201.318 429.029 201.255 429.136 201.218C429.242 201.181 429.356 201.17 429.468 201.187L429.487 201.189L430.413 201.289L430.93 201.345L430.966 200.826C431.963 186.467 434.89 171.32 441.283 158.355L441.524 157.866L441.017 157.668C421.406 150.003 399.384 144.63 378.366 145.156L378.126 145.162L377.98 145.354C377.165 146.429 376.219 147.923 375.17 149.509C374.113 151.107 372.936 152.823 371.635 154.391C369.008 157.557 365.984 159.983 362.542 159.807L361.523 159.755L362.106 160.592C364.359 163.826 366.781 166.938 369.361 169.917L369.849 170.481L370.185 169.816C374.128 162.026 378.913 154.692 384.453 147.944L384.459 147.937C384.522 147.858 384.612 147.806 384.712 147.792C384.805 147.78 384.898 147.802 384.977 147.853C385.042 147.912 385.084 147.993 385.094 148.081C385.104 148.174 385.077 148.267 385.021 148.341L385.014 148.35L385.007 148.36C382.408 152.083 378.779 157.913 376.051 162.517L376.05 162.519C373.123 167.501 371.839 170.101 371.131 171.46C370.765 172.163 370.586 172.462 370.443 172.611C370.388 172.668 370.35 172.688 370.312 172.702C370.286 172.712 370.254 172.721 370.21 172.729L370.032 172.752C369.9 172.764 369.767 172.744 369.646 172.692C369.523 172.639 369.415 172.557 369.332 172.452L369.327 172.447C366.822 169.391 364.197 166.309 362.187 163.526L361.481 162.55L361.287 163.738C359.186 176.565 363.709 190.995 367.664 203.168V203.169C372.47 218.322 387.013 264.209 388.337 268.707L388.438 269.046L388.79 269.066C406.348 270 423.858 266.5 439.707 258.887L439.714 258.883C439.805 258.838 439.91 258.829 440.007 258.859C440.099 258.886 440.176 258.947 440.228 259.029C440.263 259.109 440.27 259.2 440.242 259.284C440.213 259.374 440.148 259.448 440.064 259.49L440.059 259.493L440.052 259.497C416.279 272.435 386.691 273.655 361.836 266.106L361.834 266.105C361.76 266.083 361.663 266.062 361.651 266.06L361.649 266.059C361.629 266.037 361.58 265.975 361.497 265.829C361.228 265.359 360.77 264.314 359.797 261.931C357.861 257.19 353.948 247.301 345.555 226.529L345.133 225.485L344.641 226.497C342.273 231.375 341.15 234.094 340.479 235.612C340.137 236.384 339.931 236.798 339.754 237.039C339.672 237.15 339.609 237.207 339.556 237.242C339.503 237.277 339.437 237.306 339.329 237.331L339.324 237.332C339.216 237.359 339.103 237.36 338.994 237.337C338.912 237.32 338.834 237.289 338.763 237.246L338.693 237.199C336.417 235.451 313.964 218.276 310.165 215.336L310.153 215.327L310.142 215.32L310.099 215.283C310.086 215.27 310.074 215.256 310.064 215.24C310.044 215.209 310.031 215.174 310.025 215.137C310.019 215.1 310.021 215.063 310.029 215.027C310.038 214.991 310.054 214.957 310.076 214.927C310.098 214.897 310.126 214.872 310.158 214.854C310.19 214.835 310.226 214.822 310.263 214.818C310.3 214.813 310.337 214.816 310.373 214.826C310.409 214.837 310.442 214.854 310.471 214.877L310.494 214.895C316.354 219.09 334.934 232.494 338.343 235.05L338.837 235.42L339.097 234.861C341.105 230.524 342.507 227.076 344.212 223.905L344.558 223.274C344.63 223.144 344.737 223.036 344.867 222.965C344.997 222.894 345.146 222.861 345.294 222.87C345.442 222.879 345.585 222.93 345.705 223.016C345.826 223.102 345.919 223.221 345.976 223.359C349.791 233.151 360.89 260.507 362.579 264.458L362.672 264.675L362.896 264.741C370.709 267.055 378.761 268.471 386.895 268.961L387.635 269.006L387.398 268.303C385.885 263.802 370.974 218.788 366.129 203.654C361.989 190.647 357.388 176.793 360.589 163.439L360.953 161.922L359.775 162.945C356.676 165.636 353.792 168.568 351.152 171.712L351.146 171.72C351.045 171.845 350.908 171.935 350.754 171.98C350.6 172.024 350.436 172.019 350.284 171.967C350.133 171.915 350 171.818 349.906 171.688C349.812 171.558 349.761 171.402 349.759 171.241V171.239L349.748 170.229C349.728 165.177 350.238 160.136 351.272 155.189L351.469 154.247L350.586 154.626C340.441 158.98 332.935 166.428 326.795 175.24C320.66 184.046 315.868 194.247 311.173 204.123L311.172 204.125C311.134 204.207 311.065 204.27 310.98 204.3C310.896 204.33 310.804 204.326 310.723 204.288C310.641 204.25 310.578 204.181 310.548 204.097C310.517 204.013 310.521 203.919 310.56 203.838L310.559 203.837C314.343 195.851 317.803 187.604 322.17 180.079C330.812 165.39 341.283 154.715 357.683 150.585L357.687 150.584C357.799 150.555 357.917 150.551 358.031 150.573C358.146 150.596 358.254 150.644 358.348 150.713C358.441 150.783 358.518 150.873 358.572 150.976C358.626 151.079 358.657 151.193 358.661 151.309C358.611 153.259 359.134 155.182 360.169 156.837L360.181 156.856L360.193 156.872C360.682 157.522 361.333 157.97 362.162 158.132C362.978 158.292 363.92 158.167 364.986 157.762C367.701 156.733 369.897 154.225 371.811 151.548C372.773 150.202 373.684 148.784 374.559 147.459C375.438 146.127 376.279 144.889 377.12 143.87L377.126 143.864C377.198 143.774 377.288 143.699 377.391 143.648C377.493 143.596 377.607 143.568 377.722 143.564L377.721 143.563ZM356.617 152.501C355.073 152.936 353.582 153.432 352.144 153.99L351.632 154.189L351.878 154.68C351.909 154.741 351.916 154.759 351.917 154.763C351.915 154.755 351.92 154.765 351.915 154.842C351.903 155.032 351.86 155.316 351.788 156.042C351.65 157.438 351.436 160.265 351.281 166.316V167.607L350.628 168.312H352.281V168C354.897 165.191 357.681 162.542 360.617 160.069L361.104 159.658L360.59 159.282C359.591 158.552 358.772 157.603 358.193 156.509C357.615 155.415 357.294 154.202 357.253 152.965L357.231 152.327L356.617 152.501Z" fill="#3EAAFF" stroke="#3EAAFF"/>
<path d="M446.383 204.022C441.748 202.298 437.004 200.878 432.183 199.772C431.982 199.741 431.8 199.634 431.675 199.473C431.549 199.312 431.49 199.109 431.509 198.906C431.546 198.703 431.657 198.521 431.821 198.397C431.985 198.272 432.19 198.214 432.395 198.234C438.683 198.922 442.369 200.602 448.241 202C448.564 202.09 448.838 202.304 449.004 202.595C449.17 202.886 449.213 203.231 449.125 203.554C445.359 216.896 438.697 237.12 442.383 251.476C445.617 264.076 458.899 266.696 468.511 259.676C468.6 259.61 468.701 259.561 468.808 259.534C468.915 259.506 469.027 259.5 469.136 259.516C469.246 259.531 469.351 259.568 469.446 259.625C469.542 259.681 469.625 259.756 469.691 259.844C469.758 259.933 469.806 260.033 469.834 260.14C469.861 260.248 469.867 260.359 469.852 260.469C469.836 260.578 469.799 260.684 469.743 260.779C469.686 260.874 469.612 260.958 469.523 261.024C457.627 270.266 443.479 265.736 439.897 252.134C436.179 238.032 442.125 217.934 446.383 204.022Z" fill="#191919"/>
<path d="M155.191 114.256C155.215 115.424 155.572 116.564 156.222 117.551C156.873 118.539 157.794 119.337 158.883 119.858C160.437 120.622 162.16 121.013 163.905 121C165.875 120.999 167.808 120.487 169.499 119.518C170.556 118.939 171.43 118.096 172.027 117.079C172.624 116.061 172.921 114.907 172.888 113.74C172.855 112.573 172.492 111.437 171.838 110.452C171.183 109.467 170.263 108.671 169.174 108.149C167.522 107.351 165.689 106.957 163.839 107.004C161.99 107.05 160.181 107.536 158.574 108.416C157.505 108.996 156.623 109.849 156.026 110.879C155.428 111.91 155.14 113.078 155.191 114.256Z" fill="#3298F4" fill-opacity="0.99"/>
<path d="M173.293 128.159C173.318 128.945 173.563 129.709 174.003 130.372C174.442 131.034 175.06 131.571 175.79 131.925C176.788 132.432 177.903 132.691 179.032 132.678C180.305 132.699 181.56 132.391 182.667 131.787C183.355 131.404 183.927 130.855 184.326 130.195C184.725 129.534 184.937 128.785 184.941 128.021V127.883C184.914 127.099 184.667 126.335 184.228 125.673C183.789 125.011 183.173 124.474 182.444 124.118C181.374 123.601 180.187 123.346 178.99 123.377C177.792 123.407 176.621 123.722 175.581 124.293C174.875 124.683 174.291 125.247 173.888 125.927C173.486 126.607 173.281 127.378 173.293 128.159Z" fill="#3298F4" fill-opacity="0.99"/>
<path d="M151.007 39.2373C144.218 37.9406 136.491 37.8605 129.118 39.2637H129.116C122.326 40.5486 116.572 42.9766 112.601 46.0889L111.662 46.8252L110.527 46.4561C106.618 45.1834 102.268 44.3521 97.7344 44.0244C93.2021 43.6969 88.6004 43.8803 84.2051 44.5615C79.8076 45.2431 75.7313 46.4056 72.2109 47.9609C68.6854 49.5186 65.8364 51.4171 63.7773 53.5L63.7754 53.502C61.9586 55.3356 60.9616 57.2411 60.6621 59.0713C60.3668 60.8764 60.7266 62.7429 61.835 64.5986C62.8774 66.3156 64.5719 68.0029 66.9229 69.5146L66.9785 69.5508L67.0322 69.5898C67.2409 69.7421 67.5257 69.9178 67.918 70.1465L67.9238 70.1504C68.3205 70.3834 68.7399 70.6109 69.1807 70.832L72.4277 72.4609L69.5117 74.6289C66.7536 76.6794 65.1089 78.9386 64.4639 81.1348C63.8338 83.2802 64.1147 85.4998 65.4072 87.6895C67.7508 91.6093 73.2139 94.9439 80.665 96.8447C88.0256 98.7224 96.9025 99.0826 105.472 97.4443L105.475 97.4434L106.221 97.2969C107.953 96.9425 109.626 96.5102 111.223 96.0049L111.93 95.7812L112.631 96.0234C117.722 97.7865 123.627 98.7421 129.691 98.7607C137.044 98.6921 144.163 97.4281 150.178 95.1543L150.934 94.8682L151.698 95.1318C155.896 96.5788 160.649 97.4959 165.61 97.7988C170.571 98.1017 175.583 97.7807 180.278 96.8662L180.302 96.8623C188.489 95.3552 195.091 92.1937 198.94 88.249L198.947 88.2422L198.954 88.2363L199.285 87.8916C200.895 86.1649 201.791 84.3831 202.074 82.667C202.372 80.8602 202.014 78.992 200.905 77.1348C200.506 76.4932 200.024 75.8547 199.46 75.2246L197.593 73.1396L200.038 71.7764C203.888 69.6307 206.356 67.0566 207.46 64.4805C208.527 61.9919 208.365 59.4158 206.898 56.9004C204.613 53.1647 199.468 49.9542 192.439 48.0225C185.48 46.1098 177.058 45.565 168.785 46.8252L167.71 46.9893L166.917 46.2451C163.491 43.0332 157.839 40.5423 151.007 39.2373Z" fill="#3EAAFF" stroke="#3EAAFF" stroke-width="4.47606"/>
<path d="M79.5481 67L78.4146 56.8182H80.0304L80.7065 64.7031H80.801L84.1717 56.8182H85.7725L86.5282 64.7081H86.6277L89.9089 56.8182H91.5297L87.0105 67H85.4643L84.5943 59.3736H84.5147L81.0993 67H79.5481ZM93.6401 67.1541C92.891 67.1541 92.2712 66.9934 91.7807 66.6719C91.2935 66.3471 90.9521 65.8913 90.7566 65.3047C90.561 64.7147 90.5295 64.0237 90.6621 63.2315C90.7914 62.4493 91.0516 61.7599 91.4426 61.1634C91.8337 60.5668 92.321 60.1011 92.9043 59.7663C93.4909 59.4316 94.1389 59.2642 94.8482 59.2642C95.2791 59.2642 95.6851 59.3355 96.0662 59.478C96.4507 59.6205 96.7772 59.8442 97.0456 60.1491C97.3141 60.4541 97.4997 60.8501 97.6025 61.3374C97.7085 61.8213 97.7052 62.4096 97.5925 63.1023L97.508 63.6293H91.4327L91.6067 62.5156H96.2203C96.29 62.1245 96.2717 61.7782 96.1657 61.4766C96.0596 61.1716 95.8773 60.9313 95.6188 60.7557C95.3636 60.58 95.0421 60.4922 94.6543 60.4922C94.2566 60.4922 93.8854 60.5966 93.5407 60.8054C93.196 61.0142 92.9076 61.281 92.6756 61.6058C92.4469 61.9273 92.3027 62.2588 92.2431 62.6001L92.0691 63.6193C91.9829 64.1761 91.9978 64.6236 92.1138 64.9616C92.2331 65.2997 92.4419 65.545 92.7402 65.6974C93.0385 65.8499 93.4114 65.9261 93.8588 65.9261C94.1472 65.9261 94.414 65.8864 94.6593 65.8068C94.9078 65.724 95.1283 65.603 95.3205 65.4439C95.5127 65.2815 95.6735 65.0793 95.8027 64.8374L97.165 65.0909C96.9827 65.5052 96.7208 65.8681 96.3794 66.1797C96.0381 66.4879 95.6354 66.7282 95.1713 66.9006C94.7106 67.0696 94.2002 67.1541 93.6401 67.1541ZM98.6129 67L99.8857 59.3636H101.372L100.099 67H98.6129ZM100.94 58.1705C100.681 58.1705 100.462 58.0843 100.283 57.9119C100.108 57.7363 100.027 57.5275 100.04 57.2855C100.053 57.0402 100.156 56.8314 100.348 56.6591C100.54 56.4834 100.764 56.3956 101.019 56.3956C101.278 56.3956 101.495 56.4834 101.67 56.6591C101.846 56.8314 101.929 57.0402 101.919 57.2855C101.906 57.5275 101.803 57.7363 101.611 57.9119C101.422 58.0843 101.198 58.1705 100.94 58.1705ZM102.099 67L103.372 59.3636H104.809L104.605 60.5767H104.684C104.89 60.1657 105.19 59.8426 105.584 59.6072C105.979 59.3686 106.4 59.2493 106.847 59.2493C106.943 59.2493 107.053 59.2526 107.175 59.2592C107.298 59.2625 107.397 59.2708 107.474 59.2841L107.235 60.706C107.179 60.6894 107.076 60.6712 106.927 60.6513C106.778 60.6281 106.623 60.6165 106.464 60.6165C106.116 60.6165 105.793 60.6911 105.495 60.8402C105.197 60.986 104.946 61.1899 104.744 61.4517C104.542 61.7102 104.411 62.0052 104.351 62.3366L103.586 67H102.099ZM110.075 67.1491C109.455 67.1491 108.93 66.9917 108.499 66.6768C108.071 66.3587 107.768 65.9062 107.589 65.3196C107.413 64.7296 107.394 64.022 107.529 63.1967C107.669 62.3714 107.926 61.6655 108.3 61.0788C108.675 60.4922 109.129 60.0431 109.662 59.7315C110.196 59.42 110.771 59.2642 111.387 59.2642C111.861 59.2642 112.229 59.3438 112.491 59.5028C112.756 59.6586 112.952 59.8409 113.078 60.0497C113.204 60.2585 113.298 60.4425 113.361 60.6016H113.446L114.077 56.8182H115.564L113.873 67H112.422L112.625 65.8118H112.501C112.385 65.9742 112.224 66.1598 112.019 66.3686C111.817 66.5774 111.558 66.7597 111.243 66.9155C110.928 67.0713 110.539 67.1491 110.075 67.1491ZM110.577 65.8814C111.005 65.8814 111.387 65.7687 111.725 65.5433C112.067 65.3146 112.35 64.9981 112.576 64.5938C112.804 64.1894 112.963 63.7187 113.053 63.1818C113.142 62.6515 113.141 62.1875 113.048 61.7898C112.955 61.392 112.776 61.0821 112.511 60.8601C112.246 60.638 111.896 60.527 111.462 60.527C111.015 60.527 110.625 60.643 110.294 60.875C109.962 61.107 109.69 61.4235 109.478 61.8246C109.27 62.2256 109.124 62.678 109.041 63.1818C108.955 63.6922 108.951 64.1513 109.031 64.5589C109.11 64.9666 109.278 65.2898 109.533 65.5284C109.788 65.7637 110.136 65.8814 110.577 65.8814ZM117.094 67.0945C116.815 67.0945 116.583 66.9983 116.398 66.8061C116.215 66.6139 116.126 66.3786 116.129 66.1001C116.132 65.825 116.235 65.5947 116.437 65.4091C116.643 65.2202 116.881 65.1257 117.153 65.1257C117.425 65.1257 117.657 65.2218 117.849 65.4141C118.041 65.6063 118.131 65.835 118.118 66.1001C118.108 66.2857 118.055 66.4548 117.959 66.6072C117.866 66.7564 117.743 66.8757 117.591 66.9652C117.438 67.0514 117.273 67.0945 117.094 67.0945ZM121.058 67.0945C120.78 67.0945 120.548 66.9983 120.362 66.8061C120.18 66.6139 120.091 66.3786 120.094 66.1001C120.097 65.825 120.2 65.5947 120.402 65.4091C120.608 65.2202 120.846 65.1257 121.118 65.1257C121.39 65.1257 121.622 65.2218 121.814 65.4141C122.006 65.6063 122.096 65.835 122.083 66.1001C122.073 66.2857 122.02 66.4548 121.923 66.6072C121.831 66.7564 121.708 66.8757 121.556 66.9652C121.403 67.0514 121.237 67.0945 121.058 67.0945ZM130.806 56.8182L129.116 67H127.58L129.27 56.8182H130.806ZM136.071 59.3636L135.877 60.5568H131.706L131.9 59.3636H136.071ZM133.317 57.5341H134.804L133.6 64.7578C133.554 65.0462 133.562 65.2633 133.625 65.4091C133.688 65.5516 133.784 65.6494 133.914 65.7024C134.046 65.7521 134.194 65.777 134.356 65.777C134.475 65.777 134.58 65.7687 134.669 65.7521C134.759 65.7356 134.83 65.7223 134.883 65.7124L134.963 66.9403C134.863 66.9735 134.729 67.0066 134.56 67.0398C134.394 67.0762 134.192 67.0961 133.953 67.0994C133.562 67.1061 133.209 67.0365 132.895 66.8906C132.58 66.7415 132.344 66.5161 132.189 66.2145C132.033 65.9096 131.995 65.5268 132.074 65.0661L133.317 57.5341ZM141.804 67L140.829 59.3636H142.365L142.927 64.9716H143.002L145.438 59.3636H146.974L147.531 64.9467H147.605L150.027 59.3636H151.563L148.048 67H146.532L145.895 61.4865H145.781L143.315 67H141.804ZM154.72 67.1541C153.994 67.1541 153.387 66.9884 152.9 66.657C152.413 66.3222 152.07 65.8549 151.871 65.255C151.676 64.6518 151.642 63.9508 151.772 63.152C151.898 62.3698 152.151 61.687 152.532 61.1037C152.917 60.5204 153.397 60.0679 153.974 59.7464C154.554 59.425 155.199 59.2642 155.908 59.2642C156.634 59.2642 157.239 59.4316 157.723 59.7663C158.21 60.1011 158.553 60.5701 158.752 61.1733C158.951 61.7765 158.985 62.4792 158.856 63.2812C158.73 64.0568 158.473 64.7363 158.086 65.3196C157.701 65.8996 157.221 66.3504 156.644 66.6719C156.067 66.9934 155.426 67.1541 154.72 67.1541ZM154.804 65.9062C155.282 65.9062 155.698 65.7803 156.052 65.5284C156.41 65.2765 156.702 64.9418 156.927 64.5241C157.153 64.1065 157.307 63.6491 157.39 63.152C157.466 62.6714 157.464 62.2322 157.385 61.8345C157.308 61.4335 157.143 61.112 156.887 60.87C156.632 60.6281 156.278 60.5071 155.824 60.5071C155.346 60.5071 154.927 60.6347 154.566 60.8899C154.208 61.1418 153.916 61.4782 153.691 61.8991C153.469 62.3201 153.318 62.7791 153.238 63.2763C153.162 63.7536 153.162 64.1927 153.238 64.5938C153.315 64.9915 153.48 65.3097 153.735 65.5483C153.991 65.7869 154.347 65.9062 154.804 65.9062ZM159.904 67L161.177 59.3636H162.613L162.41 60.5767H162.489C162.695 60.1657 162.995 59.8426 163.389 59.6072C163.783 59.3686 164.204 59.2493 164.652 59.2493C164.748 59.2493 164.857 59.2526 164.98 59.2592C165.103 59.2625 165.202 59.2708 165.278 59.2841L165.04 60.706C164.983 60.6894 164.881 60.6712 164.731 60.6513C164.582 60.6281 164.428 60.6165 164.269 60.6165C163.921 60.6165 163.598 60.6911 163.3 60.8402C163.001 60.986 162.751 61.1899 162.549 61.4517C162.347 61.7102 162.216 62.0052 162.156 62.3366L161.39 67H159.904ZM167.099 64.4098L167.382 62.5952H167.646L171.235 59.3636H173.015L168.939 63.0426H168.705L167.099 64.4098ZM165.304 67L166.995 56.8182H168.481L166.791 67H165.304ZM170.127 67L167.999 63.3707L169.187 62.3317L171.951 67H170.127ZM176.054 67.1541C175.305 67.1541 174.685 66.9934 174.195 66.6719C173.708 66.3471 173.366 65.8913 173.171 65.3047C172.975 64.7147 172.944 64.0237 173.076 63.2315C173.205 62.4493 173.466 61.7599 173.857 61.1634C174.248 60.5668 174.735 60.1011 175.318 59.7663C175.905 59.4316 176.553 59.2642 177.262 59.2642C177.693 59.2642 178.099 59.3355 178.48 59.478C178.865 59.6205 179.191 59.8442 179.46 60.1491C179.728 60.4541 179.914 60.8501 180.017 61.3374C180.123 61.8213 180.119 62.4096 180.007 63.1023L179.922 63.6293H173.847L174.021 62.5156H178.634C178.704 62.1245 178.686 61.7782 178.58 61.4766C178.474 61.1716 178.291 60.9313 178.033 60.7557C177.778 60.58 177.456 60.4922 177.068 60.4922C176.671 60.4922 176.299 60.5966 175.955 60.8054C175.61 61.0142 175.322 61.281 175.09 61.6058C174.861 61.9273 174.717 62.2588 174.657 62.6001L174.483 63.6193C174.397 64.1761 174.412 64.6236 174.528 64.9616C174.647 65.2997 174.856 65.545 175.154 65.6974C175.453 65.8499 175.825 65.9261 176.273 65.9261C176.561 65.9261 176.828 65.8864 177.073 65.8068C177.322 65.724 177.542 65.603 177.735 65.4439C177.927 65.2815 178.088 65.0793 178.217 64.8374L179.579 65.0909C179.397 65.5052 179.135 65.8681 178.794 66.1797C178.452 66.4879 178.049 66.7282 177.585 66.9006C177.125 67.0696 176.614 67.1541 176.054 67.1541ZM183.876 67.1491C183.256 67.1491 182.731 66.9917 182.3 66.6768C181.872 66.3587 181.569 65.9062 181.39 65.3196C181.214 64.7296 181.194 64.022 181.33 63.1967C181.469 62.3714 181.726 61.6655 182.101 61.0788C182.475 60.4922 182.929 60.0431 183.463 59.7315C183.997 59.42 184.572 59.2642 185.188 59.2642C185.662 59.2642 186.03 59.3438 186.292 59.5028C186.557 59.6586 186.753 59.8409 186.879 60.0497C187.004 60.2585 187.099 60.4425 187.162 60.6016H187.246L187.878 56.8182H189.364L187.674 67H186.222L186.426 65.8118H186.302C186.186 65.9742 186.025 66.1598 185.82 66.3686C185.617 66.5774 185.359 66.7597 185.044 66.9155C184.729 67.0713 184.34 67.1491 183.876 67.1491ZM184.378 65.8814C184.805 65.8814 185.188 65.7687 185.526 65.5433C185.868 65.3146 186.151 64.9981 186.376 64.5938C186.605 64.1894 186.764 63.7187 186.854 63.1818C186.943 62.6515 186.942 62.1875 186.849 61.7898C186.756 61.392 186.577 61.0821 186.312 60.8601C186.047 60.638 185.697 60.527 185.263 60.527C184.815 60.527 184.426 60.643 184.094 60.875C183.763 61.107 183.491 61.4235 183.279 61.8246C183.07 62.2256 182.924 62.678 182.842 63.1818C182.755 63.6922 182.752 64.1513 182.832 64.5589C182.911 64.9666 183.079 65.2898 183.334 65.5284C183.589 65.7637 183.937 65.8814 184.378 65.8814ZM80.612 71.8182L78.9217 82H77.4352L79.1255 71.8182H80.612ZM84.1729 82.1541C83.4471 82.1541 82.8406 81.9884 82.3533 81.657C81.8661 81.3222 81.5231 80.8549 81.3242 80.255C81.1287 79.6518 81.0955 78.9508 81.2248 78.152C81.3507 77.3698 81.6043 76.687 81.9854 76.1037C82.3699 75.5204 82.8505 75.0679 83.4272 74.7464C84.0072 74.425 84.6519 74.2642 85.3612 74.2642C86.087 74.2642 86.6919 74.4316 87.1758 74.7663C87.663 75.1011 88.006 75.5701 88.2049 76.1733C88.4038 76.7765 88.4386 77.4792 88.3093 78.2812C88.1834 79.0568 87.9265 79.7363 87.5387 80.3196C87.1542 80.8996 86.6737 81.3504 86.0969 81.6719C85.5202 81.9934 84.8789 82.1541 84.1729 82.1541ZM84.2575 80.9062C84.7347 80.9062 85.1507 80.7803 85.5053 80.5284C85.8633 80.2765 86.1549 79.9418 86.3803 79.5241C86.6057 79.1065 86.7598 78.6491 86.8427 78.152C86.9189 77.6714 86.9173 77.2322 86.8377 76.8345C86.7615 76.4335 86.5958 76.112 86.3406 75.87C86.0853 75.6281 85.7307 75.5071 85.2766 75.5071C84.7994 75.5071 84.3801 75.6347 84.0188 75.8899C83.6609 76.1418 83.3692 76.4782 83.1438 76.8991C82.9218 77.3201 82.771 77.7791 82.6914 78.2763C82.6152 78.7536 82.6152 79.1927 82.6914 79.5938C82.7676 79.9915 82.9334 80.3097 83.1886 80.5483C83.4438 80.7869 83.8001 80.9062 84.2575 80.9062ZM92.5538 82.1541C91.8114 82.1541 91.2032 81.9867 90.7292 81.652C90.2553 81.3139 89.9255 80.8482 89.7399 80.255C89.5543 79.6617 89.5244 78.9822 89.6504 78.2166C89.7763 77.4411 90.0332 76.7566 90.421 76.1634C90.8121 75.5668 91.301 75.1011 91.8876 74.7663C92.4776 74.4316 93.1322 74.2642 93.8514 74.2642C94.4314 74.2642 94.9302 74.3719 95.3478 74.5874C95.7654 74.7995 96.082 75.0978 96.2974 75.4822C96.5128 75.8667 96.6056 76.3158 96.5758 76.8295H95.1291C95.1059 76.4716 94.9733 76.1634 94.7314 75.9048C94.4894 75.6463 94.1331 75.517 93.6625 75.517C93.2482 75.517 92.867 75.6264 92.519 75.8452C92.171 76.0606 91.8777 76.3688 91.639 76.7699C91.4004 77.1676 91.238 77.6383 91.1518 78.1818C91.059 78.7386 91.064 79.2192 91.1667 79.6236C91.2695 80.0279 91.4584 80.3411 91.7335 80.5632C92.0086 80.7853 92.3549 80.8963 92.7725 80.8963C93.0576 80.8963 93.3227 80.8449 93.568 80.7422C93.8166 80.6361 94.0353 80.4853 94.2243 80.2898C94.4165 80.0942 94.5656 79.8589 94.6717 79.5838H96.1234C95.9809 80.0777 95.7422 80.5185 95.4075 80.9062C95.0761 81.294 94.6684 81.599 94.1845 81.821C93.7006 82.0431 93.157 82.1541 92.5538 82.1541ZM99.5028 82.169C99.0189 82.169 98.5964 82.0795 98.2351 81.9006C97.8738 81.7183 97.607 81.4548 97.4347 81.1101C97.2623 80.7654 97.2176 80.3428 97.3004 79.8423C97.3733 79.4115 97.5159 79.0568 97.728 78.7784C97.9434 78.5 98.2053 78.2796 98.5135 78.1172C98.8217 77.9515 99.1565 77.8272 99.5178 77.7443C99.879 77.6615 100.244 77.6001 100.612 77.5604C101.076 77.5073 101.452 77.4626 101.74 77.4261C102.032 77.3897 102.25 77.3333 102.396 77.2571C102.542 77.1776 102.63 77.0483 102.66 76.8693V76.8345C102.729 76.4036 102.666 76.0689 102.471 75.8303C102.279 75.5883 101.944 75.4673 101.467 75.4673C100.969 75.4673 100.552 75.5767 100.214 75.7955C99.879 76.0142 99.6321 76.2595 99.473 76.5312L98.1406 76.2131C98.3793 75.7491 98.6825 75.3745 99.0504 75.0895C99.4216 74.8011 99.8277 74.5923 100.268 74.4631C100.709 74.3305 101.16 74.2642 101.621 74.2642C101.926 74.2642 102.242 74.3007 102.57 74.3736C102.898 74.4432 103.197 74.5724 103.465 74.7614C103.737 74.9503 103.939 75.2204 104.072 75.5717C104.204 75.9197 104.224 76.3722 104.131 76.929L103.291 82H101.839L102.018 80.956H101.959C101.833 81.1482 101.657 81.3371 101.432 81.5227C101.21 81.7083 100.938 81.8625 100.616 81.9851C100.295 82.1077 99.9238 82.169 99.5028 82.169ZM100.01 80.9759C100.424 80.9759 100.79 80.8946 101.109 80.7322C101.43 80.5698 101.69 80.3577 101.889 80.0959C102.088 79.8307 102.212 79.5473 102.262 79.2457L102.426 78.2614C102.363 78.3144 102.252 78.3625 102.093 78.4055C101.937 78.4486 101.762 78.4867 101.566 78.5199C101.371 78.553 101.178 78.5812 100.989 78.6044C100.804 78.6276 100.65 78.6491 100.527 78.669C100.235 78.7055 99.9619 78.7668 99.7067 78.853C99.4548 78.9392 99.2443 79.0634 99.0753 79.2259C98.9063 79.3849 98.8002 79.5971 98.7571 79.8622C98.6974 80.2301 98.7853 80.5085 99.0206 80.6974C99.2592 80.883 99.589 80.9759 100.01 80.9759ZM108.448 71.8182L106.758 82H105.271L106.961 71.8182H108.448ZM111.934 71.8182L110.244 82H108.757L110.448 71.8182H111.934ZM112.716 84.8636C112.491 84.8636 112.29 84.8454 112.115 84.8089C111.939 84.7758 111.808 84.7393 111.722 84.6996L112.289 83.4815C112.55 83.5545 112.784 83.5826 112.99 83.5661C113.198 83.5495 113.394 83.4633 113.576 83.3075C113.758 83.1518 113.944 82.9065 114.133 82.5717L114.411 82.0696L112.915 74.3636H114.446L115.391 80.3047H115.47L118.394 74.3636H120.049L115.47 83.0092C115.255 83.4202 115.01 83.7616 114.735 84.0334C114.463 84.3085 114.158 84.5156 113.82 84.6548C113.485 84.794 113.117 84.8636 112.716 84.8636ZM123.738 71.8182L122.406 79.0717H121.034L122.102 71.8182H123.738ZM121.357 82.0945C121.078 82.0945 120.846 81.9983 120.661 81.8061C120.478 81.6139 120.389 81.3786 120.392 81.1001C120.396 80.825 120.498 80.5947 120.7 80.4091C120.906 80.2202 121.145 80.1257 121.416 80.1257C121.688 80.1257 121.92 80.2218 122.112 80.4141C122.305 80.6063 122.394 80.835 122.381 81.1001C122.371 81.2857 122.318 81.4548 122.222 81.6072C122.129 81.7564 122.006 81.8757 121.854 81.9652C121.701 82.0514 121.536 82.0945 121.357 82.0945Z" fill="white"/>
<g clip-path="url(#clip1_45_4)">
<g clip-path="url(#clip2_45_4)">
<path d="M404.217 79.9064C406.586 80.2772 408.048 81.3037 408.864 82.5849C409.682 83.8699 409.862 85.4302 409.633 86.8855C409.403 88.3453 408.611 89.4794 407.683 90.362C406.753 91.2457 405.695 91.8707 404.942 92.3142L404.94 92.315C404.397 92.6415 404.101 92.8373 403.936 93.0127C403.755 93.2052 403.73 93.3764 403.695 93.5997L403.631 94.0049C403.546 94.5404 403.047 94.9354 402.482 94.847L400.585 94.5501C400.053 94.4669 399.661 93.9671 399.75 93.3974L399.814 92.9922C399.993 91.862 400.398 91.0798 400.944 90.4677C401.493 89.8524 402.189 89.4016 402.963 88.9422L402.964 88.9434C403.418 88.6826 404.075 88.3012 404.639 87.8564C404.921 87.6339 405.185 87.3923 405.388 87.1384C405.591 86.8852 405.742 86.6114 405.787 86.3251C405.925 85.4494 405.774 84.8529 405.367 84.4514C404.971 84.0599 404.358 83.8823 403.649 83.7713C402.343 83.5668 401.571 83.9078 401.123 84.3533C400.682 84.7917 400.577 85.309 400.559 85.4236L400.534 85.5857C400.449 86.1213 399.95 86.5154 399.385 86.4269L397.488 86.13C396.956 86.0467 396.563 85.5478 396.653 84.9782L396.679 84.8162C396.859 83.6719 397.537 82.2537 398.773 81.2178C400.004 80.1857 401.795 79.5272 404.217 79.9064Z" fill="#3EAAFF" stroke="#3EAAFF" stroke-width="0.28"/>
<path d="M400.842 97.153C401.829 97.139 402.641 97.9306 402.652 98.9246C402.664 99.9194 401.87 100.735 400.882 100.749C399.895 100.763 399.083 99.9717 399.072 98.9777C399.06 97.983 399.854 97.1671 400.842 97.153Z" fill="#3EAAFF" stroke="#3EAAFF" stroke-width="0.625"/>
</g>
<path d="M392.933 79.5122C393.332 79.5066 393.651 79.8398 393.629 80.2378L392.851 94.018C392.831 94.3781 392.536 94.6608 392.175 94.666L390.333 94.692C389.971 94.697 389.667 94.4209 389.638 94.06L388.542 80.3063C388.511 79.9104 388.821 79.5703 389.218 79.5647L392.933 79.5122Z" fill="#3EAAFF" stroke="#3EAAFF" stroke-width="0.625"/>
<path d="M391.289 97.8354C392.276 97.8214 393.088 98.6134 393.099 99.6076C393.11 100.602 392.317 101.418 391.33 101.432C390.343 101.446 389.531 100.654 389.519 99.6597C389.508 98.6649 390.302 97.8494 391.289 97.8354Z" fill="#3EAAFF" stroke="#3EAAFF" stroke-width="0.625"/>
</g>
</g>
<defs>
<radialGradient id="paint0_radial_45_4" cx="0" cy="0" r="1" gradientUnits="userSpaceOnUse" gradientTransform="translate(232.5 192) rotate(90) scale(201 360.5)">
<stop stop-color="#717784"/>
<stop offset="1" stop-color="#717784" stop-opacity="0"/>
</radialGradient>
<clipPath id="clip0_45_4">
<rect width="553" height="380" fill="white"/>
</clipPath>
<clipPath id="clip1_45_4">
<rect width="32.3688" height="32.527" fill="white" transform="translate(388.854 71.1909) rotate(15.792)"/>
</clipPath>
<clipPath id="clip2_45_4">
<rect width="22.6597" height="22.7673" fill="white" transform="matrix(0.987968 0.154658 -0.1558 0.987789 393.014 77.4351)"/>
</clipPath>
</defs>
</svg>
