<svg width="386" height="11" viewBox="0 0 386 11" fill="none" xmlns="http://www.w3.org/2000/svg">
<g clip-path="url(#clip0_45_670)">
<path d="M71.042 0.53418C143.408 -0.546777 215.545 1.29753 287.612 3.06445C316.483 3.77231 345.135 4.70871 372.401 6.62988C376.309 6.90522 380.024 7.14342 384.1 7.83008C369.711 8.42891 355.557 8.17775 341.558 7.87793C326.948 7.56504 312.507 7.20195 298.158 7.70898L298.157 8.13477C320.662 9.00912 343.167 9.88248 365.672 10.7568L365.647 10.7852C350.583 10.5325 335.46 10.3771 320.474 10.0107C224.956 7.67547 129.45 5.88742 33.8506 7.31641C31.4873 7.35174 29.1114 7.44051 26.7832 7.39941C24.5671 7.36028 21.9666 7.51162 19.6221 7.5625C17.2573 7.61382 15.1666 7.56265 13.9053 7.13867C13.8293 7.11312 13.7674 7.08883 13.7178 7.06738C13.7498 7.0569 13.7865 7.04528 13.8281 7.03418C14.3054 6.90682 15.2004 6.80478 16.2305 6.7041C17.2501 6.60445 18.3895 6.50696 19.3291 6.38867C19.7991 6.3295 20.2254 6.26434 20.5654 6.18945C20.7354 6.15203 20.888 6.11138 21.0156 6.06641C21.1397 6.02269 21.2566 5.97017 21.3428 5.90137L21.665 5.64355L21.2686 5.53027C20.1143 5.20059 18.3743 5.08359 16.5469 5.00977C14.7062 4.93541 12.7669 4.90486 11.1729 4.75781C9.22315 4.57797 6.37221 4.54166 4.06152 4.43164C2.89962 4.37631 1.87578 4.30308 1.15625 4.18457C0.793767 4.12487 0.524956 4.05575 0.357422 3.98047C0.277798 3.94465 0.237116 3.91372 0.21875 3.89453C0.232157 3.87505 0.272035 3.82884 0.386719 3.76562C0.531382 3.68593 0.747617 3.60457 1.0332 3.52344C1.60262 3.36171 2.40885 3.21363 3.37598 3.08105C5.30753 2.81629 7.85307 2.61687 10.375 2.4834C29.9333 1.44832 50.3395 0.843418 71.042 0.53418Z" fill="#3EAAFF" stroke="#3EAAFF" stroke-width="0.425347"/>
</g>
<defs>
<clipPath id="clip0_45_670">
<rect width="386" height="11" fill="white"/>
</clipPath>
</defs>
</svg>
