<svg width="139" height="144" viewBox="0 0 139 144" fill="none" xmlns="http://www.w3.org/2000/svg">
<path d="M33.5809 26.0133C33.2792 26.3495 33.1956 26.6994 33.2427 27.0131C33.2907 27.3321 33.4768 27.6321 33.7457 27.8532C34.2846 28.2959 35.1019 28.3883 35.6936 27.7288L35.7024 27.7209C42.5957 20.947 53.0438 16.9488 63.3665 16.6995C73.6903 16.4503 83.9182 19.9515 90.3456 28.2141C97.9664 38.0501 96.358 49.244 90.5794 58.8118L90.5003 58.9425L90.3569 58.8877C77.1221 53.8339 61.8748 55.5075 49.2375 61.781C43.9726 64.4177 40.9116 69.2567 40.7561 73.9407C40.6013 78.6101 43.3336 83.1643 49.743 85.2606C56.8861 87.5585 64.9751 86.1364 72.5807 82.3515C80.1848 78.5674 87.2875 72.4297 92.4433 65.3313L92.5459 65.1906L92.691 65.2856C93.6327 65.8954 94.7409 66.581 95.6813 67.3511L96.0734 67.6863C116.777 84.8189 108.636 116.399 83.1332 123.229C82.1873 123.531 81.8765 124.539 82.1059 125.459C82.2192 125.913 82.4613 126.319 82.7993 126.576C83.1321 126.829 83.568 126.945 84.0995 126.808L84.1021 126.807C98.5474 123.322 110.778 113.544 112.574 97.8544L112.651 97.1032C113.881 83.1266 107.872 68.3304 95.307 61.2674L95.1446 61.1756L95.2378 61.0148C100.693 51.5834 102.583 41.0928 98.3066 32.104L98.0989 31.6774C92.1304 20.0071 80.0468 13.6617 67.4195 12.7014C54.7907 11.7411 41.6513 16.1702 33.5867 26.0073L33.5809 26.0133ZM44.9449 73.3997C44.8632 72.2667 45.2341 71.1119 46.2518 70.0035C50.327 65.4628 57.02 63.4802 62.65 62.2255L62.6548 62.2244C70.7534 60.6436 79.7896 60.1501 87.6763 62.8757L87.92 62.9592L87.7609 63.1616C81.5209 71.1247 72.4358 77.6242 64.084 80.2721C60.2669 81.617 55.5146 82.85 51.6326 80.9293L51.6308 80.9285L51.3346 80.7722C49.8116 79.9462 47.6647 78.4257 46.2877 76.5897C45.5524 75.6093 45.026 74.5253 44.9449 73.3997Z" fill="#3EAAFF" stroke="#3EAAFF" stroke-width="0.367189"/>
<path d="M71.3186 130.9C71.0849 131.438 71.0735 132.081 71.2598 132.649C71.4462 133.217 71.8241 133.695 72.3497 133.923C75.8451 135.44 79.2266 136.677 82.9694 137.61C83.5528 137.747 84.25 137.962 84.9834 138.173C85.721 138.384 86.5026 138.594 87.2716 138.728C88.8224 138.999 90.2563 138.948 91.1805 138.059C91.574 137.67 91.8575 137.254 91.9633 136.83C92.0667 136.415 92.0054 135.975 91.6754 135.514C90.9978 134.566 89.8192 134.1 88.507 133.817C87.8543 133.676 87.1792 133.583 86.5298 133.496C85.8839 133.41 85.2595 133.33 84.7222 133.214L84.7133 133.212C82.0067 132.502 79.191 131.511 76.5797 130.608L76.4 130.546L76.4674 130.369C78.1298 126.007 79.8853 121.427 82.5352 117.464C83.1382 116.562 82.8677 115.61 82.2818 115.095C81.9885 114.837 81.6224 114.693 81.2513 114.715C80.8842 114.736 80.49 114.918 80.1404 115.353L80.1409 115.355C76.5119 120 73.6806 125.458 71.3186 130.9Z" fill="#3EAAFF" stroke="#3EAAFF" stroke-width="0.367189"/>
</svg>
