<svg width="1255" height="772" viewBox="0 0 1255 772" fill="none" xmlns="http://www.w3.org/2000/svg">
<mask id="mask0_56_3" style="mask-type:alpha" maskUnits="userSpaceOnUse" x="426" y="-84" width="698" height="886">
<path d="M918.646 163.455C826.272 134.506 773.756 38.617 801.605 -50.2478L693.905 -84.0001C648.135 62.0489 734.36 219.486 886.176 267.064C978.549 296.013 1031.07 391.902 1003.22 480.767C975.367 569.631 877.517 618.397 785.143 589.448C633.39 541.671 472.733 621.737 426.963 767.786L534.663 801.539C562.512 712.674 660.362 663.909 752.736 692.858C904.552 740.435 1065.21 660.369 1110.98 514.32C1156.75 368.271 1070.25 210.968 918.646 163.455Z" fill="url(#paint0_linear_56_3)"/>
</mask>
<g mask="url(#mask0_56_3)">
<g filter="url(#filter0_i_56_3)">
<path d="M918.646 163.455C826.272 134.506 773.756 38.617 801.605 -50.2478L693.905 -84.0001C648.135 62.0489 734.36 219.486 886.176 267.064C978.549 296.013 1031.07 391.902 1003.22 480.767C975.367 569.631 877.517 618.397 785.143 589.448C633.39 541.671 472.733 621.737 426.963 767.786L534.663 801.539C562.512 712.674 660.362 663.909 752.736 692.858C904.552 740.435 1065.21 660.369 1110.98 514.32C1156.75 368.271 1070.25 210.968 918.646 163.455Z" fill="url(#paint1_radial_56_3)"/>
</g>
</g>
<mask id="mask1_56_3" style="mask-type:alpha" maskUnits="userSpaceOnUse" x="548" y="54" width="697" height="887">
<path d="M918.646 163.455C1011.02 192.404 1108.87 143.639 1136.72 54.7739L1244.42 88.5262C1198.65 234.575 1037.99 314.642 886.176 267.064C793.802 238.115 695.952 286.88 668.103 375.745C640.254 464.61 692.77 560.499 785.143 589.448C936.959 637.026 1023.18 794.463 977.414 940.512L869.714 906.759C897.563 817.895 845.047 722.006 752.673 693.057C600.92 645.28 514.695 487.842 560.465 341.793C606.236 195.744 766.83 115.877 918.646 163.455Z" fill="url(#paint2_linear_56_3)"/>
</mask>
<g mask="url(#mask1_56_3)">
<g filter="url(#filter1_ii_56_3)">
<path d="M918.646 163.455C1011.02 192.404 1108.87 143.639 1136.72 54.7739L1244.42 88.5262C1198.65 234.575 1037.99 314.642 886.176 267.064C793.802 238.115 695.952 286.88 668.103 375.745C640.254 464.61 692.77 560.499 785.143 589.448C936.959 637.026 1023.18 794.463 977.414 940.512L869.714 906.76C897.563 817.895 845.047 722.006 752.673 693.057C600.92 645.28 514.695 487.843 560.465 341.793C606.236 195.744 766.83 115.877 918.646 163.455Z" fill="url(#paint3_radial_56_3)"/>
</g>
</g>
<defs>
<filter id="filter0_i_56_3" x="405.955" y="-84.0001" width="717.276" height="922.3" filterUnits="userSpaceOnUse" color-interpolation-filters="sRGB">
<feFlood flood-opacity="0" result="BackgroundImageFix"/>
<feBlend mode="normal" in="SourceGraphic" in2="BackgroundImageFix" result="shape"/>
<feColorMatrix in="SourceAlpha" type="matrix" values="0 0 0 0 0 0 0 0 0 0 0 0 0 0 0 0 0 0 127 0" result="hardAlpha"/>
<feOffset dx="-21.0066" dy="36.7615"/>
<feGaussianBlur stdDeviation="44.6389"/>
<feComposite in2="hardAlpha" operator="arithmetic" k2="-1" k3="1"/>
<feColorMatrix type="matrix" values="0 0 0 0 1 0 0 0 0 1 0 0 0 0 1 0 0 0 1 0"/>
<feBlend mode="lighten" in2="shape" result="effect1_innerShadow_56_3"/>
</filter>
<filter id="filter1_ii_56_3" x="527.184" y="54.7739" width="747.397" height="922.5" filterUnits="userSpaceOnUse" color-interpolation-filters="sRGB">
<feFlood flood-opacity="0" result="BackgroundImageFix"/>
<feBlend mode="normal" in="SourceGraphic" in2="BackgroundImageFix" result="shape"/>
<feColorMatrix in="SourceAlpha" type="matrix" values="0 0 0 0 0 0 0 0 0 0 0 0 0 0 0 0 0 0 127 0" result="hardAlpha"/>
<feOffset dx="-21.0066" dy="36.7615"/>
<feGaussianBlur stdDeviation="44.6389"/>
<feComposite in2="hardAlpha" operator="arithmetic" k2="-1" k3="1"/>
<feColorMatrix type="matrix" values="0 0 0 0 1 0 0 0 0 1 0 0 0 0 1 0 0 0 1 0"/>
<feBlend mode="lighten" in2="shape" result="effect1_innerShadow_56_3"/>
<feColorMatrix in="SourceAlpha" type="matrix" values="0 0 0 0 0 0 0 0 0 0 0 0 0 0 0 0 0 0 127 0" result="hardAlpha"/>
<feOffset dx="30.1615" dy="17.5942"/>
<feGaussianBlur stdDeviation="17.5942"/>
<feComposite in2="hardAlpha" operator="arithmetic" k2="-1" k3="1"/>
<feColorMatrix type="matrix" values="0 0 0 0 0 0 0 0 0 0.49375 0 0 0 0 1 0 0 0 0.1 0"/>
<feBlend mode="multiply" in2="effect1_innerShadow_56_3" result="effect2_innerShadow_56_3"/>
</filter>
<linearGradient id="paint0_linear_56_3" x1="1053.96" y1="912.341" x2="1028.67" y2="464.717" gradientUnits="userSpaceOnUse">
<stop offset="0.416991" stop-opacity="0"/>
<stop offset="1"/>
</linearGradient>
<radialGradient id="paint1_radial_56_3" cx="0" cy="0" r="1" gradientTransform="matrix(-91.3854 325.434 -715.097 443.145 902.249 -95.0541)" gradientUnits="userSpaceOnUse">
<stop stop-color="#AEE6FF"/>
<stop offset="0.635171" stop-color="#0070E5"/>
<stop offset="1" stop-color="#0352A3"/>
</radialGradient>
<linearGradient id="paint2_linear_56_3" x1="898.079" y1="-84.7903" x2="947.197" y2="783.65" gradientUnits="userSpaceOnUse">
<stop offset="0.137931" stop-opacity="0"/>
<stop offset="1"/>
</linearGradient>
<radialGradient id="paint3_radial_56_3" cx="0" cy="0" r="1" gradientTransform="matrix(-161.355 602.184 -1308.78 833.105 902.254 -95.0703)" gradientUnits="userSpaceOnUse">
<stop stop-color="#AEE6FF"/>
<stop offset="0.635171" stop-color="#0070E5"/>
<stop offset="1" stop-color="#0352A3"/>
</radialGradient>
</defs>
</svg>
