<svg width="558" height="336" viewBox="0 0 558 336" fill="none" xmlns="http://www.w3.org/2000/svg">
<g clip-path="url(#clip0_45_40)">
<rect width="558" height="336" rx="24" fill="white"/>
<path d="M368.994 140.683C368.994 137.691 368.427 137.835 365.682 137.835C308.01 137.835 244.188 138.154 186.132 138.875C185.9 138.875 185.678 138.967 185.515 139.13C185.351 139.294 185.259 139.516 185.259 139.747C185.259 139.978 185.351 140.2 185.515 140.364C185.678 140.527 185.9 140.619 186.132 140.619C243.773 141.077 308.571 140.454 366.499 140.384C366.499 170.851 367.136 204.242 367.263 236.191C306.687 236.677 244.284 237.971 183.923 237.793C183.175 206.273 183.244 176.027 183.745 143.62C183.745 143.29 183.613 142.973 183.38 142.739C183.146 142.506 182.829 142.374 182.499 142.374C182.168 142.374 181.851 142.506 181.617 142.739C181.384 142.973 181.253 143.29 181.253 143.62C180.864 174.297 181.03 206.552 181.902 237.248C181.902 239.589 182.055 240.018 184.506 240.018C245.525 240.308 306.819 239.146 367.312 238.633C369.584 238.633 369.334 237.788 369.32 235.753C369.076 206.575 369.069 170.55 368.994 140.683Z" fill="#191919"/>
<path d="M187.932 165.294C245.291 166.376 305.564 164.863 362.873 164.582C363.153 164.559 363.414 164.429 363.6 164.218C363.786 164.007 363.883 163.731 363.87 163.45C363.857 163.169 363.736 162.904 363.532 162.711C363.327 162.517 363.056 162.411 362.775 162.414H342.002C342.002 156.501 342.168 150.635 342.153 144.736C342.153 143.352 340.062 143.199 340.062 144.583C340.062 150.552 340.16 156.509 340.215 162.476C290.359 162.725 237.153 162.698 187.877 163.403C186.617 163.43 186.742 165.271 187.932 165.294Z" fill="#191919"/>
<path d="M275.459 213.044C275.236 213.083 275.035 213.203 274.896 213.381C274.756 213.559 274.688 213.782 274.703 214.008C274.719 214.234 274.817 214.445 274.98 214.603C275.142 214.76 275.357 214.852 275.583 214.86C291.399 215.689 310.204 214.539 326.324 214.539C327.709 214.539 327.613 212.323 326.173 212.296C318.043 212.129 283.65 211.77 275.459 213.044Z" fill="#191919"/>
<path d="M332.943 199.404C313.112 199.829 291.037 199.541 274.862 200.703C273.755 200.789 273.63 202.483 274.778 202.464C294.168 202.186 316.325 202.866 332.86 201.52C334.177 201.426 334.342 199.374 332.943 199.404Z" fill="#191919"/>
<path d="M168.267 310.25C166.551 309.737 158.961 314.598 157.053 315.789L150.85 306.4C149.811 304.86 147.525 306.608 148.55 308.142L154.617 317.258C151.009 319.337 147.642 321.808 144.576 324.625C144.423 324.779 144.328 324.982 144.307 325.198C144.286 325.414 144.341 325.631 144.461 325.811C144.582 325.992 144.761 326.125 144.969 326.188C145.177 326.252 145.4 326.242 145.601 326.159C149.271 324.25 152.678 321.825 156.195 319.625C158.079 322.395 161.735 328.347 164.027 330.385C164.739 331.037 165.717 330.109 165.412 329.305C164.456 326.535 160.398 320.83 158.598 318.128C160.288 317.174 168.444 313.158 168.944 311.661C169.034 311.384 169.013 311.083 168.888 310.82C168.762 310.558 168.54 310.353 168.267 310.25Z" fill="#191919"/>
<path d="M410.58 300.858C417.81 290.695 411.037 272.442 395.61 275.128C383.15 277.316 376.845 289.724 383.15 300.278C388.134 308.587 400.156 311.357 407.565 303.975C410.154 306.496 416.968 312.478 418.825 313.765C420.473 314.915 423.353 312.019 421.691 310.634C420.028 309.249 412.81 302.645 410.58 300.858ZM407.326 300.693C405.994 302.27 404.312 303.514 402.414 304.327C400.517 305.139 398.455 305.497 396.395 305.372C394.334 305.246 392.331 304.642 390.546 303.606C388.76 302.57 387.241 301.131 386.11 299.404C381.498 292.3 383.59 281.18 394.031 278.437C409.459 274.343 414.542 291.843 407.271 300.652L407.326 300.693Z" fill="#191919"/>
<path d="M407.036 92.2958C408.754 93.8462 408.891 93.4724 410.815 92.4471C415.879 89.6352 420.016 85.4107 422.721 80.2887C425.426 75.1667 426.583 69.3683 426.05 63.6004C425.758 60.5548 426.175 59.6257 423.129 59.1006C418.558 58.296 408.848 57.1194 404.072 56.5926C401.137 56.2739 401.046 56.2882 400.098 58.8923C395.803 70.7471 397.882 84.0277 407.036 92.2958ZM423.891 61.5018C425.066 74.1042 421.022 84.0348 409.751 90.3075C411.579 80.6137 412.599 69.9372 413.905 60.1045C417.132 60.4979 420.429 60.9411 423.891 61.5089V61.5018ZM402.342 58.4972C405.558 58.75 408.754 59.2126 411.91 59.882C410.525 69.729 408.724 80.101 407.755 89.948C399.154 81.3417 398.547 69.583 402.342 58.5043V58.4972Z" fill="#191919"/>
<path d="M157.336 56.1636C158.524 54.2739 159.595 52.3121 160.54 50.2896C161.01 49.3479 159.584 47.8937 158.503 49.5295C157.423 51.1653 155.734 54.7787 154.502 56.8845C154.224 57.3971 155.128 59.6648 157.336 56.1636Z" fill="#191919"/>
<path d="M121.667 58.2142C121.529 58.116 121.372 58.0466 121.207 58.0102C121.042 57.9738 120.871 57.9711 120.704 58.0022C120.538 58.0334 120.379 58.0978 120.238 58.1916C120.097 58.2854 119.976 58.4066 119.883 58.5481C119.79 58.6895 119.727 58.8483 119.696 59.0149C119.666 59.1815 119.669 59.3525 119.707 59.5178C119.744 59.683 119.814 59.839 119.913 59.9765C120.012 60.114 120.137 60.2302 120.282 60.3181C123.122 62.0485 126.099 63.5445 129.182 64.7913C129.929 64.9995 130.718 64.017 130.072 63.4064C127.423 61.4402 124.611 59.7032 121.667 58.2142Z" fill="#191919"/>
<path d="M136.866 86.0356C135.358 88.9583 133.71 91.8099 132.103 94.6632C131.569 95.6191 132.961 96.146 133.391 95.5639C135.275 92.8939 137.033 90.0246 138.731 87.0057C139.358 85.9252 137.566 84.6935 136.866 86.0356Z" fill="#191919"/>
<path d="M168.585 85.053L160.193 81.849C160.01 81.7619 159.8 81.7501 159.608 81.8161C159.416 81.8821 159.258 82.0206 159.168 82.202C159.077 82.3833 159.061 82.5929 159.123 82.7858C159.185 82.9788 159.321 83.1396 159.5 83.2338C162.253 84.3392 164.935 85.6106 167.533 87.0412C169.618 88.3495 170.718 85.8842 168.585 85.053Z" fill="#191919"/>
<path d="M156.289 85.094C155.821 84.0545 154.904 82.6714 154.322 81.6604C159.557 81.0231 162.298 73.8284 160.552 67.5343C155.845 50.667 127.593 58.6147 130.89 74.786C131.887 79.7576 136.636 84.6882 141.969 83.2197C142.065 84.7558 141.613 87.8032 141.65 88.6059C141.641 88.9179 141.757 89.2205 141.971 89.4474C142.185 89.6744 142.481 89.807 142.793 89.8163C143.624 89.8448 155.023 87.659 155.208 87.6234C156.801 87.3101 157.04 86.7672 156.289 85.094ZM143.273 87.958C143.581 86.3703 143.72 84.7547 143.69 83.1378C143.523 81.7529 142.415 81.6693 141.265 81.7529C137.111 81.9612 133.898 78.5828 132.956 74.4959C129.84 61.1459 154.366 53.3762 158.631 68.1253C160.016 73.0843 158.355 78.7074 153.868 79.7451C152.289 80.1011 151.887 80.7704 152.704 82.2246C153.369 83.4012 154.007 84.592 154.662 85.7846L143.273 87.958Z" fill="#191919"/>
<path d="M151.461 68.2C146.002 69.4763 147.597 77.8939 152.985 76.6906C158.937 75.3859 156.673 66.9825 151.461 68.2Z" fill="#191919"/>
<path d="M139.725 70.4696C131.674 72.3315 137.537 81.2173 142.662 78.1236C147.787 75.03 144.39 69.3909 139.725 70.4696Z" fill="#191919"/>
<path d="M357.649 146.5C356.007 148.024 354.384 149.573 352.779 151.148C350.908 149.569 349.082 147.944 347.24 146.397C346.852 146.079 342.959 145.705 351.156 152.796C349.582 154.288 348.136 155.909 346.834 157.643C346.309 158.391 347.222 159.423 347.996 158.82C349.724 157.396 351.371 155.875 352.927 154.265C353.883 155.025 358.315 158.681 359.492 158.419C359.762 158.393 360.011 158.26 360.183 158.05C360.356 157.84 360.438 157.57 360.412 157.3C360.3 156.242 356.825 154.238 354.645 152.519L359.935 147.602C361.708 146.043 360.574 143.788 357.649 146.5Z" fill="#38A1FF"/>
<path d="M344.216 186.55C345.601 186.016 345.852 181.967 344.314 181.371C342.555 180.721 280.802 180.235 274.349 181.371C272.964 181.607 272.77 186.191 274.251 186.44C280.581 187.437 342.249 187.298 344.216 186.55Z" fill="#38A1FF"/>
<path d="M207.21 223.61C212.987 224.267 241.833 223.749 249.062 223.61C256.29 223.471 258.59 219.069 256.538 215.095C253.186 208.599 237.383 183.464 233.451 177.827C229.519 172.189 225.959 173.27 222.372 178.768C217.65 186.095 205.048 208.363 202.027 214.139C199.006 219.915 201.436 222.951 207.21 223.61ZM227.736 187.602C227.791 184.101 230.505 184.003 230.657 187.48C230.961 192.602 230.754 198.129 230.657 203.322C230.657 206.729 228.635 208.099 228.04 203.418C227.668 198.156 227.647 192.88 227.736 187.602ZM227.736 211.867C229.59 209.829 233.275 212.919 230.865 215.176C230.649 215.39 230.392 215.558 230.111 215.671C229.829 215.785 229.527 215.841 229.224 215.836C228.92 215.832 228.62 215.767 228.342 215.645C228.064 215.524 227.812 215.348 227.603 215.128C227.393 214.908 227.229 214.649 227.121 214.365C227.013 214.082 226.962 213.779 226.971 213.476C226.981 213.172 227.051 212.874 227.178 212.598C227.304 212.321 227.484 212.073 227.707 211.867H227.736Z" fill="#38A1FF"/>
<path d="M168.004 190.748C174.912 186.401 161.178 170.79 154.752 176.428C148.727 181.764 160.329 195.579 168.004 190.748ZM155.888 177.743C160.209 173.827 172.201 186.91 166.509 189.363C159.46 192.41 152.531 180.79 155.888 177.743Z" fill="#38A1FF"/>
<path d="M160.292 140.781C165.42 132.917 159.017 127.901 152.924 135.99C146.429 144.631 154.411 149.799 160.292 140.781ZM154.295 137.291C158.581 131.344 162.604 133.8 158.713 139.617C153.837 146.889 149.896 143.393 154.295 137.291Z" fill="#38A1FF"/>
<path d="M212.64 124.494C214.142 120.633 201.894 117.251 200.828 120.907C199.234 126.363 210.835 129.136 212.64 124.494ZM202.682 121.351C203.238 120.519 211.2 122.241 210.909 123.828C210.381 126.668 200.747 124.247 202.682 121.351Z" fill="#38A1FF"/>
<path d="M258.949 122.693C257.347 120.534 251.955 123.733 252.218 126.114C252.662 130.242 261.359 125.934 258.949 122.693ZM253.756 126.169C252.84 125.619 256.871 122.965 257.717 123.622C258.187 123.996 255.581 127.269 253.756 126.169Z" fill="#38A1FF"/>
<path d="M177.214 121.422C175.662 118.432 163.448 121.006 164.279 127.239C165.082 133.206 179.621 126.061 177.214 121.422ZM165.94 126.504C166.685 122.211 175.178 121.906 175.468 122.349C176.84 124.121 165.301 130.187 165.94 126.502V126.504Z" fill="#38A1FF"/>
<path d="M245.802 128.22C243.601 125.824 235.845 127.583 236.842 131.322C238.107 136.057 249.56 132.319 245.802 128.22ZM244.875 129.799C244.797 132.236 239.101 132.647 238.504 130.796C237.832 128.72 244.925 127.971 244.866 129.799H244.875Z" fill="#38A1FF"/>
<path d="M225.573 125.948C218.925 123.597 216.851 129.135 222.914 131.655C227.401 133.565 233.605 128.789 225.573 125.948ZM225.039 127.623C230.123 129.67 226.079 131.224 223.654 130.201C220.881 129.023 219.398 125.35 225.046 127.623H225.039Z" fill="#38A1FF"/>
<path d="M182.919 121.351C185.801 125.402 195.48 123.579 194.968 119.121C194.359 113.442 179.665 116.776 182.919 121.351ZM192.613 120.546C189.825 122.937 183.473 121.502 184.304 119.834C185.979 116.78 195.902 117.727 192.613 120.546Z" fill="#38A1FF"/>
<path d="M150.902 168.617C156.746 168.337 156.441 151.915 150.902 151.458C144.699 150.959 144.836 168.905 150.902 168.617ZM150.902 153.382C153.892 153.382 153.782 166.47 150.902 166.746C147.342 167.052 147.079 153.439 150.888 153.355L150.902 153.382Z" fill="#38A1FF"/>
<path d="M291.965 131.71C300.468 134.48 305.345 114.329 300.275 112.321C292.936 109.261 286.439 129.909 291.965 131.71ZM299.777 114.01C301.94 115.644 297.463 132.344 292.769 130.007C288.075 127.67 296.464 111.511 299.777 114.01Z" fill="#38A1FF"/>
<path d="M341.17 82.3385C342.866 87.1747 355.325 80.9536 353.178 76.9237C351.517 73.7375 339.609 77.8956 341.17 82.3385ZM351.752 77.8885C352.704 79.8785 343.096 84.4264 342.722 81.7671C342.348 79.1078 351.131 76.5962 351.752 77.892V77.8885Z" fill="#38A1FF"/>
<path d="M316.145 93.7217C313.881 88.5402 298.89 99.8983 302.366 105.84C305.148 110.617 318.34 98.7467 316.145 93.7217ZM314.65 94.4569C316.035 96.6303 305.965 108.083 303.696 104.69C301.426 101.297 313.098 91.8741 314.65 94.5121V94.4569Z" fill="#38A1FF"/>
<path d="M354.825 71.2259C358.896 72.8101 362.525 61.8507 358.732 60.8539C354.939 59.8571 352.553 70.3359 354.825 71.2259ZM358.189 62.5164C360.877 63.4723 356.64 70.4659 355.656 69.704C354.672 68.9422 356.945 62.0643 358.189 62.5039V62.5164Z" fill="#38A1FF"/>
<path d="M338.027 52.4951C337.065 49.0224 328.153 50.6795 328.333 53.4368C328.456 57.6732 338.975 55.9181 338.027 52.4951ZM329.926 53.2694C330.382 52.2014 336.101 51.525 336.448 52.9134C336.795 54.3018 329.301 54.5884 329.862 53.2694H329.926Z" fill="#38A1FF"/>
<path d="M320.467 91.1051C322.97 95.6761 337.085 88.1271 334.316 83.1965C331.546 78.2659 318.025 86.6462 320.467 91.1051ZM332.749 84.083C334.034 86.8544 322.653 92.3938 321.945 90.2329C320.918 87.068 331.614 81.6337 332.751 84.083H332.749Z" fill="#38A1FF"/>
<path d="M345.768 53.5613C344.487 57.1445 354.437 59.1007 355.005 55.6795C355.711 51.4965 347.05 49.9711 345.768 53.5613ZM347.333 53.9476C348.082 52.2726 353.303 53.0754 353.426 55.3324C353.524 57.0359 346.738 55.2772 347.333 53.9476Z" fill="#38A1FF"/>
<path d="M313.309 52.3581C312.031 56.1566 321.408 57.2317 321.497 53.9601C321.586 50.6884 314.034 50.1972 313.309 52.3581ZM319.895 53.8675C320.212 54.7112 314.703 54.1434 314.852 52.9668C314.844 52.3866 319.317 52.3866 319.886 53.8657L319.895 53.8675Z" fill="#38A1FF"/>
<path d="M242.18 76.3969C245.601 72.2317 228.856 62.3136 227.194 67.2709C226.113 70.5247 238.036 81.4397 242.18 76.3969ZM240.795 75.1794C239.161 79.3339 228.497 70.11 229.047 67.8387C229.656 65.1099 241.995 71.9932 240.749 75.1224L240.795 75.1794Z" fill="#38A1FF"/>
<path d="M257.065 99.7612C263.049 96.2848 253.713 78.184 247.606 81.4379C240.78 85.0673 250.963 103.307 257.065 99.7612ZM248.617 82.9615C252.983 81.5874 260.029 95.4215 256.082 97.9883C252.136 100.555 243.165 84.6775 248.617 82.9615Z" fill="#38A1FF"/>
<path d="M202.78 55.4854C205.398 53.7446 199.718 43.9154 195.772 44.7253C191.229 45.6527 198.711 58.191 202.78 55.4854ZM196.424 46.2614C198.168 45.8645 202.71 51.7189 202.12 53.7552C201.34 56.3861 193.419 46.9467 196.424 46.2614Z" fill="#38A1FF"/>
<path d="M222.818 63.1714C222.338 58.3939 209.799 55.0831 208.345 58.4224C206.061 63.6983 223.322 68.1999 222.818 63.1714ZM210.132 59.0169C211.78 57.479 220.962 59.8072 221.086 63.1714C221.184 65.9269 207.558 61.3914 210.132 58.9902V59.0169Z" fill="#38A1FF"/>
<path d="M195.867 31.2081C192.795 30.6901 192.841 39.656 195.333 40.1081C198.874 40.7365 199.372 31.7991 195.867 31.2081ZM195.702 33.0362C197.849 33.2622 196.809 39.7254 195.383 38.2712C194.716 37.593 194.413 32.9009 195.702 33.0362Z" fill="#38A1FF"/>
<path d="M403.963 139.452C406.967 139.425 406.733 130.908 403.963 130.062C400.583 129.023 399.184 139.493 403.963 139.452ZM403.671 131.682C405.204 132.643 404.488 138.053 403.671 137.789C401.343 137.027 402.881 131.185 403.671 131.682Z" fill="#38A1FF"/>
<path d="M400.18 254.632C402.113 259.762 420.386 247.209 416.038 242.528C413.088 239.343 398.29 249.61 400.18 254.632ZM401.912 253.649C400.066 252.182 411.606 242.57 414.598 243.637C416.771 244.439 405.687 256.649 401.908 253.649H401.912Z" fill="#38A1FF"/>
<path d="M408.047 117.072C406.114 116.329 401.828 122.805 404.584 125.131C407.339 127.458 410.682 118.083 408.047 117.072ZM407.451 118.608C408.834 118.252 406.066 124.838 405.125 123.802C404.653 123.303 405.885 119.019 407.451 118.608Z" fill="#38A1FF"/>
<path d="M419.736 171.636C423.408 169.856 416.966 159.421 413.49 161.554C410.013 163.686 415.307 173.786 419.736 171.636ZM414.445 163.252C415.832 162.184 420.9 169.126 418.961 170.301C417.023 171.476 412.731 164.56 414.445 163.252Z" fill="#38A1FF"/>
<path d="M375.088 260.892C376.547 268.236 397.872 262.069 394.004 256.35C391.553 252.734 374.02 255.522 375.088 260.892ZM376.804 260.698C376.122 257.928 390.654 254.824 392.592 257.346C394.696 260.102 377.879 265.068 376.811 260.698H376.804Z" fill="#38A1FF"/>
<path d="M344.947 250.865C341.722 257.686 360.693 267.886 365.027 261.834C369.878 255.048 347.957 244.502 344.947 250.865ZM346.469 251.917C347.067 247.001 367.049 256.35 363.602 260.817C360.638 264.668 345.777 257.77 346.499 251.917H346.469Z" fill="#38A1FF"/>
<path d="M410.041 156.111C413.213 154.477 408.186 143.473 404.701 145.351C401.216 147.229 406.18 158.104 410.041 156.111ZM405.513 146.876C406.746 145.685 410.109 154.352 409.391 154.591C406.801 155.447 404.724 147.636 405.513 146.876Z" fill="#38A1FF"/>
<path d="M427.49 196.73C422.726 196.752 420.994 211.465 428.098 210.675C432.296 210.191 432.087 196.716 427.49 196.73ZM427.808 209.347C423.002 209.58 425.85 198.266 427.588 198.448C429.816 198.654 429.43 209.267 427.808 209.354V209.347Z" fill="#38A1FF"/>
<path d="M426.423 190.069C430.783 188.467 426.313 175.555 422.046 177.743C418.433 179.612 422.68 191.445 426.423 190.069ZM422.685 179.405C424.713 177.818 427.563 187.118 425.941 188.338C424.013 189.792 421.131 180.628 422.684 179.405H422.685Z" fill="#38A1FF"/>
<path d="M426.05 217.958C421.577 217.958 414.735 233.512 419.624 235.963C425.496 238.968 433.223 217.967 426.05 217.958ZM420.317 234.26C417.095 232.544 423.889 218.916 426.34 219.747C429.277 220.746 423.175 235.783 420.317 234.26Z" fill="#38A1FF"/>
<path d="M323.818 323.115C320.637 326.773 331.713 332.879 334.731 329.223C336.878 326.604 327.214 319.212 323.818 323.115ZM325.203 324.084C326.463 322.63 333.347 325.303 333.306 328.377C333.25 329.942 323.042 326.562 325.175 324.084H325.203Z" fill="#38A1FF"/>
<path d="M297.27 291.263C291.87 296.083 300.552 307.962 305.316 304.335C308.943 301.594 301.257 287.704 297.27 291.263ZM304.401 302.564C302.745 306.715 294.015 295.458 298.224 292.647C300.447 291.166 305.214 300.524 304.401 302.564Z" fill="#38A1FF"/>
<path d="M291.26 265.308C298.184 264.596 292.645 245.602 287.522 246.253C282.399 246.905 283.74 266.079 291.26 265.308ZM287.729 248.026C290.429 247.462 295.511 262.733 290.984 263.455C285.79 264.285 285.18 248.557 287.729 248.026Z" fill="#38A1FF"/>
<path d="M307.351 309.28C302.031 311.184 312.116 323.78 317.392 318.876C320.813 315.691 312.474 307.444 307.351 309.28ZM315.55 318.018C312.104 319.404 307.061 313.642 307.559 311.22C308.225 307.907 319.747 316.332 315.55 318.018Z" fill="#38A1FF"/>
<path d="M359.742 333.279C359.776 336.049 370.088 337.283 368.82 333.128C367.884 330.038 359.708 330.536 359.742 333.279ZM361.321 333.391C361.321 332.711 366.405 332.242 367.318 333.557C368.231 334.872 361.314 334.401 361.325 333.391H361.321Z" fill="#38A1FF"/>
<path d="M342.486 331.106C341.863 334.499 351.612 336.521 352.692 333.876C354.105 330.314 343.109 327.699 342.486 331.106ZM351.03 333.459C349.648 335.193 343.02 332.338 344.105 331.437C345.699 329.942 352.042 332.188 351.03 333.459Z" fill="#38A1FF"/>
<path d="M290.659 270.253C286.349 272.126 289.123 287.635 296.766 285.321C302.02 283.729 296.143 267.873 290.659 270.253ZM296.102 283.646C289.649 284.776 289.516 272.692 291.365 271.859C294.596 270.392 298.932 283.151 296.107 283.646H296.102Z" fill="#38A1FF"/>
<path d="M121.569 250.575C119.728 253.082 126.14 257.339 128.91 255.157C131.679 252.975 123.746 247.612 121.569 250.575ZM127.635 254.313C126.724 254.815 122.414 252.637 123.107 251.392C124.077 249.618 128.482 253.845 127.635 254.313Z" fill="#38A1FF"/>
<path d="M161.442 281.088C157.948 284.767 168.754 292.167 172.52 289.536C175.027 287.801 165.26 277.076 161.442 281.088ZM171.37 288.386C170.685 290.259 160.998 284.648 162.648 282.265C164.299 279.881 171.944 286.832 171.37 288.395V288.386Z" fill="#38A1FF"/>
<path d="M179.293 290.445C177.571 294.488 190.8 301.732 193.141 297.633C195.592 293.201 180.701 287.14 179.293 290.445ZM191.507 297.051C190.724 298.945 180.115 294.281 180.802 291.234C181.106 289.904 192.769 293.998 191.512 297.051H191.507Z" fill="#38A1FF"/>
<path d="M146.109 267.33C143.183 270.196 150.264 277.898 153.941 275.405C157.991 272.69 149.148 264.365 146.109 267.33ZM153.269 273.811C151.204 276.581 144.226 267.788 148.107 268.272C149.682 268.425 154.21 272.544 153.269 273.811Z" fill="#38A1FF"/>
<path d="M202.227 298.27C203.17 304.349 224.578 302.492 222.999 295.748C221.595 289.669 201.659 294.627 202.227 298.27ZM204.067 298.27C203.861 296.579 220.105 292.494 221.296 296.081C222.695 300.278 204.498 301.788 204.067 298.201V298.27Z" fill="#38A1FF"/>
<path d="M264.297 250.712C257.248 248.439 248.175 271.334 253.216 274.062C260.238 277.815 271.719 253.106 264.297 250.712ZM254.507 272.359C250.713 271.738 258.994 250.408 263.868 252.526C267.397 254.093 259.313 273.146 254.505 272.366L254.507 272.359Z" fill="#38A1FF"/>
<path d="M246.928 280.086C242.462 277.202 229.128 288.589 231.197 292.827C234.16 298.906 253.151 284.102 246.928 280.086ZM232.664 291.941C231.64 289.171 241.763 280.946 245.302 281.334C250.771 281.868 234.223 296.136 232.664 291.9V291.941Z" fill="#38A1FF"/>
<path d="M132.87 258.288C130.366 261.697 139.38 268.674 142.08 264.756C144.78 260.839 134.561 255.99 132.87 258.288ZM140.626 263.984C138.921 266.309 133.258 260.867 134.116 259.607C134.974 258.347 142.342 261.638 140.626 263.98V263.984Z" fill="#38A1FF"/>
<path d="M108.343 247.222C107.695 249.756 115.006 251.917 115.794 249.203C116.667 246.143 108.941 244.883 108.343 247.222ZM110.123 247.756C111.515 247.222 113.753 247.298 114.278 248.71C114.803 250.121 109.523 247.98 110.116 247.75L110.123 247.756Z" fill="#38A1FF"/>
<path d="M210.297 81.4788C218.26 89.1981 223.856 99.0275 226.431 109.815C230.712 112.043 238.12 114.925 249.81 109.676C248.181 101.962 244.914 94.689 240.23 88.3477C235.546 82.0065 229.555 76.7454 222.661 72.9205C207.663 64.6809 177.889 52.1479 194.359 26.9004C199.664 18.7996 208.54 18.9794 206.819 15.4906C204.909 11.6672 188.263 16.183 181.518 29.7306C168.06 56.7172 196.285 67.1996 210.297 81.4788Z" fill="#38A1FF"/>
<path d="M253.549 244.42H227.319C225.561 274.888 203.777 281.949 178.642 269.251C154.17 256.791 132.219 227.371 99.0098 236.761C90.0084 239.31 91.0604 243.229 101.461 242.024C115.311 240.422 125.005 245.347 136.872 252.964C156.442 265.54 172.257 286.382 197.809 288.418C210.941 289.489 223.991 285.547 234.334 277.383C244.676 269.22 251.542 257.442 253.549 244.42Z" fill="#38A1FF"/>
<path d="M373.825 323.018C352.792 323.577 331.849 315.664 323.451 294.933C316.097 276.763 316 262.193 320.364 243.692C315.086 243.927 307.096 244.404 299.492 244.744C295.004 267.457 307.801 301.967 325.903 315.65C347.561 332.026 381.299 328.902 382.685 325.095C384.586 319.536 376.988 322.934 373.825 323.018Z" fill="#38A1FF"/>
<path d="M357.748 50.8183C375.109 63.8585 360.518 82.6803 343.414 88.4866C321.686 95.7989 303.252 110.826 303.074 135.144C309.014 135.144 319.304 134.966 326.118 134.909C326.949 112.404 335.936 106.187 355.283 97.2816C374.63 88.3763 386.255 71.4538 372.83 50.9286C355.283 24.0898 320.66 50.0155 307.739 37.4967C302.437 32.3436 301.993 37.3721 303.766 41.1796C311.369 57.4381 342.177 39.1237 357.748 50.8183Z" fill="#38A1FF"/>
<path d="M176.107 225.922C176.285 220.493 176.481 210.315 176.62 203.626C151.913 200.609 138.439 174.544 141.166 151.817C144.352 125.505 175.671 105.909 201.796 113.471C214.717 117.196 227.528 129.758 247.636 123.428C254.752 121.05 260.85 116.328 264.934 110.035C267.038 106.935 265.28 104.053 262.663 106.616C256.319 112.821 248.01 118.186 238.718 117.958C222.625 117.556 212.488 102.972 187.075 101.851C172.771 101.099 158.641 105.267 147.035 113.663C135.43 122.058 127.049 134.175 123.287 147.996C114.106 181.764 140.71 225.743 176.107 225.922Z" fill="#38A1FF"/>
<path d="M372.538 226.533C372.205 231.739 372.123 240.239 372.054 242.197C369.643 242.321 358.8 242.709 352.664 242.889C382.746 268.94 424.54 233.971 418.891 195.29C415.165 169.879 392.867 154.202 398.49 129.523C401.662 115.55 408.905 111.52 411.128 107.753C413.898 103.156 406.974 104.727 399.978 110.842C381.438 127.029 388.914 148.604 395.057 168.236C403.116 194.046 411.176 225.018 372.538 226.533Z" fill="#38A1FF"/>
<path d="M-113.443 0H-163V51M-113.443 0V51M-113.443 0H-63.8868M-113.443 51H-163M-113.443 51V102M-113.443 51H-63.8868M-163 51V102M-113.443 102H-163M-113.443 102V153M-113.443 102H-63.8868M-163 102V153M-113.443 153H-163M-113.443 153V204M-113.443 153H-63.8868M-163 153V204M-113.443 204H-163M-113.443 204V255M-113.443 204H-63.8868M-163 204V255M-113.443 255H-163M-113.443 255V306M-113.443 255H-63.8868M-163 255V306H-113.443M-113.443 306H-63.8868M-63.8868 0V51M-63.8868 0H-14.3302M-63.8868 51V102M-63.8868 51H-14.3302M-63.8868 102V153M-63.8868 102H-14.3302M-63.8868 153V204M-63.8868 153H-14.3302M-63.8868 204V255M-63.8868 204H-14.3302M-63.8868 255V306M-63.8868 255H-14.3302M-63.8868 306H-14.3302M-14.3302 0V51M-14.3302 0H35.2264M-14.3302 51V102M-14.3302 51H35.2264M-14.3302 102V153M-14.3302 102H35.2264M-14.3302 153V204M-14.3302 153H35.2264M-14.3302 204V255M-14.3302 204H35.2264M-14.3302 255V306M-14.3302 255H35.2264M-14.3302 306H35.2264M35.2264 0V51M35.2264 0H84.783M35.2264 51V102M35.2264 51H84.783M35.2264 102V153M35.2264 102H84.783M35.2264 153V204M35.2264 153H84.783M35.2264 204V255M35.2264 204H84.783M35.2264 255V306M35.2264 255H84.783M35.2264 306H84.783M84.783 0V51M84.783 0H134.34M84.783 51V102M84.783 51H134.34M84.783 102V153M84.783 102H134.34M84.783 153V204M84.783 153H134.34M84.783 204V255M84.783 204H134.34M84.783 255V306M84.783 255H134.34M84.783 306H134.34M134.34 0V51M134.34 0H183.896M134.34 51V102M134.34 51H183.896M134.34 102V153M134.34 102H183.896M134.34 153V204M134.34 153H183.896M134.34 204V255M134.34 204H183.896M134.34 255V306M134.34 255H183.896M134.34 306H183.896M183.896 0V51M183.896 0H233.453M183.896 51V102M183.896 51H233.453M183.896 102V153M183.896 102H233.453M183.896 153V204M183.896 153H233.453M183.896 204V255M183.896 204H233.453M183.896 255V306M183.896 255H233.453M183.896 306H233.453M233.453 0V51M233.453 0H283.009M233.453 51V102M233.453 51H283.009M233.453 102V153M233.453 102H283.009M233.453 153V204M233.453 153H283.009M233.453 204V255M233.453 204H283.009M233.453 255V306M233.453 255H283.009M233.453 306H283.009M283.009 0V51M283.009 0H332.566M283.009 51V102M283.009 51H332.566M283.009 102V153M283.009 102H332.566M283.009 153V204M283.009 153H332.566M283.009 204V255M283.009 204H332.566M283.009 255V306M283.009 255H332.566M283.009 306H332.566M332.566 0V51M332.566 0H382.123M332.566 51V102M332.566 51H382.123M332.566 102V153M332.566 102H382.123M332.566 153V204M332.566 153H382.123M332.566 204V255M332.566 204H382.123M332.566 255V306M332.566 255H382.123M332.566 306H382.123M382.123 0V51M382.123 0H431.679M382.123 51V102M382.123 51H431.679M382.123 102V153M382.123 102H431.679M382.123 153V204M382.123 153H431.679M382.123 204V255M382.123 204H431.679M382.123 255V306M382.123 255H431.679M382.123 306H431.679M431.679 0V51M431.679 0H481.236M431.679 51V102M431.679 51H481.236M431.679 102V153M431.679 102H481.236M431.679 153V204M431.679 153H481.236M431.679 204V255M431.679 204H481.236M431.679 255V306M431.679 255H481.236M431.679 306H481.236M481.236 0V51M481.236 0H530.792M481.236 51V102M481.236 51H530.792M481.236 102V153M481.236 102H530.792M481.236 153V204M481.236 153H530.792M481.236 204V255M481.236 204H530.792M481.236 255V306M481.236 255H530.792M481.236 306H530.792M530.792 0V51M530.792 0H580.349M530.792 51V102M530.792 51H580.349M530.792 102V153M530.792 102H580.349M530.792 153V204M530.792 153H580.349M530.792 204V255M530.792 204H580.349M530.792 255V306M530.792 255H580.349M530.792 306H580.349M580.349 0V51M580.349 0H629.906V51M580.349 51V102M580.349 51H629.906M580.349 102V153M580.349 102H629.906M580.349 153V204M580.349 153H629.906M580.349 204V255M580.349 204H629.906M580.349 255V306M580.349 255H629.906M580.349 306H629.906V255M629.906 51V102M629.906 102V153M629.906 153V204M629.906 204V255" stroke="url(#paint0_radial_45_40)" stroke-opacity="0.22"/>
</g>
<defs>
<radialGradient id="paint0_radial_45_40" cx="0" cy="0" r="1" gradientUnits="userSpaceOnUse" gradientTransform="translate(233.453 153) rotate(90) scale(153 396.453)">
<stop stop-color="#717784"/>
<stop offset="1" stop-color="#717784" stop-opacity="0"/>
</radialGradient>
<clipPath id="clip0_45_40">
<rect width="558" height="336" rx="24" fill="white"/>
</clipPath>
</defs>
</svg>
