<svg width="31" height="31" viewBox="0 0 31 31" fill="none" xmlns="http://www.w3.org/2000/svg">
<rect width="30.5" height="30.5" rx="15.25" fill="#0070E5"/>
<path d="M19.6979 9.53125C20.035 9.53125 20.3582 9.66514 20.5965 9.90347C20.8349 10.1418 20.9688 10.465 20.9688 10.8021V19.6979C20.9688 20.035 20.8349 20.3582 20.5965 20.5965C20.3582 20.8349 20.035 20.9688 19.6979 20.9688H10.8021C10.465 20.9688 10.1418 20.8349 9.90347 20.5965C9.66514 20.3582 9.53125 20.035 9.53125 19.6979V10.8021C9.53125 10.465 9.66514 10.1418 9.90347 9.90347C10.1418 9.66514 10.465 9.53125 10.8021 9.53125H19.6979ZM19.3802 19.3802V16.0125C19.3802 15.4631 19.162 14.9362 18.7735 14.5478C18.385 14.1593 17.8581 13.941 17.3088 13.941C16.7686 13.941 16.1396 14.2715 15.8346 14.7671V14.0618H14.0618V19.3802H15.8346V16.2476C15.8346 15.7583 16.2285 15.358 16.7178 15.358C16.9537 15.358 17.18 15.4517 17.3468 15.6186C17.5137 15.7854 17.6074 16.0117 17.6074 16.2476V19.3802H19.3802ZM11.9967 13.0642C12.2798 13.0642 12.5513 12.9517 12.7515 12.7515C12.9517 12.5513 13.0642 12.2798 13.0642 11.9967C13.0642 11.4057 12.5876 10.9228 11.9967 10.9228C11.7119 10.9228 11.4387 11.036 11.2373 11.2373C11.036 11.4387 10.9228 11.7119 10.9228 11.9967C10.9228 12.5876 11.4057 13.0642 11.9967 13.0642ZM12.8799 19.3802V14.0618H11.1198V19.3802H12.8799Z" fill="white"/>
</svg>
