<svg width="146" height="14" viewBox="0 0 146 14" fill="none" xmlns="http://www.w3.org/2000/svg">
<g clip-path="url(#clip0_45_668)">
<path d="M26.6997 2.91845C53.845 1.29055 80.9651 2.58792 108.069 3.80895C118.925 4.29801 129.696 5.01676 139.964 6.72923C141.452 6.97749 142.843 7.1871 144.381 7.84649C139.011 8.54983 133.708 8.40623 128.448 8.2126C122.959 8.01053 117.513 7.75634 112.118 8.37379L112.125 8.79757C120.562 9.4987 129 10.199 137.438 10.9001L137.428 10.9345C131.802 10.7983 126.166 10.7555 120.574 10.5046C84.6523 8.89292 48.7394 7.82812 12.8539 9.98117C11.9518 10.0353 11.0814 10.1415 10.2164 10.1183C9.78607 10.1068 9.32485 10.1448 8.86709 10.1934C8.40389 10.2426 7.94966 10.3018 7.51129 10.336C7.07455 10.3701 6.67138 10.3775 6.32143 10.3277C5.97192 10.2781 5.69101 10.1732 5.4835 9.99495C5.39919 9.9225 5.38253 9.88203 5.37944 9.87202C5.37901 9.88663 5.36853 9.86794 5.43694 9.81714C5.50479 9.76684 5.61432 9.7133 5.76484 9.65718C5.91257 9.6021 6.08653 9.54896 6.27633 9.49547C6.64856 9.39057 7.08726 9.28159 7.44546 9.15348C7.62589 9.08893 7.79737 9.01502 7.93809 8.92866C8.07536 8.84441 8.20837 8.73339 8.2759 8.58194L8.346 8.42522L8.20623 8.32353C7.7232 7.97156 7.01984 7.86616 6.33507 7.80644C5.62372 7.74441 4.92131 7.73008 4.33536 7.59866C3.95198 7.5127 3.48854 7.46733 3.02118 7.43175C2.54737 7.39569 2.0713 7.36995 1.63787 7.32387C1.20189 7.27751 0.838458 7.21299 0.591366 7.11054C0.468842 7.05974 0.390761 7.00575 0.34598 6.95432C0.306282 6.90862 0.287825 6.8605 0.291044 6.79719C0.296742 6.68769 0.370257 6.55375 0.565321 6.39998C0.757585 6.24848 1.03919 6.10203 1.39169 5.96527C2.09506 5.69241 3.03313 5.47592 3.97207 5.32427C11.2894 4.14252 18.9351 3.3841 26.6997 2.91845Z" fill="#3EAAFF" stroke="#3EAAFF" stroke-width="0.425347"/>
</g>
<defs>
<clipPath id="clip0_45_668">
<rect width="145" height="11" fill="white" transform="translate(0 2.92239) rotate(-1.15484)"/>
</clipPath>
</defs>
</svg>
