<svg width="115" height="66" viewBox="0 0 115 66" fill="none" xmlns="http://www.w3.org/2000/svg">
<g clip-path="url(#clip0_2098_1323)">
<g opacity="0.75">
<mask id="mask0_2098_1323" style="mask-type:luminance" maskUnits="userSpaceOnUse" x="0" y="0" width="115" height="66">
<path d="M114.905 0H0V66H114.905V0Z" fill="white"/>
</mask>
<g mask="url(#mask0_2098_1323)">
<path d="M113.952 1.89999H30.4118C30.1705 1.88432 29.9442 1.77742 29.7789 1.60098C29.6135 1.42454 29.5215 1.1918 29.5215 0.949986C29.5215 0.708176 29.6135 0.475428 29.7789 0.298991C29.9442 0.122554 30.1705 0.0156519 30.4118 -1.40879e-05H113.952C114.082 -0.00845016 114.212 0.00986022 114.335 0.0537847C114.457 0.0977093 114.569 0.166314 114.664 0.255356C114.759 0.344399 114.835 0.451986 114.887 0.571464C114.939 0.690943 114.965 0.819772 114.965 0.949986C114.965 1.0802 114.939 1.20903 114.887 1.32851C114.835 1.44799 114.759 1.55557 114.664 1.64462C114.569 1.73366 114.457 1.80226 114.335 1.84619C114.212 1.89011 114.082 1.90842 113.952 1.89999Z" fill="#050404"/>
<path d="M80.3934 17.608H39.6934C39.5634 17.6164 39.4331 17.5981 39.3106 17.5542C39.188 17.5103 39.0757 17.4417 38.9807 17.3526C38.8857 17.2636 38.81 17.156 38.7582 17.0365C38.7064 16.917 38.6797 16.7882 38.6797 16.658C38.6797 16.5278 38.7064 16.399 38.7582 16.2795C38.81 16.16 38.8857 16.0524 38.9807 15.9634C39.0757 15.8743 39.188 15.8057 39.3106 15.7618C39.4331 15.7179 39.5634 15.6996 39.6934 15.708H80.3934C80.6347 15.7237 80.861 15.8306 81.0263 16.007C81.1917 16.1834 81.2837 16.4162 81.2837 16.658C81.2837 16.8998 81.1917 17.1326 81.0263 17.309C80.861 17.4854 80.6347 17.5923 80.3934 17.608Z" fill="#050404"/>
<path d="M93.9595 9.75399H43.2595C43.0182 9.73833 42.7919 9.63142 42.6265 9.45498C42.4612 9.27855 42.3691 9.0458 42.3691 8.80399C42.3691 8.56218 42.4612 8.32943 42.6265 8.15299C42.7919 7.97656 43.0182 7.86966 43.2595 7.85399H93.9595C94.0894 7.84555 94.2197 7.86386 94.3423 7.90779C94.4649 7.95171 94.5771 8.02032 94.6721 8.10936C94.7671 8.1984 94.8429 8.30599 94.8947 8.42547C94.9464 8.54495 94.9731 8.67378 94.9731 8.80399C94.9731 8.9342 94.9464 9.06303 94.8947 9.18251C94.8429 9.30199 94.7671 9.40958 94.6721 9.49862C94.5771 9.58766 94.4649 9.65627 94.3423 9.70019C94.2197 9.74412 94.0894 9.76243 93.9595 9.75399Z" fill="#050404"/>
<path d="M106.336 25.939H25.4138C25.1725 25.9233 24.9462 25.8164 24.7808 25.64C24.6155 25.4636 24.5234 25.2308 24.5234 24.989C24.5234 24.7472 24.6155 24.5144 24.7808 24.338C24.9462 24.1616 25.1725 24.0547 25.4138 24.039H106.336C106.577 24.0547 106.803 24.1616 106.969 24.338C107.134 24.5144 107.226 24.7472 107.226 24.989C107.226 25.2308 107.134 25.4636 106.969 25.64C106.803 25.8164 106.577 25.9233 106.336 25.939Z" fill="#050404"/>
<path d="M28.1265 36.9C27.8445 36.593 27.7125 36.438 27.5685 36.294C24.3812 33.1033 21.1952 29.9113 18.0105 26.718C17.8759 26.5517 17.6931 26.431 17.4872 26.3727C17.2813 26.3143 17.0624 26.321 16.8605 26.392C14.7676 26.9494 12.571 26.9919 10.4581 26.5159C8.34523 26.0399 6.37898 25.0595 4.72727 23.6586C3.07557 22.2576 1.78751 20.4777 0.973111 18.4708C0.158709 16.464 -0.157832 14.2898 0.0505242 12.134C0.377557 9.01492 1.77455 6.10531 4.00408 3.89966C6.2336 1.69402 9.1581 0.328437 12.2805 0.0350116C15.5473 -0.229824 18.7989 0.702814 21.4286 2.65894C24.0584 4.61506 25.8867 7.46107 26.5725 10.666C26.7424 11.6813 26.852 12.7058 26.9005 13.734C27.1765 13.775 27.3005 13.572 27.4605 13.465C28.3836 12.8072 29.4706 12.4176 30.6014 12.3392C31.7322 12.2609 32.8625 12.4968 33.8675 13.021C34.1335 13.148 34.4195 13.543 34.6675 12.921C35.0342 12.0564 35.5926 11.2864 36.3004 10.6691C37.0082 10.0518 37.847 9.60344 38.7535 9.35776C39.6599 9.11208 40.6103 9.07553 41.533 9.25089C42.4556 9.42624 43.3264 9.80891 44.0795 10.37C44.3525 10.247 44.3515 9.94601 44.4625 9.72701C44.8816 8.86961 45.4952 8.12194 46.2543 7.54354C47.0134 6.96514 47.8971 6.572 48.835 6.39544C49.7728 6.21888 50.739 6.26377 51.6564 6.52654C52.5739 6.78932 53.4173 7.26271 54.1195 7.90901C56.8195 10.451 59.3855 13.132 61.9815 15.78C62.8404 16.7257 63.5204 17.8194 63.9885 19.008C65.2275 21.822 66.4885 24.625 67.7165 27.446C68.2738 28.6931 69.0714 29.8182 70.0635 30.757C70.1666 30.8938 70.3193 30.9847 70.4887 31.0102C70.6582 31.0356 70.8308 30.9935 70.9695 30.893C72.2505 30.1779 73.7351 29.9153 75.1837 30.1475C76.6322 30.3797 77.9603 31.0933 78.9535 32.173C80.0335 33.233 81.1065 34.3 82.1625 35.384C82.7923 35.9865 83.2944 36.7095 83.6391 37.5101C83.9838 38.3106 84.164 39.1722 84.1689 40.0438C84.1739 40.9153 84.0035 41.779 83.6679 42.5833C83.3323 43.3877 82.8384 44.1164 82.2155 44.726C75.8049 51.1967 69.3635 57.6373 62.8915 64.048C62.2869 64.6653 61.5651 65.1556 60.7685 65.4904C59.972 65.8252 59.1166 65.9976 58.2525 65.9976C57.3885 65.9976 56.5331 65.8252 55.7365 65.4904C54.9399 65.1556 54.2182 64.6653 53.6135 64.048C52.4375 62.917 51.2875 61.758 50.1525 60.586C49.1777 59.6167 48.5376 58.3616 48.3252 57.0034C48.1128 55.6452 48.3392 54.2547 48.9715 53.034C49.2365 52.506 49.1385 52.277 48.7045 51.969C47.5282 51.1027 46.1314 50.5855 44.6745 50.477C38.7835 50.1 32.8915 49.746 26.9995 49.376C25.9317 49.3724 24.8672 49.2592 23.8225 49.038C22.3894 48.6526 21.143 47.7641 20.3114 46.535C19.4797 45.3059 19.1184 43.8185 19.2936 42.3448C19.4688 40.8712 20.1688 39.5099 21.2654 38.5101C22.362 37.5102 23.782 36.9387 25.2655 36.9C26.1475 36.877 27.0295 36.9 28.1265 36.9ZM53.0605 61.014C53.5115 61.483 53.9535 61.96 54.4135 62.42C56.8615 64.867 59.5765 64.859 62.0425 62.395C66.4692 57.973 70.8939 53.5493 75.3165 49.124C77.1825 47.258 79.0655 45.408 80.9085 43.524C81.7943 42.6691 82.3151 41.5047 82.3619 40.2745C82.4087 39.0443 81.9778 37.8437 81.1595 36.924C80.5325 36.218 79.8155 35.592 79.1405 34.93C78.6705 34.439 78.2125 33.936 77.7285 33.459C77.2743 32.9448 76.7152 32.5339 76.0889 32.2537C75.4626 31.9736 74.7836 31.8309 74.0975 31.835C73.4115 31.8392 72.7342 31.9902 72.1114 32.2779C71.4885 32.5656 70.9345 32.9833 70.4865 33.503C68.2645 35.725 66.0432 37.9477 63.8225 40.171C59.7352 44.257 55.6475 48.3423 51.5595 52.427C51.0596 52.8737 50.659 53.4203 50.3837 54.0316C50.1083 54.6428 49.9644 55.3051 49.9612 55.9755C49.958 56.6458 50.0956 57.3094 50.3651 57.9233C50.6345 58.5372 51.0299 59.0876 51.5255 59.539C52.0255 60.046 52.5475 60.523 53.0605 61.014ZM32.3105 38.444L32.1845 38.691H31.5995C29.4925 38.691 27.3835 38.662 25.2775 38.709C24.1369 38.7327 23.0515 39.205 22.2569 40.0236C21.4622 40.8423 21.0223 41.9412 21.0325 43.082C21.0014 44.2107 21.4171 45.306 22.1891 46.1299C22.9612 46.9539 24.0272 47.4398 25.1555 47.482C31.4305 47.921 37.7095 48.298 43.9895 48.662C46.1074 48.7046 48.1571 49.4182 49.8435 50.7C50.2785 51.046 50.4855 50.99 50.8435 50.626C56.7729 44.6707 62.7122 38.7287 68.6615 32.8C69.0415 32.422 69.0935 32.21 68.6695 31.833C67.4532 30.6941 66.5068 29.2977 65.8995 27.746C64.7555 25.081 63.5525 22.446 62.3835 19.789C62.0175 18.8151 61.4785 17.9153 60.7925 17.133C58.1545 14.441 55.5525 11.708 52.7925 9.14601C52.2456 8.67325 51.5894 8.34428 50.8834 8.18888C50.1773 8.03348 49.4437 8.05654 48.7488 8.25597C48.0539 8.45541 47.4197 8.82492 46.9035 9.3311C46.3873 9.83728 46.0055 10.4642 45.7925 11.155C45.7013 11.3526 45.6788 11.575 45.7287 11.7869C45.7785 11.9987 45.8978 12.1878 46.0675 12.324C47.0445 13.233 47.9675 14.198 48.9155 15.142C49.6715 15.897 50.4325 16.642 51.1805 17.41C51.2763 17.4832 51.3546 17.5768 51.4098 17.6839C51.465 17.791 51.4957 17.9091 51.4997 18.0296C51.5037 18.15 51.481 18.2699 51.433 18.3805C51.3851 18.491 51.3132 18.5896 51.2225 18.669C51.1421 18.7582 51.0442 18.8298 50.9349 18.8796C50.8256 18.9294 50.7073 18.9563 50.5872 18.9585C50.4672 18.9608 50.3479 18.9384 50.2368 18.8927C50.1258 18.847 50.0253 18.7791 49.9415 18.693C49.7633 18.536 49.594 18.369 49.4345 18.193C47.4345 16.202 45.4705 14.181 43.4345 12.228C42.9291 11.7216 42.3077 11.3462 41.6242 11.1346C40.9407 10.9229 40.2159 10.8814 39.5127 11.0135C38.8096 11.1457 38.1493 11.4476 37.5893 11.8929C37.0293 12.3383 36.5866 12.9136 36.2995 13.569C36.117 13.8661 36.052 14.2206 36.1171 14.5631C36.1822 14.9057 36.3728 15.2116 36.6515 15.421C39.0245 17.706 41.3265 20.064 43.6595 22.389C44.0975 22.825 44.2675 23.3 43.8075 23.789C43.3475 24.278 42.8555 24.145 42.4165 23.696C42.0845 23.357 41.7465 23.023 41.4105 22.687C38.9975 20.273 36.6105 17.834 34.1635 15.453C33.651 14.9223 33.0133 14.529 32.309 14.3093C31.6048 14.0895 30.8565 14.0504 30.1332 14.1955C29.4098 14.3406 28.7346 14.6652 28.1695 15.1396C27.6044 15.6139 27.1677 16.2227 26.8995 16.91C26.7617 17.1653 26.7174 17.4608 26.7744 17.7453C26.8313 18.0298 26.986 18.2855 27.2115 18.468C30.2185 21.421 33.1845 24.416 36.1665 27.394C36.6265 27.853 36.9665 28.365 36.3825 28.914C35.8625 29.398 35.3575 29.142 34.9095 28.693C31.3435 25.1237 27.7749 21.557 24.2035 17.993C21.5585 15.349 18.9335 12.685 16.2705 10.059C15.8604 9.62265 15.3658 9.27421 14.8168 9.03486C14.2678 8.79551 13.6759 8.67024 13.0771 8.66666C12.4782 8.66309 11.8849 8.78127 11.3331 9.01405C10.7813 9.24683 10.2826 9.58933 9.86721 10.0208C9.45186 10.4522 9.12853 10.9636 8.91687 11.5238C8.70521 12.084 8.60963 12.6814 8.63594 13.2797C8.66225 13.878 8.8099 14.4647 9.06992 15.0042C9.32994 15.5437 9.6969 16.0247 10.1485 16.418C17.2365 23.516 24.3295 30.61 31.4275 37.7C31.6995 37.972 32.0155 38.2 32.3105 38.449M24.6935 15.9C25.7875 12.452 24.5465 6.83201 19.8705 3.72201C17.646 2.24158 14.98 1.57103 12.3198 1.82279C9.65955 2.07455 7.16675 3.23332 5.25941 5.10478C3.35208 6.97625 2.1462 9.4466 1.84398 12.1016C1.54176 14.7566 2.16159 17.4348 3.59952 19.687C4.90176 21.7371 6.82275 23.3194 9.0843 24.2049C11.3458 25.0903 13.8305 25.2329 16.1785 24.612C15.8766 24.4449 15.5895 24.2522 15.3205 24.036C13.0885 21.82 10.8355 19.623 8.65452 17.358C7.5374 16.1796 6.9287 14.609 6.9599 12.9855C6.9911 11.362 7.6597 9.81594 8.82127 8.68129C9.98285 7.54664 11.5442 6.91447 13.1679 6.92134C14.7917 6.92821 16.3476 7.57357 17.4995 8.71801C19.9115 11.081 22.2785 13.49 24.6885 15.903" fill="#050404"/>
<mask id="mask1_2098_1323" style="mask-type:luminance" maskUnits="userSpaceOnUse" x="8" y="8" width="61" height="43">
<path d="M68.9669 8.065H8.62891V50.928H68.9669V8.065Z" fill="white"/>
</mask>
<g mask="url(#mask1_2098_1323)">
<path d="M32.3094 38.444C32.0094 38.195 31.6984 37.967 31.4264 37.695C24.3304 30.6056 17.2381 23.513 10.1494 16.417C9.69557 16.0246 9.32642 15.5438 9.06446 15.0041C8.8025 14.4643 8.65323 13.8768 8.62573 13.2775C8.59824 12.6782 8.69311 12.0795 8.90456 11.518C9.116 10.9566 9.43959 10.4441 9.85559 10.0117C10.2716 9.57941 10.7713 9.23635 11.3242 9.00347C11.8771 8.77059 12.4717 8.65277 13.0716 8.65719C13.6716 8.66161 14.2644 8.78818 14.8138 9.02918C15.3632 9.27019 15.8578 9.62058 16.2674 10.059C18.9304 12.685 21.5554 15.348 24.2004 17.993C27.7684 21.5603 31.3371 25.127 34.9064 28.693C35.3544 29.142 35.8594 29.399 36.3794 28.914C36.9684 28.365 36.6234 27.853 36.1634 27.394C33.1814 24.416 30.2154 21.421 27.2084 18.468C26.9829 18.2854 26.8282 18.0298 26.7712 17.7453C26.7143 17.4608 26.7585 17.1653 26.8964 16.91C27.1639 16.2212 27.6006 15.6109 28.1661 15.1353C28.7316 14.6598 29.4078 14.3343 30.1323 14.1889C30.8567 14.0436 31.6061 14.083 32.3113 14.3035C33.0166 14.5241 33.6549 14.9187 34.1674 15.451C36.6124 17.832 39.0014 20.271 41.4144 22.685C41.7504 23.021 42.0884 23.355 42.4204 23.694C42.8594 24.143 43.3464 24.278 43.8104 23.787C44.2744 23.296 44.1004 22.825 43.6624 22.387C41.3284 20.061 39.0274 17.703 36.6544 15.419C36.3756 15.2095 36.1851 14.9036 36.12 14.5611C36.0549 14.2186 36.1199 13.8641 36.3024 13.567C36.5894 12.9114 37.0322 12.3359 37.5922 11.8904C38.1523 11.4449 38.8127 11.1429 39.516 11.0108C40.2194 10.8786 40.9443 10.9202 41.6279 11.132C42.3115 11.3438 42.933 11.7193 43.4384 12.226C45.4714 14.18 47.4384 16.2 49.4384 18.192C49.5979 18.368 49.7672 18.5349 49.9454 18.692C50.0291 18.778 50.1297 18.846 50.2407 18.8917C50.3518 18.9374 50.471 18.9598 50.5911 18.9575C50.7112 18.9553 50.8295 18.9284 50.9388 18.8786C51.048 18.8288 51.1459 18.7571 51.2264 18.668C51.3171 18.5886 51.389 18.49 51.4369 18.3794C51.4848 18.2688 51.5076 18.149 51.5036 18.0285C51.4996 17.9081 51.4689 17.79 51.4137 17.6829C51.3585 17.5757 51.2801 17.4822 51.1844 17.409C50.4364 16.646 49.6764 15.896 48.9194 15.141C47.9734 14.198 47.0484 13.233 46.0714 12.323C45.9017 12.1868 45.7824 11.9977 45.7326 11.7858C45.6827 11.574 45.7052 11.3516 45.7964 11.154C46.0094 10.4631 46.3912 9.83625 46.9074 9.33007C47.4236 8.82389 48.0578 8.45437 48.7527 8.25494C49.4476 8.0555 50.1812 8.03244 50.8872 8.18785C51.5933 8.34325 52.2495 8.67221 52.7964 9.14498C55.5574 11.706 58.1604 14.44 60.7964 17.131C61.4823 17.9133 62.0213 18.8131 62.3874 19.787C63.5564 22.441 64.7594 25.08 65.9034 27.744C66.5089 29.2951 67.4532 30.6915 68.6674 31.831C69.0924 32.208 69.0394 32.42 68.6594 32.798C62.7101 38.7273 56.7727 44.6686 50.8474 50.622C50.4854 50.986 50.2774 51.042 49.8474 50.696C48.1601 49.4136 46.1093 48.7 43.9904 48.658C37.7104 48.295 31.4314 47.917 25.1564 47.478C24.0281 47.4357 22.962 46.9498 22.19 46.1259C21.4179 45.302 21.0023 44.2067 21.0334 43.078C21.0234 41.9373 21.4634 40.8387 22.2581 40.0202C23.0527 39.2018 24.1379 38.7296 25.2784 38.706C27.3844 38.659 29.4934 38.691 31.6004 38.688H32.1884L32.3144 38.441" fill="white"/>
</g>
<mask id="mask2_2098_1323" style="mask-type:luminance" maskUnits="userSpaceOnUse" x="53" y="34" width="30" height="31">
<path d="M82.3666 34.924H53.0586V64.249H82.3666V34.924Z" fill="white"/>
</mask>
<g mask="url(#mask2_2098_1323)">
<path d="M79.1396 34.924C79.8156 35.586 80.5326 36.212 81.1586 36.918C81.9769 37.8378 82.4077 39.0384 82.3609 40.2685C82.3141 41.4987 81.7934 42.6631 80.9076 43.518C79.0646 45.407 77.1816 47.256 75.3146 49.118C70.8906 53.542 66.4659 57.966 62.0406 62.39C59.5746 64.853 56.8596 64.861 54.4116 62.415C53.9516 61.955 53.5116 61.478 53.0586 61.009C53.2806 60.809 53.5146 60.631 53.7226 60.422C62.0033 52.1454 70.2819 43.8667 78.5586 35.586C78.7666 35.378 78.9456 35.142 79.1386 34.918" fill="#0551A4"/>
</g>
<mask id="mask3_2098_1323" style="mask-type:luminance" maskUnits="userSpaceOnUse" x="49" y="31" width="31" height="31">
<path d="M79.1409 31.829H49.9609V61.014H79.1409V31.829Z" fill="white"/>
</mask>
<g mask="url(#mask3_2098_1323)">
<path d="M79.1423 34.924C78.9493 35.147 78.7703 35.384 78.5623 35.592C70.2856 43.8727 62.0069 52.1514 53.7263 60.428C53.5183 60.636 53.2843 60.82 53.0623 61.015C52.5503 60.524 52.0233 60.048 51.5273 59.54C51.0316 59.0886 50.6363 58.5382 50.3668 57.9243C50.0973 57.3105 49.9597 56.6469 49.9629 55.9765C49.9662 55.3061 50.1101 54.6438 50.3854 54.0326C50.6607 53.4213 51.0613 52.8747 51.5613 52.428C55.6446 48.336 59.7326 44.2487 63.8253 40.166C66.0473 37.944 68.2686 35.7214 70.4893 33.498C70.9372 32.9784 71.4912 32.5607 72.1141 32.2729C72.737 31.9852 73.4142 31.8342 74.1003 31.83C74.7863 31.8259 75.4654 31.9687 76.0917 32.2488C76.718 32.5289 77.277 32.9399 77.7313 33.454C78.2153 33.93 78.6733 34.434 79.1423 34.924Z" fill="#0551A4"/>
</g>
<mask id="mask4_2098_1323" style="mask-type:luminance" maskUnits="userSpaceOnUse" x="1" y="1" width="25" height="25">
<path d="M25.0651 1.79102H1.78711V25.021H25.0651V1.79102Z" fill="white"/>
</mask>
<g mask="url(#mask4_2098_1323)">
<path d="M24.6933 15.903C22.2823 13.49 19.9163 11.081 17.5043 8.71799C16.3542 7.5648 14.7956 6.91196 13.167 6.90127C11.5384 6.89058 9.97129 7.5229 8.80616 8.66089C7.64104 9.79889 6.97197 11.3506 6.94429 12.9791C6.91661 14.6075 7.53256 16.1811 8.65833 17.358C10.8393 19.624 13.0923 21.82 15.3243 24.036C15.5933 24.2522 15.8804 24.4449 16.1823 24.612C13.8343 25.2329 11.3497 25.0903 9.08811 24.2049C6.82656 23.3194 4.90557 21.7371 3.60333 19.687C2.16876 17.435 1.55142 14.7586 1.85469 12.1058C2.15797 9.45298 3.36344 6.9849 5.26925 5.11483C7.17506 3.24475 9.6655 2.0862 12.3236 1.83319C14.9816 1.58018 17.6459 2.24806 19.8703 3.72499C24.5463 6.83499 25.7873 12.454 24.6933 15.903Z" fill="#0070E5"/>
</g>
</g>
</g>
</g>
<defs>
<clipPath id="clip0_2098_1323">
<rect width="114.905" height="66" fill="white"/>
</clipPath>
</defs>
</svg>
