<svg width="271" height="11" viewBox="0 0 271 11" fill="none" xmlns="http://www.w3.org/2000/svg">
<g clip-path="url(#clip0_45_666)">
<path d="M68.5684 2.53418C119.371 1.4533 170.013 3.29751 220.61 5.06445C240.88 5.77229 260.993 6.70907 280.132 8.62988C282.881 8.90583 285.487 9.14361 288.346 9.83105C278.251 10.4293 268.319 10.1777 258.491 9.87793C248.236 9.56508 238.092 9.20266 228.013 9.70996L228.012 10.1348C243.797 11.0083 259.582 11.8813 275.367 12.7549L275.35 12.7842C264.79 12.5322 254.192 12.3765 243.688 12.0107C176.628 9.67547 109.574 7.88737 42.4531 9.31641C40.789 9.35184 39.1265 9.44142 37.4951 9.40039C35.9359 9.36121 34.0989 9.5119 32.4619 9.5625C31.6376 9.58797 30.8601 9.58869 30.1777 9.5293C29.4925 9.46964 28.9195 9.35116 28.4961 9.14844C28.43 9.11681 28.3821 9.08852 28.3477 9.06543C28.3706 9.05402 28.3994 9.04171 28.4346 9.02832C28.7567 8.90586 29.3717 8.80433 30.0986 8.70312C30.8116 8.60387 31.6168 8.5065 32.2793 8.3877C32.6108 8.32825 32.9145 8.26133 33.1592 8.18457C33.2816 8.14615 33.3947 8.10361 33.4902 8.05566C33.5834 8.00888 33.6738 7.95058 33.7402 7.875L33.9375 7.65039L33.6602 7.53809C32.8319 7.20113 31.5928 7.08344 30.3125 7.00977C29.0144 6.93508 27.6617 6.90513 26.5479 6.75879C25.1753 6.57845 23.1614 6.54196 21.5488 6.43262C20.7332 6.3773 20.0215 6.30388 19.5254 6.1875C19.2752 6.12881 19.0993 6.06331 18.9941 5.99609C18.8944 5.93228 18.9014 5.89825 18.9023 5.89355C18.905 5.87367 18.924 5.82281 19.0205 5.74707C19.1144 5.67339 19.2579 5.59499 19.4541 5.51562C19.8452 5.35741 20.4035 5.21121 21.0801 5.0791C22.4302 4.81549 24.2126 4.61577 25.9814 4.48242C39.7104 3.44752 54.0351 2.84339 68.5684 2.53418Z" fill="#3EAAFF" stroke="#3EAAFF" stroke-width="0.425347"/>
</g>
<defs>
<clipPath id="clip0_45_666">
<rect width="271" height="11" fill="white"/>
</clipPath>
</defs>
</svg>
