<svg width="30" height="30" viewBox="0 0 30 30" fill="none" xmlns="http://www.w3.org/2000/svg">
<path d="M15.5 25.4895C15.319 25.493 15.1365 25.449 14.9755 25.3495C14.511 25.0635 14.3695 24.4425 14.649 23.9785C14.6725 23.9375 17.592 19.0655 23.165 15.9995H1.5C0.9485 15.9995 0.5 15.551 0.5 14.9995C0.5 14.448 0.9485 13.9995 1.5 13.9995H23.165C17.623 10.951 14.6705 6.05751 14.6415 6.00851C14.368 5.54151 14.5195 4.92001 14.986 4.64351C15.459 4.36301 16.082 4.52551 16.3645 5.00101C16.819 5.72601 21.081 12.2255 28.7255 14.024C29.183 14.1365 29.5 14.537 29.5 15C29.5 15.463 29.185 15.8645 28.734 15.974C21.057 17.779 16.8095 24.287 16.3505 25.0235C16.1705 25.312 15.8375 25.483 15.5 25.4895Z" fill="#3EAAFF"/>
</svg>
