<svg width="15" height="15" viewBox="0 0 15 15" fill="none" xmlns="http://www.w3.org/2000/svg">
<path d="M14.9148 5.41536C14.817 5.11256 14.5484 4.89749 14.2306 4.86886L9.91455 4.47695L8.20786 0.482265C8.08202 0.189506 7.79542 -8.27385e-08 7.47699 -7.93588e-08C7.15856 -7.5979e-08 6.87196 0.189506 6.74612 0.48295L5.03942 4.47695L0.722654 4.86886C0.40548 4.89818 0.137593 5.11256 0.0391316 5.41536C-0.0593294 5.71815 0.0316015 6.05028 0.271536 6.25963L3.53398 9.12082L2.57196 13.3585C2.50157 13.6701 2.62251 13.9922 2.88104 14.1791C3.02 14.2795 3.18258 14.3306 3.34653 14.3306C3.48789 14.3306 3.62811 14.2925 3.75395 14.2172L7.47699 11.9921L11.1987 14.2172C11.471 14.381 11.8143 14.3661 12.0723 14.1791C12.3309 13.9916 12.4517 13.6694 12.3813 13.3585L11.4193 9.12082L14.6818 6.2602C14.9217 6.05028 15.0133 5.71873 14.9148 5.41536Z" fill="white"/>
</svg>
