<svg width="81" height="77" viewBox="0 0 81 77" fill="none" xmlns="http://www.w3.org/2000/svg">
<path d="M2 31.6721C2 15.2847 15.214 2 31.5143 2H49.2881C65.5885 2 78.8024 15.2847 78.8024 31.6721C78.8024 48.0596 65.5885 61.3443 49.2881 61.3443H44.8446V74.2498C44.8446 74.2498 19.3456 66.1413 7.95031 49.5416C4.21515 44.5712 2 38.382 2 31.6721Z" stroke="#3EAAFF" stroke-width="4" stroke-linecap="round" stroke-linejoin="round"/>
<path d="M2 31.6721C2 15.2847 15.214 2 31.5143 2H49.2881C65.5885 2 78.8024 15.2847 78.8024 31.6721C78.8024 48.0596 65.5885 61.3443 49.2881 61.3443H44.8446V74.2498C44.8446 74.2498 19.3456 66.1413 7.95031 49.5416C4.21515 44.5712 2 38.382 2 31.6721Z" stroke="#3EAAFF" stroke-width="4" stroke-linecap="round" stroke-linejoin="round"/>
<path d="M2 31.6721C2 15.2847 15.214 2 31.5143 2H49.2881C65.5885 2 78.8024 15.2847 78.8024 31.6721C78.8024 48.0596 65.5885 61.3443 49.2881 61.3443H44.8446V74.2498C44.8446 74.2498 19.3456 66.1413 7.95031 49.5416C4.21515 44.5712 2 38.382 2 31.6721Z" fill="#3EAAFF" stroke="#3EAAFF" stroke-width="4" stroke-linecap="round" stroke-linejoin="round"/>
<g clip-path="url(#clip0_2004_1474)">
<path d="M23.9057 38.4463L35.9162 16.3678C37.8459 13.1191 42.5499 13.1148 44.4822 16.3678L56.4922 38.4463C58.4649 41.7659 56.0766 45.9695 52.2102 45.9695H28.1887C24.3255 45.9695 21.933 41.7693 23.9057 38.4463ZM40.1992 41.9851C41.2975 41.9851 42.1914 41.0912 42.1914 39.993C42.1914 38.8947 41.2975 38.0008 40.1992 38.0008C39.101 38.0008 38.207 38.8947 38.207 39.993C38.207 41.0912 39.101 41.9851 40.1992 41.9851ZM38.207 34.0164C38.207 35.1146 39.101 36.0086 40.1992 36.0086C41.2975 36.0086 42.1914 35.1146 42.1914 34.0164V24.0555C42.1914 22.9572 41.2975 22.0633 40.1992 22.0633C39.101 22.0633 38.207 22.9572 38.207 24.0555V34.0164Z" fill="white"/>
</g>
<defs>
<clipPath id="clip0_2004_1474">
<rect width="34" height="34" fill="white" transform="matrix(-1 0 0 1 57.1992 12.9497)"/>
</clipPath>
</defs>
</svg>
