<svg width="35" height="35" viewBox="0 0 35 35" fill="none" xmlns="http://www.w3.org/2000/svg">
<rect width="35" height="35" rx="17.5" fill="#3EAAFF"/>
<path d="M24.9148 15.4154C24.817 15.1126 24.5484 14.8975 24.2306 14.8689L19.9146 14.477L18.2079 10.4823C18.082 10.1895 17.7954 10 17.477 10C17.1586 10 16.872 10.1895 16.7461 10.4829L15.0394 14.477L10.7227 14.8689C10.4055 14.8982 10.1376 15.1126 10.0391 15.4154C9.94067 15.7182 10.0316 16.0503 10.2715 16.2596L13.534 19.1208L12.572 23.3585C12.5016 23.6701 12.6225 23.9922 12.881 24.1791C13.02 24.2795 13.1826 24.3306 13.3465 24.3306C13.4879 24.3306 13.6281 24.2925 13.754 24.2172L17.477 21.9921L21.1987 24.2172C21.471 24.381 21.8143 24.3661 22.0723 24.1791C22.3309 23.9916 22.4517 23.6694 22.3813 23.3585L21.4193 19.1208L24.6818 16.2602C24.9217 16.0503 25.0133 15.7187 24.9148 15.4154Z" fill="white"/>
</svg>
