<svg width="373" height="187" viewBox="0 0 373 187" fill="none" xmlns="http://www.w3.org/2000/svg">
<g filter="url(#filter0_i_328_1066)">
<g clip-path="url(#clip0_328_1066)">
<rect width="373" height="187" rx="13.2075" fill="url(#paint0_linear_328_1066)"/>
<g opacity="0.7">
<circle cx="23.2572" cy="18.8847" r="1.62441" fill="white" fill-opacity="0.5"/>
<circle cx="18.3842" cy="72.4906" r="1.62441" fill="white" fill-opacity="0.2"/>
<circle cx="132.093" cy="25.3827" r="1.62441" fill="white" fill-opacity="0.2"/>
<circle cx="71.9896" cy="113.1" r="1.62441" fill="white" fill-opacity="0.2"/>
<circle cx="130.468" cy="77.3637" r="1.62441" fill="white" fill-opacity="0.2"/>
<circle cx="84.9857" cy="49.7489" r="1.62441" fill="white" fill-opacity="0.2"/>
<circle cx="88.2338" cy="4.26503" r="1.62441" fill="white" fill-opacity="0.2"/>
<circle cx="149.96" cy="137.466" r="1.62441" fill="white" fill-opacity="0.2"/>
<circle cx="175.953" cy="77.3637" r="1.62441" fill="white" fill-opacity="0.2"/>
<circle cx="172.703" cy="27.0072" r="1.62441" fill="white" fill-opacity="0.5"/>
<circle cx="57.3705" cy="143.964" r="1.62441" fill="white" fill-opacity="0.2"/>
<circle cx="13.5111" cy="135.843" r="1.62441" fill="white" fill-opacity="0.5"/>
</g>
<g opacity="0.7">
<circle cx="354.479" cy="145.589" r="1.62441" transform="rotate(180 354.479 145.589)" fill="white" fill-opacity="0.5"/>
<circle cx="359.352" cy="91.983" r="1.62441" transform="rotate(180 359.352 91.983)" fill="white" fill-opacity="0.2"/>
<circle cx="305.747" cy="51.3731" r="1.62441" transform="rotate(180 305.747 51.3731)" fill="white" fill-opacity="0.2"/>
<circle cx="247.268" cy="87.11" r="1.62441" transform="rotate(180 247.268 87.11)" fill="white" fill-opacity="0.2"/>
<circle cx="292.751" cy="114.725" r="1.62441" transform="rotate(180 292.751 114.725)" fill="white" fill-opacity="0.2"/>
<circle cx="289.503" cy="160.209" r="1.62441" transform="rotate(180 289.503 160.209)" fill="white" fill-opacity="0.2"/>
<circle cx="227.776" cy="27.0074" r="1.62441" transform="rotate(180 227.776 27.0074)" fill="white" fill-opacity="0.2"/>
<circle cx="266.76" cy="4.26524" r="1.62441" transform="rotate(180 266.76 4.26524)" fill="white" fill-opacity="0.5"/>
<circle cx="201.784" cy="87.11" r="1.62441" transform="rotate(180 201.784 87.11)" fill="white" fill-opacity="0.2"/>
<circle cx="320.366" cy="20.5094" r="1.62441" transform="rotate(180 320.366 20.5094)" fill="white" fill-opacity="0.2"/>
<circle cx="364.225" cy="28.6315" r="1.62441" transform="rotate(180 364.225 28.6315)" fill="white" fill-opacity="0.5"/>
</g>
<g opacity="0.7">
<circle cx="23.2572" cy="166.87" r="1.62441" fill="white" fill-opacity="0.7"/>
<circle cx="88.2338" cy="152.251" r="1.62441" fill="white" fill-opacity="0.2"/>
</g>
<g opacity="0.7">
<circle cx="320.366" cy="168.496" r="1.62441" transform="rotate(180 320.366 168.496)" fill="white" fill-opacity="0.2"/>
<circle cx="364.225" cy="176.617" r="1.62441" transform="rotate(180 364.225 176.617)" fill="white" fill-opacity="0.7"/>
</g>
</g>
</g>
<defs>
<filter id="filter0_i_328_1066" x="0" y="-3.30189" width="373" height="190.302" filterUnits="userSpaceOnUse" color-interpolation-filters="sRGB">
<feFlood flood-opacity="0" result="BackgroundImageFix"/>
<feBlend mode="normal" in="SourceGraphic" in2="BackgroundImageFix" result="shape"/>
<feColorMatrix in="SourceAlpha" type="matrix" values="0 0 0 0 0 0 0 0 0 0 0 0 0 0 0 0 0 0 127 0" result="hardAlpha"/>
<feOffset dy="-3.30189"/>
<feGaussianBlur stdDeviation="24.434"/>
<feComposite in2="hardAlpha" operator="arithmetic" k2="-1" k3="1"/>
<feColorMatrix type="matrix" values="0 0 0 0 1 0 0 0 0 1 0 0 0 0 1 0 0 0 0.6 0"/>
<feBlend mode="normal" in2="shape" result="effect1_innerShadow_328_1066"/>
</filter>
<linearGradient id="paint0_linear_328_1066" x1="66.6328" y1="94" x2="313.133" y2="111" gradientUnits="userSpaceOnUse">
<stop stop-color="#0070E5"/>
<stop offset="1" stop-color="#C0DFFF"/>
</linearGradient>
<clipPath id="clip0_328_1066">
<rect width="373" height="187" rx="13.2075" fill="white"/>
</clipPath>
</defs>
</svg>
